<svg xmlns="http://www.w3.org/2000/svg" viewBox="0 0 762 762"><g transform="translate(133.5 332.3)"><path fill-rule="evenodd" clip-rule="evenodd" d="M294.5 30.7c12.7.7 25.7 1.8 37.4 7.6q1.6.8 3.3 1.9 2 1.5 4.3 2.3 3.4.4 7 .5 4 0 8 .7c2.1.8 2.2 2.8 2.4 4.8v1c0 2.2 0 4.2-2.4 5.4q-3.3.3-6.7.2h-3.1a92 92 0 0 1-11.5 52.3 82 82 0 0 1-43.9 37.2 79 79 0 0 1-77.4-14.3 89 89 0 0 1-28.7-44.5q-1.4-4.5-2-9-.8-4.8-2.3-9.5c-2-5.5-10.5-8.8-14.5-3.7-3.3 3.7-3.2 8-3.2 12.6v3.5a77 77 0 0 1-41.3 65.4 65 65 0 0 1-46.2 5.3A62 62 0 0 1 43 131.2 71 71 0 0 1 26.2 86l-1.5-.2c-1.4-.2-2.7-.3-3.4-2v-.4c-.4-2.2-.9-5.5 1.4-6.5q1.5-.8 3-1.3c2.2-1 4.4-1.8 6.2-3.5a89 89 0 0 1 37.6-17.4 152 152 0 0 1 69-.8c5.8 1.3 12 1.5 17.7-.5 7-2.4 14.9-3.5 22.3-2.5 5.8.5 11.9.3 17.4-1.9 12.1-4.6 24-9.1 36.6-12.3q30.5-7.8 62-6m-25 13c17.6-1 36-.8 53.3 3.7A19 19 0 0 1 337 62.9c1.3 7.9.3 15.5-1.3 23.3a81 81 0 0 1-24.7 39 73 73 0 0 1-81.6 9.6 80 80 0 0 1-33.2-32.9 61 61 0 0 1-6.4-35.5A98 98 0 0 1 210 56.1a215 215 0 0 1 59.5-12.4M134.7 63.5q-17.1-3.2-34.7-2a167 167 0 0 0-46.4 9.3 60 60 0 0 0-15 8c-4.1 2.9-5.5 9.2-5.7 13.9.3 8.9 3.6 17.8 8 25.5a56.4 56.4 0 0 0 66.6 25.6 68 68 0 0 0 46.7-62.1 47 47 0 0 0-1.5-10c-.2-1.7-1.7-2.5-3-3.3q-.4 0-.6-.3a58 58 0 0 0-14.4-4.6" fill="black"/></g></svg>
