<svg xmlns="http://www.w3.org/2000/svg" viewBox="0 0 762 762"><g transform="translate(133.5 332.3)"><path d="M205.8 92a28 28 0 1 1 31.2 46.3 27.6 27.6 0 0 1-43-22.3c-8.6-10.2-25.6-14-36.5-5.2-3.2 3-6.6 7.3-6.7 11.9a27.5 27.5 0 0 1-53 5.6 27.6 27.6 0 0 1 10.6-32.8 28 28 0 0 1 25.7-2.4 29 29 0 0 1 16 17.4 27 27 0 0 1 22.4-10c8.2-.1 15.4 3.2 22 8A29 29 0 0 1 205.8 92m-62.2 17.6a22 22 0 0 0-23-12.8 22 22 0 0 0-12.6 37.3c6.1 6 15.7 8 23.7 4.8 6.8-2.6 12.2-9 13.4-16.2.5-4.6.7-9-1.5-13.1m89.9-13.9c-5.8-3.5-13-4.1-19.3-2a22.5 22.5 0 0 0-14.1 27A22.6 22.6 0 0 0 226 137a22.6 22.6 0 0 0 7.4-41.3" fill="black"/></g></svg>
