<svg xmlns="http://www.w3.org/2000/svg" viewBox="0 0 762 762"><g transform="translate(133.5 332.3)"><path fill-rule="evenodd" clip-rule="evenodd" d="M282.5.8a79.9 79.9 0 0 1 39 141 80 80 0 0 1-92.5 6.4 80 80 0 0 1-38.2-69.3c-5-5.3-10.7-9.6-18.3-9.7-7.8 0-14.3 5.7-17.3 12.6.8 6.7 1.6 13.3.7 20A69.8 69.8 0 0 1 20 117.1a70 70 0 0 1 21-75.7 71 71 0 0 1 46.4-16.9c12 .5 24 3.7 34.3 9.9A70 70 0 0 1 152.5 72c4.9-5.7 11.3-10 19-10 7.4-.3 14.2 2.6 19.7 7.3a89 89 0 0 1 8-25A80 80 0 0 1 282.4.8M257 8.6a72.4 72.4 0 0 1 85.9 80 72.7 72.7 0 1 1-86-80m-147.4 28a62.6 62.6 0 1 0-37.9 118.8 64 64 0 0 0 45.8-6.6 63 63 0 0 0 30.2-41.9 63 63 0 0 0-38-70.4" fill="black"/></g></svg>
