<svg xmlns="http://www.w3.org/2000/svg" viewBox="0 0 762 762"><g transform="translate(133.5 332.3)"><path d="M274.5 1c10.7-.3 21.3 0 32-.3 14-.6 28-.3 42-.5 3.9.2 9-.2 12.2 2.3 2.4 1.7 2.2 5.6 2.4 8.2-.2 4.3-.3 9.4-2.4 13.3-5 2-11.4 1.2-16.8 1.9.4 12.3 1.7 24.6 1.3 36.8-.7 14-3.7 28-10.3 40.3-8.1 13-20 24.4-33.6 31.6a77 77 0 0 1-33.4 7.7c-6.2.2-12 .5-18.2-.8-9.4-2-18.8-4.5-27-10a82 82 0 0 1-25.3-30.7 193 193 0 0 1-13.3-44c-.5-2.2-2.4-3.4-4.3-4.4-6.7-3-15-.5-18.9 5.6q-.9 3.9-1.1 7.7c-.6 7.6-2.3 15.3-3.9 22.8-3.1 13.6-9 26.3-16.8 37.8a51 51 0 0 1-16.2 14.8 76 76 0 0 1-34.4 10.3c-7.3-.2-14.2-.4-21.1-2.5A58 58 0 0 1 37 124.2q-8-12.5-12.3-26.7a98 98 0 0 1-5.2-28.7c-4.6.7-9.4 2.2-14 2-4.4-1-5.3-7.7-5.5-11.2.1-2.4-.2-6.8 2.7-7.7a368 368 0 0 1 67.5-22.3c17-3.7 34.8-8.3 52.3-6.7 11.2 1 22.8 4 31.7 11 3.2 2.5 5.5 6.9 9.4 7.7 7 1.8 14.5-1.3 20.9-4a43 43 0 0 1 19-22.8 89 89 0 0 1 20.8-8.3c16.7-4 33-4.7 50.2-5.5" fill="black"/><path d="M12.6 62.9c1.2-1.2 3.4 0 2.4 1.6-1.2 1.2-3.4 0-2.4-1.6" fill="black"/><ellipse cx="310.5" cy="42.2" rx="14" ry="10.5" fill="white"/><ellipse cx="116.5" cy="60.8" rx="11" ry="8.1" fill="white"/></g></svg>
