<svg xmlns="http://www.w3.org/2000/svg" viewBox="0 0 762 762"><g transform="translate(133.5 332.3)"><path d="M345.5.2q5.5-.1 11 .5c2.6.6 5.6 2 6 4.9 1 5 .5 12-1 17-.5 1.7-1.8 2-3.4 2.3q-7.1.7-14.2 1c.5 15.7 2.7 32.5.2 47.8q-1.5 11.4-5.7 21.8a66 66 0 0 1-15.4 22.7 75 75 0 0 1-36.2 21.8q-16.5 3.5-33.3 2.1a87 87 0 0 1-27-8.4c-10.5-6-18.5-15-24.8-25.2a134 134 0 0 1-15.5-41.6c-1.1-5-1.4-10.3-2.8-15.1-.4-1.8-2.6-3-4.1-4-6.7-3.3-16.4-.9-19 6.7-1 5.6-.2 11.5-1.2 17.2-2 13-4.8 26.1-10.6 38a70 70 0 0 1-22.4 29.6 73 73 0 0 1-64 7.7 63 63 0 0 1-18.8-14 107 107 0 0 1-20.8-43.2q-3-10.2-3-20.9c-4 .6-8 1.7-12 2q-3.6.4-5.4-2.7A20 20 0 0 1 .3 55.6C.6 54.4.7 53 2 52.3c27.5-12.6 56-20.6 85.5-26.5 11.2-2.3 22.5-3.8 34-3 10 0 20 2.3 28.8 7a42 42 0 0 0 35.2 0c4.9-2.5 6.8-6.7 10.9-10.2 9.8-9.1 23-13.3 36.1-14.8 14-2.6 28-3.1 42-3.8 13-.3 26 .1 39-.5 10.7-.3 21.3-.1 32-.3m-230 28.5c-9.8-1-20.4 1.5-30 3.3-11.8 2.7-23.3 4.6-34.5 9.2-6.4 2.5-14.3 4.7-17.7 11.3C27.9 63.4 29.8 74 31 85.7A92 92 0 0 0 44 119c5.2 8 11 15 19.5 19.6 12.8 7 28 6.1 41.4 1.5 11.4-4.4 21.8-9.8 28.6-20.3 8.8-14 13.9-30.7 15.5-47.2q1.2-14.1-2.7-27.8-.6-2.3-2-4.1a36 36 0 0 0-19.1-11.4c-3.2-.5-6.6-.4-9.8-.6m199.1-19a54 54 0 0 0-24.1-3c-13 .1-26 0-39 1.4q-14.7 1-28.8 5A47 47 0 0 0 203 28a46 46 0 0 0-5.5 23.6 100 100 0 0 0 5.9 37.3c2.1 5.5 4 11.5 7.5 16.4a70 70 0 0 0 17 17c5.4 3.4 10.3 6.8 16.6 8.4 6 1.4 12 3 18 3.4 10 .6 20.2-2.4 29.4-6.2a76 76 0 0 0 17.8-10.2 61 61 0 0 0 18.2-23.9 96 96 0 0 0 5.2-37.2 98 98 0 0 0-8.4-40.2c-1.2-3.9-6.6-5.3-10-6.9" fill="black"/></g></svg>
