<svg xmlns="http://www.w3.org/2000/svg" viewBox="0 0 762 762"><g transform="translate(232.5 456.6)"><path d="M121.5 32.2a57 57 0 0 1 29.5 3.7c4.7 2.3 8.7 6 9.7 11.5.9 5.2-1.1 9.9-4 14A61 61 0 0 1 136 78c-16.5 8.7-34 12-52.5 13.7a90 90 0 0 1-59.1-12.1 42 42 0 0 1-16-16c-2.6-5.3-2.3-12 1.9-16.4C15 42 22.7 40 29.5 39.3a93 93 0 0 1 44.8 8.5 118 118 0 0 1 47.2-15.6" fill="black"/><path d="M146.9 40.4a85 85 0 0 1-12.1 8.3c-2.7 1.5-3.8 4.1-5.5 6.6a30 30 0 0 1-5.7 6.7c-3-1-6-2.8-9.1-3.5-3 .5-6 1.9-8.9 2.7-10 2.8-20.7 5-31.1 4.9q-4.4 0-8.7.8c.3 2.5-.5 4.7 2.9 5 14.6.9 29.7-2 43.6-6.7 4.7-2 7.7 3.1 12.8 1.8 4.4-1.3 7.4-6.6 10-10 1.7-2.9 4.4-4.2 7-6q5.4-3.3 10.4-7.4c1.5 2.6 3.2 4.7 2.4 7.8-1.3 6.4-6.5 11-11.4 15A107 107 0 0 1 99.2 84c-14.5 2-28 4.2-42.6 1.5a79 79 0 0 1-36.1-16.1c-3.8-3.4-8.4-8.5-7.8-14 .3-3.7 3.9-6.3 7-7.7A51 51 0 0 1 45 45.5a89 89 0 0 1 25.4 7.2c1.5.6 3.4 1.7 5 1.5 3.2-1.2 5.8-3.5 8.8-5a102 102 0 0 1 28.3-9.7c11.4-2 23.3-3 34.5.9" fill="white"/></g></svg>
