<svg xmlns="http://www.w3.org/2000/svg" viewBox="0 0 762 762"><g transform="translate(232.5 456.6)"><path d="M127.7 27.7c1.5-.4 3.3-1 4.9-.8 2 .8 2 3 1 4.7-4 2.6-10 2.8-14.2 4.8a79 79 0 0 1 0 41 55 55 0 0 1-20.7 31.3c-7 5-15.6 7.4-24.2 6.5A42 42 0 0 1 45.9 98a72 72 0 0 1-11.3-60.2c-2.4-.8-5.6-1.2-7.5-2.9-.6-1.2-.2-2.8-.3-4.1 4.5 0 8.3 1.6 12.7 2.5 29.5 6 59.5 3 88.2-5.6" fill="black"/><path d="M113.4 37.5a68 68 0 0 1-6.7 54.2c-4 6.5-9.6 12-16.7 15.1a29 29 0 0 1-25.4-.5c-8-4-14.6-11.4-18.7-19.3a70 70 0 0 1-5.5-48c10.4 2.4 21 3 31.8 3.2-1 6.8-1 13.4-1.2 20.2 0 2-.2 4 .5 6 1 1.6 4.6 1.1 4.7-1.1.6-8.4-.1-16.8 1.5-25.2 12-.2 24-2.2 35.7-4.6" fill="#EA869E"/></g></svg>
