<svg xmlns="http://www.w3.org/2000/svg" viewBox="0 0 762 762"><g transform="translate(232.5 456.6)"><path d="M130.7 16.3c.6 7-.9 13.3-1.6 20.1-2.7 24.2-9.3 48-19.1 70.2-3.7 7.4-6.7 15.8-14 20.4-3.8 2.8-9 2-13.2.1a44 44 0 0 1-12.4-8.6 171 171 0 0 1-30-42.1c-6.7-12.6-11.6-25.8-17-39-1-2-1.2-4 1-5.3 4.4-.1 8.7 1.4 13 1.4 10 .4 20 .5 29.9-.9 17.7-2 35-7.1 51.5-13.9 4.3-1.5 7.2-4.3 11.9-2.4" fill="black"/><path d="M125.4 22.4a298 298 0 0 1-8.9 48A52 52 0 0 0 90.1 77a67 67 0 0 0-27.3 23.9 198 198 0 0 1-19.3-31.5C38 59.3 34 48.7 29.5 38.2c9.4.8 18.5 2 28 1 23.2-.7 46.7-7.7 68-16.8" fill="#8F2E45"/><path d="M114.7 76.5A184 184 0 0 1 99 115a18 18 0 0 1-6.7 7.4c-4 1.7-9-1.2-12.4-3.5-5.4-3.4-8.6-8.3-12.9-12.7a36 36 0 0 1 10.4-13.7c7.8-6.7 17.1-12 27-15q5-1.3 10.2-1" fill="#EA869E"/></g></svg>
