<svg xmlns="http://www.w3.org/2000/svg" viewBox="0 0 762 762"><g transform="translate(232.5 456.6)"><path d="M123.5 15.8a55 55 0 0 1 38.6 13c6 5.6 9.7 13.4 9.9 21.6A44 44 0 0 1 162 78a88 88 0 0 1-35.5 26.5c-7.3 2.9-14.4 5.8-22.1 7.3a86 86 0 0 1-50-5.3A131 131 0 0 1 16 81.8 55 55 0 0 1 3 62.9C.9 57.4.5 51 4 46c3.7-5.4 10-7.7 16.2-8.8 12.6-1.8 24.4.4 36.5 3.7a92 92 0 0 1 25-16.2c13-5.7 27.4-9.3 41.7-8.9" fill="black"/><path d="M149 26.7c-3.5 2.7-7.4 4.8-10.9 7.4-4.3 4-7.6 11-12.7 14-5.2 1-10.5-3.2-15.2-1q-14 5.1-28.5 7.9a118 118 0 0 1-43.6.9c-4.3-1.1-7.2 1.3-11.5 1.8-4.4-4.2-7.5-9.2-12.7-12.5 12.7-5.4 28.7-2 41.6 1.5 4 1.2 6-2.5 8.8-4.5a97 97 0 0 1 47.2-19.9 68 68 0 0 1 37.5 4.4" fill="white"/><path d="M154.5 30.3a26 26 0 0 1 11.8 21.1c-.2 7.4-3 14-6.8 20.2a46 46 0 0 0-20-2.8 138 138 0 0 0-42 9.6c-9 3.7-18 8.3-25.7 14.3-3.7 3-6.4 6.2-8.7 10.4a93 93 0 0 1-21.6-9.7c-9.9-5.9-19-12.7-26.5-21.5-3.7-4.7-7.5-10.4-7.7-16.5C7 53 8.2 51 9 48.8c5.4 3.7 9.3 8.7 14.2 12.9 4 3.4 9.2-.7 13.8 0q8.7 1.4 17.5 1.8Q85.3 63 114 52c4.2.8 10 2.7 14 1 5-2.8 8.6-8.6 12.2-12.9 1.4-1.7 3.8-3 5.7-4.2 2.9-1.7 5.5-4 8.4-5.6" fill="#8F2E45"/><path d="M142.5 74.6q6.8-.1 13.3 1.9a87 87 0 0 1-35.9 24.4 86 86 0 0 1-51.2 3.9q2.9-4.2 6.8-7.4a103 103 0 0 1 31-16c11.5-3.8 23.8-6.6 36-6.8" fill="#EA869E"/></g></svg>
