<svg xmlns="http://www.w3.org/2000/svg" viewBox="0 0 762 762"><g transform="translate(232.5 456.6)"><path d="M140.8 23a38 38 0 0 1 21.2 9.9 39 39 0 0 1 12 29.5c.3 9.8-2.4 19.1-6.7 27.8a83 83 0 0 1-70.7 45.3 107 107 0 0 1-82.1-34A46 46 0 0 1 2.9 72.4a25 25 0 0 1 10.5-20.2 42 42 0 0 1 23-6.7 86 86 0 0 1 40.3 11 80 80 0 0 1 34-28.9c9.4-4.2 19.8-6 30-4.6" fill="black"/><path d="M140 28.7A32 32 0 0 1 162.9 43c6 9.6 6.6 21 3.8 31.8q-6-.9-12-.2c-10.8.6-21.7 3.4-32 7a43 43 0 0 0-.5-23.9c-1.7-3.8-5.4-6.2-9.6-4.3-6.6 3.1-10.3 11.9-13 18.2-4.8-1.6-11.3-3.8-16-1.2-4 2.2-3.9 6.5-2.5 10.3 2.6 6.2 7.7 11 12.6 15.4a114 114 0 0 0-31.1 29c-15-4.7-28.7-13-40-23.7A46 46 0 0 1 8.9 77c-1-6.4.7-13.2 5.4-17.8 4.4-4.6 11-6.7 17.2-7.5a69 69 0 0 1 35.2 6.5c3.8 1.5 7 3.8 10.8 5.4 2.7.3 3.7-3.4 5-5.1A70 70 0 0 1 121.3 30c6-1.8 12.6-1.9 18.8-1.4" fill="#8F2E45"/><path d="M115.5 58.3c2.6 2.3 2.7 6.8 2.8 10 0 11-3.1 22-8 31.7-4-2-7.9-4.1-11.3-7.2a54 54 0 0 1-12-13c-.8-1.4-.8-3-1-4.6 5-.7 9.1 1 13.7 2.9 2.8 1 3.9-1.4 5-3.5 2.4-5.5 5.1-13.3 10.8-16.3" fill="#D32020"/><path d="M165.1 80.3a71 71 0 0 1-11 19.7c-3.8 4.8-8.5 8.9-13 13a77 77 0 0 1-35.1 15.6q-19 2.8-37.5-1.6c8-11.1 18.6-19.9 30.3-27.1 3.7 2.3 7.5 5.1 11.7 6.6 1.4.7 2.8-.4 3.6-1.5 3.2-4.9 4.9-10 6.8-15.4.3-1.4 1.6-1.6 2.8-2.1 13-4.7 27.5-8.1 41.4-7.2" fill="#EA869E"/></g></svg>
