<svg xmlns="http://www.w3.org/2000/svg" viewBox="0 0 762 762"><g transform="translate(232.5 456.6)"><path d="M132.5 20c18 0 37.2 2.1 54 9-52.2 7.3-107.2 15.2-159 22.3 8-7 17.7-12.3 27.4-16.5a79 79 0 0 1 39.6-7.4q1.5.2 2.7-.3c10.2-6 23.7-6.8 35.3-7.1" fill="#D31E1E"/><path d="M186.5 29c2.4 1 1.9 3.5 1.4 5.5a92 92 0 0 1-28.4 34 97 97 0 0 1-60 17.5c-26.8-1-53-12-73.5-29.3-.4-2.4-.4-3.7 1.5-5.4 51.8-7.1 106.8-15 159-22.2" fill="black"/><path d="M187.9 34.5c-1.1 4.6-1.9 9.2-3.7 13.7a72 72 0 0 1-28.4 33.5 103 103 0 0 1-45.3 16 96 96 0 0 1-58-11.3A61 61 0 0 1 26 56.7 122 122 0 0 0 99.5 86a92 92 0 0 0 88.4-51.5" fill="#D31E1E"/><path d="M180.4 36c-8.2 15-21 27.4-36.4 34.9a89 89 0 0 1-40.5 9.2c-24.7.2-49-9-68.6-23.9 48-6.6 97.7-13.8 145.5-20.3" fill="white"/></g></svg>
