<svg xmlns="http://www.w3.org/2000/svg" viewBox="0 0 762 762"><g transform="translate(232.5 456.6)"><path d="M125.5 33.1c12.3.2 24.4 2 36 6.5a93 93 0 0 1 43.8 35c1.1 1.5.8 3.5 1 5.4-7.3.5-14.5 0-21.7.7.1 7.4 0 14.4-3.8 21-2.2 3.8-5.7 7.3-10.3 7.2-4.5 0-8.2-3.5-10.4-7.1a44 44 0 0 1-4.4-21q-38.1 0-76.2.4c-7.4-.3-14.7.6-22 .4-7.5-.2-14.2.8-21.5-.8 0-1.6-.5-4 .6-5.3A123 123 0 0 1 125.5 33" fill="black"/><path d="M115.5 39.9q10.5-.8 21 0a89 89 0 0 1 48.7 20.8q-17 .6-33.7.6c-31 1.1-62 .8-93 1.8 6.1-4.2 12.2-8.4 18.9-11.7q18-9.1 38-11.5" fill="#8F2E45"/><path d="M175.5 66.8c5.2 0 10.6-.6 15.7 0 2.3 2 4.2 4.8 6.3 7.1-5.9.6-11.9 0-17.7.8-1.2 7.1-.3 16.6-3.6 23.4-1.2 2.7-3.3 4-5.7 5.6-2.3-1.6-4.5-3-5.7-5.6-3.4-6.8-3.4-15.7-4.1-23.1-5.7-.6-11.4-.1-17.2-.2l-98.4.5c2.1-2 4.6-5.6 7.5-6.2 18-.7 36-.3 53.9-1.1 11-.5 22-.1 33-.6 12-.3 24-.1 36-.6" fill="#6FA942"/></g></svg>
