<svg xmlns="http://www.w3.org/2000/svg" viewBox="0 0 762 762"><g transform="translate(232.5 456.6)"><path d="M91.3 81.7a44 44 0 0 1 30.5 37.3 50 50 0 0 0-10.9-18 37 37 0 0 0-27.4-11.7 28 28 0 0 0-20.8 10.3c-5.5 6.8-7.7 16-6.7 24.7-.7-4.7-1.9-9.1-1.8-13.9a31 31 0 0 1 10-23.3 29 29 0 0 1 27-5.4" fill="#D31E1E"/><path d="M83.5 89.3a37 37 0 0 1 27.4 11.7 51 51 0 0 1 11 18c.4 3.4 2.2 6.3-1.5 8.7l-25 1c-12.2 1-24.6.5-36.8 2-2-2-2.4-3.8-2.6-6.4-1-8.6 1.2-17.9 6.7-24.7a28 28 0 0 1 20.8-10.3" fill="black"/><path d="M91 95.9c12.6 3 22 14 25.5 26.2-18.3.4-36.6 1.7-54.8 2.2a28 28 0 0 1 7.6-23.1c5.8-5.7 14-7 21.7-5.3" fill="white"/><path d="M120.5 127.7c-9.3 7.3-23.6 8.7-35 9.1-8.6 0-19.9-.6-27-6.1 12.3-1.5 24.7-1 37-2 8.3-.2 16.6-.8 25-1" fill="#D31E1E"/></g></svg>
