<svg xmlns="http://www.w3.org/2000/svg" viewBox="0 0 762 762"><g transform="translate(232.5 456.6)"><path d="M76.5 0c9.4-.6 18.4 5.2 25.2 11.2a121 121 0 0 1 23.5 31.5 211 211 0 0 1 23.6 76.7c.4 4.4 1.5 8.7-2.5 11.8a80 80 0 0 1-23.8 6 144 144 0 0 1-48-4.8c-2.4-.7-4.5-.9-5.4-3.6A210 210 0 0 1 51 63a121 121 0 0 1 1.8-37 44 44 0 0 1 8.7-18.4c3.8-4.4 9.2-7.6 15-7.6" fill="black"/><path d="M81 6a48 48 0 0 1 23.3 16.3 74 74 0 0 1-45.8 5.8c1.2-6.2 3.7-13 8.2-17.5 3.6-3.8 9-6 14.3-4.6" fill="white"/><path d="M108.4 27.3A179 179 0 0 1 135.8 84c-6.3 1.3-12 4-17.5 7a94 94 0 0 0-30 27c-2.3 3.6-4.7 6.5-4.6 11q-4.5-1.2-9-2c-8.4-18-14-37.2-16.9-56.7a124 124 0 0 1-.3-37c5.4 1 10.5 2.3 16 2q7.5-.6 15-2c6.9-1.2 13.3-3.9 19.8-6.1" fill="#8F2E45"/><path d="M134 90c1.5-.6 2.4.2 3.8.7 2.7 11.7 5 23.5 5.6 35.5a90 90 0 0 1-24.7 5.6c-10.4 1-20.2-.7-30.5-1.8a75 75 0 0 1 17.8-23 85 85 0 0 1 28-17" fill="#EA869E"/></g></svg>
