<svg xmlns="http://www.w3.org/2000/svg" viewBox="0 0 762 762"><g transform="translate(232.5 456.6)"><path d="M124.4 17.7c2.3.2 3.1 2.7 2.3 4.7L122 32.9c-8.4 19.3-19.5 37-31.8 54.2-1.4 1.8-2.9 4-4.8 5.2-3 .8-6.1.8-8.7-1.1a129 129 0 0 1-24.3-22.8Q41.8 57 33.6 43.2c-1-2-2.6-4.4-1.2-6.8 1-1.5 3.2-2 4.9-2.5 11-3.1 22.1-6.5 33.3-9.3a235 235 0 0 1 35.9-5.7c5.9-.5 12-1.4 17.9-1.2" fill="black"/><path d="M120.3 23.4A317 317 0 0 1 86 82.9c-1 1.1-2.2 2.8-3.7 3-2.2.6-3.7-.8-5.4-1.9a155 155 0 0 1-22.7-22.3 137 137 0 0 1-16.6-22.3c15-4 29.9-8.6 45.1-11.4 12.5-2.5 25-3.3 37.6-4.6" fill="#8F2E45"/></g></svg>
