<svg xmlns="http://www.w3.org/2000/svg" viewBox="0 0 762 762"><g transform="translate(232.5 456.6)"><path d="M79.5 18.2a84 84 0 0 1 43.7 8.6 188 188 0 0 1-65.7 15.5c-7.2 0-14.3.3-21.5-.6a17 17 0 0 1 7.7-13 68 68 0 0 1 35.8-10.5" fill="#D31E1E"/><path d="m131.5 24 1.2 2.4c.4 2.7-2 3.4-3.8 4.4l-12.2 5a184 184 0 0 1-73.6 12c-5-.6-10.2-.7-15-2-2.3-1-2.7-4-.3-5.2 2.7 0 5.5.9 8.2 1 7.2 1 14.3.7 21.5.7a189 189 0 0 0 65.7-15.5c2.8-1.2 5.2-2.6 8.3-2.7" fill="black"/><path d="M116.7 35.8c-2 10.1-10.3 17.2-19.2 21.6a56 56 0 0 1-34 4.8C54.8 60.4 47 56 43.1 47.7q9.7.8 19.4 0a184 184 0 0 0 54.2-12" fill="#D31E1E"/></g></svg>
