<svg xmlns="http://www.w3.org/2000/svg" viewBox="0 0 762 762"><g transform="translate(232.5 456.6)"><path d="M3.7 35c18.2-.3 37.5-.4 55.8-.5 15.6-.5 31.3-.2 47-.4 3.8 0 7.3-.2 10.9 1.4 4.2 1.9 7.8 6 7.6 10.9.4 6.4-5.6 11-11.5 11.3l-99 .5c-4.4 0-8.1 1-12.4-.4l-.8-2.3c1.7-5.7 2.5-11.2-.1-16.7-1-2 .2-3.9 2.5-3.9" fill="black"/><path d="M117 42c2.1 1.8 3.3 4.8 1.3 7.3-2.4 3.3-7.5 2.6-11.1 2.5l-.1-12c3.4.3 7.2-.2 9.9 2.2M8.2 40.6h5q.3 6 .2 12H8.3q.6-6 0-12m10.7 0h13.6l.2 12H19.6zm19.6-.3 19-.1v12l-18.9.3zm24.7-.1q9.4 0 18.7-.2l.3 12-18.6.3q-.4-6-.4-12.1m24.6-.3h13.4v12q-6.6.2-13.2 0z" fill="white"/></g></svg>
