<svg xmlns="http://www.w3.org/2000/svg" viewBox="0 0 762 762"><g transform="translate(232.5 456.6)"><path d="M129.3 23.4c11 1.4 21.9 7 27.2 17a31 31 0 0 1 3.3 21.2 54 54 0 0 1-14.5 27.6 77 77 0 0 1-44.8 23 93 93 0 0 1-42.9-3 77 77 0 0 1-23.8-13 62 62 0 0 1-19.5-25.6 33 33 0 0 1-1.8-17.2A21 21 0 0 1 25.3 38a37 37 0 0 1 21.2-1.8c9 1.2 16.7 5 24.7 9.1a72 72 0 0 1 58.1-22" fill="black"/><path d="M124.5 29c8.8.3 17.4 3.2 23.7 9.6q-4.7 5.5-11 8.5c-1.7.9-3.7 1.7-5 3-2.5 3-3.7 8.2-6.7 10.5-3.6-1.2-6.8-3.9-10-5.8a175 175 0 0 1-44 4.5q-16.5.4-33-2.4c-1.8-.3-4-1-5.8-.4Q29.5 59 26.9 62l-5.5-8.6-2.7-1.2c2.7-6 8.4-9.6 14.8-10.4a54 54 0 0 1 34 8.6c2 1 3.6 2.3 5.8.9 2.8-2.2 5.1-5 8-7.1 12-9.6 27.7-16 43.2-15.3" fill="white"/><path d="M151.8 43.7a29 29 0 0 1 2.2 17.7c-2 9.5-7 17.8-13.9 24.6a75 75 0 0 1-41.6 20.7 89 89 0 0 1-34-1.7A71 71 0 0 1 27 81a39 39 0 0 1-9.3-23c2.6 2.7 3.8 6.3 6.3 9 4.2 3.3 7.7-2.1 10.5-4.7a219 219 0 0 0 80.2-1.2c3.7 1.5 8.4 6 12.7 5 6-2.3 6-11.9 12.3-13.6a43 43 0 0 0 12.2-8.8" fill="#8F2E45"/></g></svg>
