<svg xmlns="http://www.w3.org/2000/svg" viewBox="0 0 762 762"><g transform="translate(232.5 456.6)"><path d="M111.5 93.6c9 .5 16.9 6.7 24.1 11.4a144 144 0 0 0-39 5.5q-14.2 3.7-27 11c3.2-8.1 7.8-18.1 16.6-21.4 4-2 7.7-1.2 12-.9 3.8-3.3 8-6 13.3-5.6" fill="#D31E1E"/><path d="M135.6 105c2.5.2 4.7 1.4 4 4.2-1.5 2-4.5 1.3-6.7 1.5A155 155 0 0 0 89 119a74 74 0 0 0-14 6.2c-2 1-3.3 2.6-5.6 1.5-2.2-1.6-1.2-3.5 0-5.2q12.9-7.3 27.1-11a144 144 0 0 1 39-5.5" fill="black"/><path d="M132.9 110.7a40 40 0 0 1-24.5 18.5 47 47 0 0 1-33.2-4q6.5-3.8 13.9-6.2a155 155 0 0 1 43.8-8.3" fill="#D31E1E"/></g></svg>
