<svg xmlns="http://www.w3.org/2000/svg" viewBox="0 0 762 762"><g transform="translate(232.5 456.6)"><path d="M130.7 16.2c.5 6.9-.8 13.4-1.6 20.2-2.7 24.2-9.3 48-19.1 70.2-3.7 7.4-6.8 15.8-14 20.4-4.2 3-10.3 1.7-14.6-.5-9.5-4.7-15.1-12.3-21.7-20.2a199 199 0 0 1-26-44q-5.5-12.4-10.3-24.8c-1-2.1-1.2-4 1-5.4 4.8 0 9.3 1.5 14 1.5 9.4.2 18.8.4 28-.8 20-2.3 39.7-8.3 58-16.5 2.2-1 4-.6 6.3-.1" fill="black"/><path d="M125.4 22.4c-2 15.2-4 30.2-8 45a209 209 0 0 1-19 49c-2.2 3.4-5.3 7.3-10 6.4-7.4-1.5-14-8-18.6-13.7a169 169 0 0 1-24.6-36.4c-6.2-11-10.7-22.9-15.7-34.5l14.4 1.2c1.1 6 4.6 11.5 8.4 16 5.1 6 12.3 9.9 20.2 10q9.5-.7 16.7-7.3c8-7.4 12-17 14.4-27.4a265 265 0 0 0 21.8-8.3" fill="#8F2E45"/><path d="M97.1 32.5c-2.5 8.8-7 18.4-15 23.6a18 18 0 0 1-18.5 1.1 34 34 0 0 1-14-17.6c16.2-.4 32.1-2.3 47.5-7" fill="white"/></g></svg>
