<svg xmlns="http://www.w3.org/2000/svg" viewBox="0 0 762 762"><g transform="translate(232.5 456.6)"><path d="M156.5 34c1.4 0 3.5-.4 4.6.8 1.8 1.5.8 4.5-1.6 4.7-5.3.8-10.7.6-16 1.3l-14.6 2q4.5 9.7 6 20.4c1.2 9.5.5 18.9-4.4 27.2a28 28 0 0 1-19 13.2 47 47 0 0 1-27-4.2A88 88 0 0 1 51.9 72a118 118 0 0 0-18.5 16.2c-1.6 1.6-3.5 4-5.7 1.9-1.9-1.7-.3-4 1-5.5a129 129 0 0 1 34.7-26.4 225 225 0 0 1 93-24.4" fill="black"/><path d="M123.4 43.8c1.1 4 2.8 7.7 4 11.6q3 10.6 1.7 21.5a25 25 0 0 1-11 18c-7.5 4.5-16.7 4-24.7 1.5-15-4.8-27-15.2-36.5-27.5Q70.8 60 86.2 54.3c1.7 2.4 3.3 5.1 5.4 7.1 1.4 1.5 4.5.1 4-2C95.4 57 93 55 92 52.8q-.2-.6.7-.8 15.1-5.3 30.8-8.2" fill="#EA869E"/></g></svg>
