<svg xmlns="http://www.w3.org/2000/svg" viewBox="0 0 762 762"><g transform="translate(232.5 456.6)"><path d="M111.5 70c4.7 1.3 9 4.7 12.2 8.2 1.4 1.7 3.6 3.9 3 6.2-.4 2.5-3.7 3-5 .8a28 28 0 0 0-9.5-8.5c-2.2-1.5-6.7-.6-6.6-4.2.5-3 3.6-2.9 6-2.5m-7.1 13.4c5 1.5 8.4 5.8 8.8 11 1.3 13.2-9.4 25.8-21.8 29.2-12.4 3.7-28.9-1-35-13.2-2.5-4.2-3.8-9.2-2-14 1.8-4 5.8-5.6 10-6 5-.6 9.5 1 13.9 3.5 3.8-4 7.7-7.6 12.9-9.8 4-1.7 9-2 13.2-.7" fill="black"/><path d="M105.4 90.5c3.3 3.4 2.3 9.5.5 13.4a25.5 25.5 0 0 1-26 15c-7.2-1.2-14.2-4.1-18.1-10.8-1.5-2.5-3.5-6.6-2-9.4 2.2-3.8 8.7-3.2 12.2-1.8 2.8.7 5.6 4 8.4 3.5C84.1 97 87 93 91.6 90.7c4.3-2.4 9.6-3.3 13.8-.1" fill="#8F2E45"/></g></svg>
