<svg xmlns="http://www.w3.org/2000/svg" viewBox="0 0 762 762"><g transform="translate(232.5 456.6)"><path d="M101.7 21.4c15.5 1.8 31.3 5.5 44.5 14.2 7 4.6 13.5 11.3 15.3 19.8 2.4 8.6-3.6 18.2-11.7 21.4-7.2 3-14 1.8-21.3.1q-9-1.5-18-1.8-34-1.5-67.2 5.8c-5.8 1-11.1 3.3-16.8 3.7-6.5.1-13-3.1-16.8-8.4-3-4.2-4.4-9.7-4.3-14.8.6-7.8 5.4-15 11.2-19.9A85 85 0 0 1 52 24.7a157 157 0 0 1 49.7-3.3" fill="black"/><path d="M112.5 29a76 76 0 0 1-35.8 13 92 92 0 0 1-41.5-5c8.8-4.8 19.4-7 29.2-8.8 16-2.2 32.1-2.4 48 .8" fill="white"/><path d="M120.3 30.7c11 3.2 22.5 7.7 30.4 16.5 4.2 4.8 7 11.3 4 17.4-3 6.2-9.7 8.6-16.2 8a234 234 0 0 0-69-2 240 240 0 0 0-36 6.8c-5.7 1.3-11.3 2.1-16.2-1.8-6.6-5.3-7.4-14.6-3.5-21.8a40 40 0 0 1 14.7-13.6c4 2.5 8.4 3.7 13 5a95 95 0 0 0 67-6.8c4.3-2 7.8-5.1 11.8-7.7" fill="#8F2E45"/></g></svg>
