<svg xmlns="http://www.w3.org/2000/svg" viewBox="0 0 762 762"><g transform="translate(232.5 456.6)"><path d="M123 16c6 4.4 11.7 10 15.3 16.6 2.6 4.8 3.2 11.7-.5 16.1-4.1 5.4-11.5 7.6-17.8 8.8A151 151 0 0 1 72.5 56c-5.7-1.1-10.2 1.6-16 2.6a72 72 0 0 1-27 1c-5.2-1-10.3-3.2-13.4-7.7-2.8-3.9-2.6-9.3-1.1-13.7Q17.4 32 22 27c1.4-1.7 3.1-1 5-1.1.3 1.8 1 3.2-.4 4.8-2.6 3.3-5.2 6.4-6.4 10.5-1.1 3.3-.3 7 2.4 9.2 3 2.4 7.1 3.5 11 3.9a76 76 0 0 0 23-1.8c5.7-1 10-3.5 15.9-2.5 12 2 23.8 3.5 36 2.8 7-.2 14-1 20.3-4 3.2-1.9 6-4.2 5.6-8.3-.2-6-6-11.8-10.2-15.7-2.5-2.6-6.7-4-6-8.4 1.8-.9 3-1.8 4.8-.3" fill="black"/></g></svg>
