<svg xmlns="http://www.w3.org/2000/svg" viewBox="0 0 762 762"><g transform="translate(232.5 456.6)"><path d="M87.5 22c4.7-.5 10.2.1 13.7 3.7 3.7 4 4.1 9.5 3.2 14.6a31 31 0 0 1-24.8 23.3 33 33 0 0 1-22.2-4.1 26 26 0 0 1-11-13 15 15 0 0 1-.5-10.6c1.3-3.2 4.1-5 7.3-5.7 5.7-1.9 11.7.2 16.7 3 4.5-5 10.5-10.2 17.6-11.1" fill="black"/><path d="M87 28.1c3.3-1 7.4-.6 10 1.8 2 2 2.1 5.9 1.7 8.5a25 25 0 0 1-20 19.4 27 27 0 0 1-19-3.7c-4.2-2.5-7.3-7-8.7-11.7-.7-2.5-.4-5.1 2-6.4 2.6-1.1 5.8-1 8.5-.5 3.5.7 5.8 2.9 9 4.3 2 0 2.6-1.4 3.8-2.6 3.3-4 7.7-7.7 12.7-9.1" fill="#8F2E45"/></g></svg>
