<svg xmlns="http://www.w3.org/2000/svg" viewBox="0 0 762 762"><g transform="translate(232.5 456.6)"><path d="M68.7 13.2c6 1.3 12 4.5 15.7 9.3 1.3 2.3 0 5-2.8 4.7-2.2-1.3-4-3.4-6-4.8a22 22 0 0 0-15.1-3.7c-2.6.4-5.4 1.6-6.8 3.9-1.6 2-1.3 4.7-.4 7 1.7 4.5 6 7.9 10.2 9.7 2.3 1.1 5.3 1.3 7.3 2.8 1.7 1.8.6 4.4-1.7 4.8-4.6 1-8.7 2.6-11.7 6.5A17 17 0 0 0 58.8 76 18.3 18.3 0 0 0 83 78c2.4-1.9 3.5-4.4 5.5-6.6 3-1.5 5 1 4 4a23 23 0 0 1-27.2 11.3 24 24 0 0 1-17.2-19.3A23 23 0 0 1 59.5 44 23 23 0 0 1 47 29.8c-1.5-5.3.8-11.3 5.5-14.2 4.7-3.3 10.7-3.2 16.1-2.3" fill="black"/></g></svg>
