<svg xmlns="http://www.w3.org/2000/svg" viewBox="0 0 762 762"><g transform="translate(232.5 456.6)"><path d="M141.5 23.3a31 31 0 0 1 22.7 17.4 48 48 0 0 1 3.5 23.7 53 53 0 0 1-15 30.3 66 66 0 0 1-33.2 18.8 141 141 0 0 1-62 .3A85 85 0 0 1 18.9 94c-4.5-4.2-9-9.1-11-15a30 30 0 0 1 1.5-23.6c3.4-6.3 10-10.5 17-10.7 12.8-.7 24 4.2 36 4.8q12.2.2 23.3-4C97 40.7 107 31 118.5 26.4c7.4-3 15-4.6 23-3" fill="black"/><path d="M144.5 30.3c7 2.5 12.7 7.9 15.1 15q-4.4 3.8-9 7.3c-3.6 2.6-7.2 4.4-10 8-3.1 4-5.9 9.9-10.3 12.5-3.4-.4-6.7-2.9-9.8-4-2.5-.6-5.4.4-7.8 1A167 167 0 0 1 75.5 76a46 46 0 0 0-9.6 1q0 1.8.3 3.6c1.9 1.5 5 1.4 7.3 1.5q23-1 45-7.3c3.7 0 9.3 5.2 13.9 3.5 5.3-2.5 9-9 12.3-13.6 2-2.7 4.6-4 7.2-5.9q5-3.4 9.6-7.3a46 46 0 0 1-.4 17 52 52 0 0 1-15 24.5 67 67 0 0 1-37.1 16.6 141 141 0 0 1-36.5.9 87 87 0 0 1-48.4-19.7c-5-4.7-9.8-8.9-11.2-16-2.3-8.6.4-20.7 10.1-23.5 8.2-2 17.8.5 26 2.2 12 2.8 25 2.4 36.7-1.7 14-4.9 25-17 38.8-21.3a30 30 0 0 1 20-.2" fill="white"/></g></svg>
