<svg xmlns="http://www.w3.org/2000/svg" viewBox="0 0 762 762"><g transform="translate(154.7 340.2)"><path d="M190.3 38c5.5-1.2 11.7 2.4 17 3.9 22.1 7 45.8 9.5 69 7.7 6.2-.6 12.8-2.4 19-2 6.3.7 10.4 6 11 12a66 66 0 0 1-35.5 64.6A65.4 65.4 0 0 1 178.4 48c1.4-5.3 6.8-9 12-10m-77.8 5.6c3.6 2.2 5.8 6.6 7.7 10.2A55.3 55.3 0 0 1 79.5 133 55 55 0 0 1 17 88c-.5-3.8-1.5-7.7.2-11.2 1.6-4.2 5.7-7.1 10.1-7.6q7.5-.8 14.8-2A124 124 0 0 0 92.4 45a16.5 16.5 0 0 1 20.1-1.4" fill="black"/><path d="M197.7 44.4c12.2 5 25.5 8 38.6 9.8 15.6 2 31.4 2.5 47 .3 3.9-.6 8.1-1.9 12-1.6 2.4.1 4.4 2.7 4.8 5a59 59 0 0 1-37 63.6 59.6 59.6 0 0 1-79.4-70.2c1.6-6.3 8-10 14-6.9M112 51c4.8 7 7.6 15.3 8.5 23.8A50 50 0 0 1 70.3 128 49 49 0 0 1 22 81.8c-.5-3.2 2-6.5 5.2-7l10-1.2C55.6 71.4 73.7 64 89.3 54c3.1-2 5.9-4.4 9-6.2 4.4-2.3 11-1.2 13.7 3.2" fill="white"/><path d="M217.8 73.7a22 22 0 0 1 24.1 21 22 22 0 0 1-18.4 23c-12 2-24-6.9-25.4-18.9a22 22 0 0 1 19.7-25m-133 8.5c6-1.3 12.6.9 17 5a19.5 19.5 0 1 1-17-5" fill="black"/></g></svg>
