<svg xmlns="http://www.w3.org/2000/svg" viewBox="0 0 762 762"><g transform="translate(154.7 340.2)"><path d="M271.7 8.4a65 65 0 0 1 28 28.7q8.4-5 16.7-10.2 2.4-1.7 5-2.4c1.9.5 2.7 1.3 2.7 3.4-.5 1.3-1.8 2-2.9 2.8-6.4 4-13 7.6-19.4 11.8a64 64 0 0 1 .8 45.6 65.5 65.5 0 0 1-73.5 42.2 65.2 65.2 0 1 1 42.6-122" fill="black"/><path d="M233.5 7a59.6 59.6 0 1 1 15.3 118.3A59.6 59.6 0 0 1 233.5 7" fill="white"/><path d="M99 31.1a55 55 0 1 1-73.7 77.7c-5.6-8.3-8.5-18-9.1-28A68 68 0 0 1 19 60.4q-6.5-4-12.8-8.6c-1.7-1.2-1.8-2.1-1.5-4.1q2-2 4.3-.7 6.2 4 12.3 8.3A55.4 55.4 0 0 1 99 31" fill="black"/><path d="M62.5 30a49.4 49.4 0 1 1 12.8 97.7 49.3 49.3 0 0 1-12.8-97.6" fill="white"/><path d="M210.8 44.3c12-2.9 24.8 4.2 29.3 15.6a25.6 25.6 0 1 1-29.3-15.6M82.5 55.2c9.5-2 19.6 2.5 24.5 11a25 25 0 0 1 2.2 18.5A24 24 0 0 1 93.3 100a23 23 0 1 1-10.8-44.8" fill="black"/></g></svg>
