<svg xmlns="http://www.w3.org/2000/svg" viewBox="0 0 762 762"><g transform="translate(154.7 340.2)"><path d="M274.3 9.9a67 67 0 0 1 26.7 30c5.9-3.2 11.6-6.8 17.6-9.7 1.8-1 4.4.5 4 2.6.2 1.5-2 2.5-3 3.2l-16.4 9a65.7 65.7 0 0 1-39.4 82.3 66 66 0 0 1-78.5-27.5 64 64 0 0 1-9.3-33A65 65 0 0 1 229.3 2a65 65 0 0 1 45 7.9" fill="black"/><path d="M233.5 7a59.7 59.7 0 0 1 67.2 59.8A59.5 59.5 0 1 1 233.5 7" fill="white"/><path d="M74.3 23.7a55 55 0 1 1-55.7 38.7L7.3 58c-2-.8-4-1.4-5.4-3q-.5-4 3.2-3.7c5.2 1.3 10 4.2 15.2 5.6 1.4-1.7 2.2-3.8 3.3-5.7a55 55 0 0 1 50.7-27.4" fill="black"/><path d="M60.8 30.5a49.3 49.3 0 1 1 20.8 96.4 49.3 49.3 0 0 1-20.8-96.4" fill="white"/><path d="M262.6 42.2a25 25 0 0 1 27.9 24.6c-.4 4.8-1.8 9.7-4.6 13.6A25 25 0 0 1 267.3 91a24.5 24.5 0 0 1-21.8-38 25 25 0 0 1 17-10.8M92.8 55.3a23 23 0 0 1 19.6 7.5q6 6.8 5.7 16c0 12-10.7 22.8-22.8 22.3a23 23 0 0 1-22.9-22.3 23 23 0 0 1 20.4-23.5" fill="black"/></g></svg>
