<svg xmlns="http://www.w3.org/2000/svg" viewBox="0 0 762 762"><g transform="translate(154.7 340.2)"><path d="M243.3.9a65 65 0 0 1 57.5 38.4l23.8-15q1.9 1.6 3.6 3.4c-3.2 3.6-7.1 5.4-11 8l-14.3 9a66 66 0 0 1-18 69.8 65 65 0 0 1-42.6 16.8 65.7 65.7 0 0 1-61.5-90A65 65 0 0 1 243.3 1" fill="black"/><path d="M233.6 7a59.6 59.6 0 1 1 15.1 118.3A59.6 59.6 0 0 1 233.6 7" fill="white"/><path d="M98.3 30.7A55 55 0 1 1 19 61.5C13.1 58 6.8 55 1.2 51c-2-1.1-1.5-4.2.7-4.7 1.6-.5 3.1.6 4.6 1.3L20.9 56a55 55 0 0 1 77.4-25.3" fill="black"/><path d="M62.6 30a49.3 49.3 0 1 1 17.2 97.2 49.3 49.3 0 0 1-17.2-97.1" fill="white"/><path d="M211.6 43a24 24 0 0 1 20.2 7.3 24 24 0 0 1-2.3 34.7 23.9 23.9 0 0 1-38.7-20.2A24 24 0 0 1 211.6 43M42.8 57.6a21.8 21.8 0 1 1 11.5 42 22 22 0 0 1-25.6-14 22.3 22.3 0 0 1 14.1-28" fill="black"/></g></svg>
