<svg xmlns="http://www.w3.org/2000/svg" viewBox="0 0 762 762"><g transform="translate(154.7 340.2)"><path d="M234.6 1.2a65.4 65.4 0 1 1 13 130 65.4 65.4 0 0 1-13-130" fill="black"/><path d="M233.6 7a59.7 59.7 0 1 1 15.1 118.4A59.7 59.7 0 0 1 233.6 7" fill="white"/><path d="M65.5 23.9a55.3 55.3 0 0 1 60 45.9 54.9 54.9 0 0 1-100.2 39 57 57 0 0 1-9.1-28 55 55 0 0 1 49.4-57" fill="black"/><path d="M60.8 30.5a49.3 49.3 0 1 1 20.8 96.4 49.3 49.3 0 0 1-20.8-96.4" fill="white"/><path d="M260.7 41.2a25 25 0 0 1 17.7 1.5c10 4.7 16.7 17.4 12.9 28.1a24.3 24.3 0 0 1-36.6 14.6 24.5 24.5 0 0 1 6-44.2M92.8 55.3c12.7-1.6 25 8.5 25.3 21.5 1 12.4-9.3 24.2-21.8 24.3a23 23 0 0 1-23.9-22.3 23 23 0 0 1 20.4-23.5" fill="black"/></g></svg>
