<svg xmlns="http://www.w3.org/2000/svg" viewBox="0 0 762 762"><g transform="translate(154.7 340.2)"><path d="M239.3.9a65.3 65.3 0 0 1 66.3 75.4c-1 7.6-4 14.4-6.8 21.4q-2.3 1-4.4 1.6c-3.2 0-6.4-1.4-9.4-2.2a176 176 0 0 0-47.7-7 97 97 0 0 0-39.3 8.4c-2.9 1.3-5.6 3-8.6 3.9-3.5-.3-4.4-3.2-6-5.8a66 66 0 0 1 12.9-77.8c11.6-11 27-17.5 43-18" fill="black"/><path d="M241.3 6.7a59 59 0 0 1 57.1 43.1 60 60 0 0 1-4.2 43.6c-6.2-1-11.9-3.2-18-4.4a157 157 0 0 0-51.4-3.5A91 91 0 0 0 190 96.7a60 60 0 0 1 9.8-73.4 59 59 0 0 1 41.5-16.6" fill="white"/><path d="M65.6 23.9a55.4 55.4 0 0 1 59.8 45.3A55 55 0 1 1 65.5 24" fill="black"/><path d="M60.8 30.5a49.6 49.6 0 0 1 59.6 52.3 50 50 0 0 1-45.1 45 49.3 49.3 0 0 1-14.5-97.3" fill="white"/><path d="M203.7 51.5a15.9 15.9 0 1 1 7.1 30.9c-9.2 2.2-18.8-5-19-14.6a16 16 0 0 1 12-16.3M87.7 62.4c9.6-3.2 20 4.4 20.4 14.3.8 8.9-6.9 17.1-15.8 16.8-8.6.4-16-7.1-16-15.7a16 16 0 0 1 11.4-15.4m195.4 47.1 3.2 1c-.4 1.7-.3 3.3-1.7 4.5a40 40 0 0 1-25.3 9.9c-3.8-.1-8.6-1-11.5-3.8l-.4-3.6 2.8-1c4.5 2.2 9 3.5 14.1 2.3 7.5-1.3 12.6-5.5 18.8-9.3M31.4 124.6c2.2-.5 3.8 1.4 5.5 2.6a53 53 0 0 0 33.4 11.4c5.8.1 10.8-2.2 16.7-1.3-.5 2.4 0 4.4-3 5A58 58 0 0 1 31.3 130c-1.8-1.4-2.3-4.4.2-5.3" fill="black"/></g></svg>
