<svg xmlns="http://www.w3.org/2000/svg" viewBox="0 0 762 762"><g transform="translate(154.7 340.2)"><path d="M234.6 1.2a66 66 0 0 1 62 30.4 65 65 0 0 1-14.3 85.2A65.4 65.4 0 1 1 234.6 1.2" fill="black"/><path d="M233.5 7a59.7 59.7 0 1 1 15.1 118.3 59.7 59.7 0 0 1-15-118.2" fill="white"/><path d="M205.5 44a22.2 22.2 0 1 1 10.8 43 22.2 22.2 0 0 1-10.8-43M17.3 55.3c14.4.7 28.7 1.5 43 3.9 21.1 3.4 42.9 9 62.1 18.4 2.9 1.6 2.5 3.3 1.6 6.1q-3.4.1-6.7-1a260 260 0 0 0-34-7.2c-10.5-1.4-20.6-3.2-31-3.7-11-1-21.9-.7-33-.6-2-.2-5 .6-6.6-.8-.7-2.1.8-4.7 1.3-6.8-1-1.6-3-3.4-2.4-5.4 1-2.4 3.4-3 5.7-3" fill="black"/></g></svg>
