<svg xmlns="http://www.w3.org/2000/svg" viewBox="0 0 762 762"><g transform="translate(154.7 340.2)"><path d="M179.1 51.4c2.5.2 5 1.4 7.4 2.2 9.3 3.7 18.8 6 28.5 8.4 21 5 42.8 8.8 64.4 6.8q11-1.5 22-3.8c2.5-.6 5.4.8 5.1 3.7a65.5 65.5 0 0 1-113 42A73 73 0 0 1 178 83.9c1.2 8 2.5 15.7 6.2 23 3 6 7.3 11 11.6 16-1.1 1.3-2.5 3.3-4.5 2-3.6-2.7-6.2-6.8-8.8-10.4-6.2-9-8.8-19.5-10-30.2-1-7.3 0-15 1.3-22.2.7-3.6 1.9-8.7 5.2-10.7m-58.6 5.2c2.2.8 3.2 3 4.1 5a62 62 0 0 1 4.8 39.3 41 41 0 0 1-12 23c-1.6 1.6-3.5 1.5-5.6 1.4v-3.1c2.1-2.6 4.8-4.6 6.5-7.5a53 53 0 0 0 7-25.2A54.7 54.7 0 0 1 39 123c-9-6.5-16-15.9-19.7-26.4-.6-2-1.2-4.4-.5-6.3a9 9 0 0 1 5.6-2c8.8-.6 17.3-2.7 26-4.5 7.6-1.5 14.7-3.9 22-6 9.6-3.2 19-7.8 28.2-11.9q7.8-3.5 15.2-7.8c1.4-.7 3-1.8 4.7-1.6" fill="black"/><path d="M182.2 57.9c5 1.8 9.7 3.8 14.8 5.1 13.9 3.7 28.1 7.8 42.3 9.6l7.7 1.5a23.5 23.5 0 0 0 41.1 14.5 26 26 0 0 0 6-16.4l6.5-1A60 60 0 0 1 227 124a59.7 59.7 0 0 1-45-66.1M118 63a49.4 49.4 0 1 1-93.8 30.8q22.6-2.5 44-8.8a24 24 0 0 0 21 18c10.2 1 20-5 24-14.3 3-7.1 2.3-15.8-1.9-22.3z" fill="white"/></g></svg>
