<svg xmlns="http://www.w3.org/2000/svg" viewBox="0 0 762 762"><g transform="translate(154.7 340.2)"><path d="M246.2 0c1.7.5 1.9 2 2 3.6 0 6.7-1 13.4-.8 20.2 8.3.5 16 2 24 4.4q4.7-10.7 8.8-21.6c1-1.8 1.5-4.1 4-3.8 2.4.3 2.6 3 1.8 4.8L277 30a70 70 0 0 1 18 11l14.6-13.8c1.7-1.6 3.4-1 5.4-1.1-.2 2 .3 3.6-1.4 5.1q-7.1 7.1-14.6 13.9a30 30 0 0 1 6.7 16.7c.7 9.9-4.8 18.3-12 24.4a79 79 0 0 1-40.5 16.1c-16.6 1.9-33.8.9-49.6-5a56 56 0 0 1-24.3-16.5c-5-6.4-7.8-14.7-5.7-22.8a38 38 0 0 1 18.3-22.5 96 96 0 0 1 49.5-12q.3-10 1-19.7c.2-2 1.3-4.3 3.7-3.7M56.3 18.2c2-.2 2.6 2.2 3.1 3.6 1.2 5 1.3 10.2 2.2 15.3a99 99 0 0 1 25.7.7c10.9 2 22 6 30.2 13.8 5 4.7 8.4 11.3 8.2 18.2a27 27 0 0 1-9.9 18.5 65 65 0 0 1-33 13.7 84 84 0 0 1-47.4-6.3c-8.5-4.1-17-11.2-19.2-20.8a23 23 0 0 1 2-14.8Q12.4 55 6.7 49.4c-.8-1-2.4-2.2-2-3.6 0-2.6 3.5-3 5-1.4l11.7 10.9q5-5.4 11.1-9.2l-8.2-18.4c-1.1-2.2-.9-4.4-.7-6.8q2 .2 3.8.8c1.2 1.2 1.8 3 2.6 4.5l7.5 17.2q9-3.8 18.3-5.6c-.4-5.4-1.7-10.7-2-16 0-1.6.4-4.1 2.5-3.6" fill="black"/><path d="M223.8 30.5A103 103 0 0 1 268 33c9.5 3 19.2 7.5 26 15a22 22 0 0 1 6 17.7c-1 7.2-5.8 13-11.4 17.3a74 74 0 0 1-31.1 12.8 102 102 0 0 1-47.6-2.6c-9.5-3-19.1-7.8-25.6-15.5-4.3-5-6.9-12.4-4.9-19 1.6-6.6 6.7-12 12-16a76 76 0 0 1 32.4-12.3m-168 13.3c15.6-3 33-1.7 47.4 5 6.4 3.1 13.4 8.3 15.8 15.3 2 5.6.3 11.7-3.4 16.2a44 44 0 0 1-18.5 12.3 81 81 0 0 1-39.8 3.8c-9-1.3-18.5-4.3-26-9.6-5.1-4-9.5-9-9.8-15.9-.2-6.6 3.8-12 8.7-16.1a59 59 0 0 1 25.6-11" fill="white"/><path d="M276.5 46c2.2-1.6 4.7-.3 6 1.7 1.8 3 2.1 6.6 2.5 10.1.4 5.2.8 10.7-.3 15.9q-.5 2-2 3.5c-3 1.4-6.9-1.3-7.6-4.2-2-6.2-2-13.2-1.4-19.7.4-2.3.6-5.9 2.8-7.3M97.6 53.1a4 4 0 0 1 6 2.4c1.8 5.1 1.9 11 2 16.3-.1 3.1-.4 8-3.8 9.5-2.6 1-4.6-1.4-5.4-3.6a45 45 0 0 1-1.5-17c.2-2.3.4-6.2 2.7-7.6" fill="black"/></g></svg>
