<svg xmlns="http://www.w3.org/2000/svg" viewBox="0 0 762 762"><g transform="translate(154.7 340.2)"><path d="M231.8 1.6a65.2 65.2 0 1 1 18.8 129 65.2 65.2 0 0 1-18.8-129" fill="black"/><path d="M233.5 7a59.6 59.6 0 1 1 15.3 118.4A59.6 59.6 0 0 1 233.5 7" fill="white"/><path d="M65.5 23.9a55.3 55.3 0 0 1 60 45.4 54.9 54.9 0 0 1-103.8 33.1A54 54 0 0 1 17 69.8a54.5 54.5 0 0 1 48.5-46" fill="black"/><path d="M62.5 30.1a49.4 49.4 0 1 1-6 95.5 49.5 49.5 0 0 1-20.2-81.8 50 50 0 0 1 26.2-13.7" fill="white"/><path d="M243 33.5c-3.8 4-6.6 8.6-6.6 14.3A21 21 0 0 0 249 68.2a19 19 0 0 0 17.7-2 36.3 36.3 0 1 1-52.7-31 39 39 0 0 1 29.2-1.7M76.3 44.7A35 35 0 0 1 99 49c-3 3-5.4 6.3-5.5 10.8a14.6 14.6 0 0 0 11.8 15.5c3.4.6 6.2-.5 9.4-1.5a34 34 0 0 1-14.8 31.6 33.3 33.3 0 1 1-23.6-60.7" fill="black"/><path d="M211.7 66.3c2.3-1 4.8-1.3 7 .2 3.5 2.3 3.5 7.5.8 10.5s-7.8 3.2-10.3-.1c-2.9-3.4-1.4-8.7 2.5-10.6m-148 6c4.8-1.6 9.3 3.6 7.1 8-1.6 3.7-7 4.4-9.4 1.4-2.6-3-1.5-8 2.3-9.4m157.1 9.2q3.9-1 7.8.1c6.1 2.4 8 11.2 3.6 16-4 4.8-11.8 5-15.7 0-4.5-5.3-2.5-13.9 4.3-16.1m-150 8c3.4-1 7.1-.6 9.6 2.2 3.5 3.4 3.4 9.6-.6 12.6-4 3.5-10.7 1.8-13.2-2.8a8.3 8.3 0 0 1 4.2-12" fill="white"/></g></svg>
