<svg xmlns="http://www.w3.org/2000/svg" viewBox="0 0 762 762"><g transform="translate(154.7 340.2)"><path d="M258.8 3.3a66 66 0 0 1 34 22.7c7.5-5.1 14.7-10.7 22.4-15.7l3 1.3c-.3 2-.2 3.6-2.2 4.9l-20 14.2a65 65 0 0 1 9.8 44c-.5 2.7-3 3.4-5.5 3.6q-29.6 1.7-59 5.4c-11 1.4-22.2 2-33.2 3.6L194.5 89c-5 .7-9.5 1.7-14.5.3a65.2 65.2 0 0 1 78.8-86.1" fill="black"/><path d="M249.8 7.2a60 60 0 0 1 50.7 65.2q-7.1.8-14.2 1.2c-18 1.2-36 3.3-53.8 5.5 1-3 2.2-6.1 2.5-9.3.8-9.3-4.1-18.8-12.3-23.4a25 25 0 0 0-17.5-2.7 24.5 24.5 0 0 0-19.5 25.1 25 25 0 0 0 6.3 15.8l-7.3.7a59.3 59.3 0 0 1 35.4-74.9 61 61 0 0 1 29.7-3.2" fill="white"/><path d="M100.8 32.2A55 55 0 0 1 124.1 94c-5.3 1-10.4.5-15.8.5-24-.2-48-.1-72 1.5-5.9-.1-12.6 1.6-17.8-1.2-1-4.6-2.1-9.2-2.3-13.9a60 60 0 0 1 6.8-29q-9.2-5.6-18.2-11.6C3 38.8 3.1 37.5 4 35.5c2.7-1 4.5.5 6.8 1.8L26 47a55.3 55.3 0 0 1 74.8-14.9" fill="black"/><path d="M85.1 31.3a49.4 49.4 0 0 1 34.3 57.9l-5.6.1a26 26 0 0 0 2.9-14.5c-1-8.7-7.3-16.1-15.6-18.6q-5.9-1.7-11.8-.3a22 22 0 0 0-16.6 19.9c-.5 4.7.9 9 2.7 13.2q-20 0-40 1.6c-3.8.2-8 .7-11.6-.3-1.6-3-1.6-7.1-1.8-10.5a49 49 0 0 1 63.1-48.5" fill="white"/></g></svg>
