<svg xmlns="http://www.w3.org/2000/svg" viewBox="0 0 762 762"><g transform="translate(154.7 340.2)"><path d="M235.6 1a65.4 65.4 0 0 1 59.6 101.7A65.2 65.2 0 1 1 235.6 1" fill="black"/><path d="M233.6 7a59.6 59.6 0 1 1 15.2 118.3A59.6 59.6 0 0 1 233.6 7.1" fill="white"/><path d="M65.6 23.9a55.4 55.4 0 0 1 58.6 40 55.5 55.5 0 0 1-26.7 63 54.7 54.7 0 0 1-81.3-46 55 55 0 0 1 49.4-57" fill="black"/><path d="M62.6 30a49 49 0 0 1 57.2 56.7 49.1 49.1 0 0 1-93.1 12.9A49.3 49.3 0 0 1 62.6 30" fill="white"/><path d="M210.8 44.3c12-2.9 24.9 4.2 29.3 15.6a26 26 0 0 1 0 18.7 25.6 25.6 0 1 1-29.3-34.3M82.6 55.1a23 23 0 0 1 27 18.1c.7 5.7.6 11.4-2.6 16.2a23 23 0 0 1-23.6 11.2 23.1 23.1 0 0 1-.8-45.5" fill="black"/></g></svg>
