<svg xmlns="http://www.w3.org/2000/svg" viewBox="0 0 762 762"><g transform="translate(154.7 340.2)"><path d="M240.3.9a65.3 65.3 0 0 1 65.5 73.7c-.4 2.7-3.2 3.6-5.5 3.8-23 1-45.4 3.7-68 6.3q-19.7 1.7-39.2 4.6c-4.6.5-8.6 1.7-13.1 0A65 65 0 0 1 240.3.9" fill="black"/><path d="M250.5 7.3a60 60 0 0 1 50.2 60.5c-.2 1.4.2 3.5-.7 4.6-4.2.7-8.5.7-12.7 1.1-18.4 1.2-36.6 3.4-54.9 5.6a31 31 0 0 0 2.7-10.3A24.8 24.8 0 0 0 195.5 48a24 24 0 0 0-9.8 20.8c0 6 2.6 11.2 6.4 15.7l-7.3.8a59.2 59.2 0 0 1 65.7-78" fill="white"/><path d="M100.2 31.9a55 55 0 0 1 23.9 61.8c-4 1.3-7.7.8-11.8.8-25.4-.3-50.6-.3-76 1.4-5.6-.3-13 1.8-17.8-1.4a55.2 55.2 0 0 1 81.7-62.7" fill="black"/><path d="M94.8 35.3a49 49 0 0 1 24.6 53.9l-5.7.1a24 24 0 0 0 2.8-15.5A22 22 0 0 0 101.1 56a22 22 0 0 0-28.5 20.7c-.3 4.4 1 8.2 2.9 12.1q-23.2.3-46.2 2c-1.8-.2-5.8.5-6.1-2a49 49 0 0 1 71.6-53.6" fill="white"/></g></svg>
