<svg xmlns="http://www.w3.org/2000/svg" viewBox="0 0 762 762"><g transform="translate(154.7 340.2)"><path d="M224.8 24.5a103 103 0 0 1 57 7.8 46 46 0 0 1 21.2 19 26 26 0 0 1-.2 24c-4.2 8-12 14-20 18.2a95 95 0 0 1-44.5 9.6c-12 0-24-1.8-35.2-6a56 56 0 0 1-23.7-16.3 27 27 0 0 1-6-22A35 35 0 0 1 188 38.4a82 82 0 0 1 36.9-13.9" fill="black"/><path d="M231.3 29.5c8.4-.3 17.2-.6 25.5 1A74 74 0 0 1 287 42c5.5 4 10.4 9.1 12.3 15.8s-.2 14.1-4.7 19.4A54 54 0 0 1 270 92.7q-15 5-30.8 4.8A93 93 0 0 1 209 93a54 54 0 0 1-24.8-15.2c-4.3-5-7-12.4-4.9-19 1.5-6.5 6.7-12 12-16 11.4-8.2 26-12 39.9-13.3" fill="white"/><path d="M57.8 37.6c16.3-2.3 34.2-1 49 6.6 7.8 4 15.5 10.4 18 19 2.4 7.2-.1 14.8-4.6 20.5A51 51 0 0 1 95.5 99a90 90 0 0 1-45.2 1.8 54 54 0 0 1-27.2-14c-4.7-4.7-8-11.2-7.4-18 .6-7.3 5-13.7 10.5-18.2a65 65 0 0 1 31.6-13.1" fill="black"/><path d="M55.8 43.7c15.6-3 33-1.8 47.4 5 6.4 3 13.5 8.3 15.8 15.3a17 17 0 0 1-3.3 16.2A44 44 0 0 1 97 92.5c-12.4 4.5-26 6-39 4-9.3-1.3-19-4.3-26.7-9.8-5.2-4-9.6-9-10-15.9-.1-6.8 4.3-12.5 9.4-16.6a60 60 0 0 1 25-10.5" fill="white"/><path d="M276.5 46c2.1-1.6 4.7-.3 6 1.7 2.4 4 2.4 9.6 2.8 14 .2 4.5.5 9.7-1.3 13.8-2 4.1-7.4 1.4-8.7-1.8a50 50 0 0 1-1.6-20.4c.4-2.3.6-5.9 2.8-7.3m-175.3 6.9c2.1.5 2.8 3.7 3.3 5.6q1.3 7.6 1 15.3c-.3 2.6-.7 5.7-3.1 7.2-2 1.3-4.3 0-5.4-2-2-3.8-2.1-9-2.2-13.2 0-4.4-.2-8.7 2.2-12.6 1.4-.4 2.6-1 4.2-.3" fill="black"/></g></svg>
