<svg xmlns="http://www.w3.org/2000/svg" viewBox="0 0 762 762"><g transform="translate(154.7 340.2)"><path d="M301.5 45.6c1.2 1.4 2.4 2.4 2.9 4.2a65.5 65.5 0 0 1-79 79.6 65 65 0 0 1-49-71.6c.6-3.4 1.8-7.2 5.7-8 8.6-1.6 17.5-1.4 26.2-2.3a999 999 0 0 1 73-2.1c6.8-.4 13.5.4 20.2.2" fill="black"/><path d="m291.4 51 7.4.5a59 59 0 0 1-37.2 70.5 59.3 59.3 0 0 1-79-66q2.7-1.2 5.7-1.4 25.3-2 50.8-3c-.5 5.3-.2 10.4 2 15.4a27 27 0 0 0 18.7 15q7.4 1.4 14.6-1.1c8.2-2.8 14.3-10 16.5-18.3.9-3.9.6-7.6.5-11.5" fill="white"/><path d="M116.3 57.5c2-.3 3.8.3 5.8.6A55 55 0 1 1 16 76.7c6.5-3.2 13.1-3.7 20.4-5.4Q67.3 64.9 98.3 60q9-1.6 18-2.5" fill="black"/><path d="M118 62.9a55 55 0 0 1 2.6 16 49.6 49.6 0 0 1-54.3 48.9 50 50 0 0 1-44.4-47.4c14.4-3.6 29.1-6.2 43.7-9a25 25 0 0 0 10.1 16 24 24 0 0 0 30-2.3 25 25 0 0 0 7.1-21.7z" fill="white"/></g></svg>
