<svg xmlns="http://www.w3.org/2000/svg" viewBox="0 0 762 762"><g transform="translate(154.7 340.2)"><path d="M234.6 1.2a66 66 0 0 1 68.2 43.3 65 65 0 0 1-20.5 72.3A65.4 65.4 0 1 1 234.6 1.2" fill="black"/><path d="M233.6 7a59.6 59.6 0 1 1 15.1 118.4A59.6 59.6 0 0 1 233.6 7" fill="white"/><path d="M65.6 23.9a55.3 55.3 0 0 1 59.7 44.8 55 55 0 1 1-59.8-44.8" fill="black"/><path d="M62.6 30a49 49 0 0 1 57 57.5 49.4 49.4 0 1 1-57-57.4" fill="white"/><path d="M211.6 43a23.8 23.8 0 1 1 5.7 47.1 23.8 23.8 0 0 1-5.7-47.1M42.8 57.7a22 22 0 0 1 28 16.5 21.7 21.7 0 0 1-17.5 25.6 22 22 0 0 1-24.6-14.2 22.3 22.3 0 0 1 14.1-28" fill="black"/></g></svg>
