<svg xmlns="http://www.w3.org/2000/svg" viewBox="0 0 762 762"><g transform="translate(154.7 340.2)"><path d="M240.3.9a65.2 65.2 0 0 1 65.3 75.5c-1 7.5-4 14.2-6.8 21.2-1.4.6-2.9 1.5-4.4 1.8-2.4 0-4.8-1-7-1.6a179 179 0 0 0-49.1-7.6 96 96 0 0 0-43 9.6c-3.2 1.3-6 4-9 1.3A65 65 0 0 1 240.2.9" fill="black"/><path d="M241.3 6.6a59 59 0 0 1 57.1 43.2 59 59 0 0 1-4.3 43.5c-5.3-.6-10.2-2.6-15.4-3.8-16-3.7-33-5.8-49.4-4.4A92 92 0 0 0 190 96.6a59.5 59.5 0 0 1 51.3-90" fill="white"/><path d="M65.6 23.9a55.4 55.4 0 0 1 59.9 45.4 54.9 54.9 0 0 1-101 38.2 57 57 0 0 1-8.3-26.6 55 55 0 0 1 49.4-57" fill="black"/><path d="M60.8 30.5a49.3 49.3 0 1 1 20.9 96.3 49.3 49.3 0 0 1-21-96.3" fill="white"/><path d="M203.7 51.6a15.9 15.9 0 1 1 7.2 30.8c-9.2 2.3-19-5-19-14.6a16 16 0 0 1 11.8-16.2m-116 10.8a16 16 0 1 1-4.4 28.4 15.9 15.9 0 0 1 4.4-28.4" fill="black"/></g></svg>
