<svg xmlns="http://www.w3.org/2000/svg" viewBox="0 0 762 762"><g transform="translate(154.7 340.2)"><path d="M60.3 24.7a55 55 0 0 1 63 35.8l8 .8-.7 3.7c-1.5 1.1-3.8 1.2-5.5 1.7a55 55 0 1 1-109 9L9 75.4c.3-1.3 0-3.8 1.3-4.6q3.2-.7 6.6-1a55 55 0 0 1 43.4-45M219.8 4.4a65 65 0 0 1 77.5 28.4c2.8 4.6 4.5 9.4 6.5 14.2 4.5-.5 8.8-.8 13.2.3-.6 1.5-.4 3.5-2 4.2-3.2.8-6.5.9-9.8 1.2q1.1 7 1.3 14.1a66 66 0 0 1-44.1 61A65.2 65.2 0 0 1 176 62.5c-3.3.3-6.6.8-10 .5-2.3-.4-1.9-2.6-2.5-4.4q6.3-1.5 13-2a66 66 0 0 1 43.3-52.1m-148.5 25a49 49 0 0 0-48.5 39.9l39.5-3.3c7.7-.1 15.3-1.5 23-1.7 10.7-.8 21.5-1.3 32.2-3-7.1-19-26-32.2-46.2-32m200-14.6a60 60 0 0 0-80 19 58 58 0 0 0-9 22.4c10.9-1.2 21.7-1.6 32.5-2.6 8.5-.8 17-.8 25.4-1.8q29-2 57.7-4.3a61 61 0 0 0-26.6-32.7" fill="black"/><path d="M299.4 53.2a59.8 59.8 0 0 1-67.2 71.8 59.7 59.7 0 0 1-50.7-63l8.3-.7a26 26 0 0 0 8.2 17.8A24.6 24.6 0 0 0 239 58l13.5-1.4c15.7-1 31.3-2.6 47-3.4M115.2 67.6l3.8-1a49.5 49.5 0 0 1-85.8 43.2A50 50 0 0 1 22 75.3c16.4-1.6 33-2.6 49.4-4.4.1 5.5 1.1 10.8 4.7 15.2a22 22 0 0 0 23.4 8c7-2.3 13-8 15-15.2 1.2-3.8.6-7.3.7-11.2" fill="white"/></g></svg>
