<svg xmlns="http://www.w3.org/2000/svg" viewBox="0 0 762 762"><g transform="translate(154.7 340.2)"><path d="M242.5 30a57 57 0 0 1 34 5.5 42 42 0 0 1 18.1 18 33 33 0 0 1 2.1 21.8c-2 8-7.2 15.2-13.7 20.2a57 57 0 0 1-54.2 7.8 44 44 0 0 1-21.4-16.6 34 34 0 0 1-5.4-15.9 35 35 0 0 1 10.3-26c8-8.4 18.8-13 30.2-14.8" fill="black"/><path d="M243.5 36a47 47 0 0 1 39.9 11.8c6.6 6.5 10.3 17 7.6 26-2 8.2-7.7 14.5-14.6 19.2a52 52 0 0 1-43 5.6 39 39 0 0 1-21.8-16.1c-3-5-4-11-3.5-16.7.7-6.8 4.5-13.1 9.3-17.9a47 47 0 0 1 26-12" fill="white"/><path d="M53.8 45.5c17.6-2.7 37.9 3.4 47.7 19.1a31 31 0 0 1 2 29.2c-3 6.3-8 11.6-13.8 15.4a52 52 0 0 1-24.4 7.8 48 48 0 0 1-39.4-15.8 31 31 0 0 1-7.5-22.4c.5-8.3 4.6-15.7 10.5-21.4a48 48 0 0 1 24.9-11.9" fill="black"/><path d="M60.9 51a43 43 0 0 1 27.3 8 29 29 0 0 1 11.2 15.3A25 25 0 0 1 97.3 93a37 37 0 0 1-23 16.7 45 45 0 0 1-40.8-9 27 27 0 0 1-9.2-22.3C25 73 27.4 67.7 31 63.6A41 41 0 0 1 61 51" fill="white"/><path d="M235.8 54.4q5.6-1.4 11 1a16 16 0 0 1 8.8 17.4 16 16 0 0 1-15.3 12.9 15.9 15.9 0 0 1-4.5-31.3" fill="black"/><path d="M238 60c4-.7 7.8.6 10.1 4 3 4 2.3 9.8-1.3 13.2-4.5 4-12 3.4-15.2-1.7a10 10 0 0 1 6.3-15.5" fill="white"/><path d="M303 61c1.7.3 3.6-.2 4.6 1.5 1.6 2.4 2.4 5.5 2.9 8.4a35 35 0 0 1-9.9 29.3c-3.2 3-7.8 6-12.3 6-2.8.1-4.3-2.6-2.4-4.7 3.3-1.7 6.6-2.2 9.5-4.6a29 29 0 0 0 9.5-22.1c0-4-1.5-7.2-2.6-11zM64.7 65.3c4.5-.9 9.2.5 12.7 3.3a17 17 0 0 1 4.7 19.8 16 16 0 0 1-14.8 10.2c-8.5.6-16-6.4-16.5-14.8-1-8.7 5.3-17 14-18.5" fill="black"/><path d="M63.8 71.6c5.1-2 11 .6 13 5.7 2.8 6.4-1.6 14.7-8.7 15.4a10 10 0 0 1-10-4.8 11.4 11.4 0 0 1 5.7-16.3" fill="white"/><path d="M14.7 80.4c.5 4-1.4 7.4-1.6 11.4-.3 6 2.4 12.1 7.3 15.9 2.4 1.9 5 2.8 7.7 4.3 2 .8 1.9 2 1.6 3.9-1.5 1.8-3.3 1.4-5.3.8a26 26 0 0 1-16-16 25 25 0 0 1 1.4-19.4c1.3-1.8 3-.9 5-.9" fill="black"/></g></svg>
