<svg xmlns="http://www.w3.org/2000/svg" viewBox="0 0 762 762"><g transform="translate(154.7 340.2)"><path d="M243.3 21.3a75 75 0 0 1 33.2 4.3 46 46 0 0 1 26.2 23.8c1.4 3.3 3.1 7.6 2.2 11.1-3 3.3-8.5 1-12.5 1q-19.1-.9-38 .6c-14 1-28.5 1.7-42 5.3a188 188 0 0 0-25.2 7.4c-3.7 1.2-6.8 3-11 2.2 1.4-16.8 13-31.4 26.4-41a87 87 0 0 1 40.7-14.7" fill="black"/><path d="M257.3 27A54 54 0 0 1 289 40q7.5 7 10.2 16.7c-16.7-2.2-34.3-.9-51 0-7.7 1-15.4 1-23 2.3a107 107 0 0 0 1-27.7c10-3.6 20.3-5.5 31-4.3" fill="white"/><path d="M53.5 45.5a80 80 0 0 1 50.9 8.2c8.7 4.8 16.9 12 20.6 21.5.7 2 1.6 4.5-.7 6-2.7 0-5.4-.7-8-1.1-9.4-1.8-19.4-2.1-29-2.6-10.7-.4-21.3.5-32 .6-12.5.9-24.8 3-37 5-2.5.6-3.2-2.4-3.2-4.2.2-12.4 9.1-22.3 19.8-27.5q9-3.8 18.6-6" fill="black"/><path d="M201.2 44.1c-.6 7-.6 13.5 0 20.4a278 278 0 0 0-18.1 6.1 58 58 0 0 1 18-26.5M58.9 50.2c9.9-.6 19.7 0 29.2 2.9a51 51 0 0 1 30.6 21.5c-20.2-3.5-40-2.6-60.4-2.4 1-7.4.7-14.7.6-22m-24.1 7.2q-.4 8.7 0 17.5-7 .3-14 1.7c1.6-7 5.1-12.1 10.6-16.6z" fill="white"/></g></svg>
