<svg xmlns="http://www.w3.org/2000/svg" viewBox="0 0 762 762"><g transform="translate(154.7 340.2)"><path d="M64.5 24a55 55 0 0 1 61 45.5 55 55 0 1 1-61-45.5" fill="black"/><path d="M62.5 30a49.4 49.4 0 0 1 57 58.3 49.3 49.3 0 1 1-57-58.2" fill="white"/><path d="M274.3 51.7c13-.6 27-1.3 39.8 1.5 2.2.6 3 1.3 2.3 3.7-2 1.7-6 3.3-6.8 6 0 6 9 6 9.7 10.9-.3 3-2.4 3.3-5 3.1q-11.5-1-23-1.4c-16 0-32-.2-48 .9-7.6.7-15.2.6-22.8 1.2-11 1-22.1 1.3-33.1 3.3q-4.1 1-8.2 1c-2-1.2-3.1-5.5-.6-6.8 5.3-3 11.3-5 17.2-6.8 15-5 30.7-8.3 46.2-11.7 10.7-2.4 21.5-3.7 32.3-4.9M89.7 56.5q5.3-1.4 10.4-.2A20.2 20.2 0 0 1 94.3 96a20.1 20.1 0 0 1-4.5-39.5" fill="black"/></g></svg>
