<svg xmlns="http://www.w3.org/2000/svg" viewBox="0 0 762 762"><g transform="translate(154.7 340.2)"><path d="M246.3 44.6q2.4 0 4.9.6c-.3 2.3.3 4.3-2.6 4.8l-28.3 2c-4.3.2-8.8 1.2-13 .9q-3-1-2.1-4.1c1.4-1.4 3.2-1.6 5-1.7 12-.6 24-1.9 36.1-2.5M80.6 58.1c1.3 1.3 2.2 2 2.1 3.9-1.4 2.5-5 2-7.4 2.3-8 .2-16 1.7-24 1.7-2.8-.3-2.2-2.5-2.6-4.5 10.3-2.7 21.4-1.8 32-3.4m222.5 1.8 3.1 2.2a66 66 0 0 1-34.2 61.5 65.4 65.4 0 0 1-96-53c2.1-3.3 5.8-3 9.2-3.2l92-6.2c8.7-.2 17.2-1.7 25.9-1.3" fill="black"/><path d="M300.6 65.5a59.2 59.2 0 0 1-68.3 59.5 60 60 0 0 1-35.3-18.9 58 58 0 0 1-14.8-32.5c11.2-1.2 22.4-1.7 33.6-2.6a73 73 0 0 0 5.2 25c2 4.3 5.3 10 10.3 11.1 4.7.9 8-2.5 10-6.4 4.5-9.3 4-21.5 3.1-31.6q28.1-2 56.2-3.6" fill="white"/><path d="M99.3 76.5c8.1-.7 16.1-1.4 24.3-1l2.6 2.5a55.1 55.1 0 0 1-109.6 6.7c1-.9 2.1-2.7 3.6-2.8 13-1.6 26-1.7 39-3 13.4-.6 26.8-1.7 40.1-2.4" fill="black"/><path d="M120.7 81a49.5 49.5 0 0 1-49.4 47 50 50 0 0 1-48.6-40.7q17-1.5 34-2.3c0 7.2 1 14.4 4.9 20.6 1.7 2.6 4.3 5.2 7.7 5 3.5-.1 6-3.3 7.5-6.3A42 42 0 0 0 79 83.5c13.9-.8 27.8-2.2 41.7-2.4" fill="white"/></g></svg>
