<svg xmlns="http://www.w3.org/2000/svg" viewBox="0 0 762 762"><g transform="translate(154.7 340.2)"><path d="M273.6 9.5A64 64 0 0 1 302.1 43a64 64 0 0 1 .5 45c-1 3-2.9 5.3-6.3 4.9-15-.8-30 .1-45 .5q-15 1.5-30 3.8-15.6 2.9-31 6.1c-4.3-.1-5.3-4.2-7.2-7.3a65.5 65.5 0 0 1 47.1-94.2 65 65 0 0 1 43.4 7.7" fill="black"/><path d="M242.3 6.7a59 59 0 0 1 54.4 80.6l-3.2-.3a27 27 0 0 0 1.4-15.4 26.6 26.6 0 1 0-50.1 16.9 287 287 0 0 0-34 5.2c-6.7 1.2-13.4 3.2-20.2 4a60 60 0 0 1 10.7-75.9 59 59 0 0 1 41-15.1" fill="white"/><path d="M76.3 23.9a54.8 54.8 0 0 1 42.8 81.8c-1.1 1.8-2.9 4-5 4.7-3 .8-6.6-.2-9.6-.9q-13-3-26.3-5.1-19.4-1.4-39 0c-4.7.4-9.7 1.4-14.5 1-2.3-1-3.7-4.2-4.6-6.4a55 55 0 0 1 56.2-75" fill="black"/><path d="M85.8 31.5a49.3 49.3 0 0 1 26.7 74l-4.1-.7c4.1-4.4 7-9.8 6.8-16A22.6 22.6 0 0 0 71.5 80c-2.5 6-1.9 12 .4 18-7.6.3-15-.4-22.6.3l-22 1.8q-1-1.5-1.8-3.4a49.2 49.2 0 0 1 60.3-65.2" fill="white"/></g></svg>
