<svg xmlns="http://www.w3.org/2000/svg" viewBox="0 0 762 762"><g transform="translate(154.7 340.2)"><path d="m304.2 58.6 2.6 1.1-.5 3c-2.2 3.9-6 7-9 10.1q-8.7 7.7-19.1 12.9c-14 7-30.3 9.9-45.9 8.4A111 111 0 0 1 178.1 73c-1.4-1.1-2.9-2-2.4-4 .5-2.5 4-3.4 6-2.5 21.3 6.3 42.7 6.7 64.6 5.5 16.3-1.6 32-4.3 47.5-9.7 3.6-1.2 6.8-2.8 10.4-3.7M124.9 69.2c2.8 1.4 2.2 4.4 0 6.2a79 79 0 0 1-39.6 18.8c-7.8 1-15.1 2.3-23 1.1a85 85 0 0 1-39-12.5c-2.1-1.4-4.7-2.9-6.2-5q-.7-3.7 3.2-4.2c2.7.3 5.4 1.4 8 2 7.6 2.2 15.3 3 23 3.8a169 169 0 0 0 64.2-7.5c3-.8 6.3-3 9.3-2.7" fill="black"/></g></svg>
