<svg xmlns="http://www.w3.org/2000/svg" viewBox="0 0 762 762"><g transform="translate(154.7 340.2)"><path d="M303.7 45.4c3.8 2.6 8 5.3 11.1 8.9q.3 2.5 0 5c-1.9.7-3.3 1.1-5.3.3a142 142 0 0 0-91.3 0c-12.6 4.2-25 10.3-35.3 18.8-1.4 1-4 2.9-5.3 1-1.7-1.5-.7-3.4.2-5.1a81 81 0 0 1 30.6-30.4 94 94 0 0 1 95.3 1.5M89.8 57.2a57 57 0 0 1 31.2 18c2.8 3.8 6.5 8 5.9 13.1-1.6 0-3.3.7-4.6-.5a51 51 0 0 0-13.9-8 100 100 0 0 0-48.6-5.1 75 75 0 0 0-36 13.7c-1.9 1.3-3.2 2.8-5.7 1.8-1.2-1.9-1-4.5.4-6.2 16-21.8 45-31.8 71.3-26.8" fill="black"/></g></svg>
