<svg xmlns="http://www.w3.org/2000/svg" viewBox="0 0 762 762"><g transform="translate(154.7 340.2)"><path d="M239.3.9a65 65 0 0 1 63.5 43.4c2.1 5.6 2.6 11.1 3.6 17-1.3 1.4-1.6 3.3-4 3-7-.4-14-2-21-2.3-8.8 0-17.4-.3-26.1 1-9.9 1.6-19.6 2.6-29.1 5.7A175 175 0 0 0 193.7 81c-3.3 1.7-6.5 3.8-9.9 5.3-2 .7-4.4.3-5.3-2a66 66 0 0 1 17.3-65.1A65 65 0 0 1 239.3.9" fill="black"/><path d="M241.3 6.6a59 59 0 0 1 59 52.5q-22.4-4.4-45-2.5-9 1.2-17.9 2.9c-1-3.3-1.7-6.4-3.6-9.3a26.1 26.1 0 0 0-46.2 3.8 27 27 0 0 0 1.2 22.6l-5.8 3A60 60 0 0 1 203.5 20a59 59 0 0 1 37.8-13.4" fill="white"/><path d="M95.8 29.4A55 55 0 0 1 125 90.6l-2.9 1.6q-14.6-4.2-29.9-5.5a348 348 0 0 0-54 0c-7 .2-13.5 2-20.4 1.6q-1.6-3.5-1.7-7.5a55 55 0 0 1 79.6-51.5" fill="black"/><path d="M81.5 30.4a49.6 49.6 0 0 1 38.6 55.3 83 83 0 0 0-12.3-3q-18.7-2.8-37.6-2.4c-.1-3.8 0-7.4-1.5-11a23.1 23.1 0 0 0-42.7-.8c-2.2 5-1.8 9.7-2 14.9-1.7-1.3-2-1.4-2-3.5a49.4 49.4 0 0 1 59.5-49.4" fill="white"/></g></svg>
