<?xml version="1.0" encoding="UTF-8" standalone="no"?>
<!-- Created with Inkscape (http://www.inkscape.org/) -->

<svg
   width="47.848721mm"
   height="47.848717mm"
   viewBox="-5.742 -5.742 59.332 59.332"
   version="1.1"
   id="svg1"
   inkscape:version="1.4.4 (dcaf3e7, 2026-05-05)"
   sodipodi:docname="tab_find.dark.svg"
   inkscape:export-filename="tab_find.dark.png"
   inkscape:export-xdpi="96"
   inkscape:export-ydpi="96"
   xmlns:inkscape="http://www.inkscape.org/namespaces/inkscape"
   xmlns:sodipodi="http://sodipodi.sourceforge.net/DTD/sodipodi-0.dtd"
   xmlns="http://www.w3.org/2000/svg"
   xmlns:svg="http://www.w3.org/2000/svg">
  <sodipodi:namedview
     id="namedview1"
     pagecolor="#ffffff"
     bordercolor="#000000"
     borderopacity="0.25"
     inkscape:showpageshadow="2"
     inkscape:pageopacity="0.0"
     inkscape:pagecheckerboard="0"
     inkscape:deskcolor="#d1d1d1"
     inkscape:document-units="mm"
     inkscape:zoom="1.4376096"
     inkscape:cx="168.33499"
     inkscape:cy="159.9878"
     inkscape:window-width="1512"
     inkscape:window-height="921"
     inkscape:window-x="0"
     inkscape:window-y="33"
     inkscape:window-maximized="1"
     inkscape:current-layer="layer1"
     showgrid="false" />
  <defs
     id="defs1" />
  <g
     inkscape:label="Layer 1"
     inkscape:groupmode="layer"
     id="layer1"
     transform="translate(-78.845833,-124.61875)">
    <g
       id="g117"
       inkscape:label="find"
       transform="matrix(0.43194869,0,0,0.41887637,-176.93992,-19.011883)"
       style="display:inline">
      <path
         style="fill:#bfd5d5;fill-opacity:1"
         d="m 692.34278,455.61517 c -1.37684,-0.55892 -24.68046,-23.57726 -25.95142,-25.63371 -0.32511,-0.52603 -0.45011,-1.32383 -0.2778,-1.77288 0.17232,-0.44906 -0.95901,-2.05885 -2.51407,-3.57732 l -2.82738,-2.76086 -3.5835,2.21701 c -5.73914,3.55067 -11.60061,5.27904 -19.29791,5.69038 -8.82805,0.47177 -14.22771,-0.54487 -21.56163,-4.0596 -22.53608,-10.80026 -31.02249,-39.29494 -18.07509,-60.6904 8.59458,-14.20246 24.41146,-22.37089 40.72905,-21.03401 18.14493,1.48659 33.52243,14.65079 38.06857,32.58932 0.86558,3.4155 1.10532,6.81331 0.8767,12.42535 -0.35599,8.73828 -1.86012,13.82172 -6.14266,20.75998 l -2.6324,4.26483 2.34386,2.41826 c 1.28912,1.33004 3.21775,2.59722 4.28584,2.81596 1.25788,0.25761 6.38334,4.87178 14.55004,13.09863 12.06565,12.15449 12.60808,12.82553 12.60808,15.59728 0,5.74604 -5.50397,9.71982 -10.59828,7.65178 z"
         id="path112" />
      <path
         style="fill:#000000;fill-opacity:1"
         d="m 641.69197,418.20965 c 15.81046,-3.32945 26.23419,-17.12585 25.28803,-33.47017 -0.6441,-11.12654 -7.38995,-20.95958 -17.96447,-26.18579 -4.68965,-2.31775 -6.25921,-2.71366 -11.81024,-2.97906 -17.1229,-0.81866 -30.73102,10.06345 -33.66066,26.91765 -2.16204,12.43823 5.31915,26.87169 16.99213,32.78296 7.00604,3.5479 13.78003,4.48751 21.15521,2.93441 z"
         id="path111" />
    </g>
  </g>
</svg>
