<?xml version="1.0" encoding="UTF-8" standalone="no"?>
<!-- Created with Inkscape (http://www.inkscape.org/) -->

<svg
   width="47.848721mm"
   height="47.848717mm"
   viewBox="-5.742 -5.742 59.332 59.332"
   version="1.1"
   id="svg1"
   inkscape:version="1.4.4 (dcaf3e7, 2026-05-05)"
   sodipodi:docname="tab_entity.svg"
   xmlns:inkscape="http://www.inkscape.org/namespaces/inkscape"
   xmlns:sodipodi="http://sodipodi.sourceforge.net/DTD/sodipodi-0.dtd"
   xmlns="http://www.w3.org/2000/svg"
   xmlns:svg="http://www.w3.org/2000/svg">
  <sodipodi:namedview
     id="namedview1"
     pagecolor="#ffffff"
     bordercolor="#000000"
     borderopacity="0.25"
     inkscape:showpageshadow="2"
     inkscape:pageopacity="0.0"
     inkscape:pagecheckerboard="0"
     inkscape:deskcolor="#d1d1d1"
     inkscape:document-units="mm"
     inkscape:zoom="1.2739028"
     inkscape:cx="95.37619"
     inkscape:cy="25.119655"
     inkscape:window-width="1512"
     inkscape:window-height="921"
     inkscape:window-x="0"
     inkscape:window-y="33"
     inkscape:window-maximized="1"
     inkscape:current-layer="layer1"
     showgrid="false" />
  <defs
     id="defs1" />
  <g
     inkscape:label="Layer 1"
     inkscape:groupmode="layer"
     id="layer1"
     transform="translate(-78.845833,-124.61875)">
    <g
       id="g3"
       inkscape:label="entities">
      <path
         style="font-size:62.9272px;font-family:'Noto Sans';-inkscape-font-specification:'Noto Sans, @wght=700';font-variation-settings:'wght' 700;fill:#163d40;stroke-width:1.41179;stroke-linecap:square;paint-order:stroke fill markers"
         d="m 92.649716,124.61876 q 3.020506,0 5.285885,1.13269 2.265379,1.13269 3.523919,3.33514 1.25855,2.13953 1.25855,5.22296 0,3.96441 -1.88782,6.98492 -1.824887,2.95758 -4.971247,5.34881 l 5.348817,7.80297 q 0.62927,-1.76196 1.06976,-3.77563 0.50342,-2.01367 0.81805,-4.15319 h 8.5581 q -0.37756,2.76879 -1.63611,6.79614 -1.25854,3.96441 -3.7127,8.05468 l 6.41857,8.8098 h -9.56493 l -1.76196,-2.89465 q -1.510256,1.19562 -3.335145,2.01367 -1.824889,0.75513 -3.58685,1.13269 -1.699035,0.37757 -3.020506,0.37757 -4.027341,0 -6.796137,-1.57318 -2.768797,-1.57318 -4.153196,-4.40491 -1.384398,-2.89465 -1.384398,-6.67028 0,-3.02051 0.692199,-5.28589 0.755127,-2.26537 2.265379,-4.02734 1.510253,-1.82488 3.775632,-3.33514 -1.57318,-2.13952 -2.391233,-3.83856 -0.755127,-1.76196 -0.943908,-3.39807 -0.188782,-1.6361 -0.188782,-3.46099 0,-3.14636 1.384399,-5.41174 1.447325,-2.32831 3.775632,-3.52392 2.391233,-1.25855 5.16003,-1.25855 z m -2.70587,26.30357 q -0.818053,0.88098 -1.321471,1.88782 -0.503417,0.94391 -0.755126,2.0766 -0.251709,1.13268 -0.251709,2.51708 0,2.64295 1.384398,4.34198 1.447326,1.63611 3.649778,1.63611 0.943908,0 1.950743,-0.37757 1.069763,-0.44049 2.517088,-1.6361 z m 2.768797,-19.4445 q -0.880981,0 -1.761961,0.81805 -0.880981,0.75513 -0.880981,2.95758 0,1.3844 0.377563,3.08343 0.44049,1.69904 1.321471,3.20929 1.57318,-1.25855 2.517088,-2.89465 0.943908,-1.63611 0.943908,-3.64978 0,-2.01367 -0.880981,-2.7688 -0.818053,-0.75512 -1.636107,-0.75512 z"
         id="text1"
         aria-label="&amp;" />
      <path
         d="m 125.43596,157.80544 q -0.44049,3.08343 -1.13269,5.53759 -0.69219,2.45416 -1.51025,4.65662 -0.75512,2.20245 -1.69903,4.53075 h -6.60736 q 0.44049,-1.82488 0.81806,-3.83855 0.37756,-1.95075 0.69219,-4.09027 0.31464,-2.0766 0.56635,-3.96442 0.31464,-1.88781 0.50342,-3.52392 h 8.05468 z m -9.56493,-23.03136 q 0,-2.58001 1.19562,-3.90148 1.19561,-1.32147 3.64977,-1.32147 2.32831,0 3.461,1.32147 1.19562,1.32147 1.19562,3.83856 0,2.51709 -1.25855,3.83856 -1.25854,1.32147 -3.39807,1.32147 -2.3283,0 -3.58685,-1.32147 -1.25854,-1.3844 -1.25854,-3.77564 z"
         id="text2"
         style="font-size:62.9272px;font-family:'Noto Sans';-inkscape-font-specification:'Noto Sans, @wght=700';font-variation-settings:'wght' 700;fill:#163d40;stroke-width:1.56455;stroke-linecap:square;paint-order:stroke fill markers"
         aria-label=";" />
    </g>
  </g>
</svg>
