<?xml version="1.0" encoding="UTF-8" standalone="no"?>
<!-- Created with Inkscape (http://www.inkscape.org/) -->

<svg
   width="47.848721mm"
   height="47.848717mm"
   viewBox="-5.742 -5.742 59.332 59.332"
   version="1.1"
   id="svg1"
   inkscape:version="1.4.4 (dcaf3e7, 2026-05-05)"
   sodipodi:docname="toc.svg"
   xmlns:inkscape="http://www.inkscape.org/namespaces/inkscape"
   xmlns:sodipodi="http://sodipodi.sourceforge.net/DTD/sodipodi-0.dtd"
   xmlns="http://www.w3.org/2000/svg"
   xmlns:svg="http://www.w3.org/2000/svg">
  <sodipodi:namedview
     id="namedview1"
     pagecolor="#ffffff"
     bordercolor="#000000"
     borderopacity="0.25"
     inkscape:showpageshadow="2"
     inkscape:pageopacity="0.0"
     inkscape:pagecheckerboard="0"
     inkscape:deskcolor="#d1d1d1"
     inkscape:document-units="mm"
     inkscape:zoom="1.4376096"
     inkscape:cx="98.079482"
     inkscape:cy="159.98781"
     inkscape:window-width="1512"
     inkscape:window-height="921"
     inkscape:window-x="0"
     inkscape:window-y="33"
     inkscape:window-maximized="1"
     inkscape:current-layer="layer1" />
  <defs
     id="defs1" />
  <g
     inkscape:label="Layer 1"
     inkscape:groupmode="layer"
     id="layer1"
     transform="translate(-78.845833,-124.61875)">
    <g
       id="g116"
       transform="matrix(0.32274189,0,0,0.32274189,-8.2627031,-79.027206)"
       style="display:inline">
      <path
         style="fill:#163d40;fill-opacity:1"
         d="m 293.27163,778.21708 c -3.14038,-1.64926 -4.71637,-3.23209 -6.29208,-6.31941 -1.32689,-2.59982 -1.38403,-5.35137 -1.38403,-66.64729 0,-43.39621 0.24975,-64.59652 0.77741,-65.99309 0.95235,-2.52061 4.02802,-5.85469 6.67805,-7.23913 1.64172,-0.85768 10.22129,-1.0311 51.00959,-1.0311 47.40637,0 49.13005,0.048 51.86885,1.44526 1.55812,0.79489 3.60068,2.52164 4.53902,3.83723 l 1.70609,2.39199 0.19422,65.64654 c 0.21798,73.67509 0.55569,68.94029 -5.18821,72.74201 l -2.93827,1.94476 -49.38978,0.18646 c -43.76146,0.16522 -49.63947,0.0553 -51.58086,-0.96423 z"
         id="path52" />
      <path
         style="display:inline;fill:#ffffff;fill-opacity:1"
         d="m 392.56105,769.22089 c 1.10645,-0.91872 1.2081,-6.31158 1.2081,-64.09526 v -63.09214 l -1.62444,-1.1378 c -1.42902,-1.00092 -7.23218,-1.1378 -48.23959,-1.1378 -45.64061,0 -46.64571,0.0306 -48.07696,1.4618 -1.43888,1.43889 -1.4618,2.43635 -1.4618,63.62176 v 62.15995 l 1.8473,1.8473 1.8473,1.8473 46.646,-0.23599 c 38.20138,-0.19327 46.8647,-0.41759 47.85409,-1.23912 z"
         id="path51" />
      <path
         style="fill:#163d40;fill-opacity:1"
         d="m 331.23319,670.12614 c -1.41849,-2.16489 -0.86051,-4.39991 1.48155,-5.93448 1.43528,-0.94044 4.93339,-1.07627 23.02775,-0.89416 20.14159,0.20271 21.39338,0.29411 22.37199,1.6335 1.42293,1.94752 1.29921,4.32968 -0.30002,5.77697 -1.18154,1.06927 -3.89356,1.20964 -23.37204,1.20964 h -22.03541 z"
         id="path50" />
      <path
         style="fill:#163d40;fill-opacity:1"
         d="m 311.35985,671.55553 c -2.06581,-1.48557 -2.23556,-5.45461 -0.3079,-7.19912 1.80637,-1.63474 6.15708,-1.56285 7.68637,0.127 1.4356,1.58631 1.57169,4.46696 0.29361,6.21483 -1.33297,1.82296 -5.65729,2.30616 -7.67208,0.85729 z"
         id="path49" />
      <path
         style="fill:#163d40;fill-opacity:1"
         d="m 332.02574,695.7754 c -0.84588,-0.61852 -1.35787,-1.89769 -1.35787,-3.39252 0,-4.30892 0.42105,-4.38541 24.13767,-4.38541 20.4474,0 21.48844,0.0665 22.88374,1.4618 0.804,0.80399 1.46181,2.11962 1.46181,2.92361 0,0.80399 -0.65781,2.11962 -1.46181,2.92361 -1.3953,1.39531 -2.43634,1.46181 -22.88374,1.46181 -16.89603,0 -21.70882,-0.20978 -22.7798,-0.9929 z"
         id="path48" />
      <path
         style="fill:#163d40;fill-opacity:1"
         d="m 310.86388,695.61974 c -1.31733,-1.31733 -1.49589,-4.14578 -0.39194,-6.20852 0.96821,-1.80912 6.60405,-1.9886 8.32746,-0.26519 1.55082,1.55082 1.45176,4.92861 -0.18807,6.41263 -1.69287,1.53203 -6.24065,1.56788 -7.74745,0.0611 z"
         id="path47" />
      <path
         style="fill:#163d40;fill-opacity:1"
         d="m 331.27438,719.15949 c -1.31149,-2.0016 -0.53946,-5.0758 1.46817,-5.8462 0.66667,-0.25582 10.86931,-0.46513 22.67253,-0.46513 21.34801,0 21.46637,0.008 22.59821,1.62443 1.44863,2.06822 1.44507,3.8111 -0.0108,5.26693 -0.99378,0.99379 -4.14342,1.14857 -23.37204,1.14857 h -22.22344 z"
         id="path46" />
      <path
         style="fill:#163d40;fill-opacity:1"
         d="m 310.86388,720.47043 c -2.8622,-2.8622 -0.25398,-8.35318 3.96776,-8.35318 4.32883,0 6.84432,5.51865 3.77969,8.2921 -1.69287,1.53203 -6.24065,1.56788 -7.74745,0.0611 z"
         id="path45" />
      <path
         style="fill:#163d40;fill-opacity:1"
         d="m 331.84536,744.82515 c -1.48661,-1.92126 -1.67273,-3.71621 -0.56124,-5.41256 l 1.13668,-1.7348 22.4238,0.19325 22.42379,0.19326 1.08967,1.94193 c 0.87638,1.56181 0.92064,2.31294 0.22612,3.83724 l -0.86356,1.89531 h -22.58416 c -17.20303,0 -22.7526,-0.21769 -23.2911,-0.91363 z"
         id="path44" />
      <path
         style="fill:#163d40;fill-opacity:1"
         d="m 310.86388,745.32112 c -1.74694,-1.74694 -1.47647,-5.8479 0.47587,-7.21538 3.55319,-2.48874 8.60821,-0.36703 8.60821,3.61307 0,3.97606 -6.23703,6.44936 -9.08408,3.60231 z"
         id="path43" />
    </g>
  </g>
</svg>
