<svg xmlns="http://www.w3.org/2000/svg" viewBox="0 0 762 762"><g transform="translate(-65.6 -47.4)"><path d="M366.4 151.6a43 43 0 0 1 19.3 20.8c2.7 6.6 2.8 14 .3 20.8a335 335 0 0 1 96.6-14.6q21 .4 41.5 3.7c-.2-2.5-1.3-6 0-8.3 1.5-1 3-.8 4.5-.9a55 55 0 0 1 21.7 3.6c7.4 3.3 13 9 17 15.8 3.4-3.4 7.1-6.8 11.2-9.3 2.2-1.3 4.7-1.8 6.9-3 2.4-2.6 4.2-5.7 7-8 4.7-3.7 11-7.2 17.2-6.6 4.1 0 7.4 3.5 8.8 7a43 43 0 0 1 .7 27 35 35 0 0 1 24.5-7.4c5.4.6 9.6 3.4 13.6 6.8q6.2-5.3 13.8-8.3c11.5-4.8 24.5-7.4 36.6-10.6 3-.8 4.7 1 5.2 3.8 1.5 9 1.6 19.3-2.2 27.7a33 33 0 0 1 11.3 18.3c1.2 4.3.4 8.2 0 12.5q.5.8 1.3 1.4a47 47 0 0 1 15.6 48.9 37 37 0 0 1 25.3 32.7c0 2-1.8 3-3.5 2.9-2.3-.3-4.6-1.4-6.8-2.1-5.2-2-10.8-2.3-16.3-2.6a84 84 0 0 1 5.5 23q1.3 10.3-1.2 20.5a59 59 0 0 1 14.3 42.2c-.2 2.1-3.3 4.2-5.2 2.8-15-8.5-32.2-13.5-49.2-15.7 33.8 23 57.7 61.3 62 102 1 12 .8 24.2-2 36a83 83 0 0 1-18.7 36.4c-1.8 2.2-6.4 2.2-6-1.4.2-10.3.4-20.8-4.6-30.2a90 90 0 0 1-64.8 59.3 107 107 0 0 1-58-3 32 32 0 0 0-6.5 21c.4 2.3-.7 2.9-2.2 4.4q-5.5-3.4-10.8-7A88 88 0 0 1 578 602c-1-1-1.2-2.3-1.6-3.6a219 219 0 0 0 46-56.3c1.6-3.1 4.7-1.3 7.3-.8 18.4 5 37.8-.7 52-13a65 65 0 0 0 22.2-49c.2-11-3-22.1-9-31.4a51.5 51.5 0 0 0-58.9-21.3 135 135 0 0 1-18.5 32.5 146 146 0 0 1-23.8 23.2q-1.7 1.6-4 2.3c-1.8 0-3.4-1.3-2.9-3.3 3.7-14.6 7.4-29.9 7.4-45q1-20.3-3.4-40.1a46 46 0 0 1-35-15 38 38 0 0 1-9.9-24q-3.2 6.7-4.3 14c-.5 4 .2 8-.1 12-.5 1.9-3.4 2.1-5 2.6a78 78 0 0 1-28.8-.9 54 54 0 0 1-30.4-18.1 56 56 0 0 1-11.8-37.5c0-5.6 1.3-11 1.8-16.5a77 77 0 0 0-9.5 27.5 68 68 0 0 0 2 32.8c1 2.4 1.5 6-2 5.8a49 49 0 0 1-21.2-18 33 33 0 0 0 1.7 12.9c.4 1.9 1.9 4.7.4 6.4-1.3 1.8-3.8 2-5.8 2.4a347 347 0 0 1-79.2 6.7 150 150 0 0 1-55-12c-10.4-5-20-12.2-25.2-22.8a46 46 0 0 1-4-16.5 58 58 0 0 0-12.3 24.5q-3.7 13.2-1.8 26.8c.3 2.8-2.5 3.4-4.7 3q-9.1-1.7-17.6-5.4c-4.2-1.6-7.9-4-12-5.8-3.7 16.7-6.4 33-6.3 50.2a218 218 0 0 0 50.8 143c2.5 3 5.2 5.2 6 9.2-4 3.8-8.7 3.4-14 3.9A66 66 0 0 1 215 571a95 95 0 0 1-32.1-52.9 92 92 0 0 1-1.4-21.8 57 57 0 0 0-15.3 35.6c-.2 2-3 2.8-4.4 1.5-1.4-1.4-2.2-3.5-3-5.2a150 150 0 0 1-11-79.7c2.6-19.7 9-39.3 20.4-55.7a77 77 0 0 1 34.6-28.6 112 112 0 0 1-5.3-8c-3.3 4.2-7 8.6-11.9 11-3.9 1.6-9 1.5-12.3-1.5s-4.6-7.1-6-11.2q-6.7.7-13.6.4c-2 0-3.7-1.6-3.4-3.6.7-5.6 2.2-11.2 3.5-16.7-4 0-8 .6-11.7-1.7-4.4-2.7-5.8-7.7-6-12.6a31 31 0 0 1 13.1-24.5 35 35 0 0 1 16.4-4.8 66 66 0 0 1-10-16.7 36 36 0 0 1-2.1-18 10 10 0 0 1 6.3-8 30 30 0 0 1 14.6.5 28 28 0 0 1 3.1-10.3 36 36 0 0 1-8.4-16.3c-.5-3-.7-5.7 2.6-7 6.4-.6 13 1 19.6 1.1a48 48 0 0 1 13.7-28.7c2-1.7 3.8-3.6 6.6-3.1 1.6 0 2.7 1.8 3.7 2.8 3.9-6.9 9.4-14.6 17.1-17.4a32 32 0 0 1 23.3.9c2.5-3.6 5.1-8.3 10-8.7 5-.6 8.5 2.1 12.2 5a41 41 0 0 1 13 17.8 37 37 0 0 1 17.8-6.9c2.5 0 4 1.9 3.8 4.3a53 53 0 0 1-7 22c15.5-1.8 31-1.9 46.2 1.8.4-9.7-4.4-18-11-24.8a54 54 0 0 0-35-16c-3 0-4.1-2.3-2.8-4.8 5-8 14-13 23-15a58 58 0 0 1 40.6 6" fill="black"/><path d="M272 170a36 36 0 0 1 14.1 18.6A31 31 0 0 1 285 209c-6.7 3-13.7 4.9-20.2 8.3a53 53 0 0 0 0-22.8c-.6-2.3-1.6-4.3-4-4.8-2.3.8-4.1 2.6-6 3.8q.4-6.3 2.5-12.2a34 34 0 0 1 7.5-12.6c2.2-2.1 5.2.3 7.2 1.5m-19 6a42 42 0 0 0-3.6 20.9c-7.4 4.6-14.5 9.4-20.9 15.3-2.7-1.8-5-2.7-8.2-3.3q-2.5-6-4-12.1c3.8-7.5 7.2-14.5 14.2-19.7a24 24 0 0 1 22.5-1.1m53.6 7.8c-1 7.6-3 15.1-8.5 21-1.6 1.6-4.5 1.8-6.6 2.4 1-5.4 1.7-10.6.8-16q6.3-5.4 14.3-7.4m-97 7c.7 6.8 3 12.7 5.1 19a30 30 0 0 0-14.8 19.6 23 23 0 0 1-2.7-14.7c1.4-8.9 6-17.5 12.4-23.8m-35.5 29.6 17.2 1.6a52 52 0 0 0 2.8 9c-5.5-.8-8.9.5-13.4 3.3a35 35 0 0 1-5.6-10.7z" fill="#C0ACEB"/><path d="M700.5 212.6a28 28 0 0 1 14.5 14.3c2.4 5.5 1.8 12.1.1 17.8a47 47 0 0 0-14.4-20.4c-4.5-3.1-9.6-4-15-4a29 29 0 0 0-24.3-4.2c.8-1.8 1.3-3 3.3-3.8a44 44 0 0 1 35.8.3" fill="#E67E5E"/><path d="M679.2 222.4c-7.5 4.4-11.5 13.4-13.1 21.6l-1.5 1.7a41 41 0 0 0-19.5-12.6l.3-.2a51 51 0 0 0 12.8-9.9 28 28 0 0 1 21-.6m20.7 8.7a45 45 0 0 1 10.4 17.5c1.9 5.7 3.4 13 1.4 18.8a29 29 0 0 0-11.6-6.7c-1-9.2-4.6-18.8-13-24-4-2.4-8.2-1.8-12.5-.5 2-3.4 3.7-6.6 7.4-8.5 6-3.2 13.1-1 17.9 3.4" fill="#E67E5E"/><path d="M683.5 241.5c4.2 2 7.1 6.5 8.9 10.7q-8.3 2.4-12.1 10a61 61 0 0 0-5.3 20.2 25 25 0 0 0 11.7 22.8c-1.8 1.4-3.7 2.5-4.9 4.6-6 3.9-14.6 1.5-19.4-3.2-6.7-6.7-7-17.1-2.8-25.2a29 29 0 0 0 10.1-14.8c1.6-5.5.1-10.4-1.7-15.5 2.7-3.7 5.9-7.2 9.9-9.5q2.7-1.6 5.6-.1m36.8 6.6a42 42 0 0 1 14 38.3c-.5 3.8-2.1 6.8-3.4 10.3a24 24 0 0 1-18 14.4c4.5-8.7 6.3-19 4.8-28.7-.5-3-1.8-5.8-2-8.8.6-3.1 1.8-6 2.1-9.2.6-4 .1-8-.6-12q1.5-2.3 3.1-4.3" fill="#E67E5E"/><path d="M693.7 257.3a40 40 0 0 1 0 21.2c-1.7-3-2-5.8-2.3-9.1-.2-3.5-1.4-6.5-2.7-9.7zm-8.4 7.2c.9 5.6 1.8 11.1-.1 16.7-.8 2.3-2.6 3.6-4.5 5a49 49 0 0 1 4.6-21.7m15.3 2.5c4 1.6 7.3 4.4 9 8.4 4.3 10.1 3.5 22-1 31.9-3 6.4-8.5 10.6-15 13.1a25 25 0 0 0-3.9-10c5-6.7 6.5-14.6 6.3-22.8a44 44 0 0 0 4.6-20.6M625 283.2a51 51 0 0 0 11.7 3.6c.8 9 1.7 18 5 26.6q2 5 4.8 9.6c-4.1 7.3-4 15.6-1.3 23.4a40 40 0 0 1-20-5.5A28 28 0 0 1 613 321c11-8.8 14.2-24.5 12-37.9m26.7 2h.2a28 28 0 0 0 2.8 21.1c5.9 10.3 20.7 14.9 30.8 8.3 1.5 2.9 2.8 5.5 2 9-1.7 6.7-9.2 10.5-16 9.8-9-.9-16.2-7.5-21-14.8-6.2-9.9-7.2-20.2-8.6-31.4q5-.5 9.8-2m38.4.1q1 7.4-1 14.5a18 18 0 0 1-6.7-8q4.5-2.6 7.7-6.5" fill="#E67E5E"/><path d="M716 316.5c.2 7.5.5 14.4-3 21.4-3.1 7.2-10.1 11.8-17.2 14.8-9.7 4-20.7 6-31.2 4.9a24 24 0 0 1-15.3-17.4 22 22 0 0 1 1-12.2 40 40 0 0 0 10.5 8 24 24 0 0 0 21.6 1.2A20 20 0 0 0 693 326a31 31 0 0 0 13.9-7.3c2.1-2.5 6-1.6 9-2.2" fill="#E67E5E"/><path d="M607.6 171.3c3-.5 4.9 1.7 5.8 4.3 3.6 10.9 1 21.3-3 31.6-.8 2.5-2.4 5.5.1 7.5 3.9 1.2 4.6-3.6 6.7-5.7 5-5.5 12.4-9.5 19.6-11a18 18 0 0 1 18.8 8.5c2.3 3.8.7 8.8-1.7 12.1a36 36 0 0 1-19.3 12c-1.7.6-4 1.6-3.5 3.8.3 3.1 4.3 2.8 6.5 3.3 11.2 1.3 22.5 7.7 26.1 19 3.3 9.6-4.2 19.7-13.3 22.7-8 3-16.3 2-23.7-2-2.3-1.2-4.4-3.1-7.2-2.2-2.5 1.8-.6 5.6-.4 8.2 1 8.2 1 17-3 24.5a20 20 0 0 1-15.5 11.8c-6.1.4-11-3.8-13-9.3-3.5-8.6-1.7-16.9 1.3-25.2a8 8 0 0 0-3.3-3.4c-3.4 2-4.8 5.3-7.5 8a31 31 0 0 1-11.6 8.7c-5.4-2.2-8.2-8.1-9.5-13.4a37 37 0 0 1 0-17.1q3.9-2.1 7-5.1c4.9-5 7-12.3 4.9-19-1.3-5.3-6-9-11.3-10.1a27 27 0 0 0-13.3 1.3c1.1-6-.4-11.8 1.1-17.7.7-2.6 1.2-5 3.4-6.7 3.5-1.8 7.8-.3 11 1.5 8 4.6 15.6 9.8 23.4 14.6 1.8 1.4 4.8 1.4 6-.7 1-3.8-3-7.8-3.3-11.7a42 42 0 0 1 5-31.6 25 25 0 0 1 16.7-11.5m-383.9 45c2.1 1.7 3.2 4.5 3.6 7.1.2 3-2.2 6.1-2.5 9 .1 2 2.6 4 4.5 2.7 7-3.4 14-8.2 22.3-6.8 3.2.6 8 1.6 9.2 5 .2 4.2-2.8 8.8-5.4 11.9a43 43 0 0 1-22 12.4c-2.7.8-6.7.2-8.4 2.7-.6 2-.1 3 1.1 4.6 2.9 3.7 6 6.6 8 11a20 20 0 0 1-.7 18.3c-2.3 3.9-6.1 7.3-10.8 7.4-4.7-.2-8.7-3.2-11.1-7.1-3.2-5.3-3.8-11-3.7-17.1.1-2.8-3.3-4-5-1.9-3.5 4.6-6.5 10.4-12.2 12.9-3 1-5.4-.8-6.5-3.5-2.3-4.9-.8-9.5.6-14.3 1.2-3.7 3.6-6.3 5.7-9.4 1-1.4.3-3.6-1.2-4.3-3.6-2-7.1-3.3-8.6-7.5-1-5.4 3.6-11.8 9-12.8 3.6-.5 8.7 1.6 9 5.8.4 1.9.2 4.8 2.5 5.5 1.6.8 3.6-.8 3.7-2.5 0-3-.6-6-.3-9 1-7.6 4-15.2 10.5-19.7 2.4-1.8 6.2-2.2 8.7-.4" fill="white"/><path d="M529 223.9c3.2-1.8 7.6-.6 8.9 3 2 6.8-.9 13.5-4.8 19-1.4 2.1-3.6 3.6-2.6 6.5 1.4 1 2.2 1.5 4 .8 3.5-2.8 5.4-7.9 8-11 3-2.8 8.2-3.3 12.1-3.2a9 9 0 0 1 9.2 8.4c1 7-3.7 13-10 15.3s-12.8 1-19.2.4c-2.4-.3-4 2-2.6 4a29 29 0 0 1 4.4 15.3 17 17 0 0 1-11.7 13.4c-3 .6-4.4-1.8-5.5-4a33 33 0 0 1-2.9-16.4c0-2 .5-4.5-.5-6.2-1.6-.8-3.6-1-4.8.6-4 4.5-10 9.9-16.5 8.7-4-1-4.9-6.3-3.4-9.6a27 27 0 0 1 14.7-12c1.6-.8 3.3-1.4 3-3.5.1-1.8-1.8-2.5-3.2-3-4-1-7.8-2.2-10.8-5.2-5.5-4.9-5.1-14.6.3-19.3 3-2.5 7.4-1.1 10.4.5 5 2.7 7.5 7.2 10.4 11.8 2.2 3.4.9 7.2 3.3 10.5 1.2 1.9 4.6 1.1 4.6-1.2-1-4.1-2-7.9-.8-12.1 1-4 2.7-9 6-11.5m-362.4 29.3c6.8-.3 11.6 3.7 16.8 7.4-4 5.8-6.4 12.8-6.3 19.8.3 5.4 2.8 11.2 8 13.5 2.5 1.1 5.2.5 7.7.1q-2.9 8-3.6 16.3c-3.7-.3-7-.6-10.6.2a33 33 0 0 0-22.4 17.7c-4.4 1-10.3 2.2-13.1-2.3-3.3-7.4.7-17.4 6.3-22.7 5-5.2 12.4-6 19.2-6.6 2.1-.3 5.7.8 6.1-2.2.2-3.2-4-5.9-5.7-8.4a45 45 0 0 1-10.5-24.6c0-2 0-5 1.4-6.6 1.4-2 4.6-1.5 6.7-1.7m25.4 91.2 2.2 5.7a31 31 0 0 1-9.7 11.2c-2.1 1.4-5 2.2-7.2.5-2.5-2-3.2-5-4.2-8q6.3-1 12-3.8c2.7-1.3 4.8-3.5 7-5.6" fill="white"/><path d="M529.6 178.8c9 .3 17.3 1.1 24.6 7a33 33 0 0 1 12 23.5c-5.8-3.5-11.9-6.8-18.8-4.2-5.7 2.5-7 9-7.9 14.5l-4.4-2q-2-4.4-3-9.2c-2.5-9.9-1.1-19.6-2.5-29.7m177.7 7.5c1.2 7.6 1 15.2-1.6 22.4a47 47 0 0 0-24-5.4c-7-.1-13.2 2-19.6 4.2-.3-1.4-1.5-3.2-1.2-4.6 2.9-2.6 6.6-4.5 10-6.1 11.4-5 24.4-7.5 36.4-10.5m-125 1a54 54 0 0 0-1 31.4l-9.2-5.8c0-5-1.1-9.6-2-14.4 2.2-4.8 8-8.2 12.2-11.2m-322.7 10.2c.3 4.8 1.1 9.2.4 14-.4 4.2-2 8-3.7 11.8-3.7-.6-7.1-1.2-10.9-.7q-6.5 1-12.4 4.1a20 20 0 0 0-1.5-9.5c7-7 16.6-12.5 25-17.9zM580 296.2a30 30 0 0 0 8.5 25.6q-1.3 4-2.8 7.7a44 44 0 0 1-21 5c-6.7 0-13.2.3-19.6-1.5a73 73 0 0 1-18.8-8.5q9.9-9.9 20.8-18.6a59 59 0 0 1 10.5-6.5c2.6 2.5 5.3 4.4 9 4.7 4.5-.5 7.8-2.8 11-5.7zm157 2.3c4 .6 7.8 3 10.8 5.7 5 4.8 8.8 10.9 10.5 17.6-3.8-1.2-7.6-2.5-11.7-3s-8-.1-12-.5q-3.2-3.9-5.9-8.1 4.5-5.6 8.2-11.7m-12.6 14.8c4.3 6 9 12.2 10.6 19.6a67 67 0 0 1 .7 34.4 94 94 0 0 0-24-17.6q5.3-5.3 7.8-12.4c2.7-7.4 2-14.6 1.9-22.3zm-535.9 2.3c0 5.6-.3 11.3.8 16.8q.6 2.4.5 5c-2.3 3.6-5.5 7-9.7 8.4a63 63 0 0 1-23.5 3.5c2-9.7 2.8-18.6 10-26 5.8-5.3 13.9-9.3 22-7.7m404.6 9c5.3 1.2 9.5 1.3 14.7-.6 2 8.9 6.3 15.4 13.6 20.8q-2.4 6-7.3 10.1a81 81 0 0 1-21.3 13.6c-1.3-8.2-3-16.8-3-25.1.7-6.6.7-12.6 3.3-18.8" fill="#A0CC59"/><path d="M214 246.7c2.6-.8 4.4 1 3.4 3.6-1.6 2.3-4 4-5.4 6.5-1.6 2.3-2 5.2-3.6 7.4-1.5.2-2.6.3-3.5-1-1.2-2 .2-4.8 1-6.6 2-3.7 4.6-7.5 8-9.9m389.9-20.1c7.6-2.5 14 4 15.7 10.8 2 6.4 1 13-1.7 19.2-2.3 4.6-6.7 9-12.2 9.1-4.9.2-8.9-3.1-11-7.3a27 27 0 0 1 1.4-25.6c1.7-3 4.6-5 7.8-6.2" fill="black"/><path d="M604 233q2.2-1.7 4.6-.8c3 1 4.6 4.6 5.4 7.4 1.3 5.9.5 13-3.6 17.6-1.7 2-4.2 3.4-6.8 2.3-3-1-4.6-4.8-5.3-7.6-1.7-6.4.2-15 5.7-19" fill="#F0DF83"/><path d="M366.5 158.5c7.2 4.8 13.6 12 15.2 20.9 1 5.3-.2 10.6-3 15-1 1.6-1.9 3.6-.1 5 1.9 1.3 5 .6 7 0 44.2-13.7 93-19.4 138.9-11.1.6 5 .5 10.1 1 15.1q1 7.4 3.7 14.2c-6.3 2.3-8.9 7.7-10.8 13.7-3.6-6-9.4-10.9-16.3-12.3-4.3-1-9.3.3-12.2 3.7-4 4.4-5.2 10-4.6 15.7.5 7.4 6.1 13 12.7 15.7-5.7 3.4-11.2 8.2-13 14.8-2 6.3 1.9 14.1 8.6 15.4 6.6 1.2 11.7-1.9 16.8-5.6a40 40 0 0 0 3.7 16.2c1.3 2.4 3.3 4.9 5.9 6 4 1.6 8.6.1 12-2.2 5-3.5 9.2-9 9.8-15.3.5-5-1-9.2-2.4-13.8q5.6.2 11 0a93 93 0 0 0 .3 14c.5 4 2 7.3 3.5 11-12.6 6.4-23.2 17.4-33.4 27-2 1.6-2.3 4.1-.3 5.9 3.1 2.6 7 4.5 10.6 6.4a64 64 0 0 0 38.5 5.8c5.5-.5 10.3-1.7 15.3-3.8a119 119 0 0 0 3 37.3q1.3 2.6 4.2 1.7c4.8-1.4 9.2-4 13.5-6.5a51 51 0 0 0 21-20.4c7.3 2.8 13.6 4 21.5 3.5 3.9 4.9 8.5 8.9 14.5 11 3.6 1.5 7.2 1.2 11 1a70 70 0 0 0 30.6-8.4c2.4-1.5 5.1.2 7.3 1.3a82 82 0 0 1 17 12.1c2.5 2.2 4.5 5 7.2 6.9 1.8.5 2.7-.5 4-1.4a54 54 0 0 1 11 31.8 138 138 0 0 0-60.2-16c-2.3 0-4 2.3-2.8 4.4 3.1 2.6 7 4.4 10.3 6.8a141 141 0 0 1 54.3 71.7c5 15.6 7.5 32.3 5.7 48.7a83 83 0 0 1-15.5 41c-.3-4.8-.2-9.9-1.2-14.5-1.3-6-3.7-12.3-6.6-17.6-1.2-2.1-3.9-1.5-5.4-.2q-1 2-1.7 4.3a82 82 0 0 1-59.9 58 101 101 0 0 1-54.3-1.7 9 9 0 0 0-5.6-.2 17 17 0 0 0-5.1 6 44 44 0 0 0-5.4 15.7 78 78 0 0 1-14-12c6.4-6.2 13-12.5 18.7-19.3 9.3-10.5 17-22 24.3-33.8 7.7.9 14.5 2.7 22.3 1.7a67 67 0 0 0 46.2-26.2 71 71 0 0 0 15-45.2 64 64 0 0 0-11.5-34.7 56 56 0 0 0-40.5-23.6 52 52 0 0 0-19.2.8c0-1.9.8-4.4-.6-5.9-1.5-.9-3.8-.4-4 1.6a107 107 0 0 1-12.2 27 129 129 0 0 1-27.2 31.6c2.7-13 5.5-25.4 5.2-38.8q.8-22.1-4.7-43.7c-1.2-2-3.5-1.2-5.5-1.4q-7.6.4-14.5-2.6c-8-3.6-15.6-8.9-20-16.8-4-7.2-4.4-16.6-4.3-24.6-.8-2.3-4.3-1.9-5 .2-2.7 4.6-5.4 8.8-7.2 13.9a53 53 0 0 0-3.1 19.9c-5.7.4-11.2 1.4-16.9.5-11-.8-21.7-4.2-30.4-11a46 46 0 0 1-16-27.6c-2.1-12.4-.7-25 3.6-36.8.5-2 1.9-4.7.3-6.5-2-1.8-5-.2-6.4 1.6a76 76 0 0 0-15 27c-2.5 8.2-3.4 16.5-4 24.9-.2 6 1 11.6 1.8 17.6a51 51 0 0 1-13.7-15.8c-1-1.6-2-3-4-2.5-2.1.2-2.6 3-3 4.7a43 43 0 0 0 1.4 20.3 327 327 0 0 1-65.6 7c-8.6-.1-17.6 0-26-1.2a119 119 0 0 1-45.3-12.8 40 40 0 0 1-19.6-22.5c-1.6-5.4-.8-10.4-.9-15.9-1.2-2-3.4-2.4-5.4-1a46 46 0 0 0-15 20 76 76 0 0 0-6.4 36c-4-1.3-8.2-2.3-12.3-4a70 70 0 0 1-29.4-21.6 63 63 0 0 1-13-35.5 84 84 0 0 1 7.8-39.1c1.6 5 2.6 9.6 6 13.8 4.6 5.7 11.7 9 19 6.9 9.2-3.2 14.8-13 14.7-22.4.2-8.1-3.8-14.8-9-20.6a50 50 0 0 0 27.6-15.6c3.6-4.4 6.8-9.9 6-15.8-.2-3.2-2.6-5-4.8-7.1q14.6-7.9 30.8-12c19-5 38.8-6.2 58-1.2 1.9.3 4 1.4 5.4-.5 1.3-2 1.4-5 1.5-7.2.1-9-4.1-17.2-9.8-24a60 60 0 0 0-37-20.4c3.4-3 7.2-5.7 11.6-7.2a51 51 0 0 1 44.4 5.7M206.6 369.1q4.5 4.5 9.5 8.4A224 224 0 0 0 263.5 581c-7.9 1.5-15.9.3-23.4-2.3a71 71 0 0 1-28.4-18.5 87 87 0 0 1-24.3-49.9c-.7-6.4-.3-12.7.4-19 .2-2.5-2.2-3.7-4.3-3a24 24 0 0 0-9.8 8q-8.4 10.8-11.9 24a141 141 0 0 1-9.4-61 125 125 0 0 1 22.4-65.8c8.1-11 18.8-20 31.8-24.5" fill="currentColor"/><use transform="translate(630.5 421.2)" href="#earrings-variant01-0b00a4bf"/></g></svg>
