<svg xmlns="http://www.w3.org/2000/svg" viewBox="0 0 762 762">
  <g mask="url(#hairClipMask)" stroke-linejoin="round">
    <!-- Thick, mid-back hair with body and loose curls, oriented with the
         collection's screen-left three-quarter pose and a left-side gust. -->
    <path fill-rule="evenodd" clip-rule="evenodd" d="M407 135c-84-8-165 25-213 91-41 56-55 130-44 201 10 69 43 133 91 178 42 39 94 63 151 65 55 2 101-20 151-31 62-14 116 8 174 29 65 24 148 28 207-14-42 6-82-1-118-16 55-2 107-25 145-65-65 22-126 11-181-13 55-7 105-34 139-75-65 24-123 10-178-14-52-23-101-53-133-101-19-28-28-61-48-89-32-45-83-78-141-94-16-5-33-8-52-10Zm-1 78c60 2 111 31 139 78 32 54 33 131 7 189-26 60-77 98-143 102-67 4-121-28-151-86-30-58-31-137-3-192 28-56 83-92 151-91Z" fill="#000"/>
    <path fill-rule="evenodd" clip-rule="evenodd" d="M406 148c-78-7-152 24-197 84-38 51-51 119-41 187 9 64 39 122 84 164 38 36 86 57 138 59 54 2 99-20 150-31 66-14 122 9 181 30 44 16 94 23 140 12-26-5-51-13-74-25-7-4-5-14 3-15 45-1 88-14 124-39-47 7-92 0-133-17-8-3-7-14 1-16 43-6 83-23 115-50-51 8-99-6-145-27-55-25-105-58-139-109-20-30-30-64-50-91-29-41-76-70-129-85-15-4-31-7-48-8Zm0 54c65 2 121 33 151 83 35 58 35 140 8 202-28 64-83 105-155 109-72 4-131-30-163-94-33-62-34-147-3-205 31-60 90-97 162-95Z" fill="currentColor"/>

    <!-- Soft S-curves suggest thickness and a slight curl without introducing
         more linework than neighboring variants. -->
    <path d="M407 143c-44 27-80 69-101 119m102-119c41 25 72 66 89 115M273 292c-18 53-23 111-14 166 6 37 20 72 42 101M524 293c39 48 59 106 61 168m-7 21c58 18 107 49 169 62m-184 8c51 18 94 48 149 62" fill="none" stroke="#000" stroke-width="8" stroke-linecap="round"/>

    <!-- One curled-under gesture differentiates the fuller texture without
         returning to the earlier busy ribbon treatment. -->
    <path d="M655 626c58 32 128 43 183 8-27 42-80 62-128 49" fill="none" stroke="#000" stroke-width="8" stroke-linecap="round"/>
  </g>
</svg>
