<svg xmlns="http://www.w3.org/2000/svg" viewBox="0 0 762 762"><g transform="translate(-65.6 -47.4)"><path d="M572.4 62.5c1.7.7 4.2 1.3 5 3a3 3 0 0 1-2 4.4c-4.2.8-8.6 1.2-12.8 2.5a81 81 0 0 0-41.9 27.8 84 84 0 0 1 47 5.5q5.4-1 11-.5a93 93 0 0 1 42 14.1A87 87 0 0 1 655 160a71 71 0 0 1 4.5 38.5 66 66 0 0 1-26 42.6 147 147 0 0 1 17.2 34.2c1.7 4.8 4.5 8.4 7 13a243 243 0 0 1 30 94.2c1 15.2 1 30.6-2.5 45.5-.8 2.3-1.5 5.5-4.5 5.2-3-1-5.6-3.1-8.5-4.4-9.7-5-21-5.6-31.6-3.6a52 52 0 0 1 2.8 22.3c-1.2 14-6.5 27-14.3 38.6-8 12-18.7 22-31.7 28.4-1.5.7-3.2 1.5-5 1.4-1.4-.5-2.5-1.8-2.1-3.4 1.1-3.9 3.6-7.3 5-11.1 10-24.4 12.3-52.1 9.2-78-.8-4.4 1.4-7.2 2.8-11q4.7-12.7 8.3-25.7l-23 8c-2.2.5-4.6 1.5-6.6.2-.8-5.7-.4-11.7-.7-17.4-1.1-15.6-3-30.7-4.7-46.2q-1.5-10.7-3.4-21.5a35 35 0 0 1-16.7 11.9c-3.3-.9-3.6-3.5-1.2-5.6 8.8-3.3 15-10.4 18.9-18.8 6.6-14.7 6.6-30 5.2-45.8 0-3.6 4.7-3.9 5.5-.6a98 98 0 0 1-3.4 43.6c-1 3.1-2.7 6-3.9 9.2-.2 1.6.3 3.4.6 5 4 18.3 5.8 37 7.8 55.8 1 8.3 1 16.7 1.3 25l26-9.3c.9-3 1.4-6.3 3-9 1.4-1 2.3-1.2 3.8-.3 1.1 1.9.5 3.8 0 5.8a371 371 0 0 1-14.1 43.7c3.5 29 1.3 59.9-10.9 86.7a82 82 0 0 0 34-41c3.8-10.1 6.2-22 3.9-32.6q-1-6-4.4-11c-1.2-2.1-2.8-3.5-2.3-6 1.5-1.2 2.2-1.7 4.1-1 1.5 1.2 2.7 3.1 3.9 4.7 10.5-2 21-2.3 31.3 1.3q5.1 2 10 4.7c4.7-20.3 3.3-40.5-.2-60.9-4-21.7-11-43-20.8-62.8 2.5 14.3 4.9 28.4 5.5 43 .3 5.9 1.2 11.9-.1 17.7-1.8-.3-3.8.4-4.7-1.6-.7-3.3-.3-6.8-.5-10.1-1-17.6-3-35-7-52.2a169 169 0 0 0-20.6-51.4 73 73 0 0 0-29.5-27.6 51 51 0 0 0-22.5-4.3c2.5 4.4 5.3 8.9 7.1 13.7.6 1.7.4 2.8-.4 4.3-1.8.6-3.5.6-4.4-1.4-3-6-5.5-12-10.1-17-4.5-6.8-10-13-17.7-16.3-4.6-1.9-9.8-3.5-14.7-2a49 49 0 0 0-16.6 9.4c-2.5 1-4.2-2-2.8-4 2-2.8 5.6-4.6 8.5-6.5q-7.1-6.1-15.9-9.4c-10.1-3.7-21-5.2-31.7-6-13-.8-24.7 3-36.8 7.2-3.9 1.2-7.4 3.4-11.2 4.8-2.5.8-3.9-2.9-2.2-4.3 6.7-4.7 16.3-6.8 23.8-10q-6.8-1.2-13.6-.7a381 381 0 0 0-68 10.1 237 237 0 0 0-38.9 13.6c-12.3 5.9-24.7 13-34.9 22.2a56 56 0 0 0-17.7 27c-3.3 11.7-1 25.6 1 37.3a362 362 0 0 1 49.5-38.6c3-1.7 6.6-4.2 10.1-4.2q3.4 1.8 2 5.3c-3 7.4-6.6 14.7-9.1 22.4q13.5-9.4 27.8-17.6c5.7-3.2 11.8-6.7 18-8.7a300 300 0 0 1 33.2-39.1c1.4-1.2 3.2-2.5 4.8-.8 2 1.6-.5 4.4-1.8 5.8a308 308 0 0 0-30.6 36.4 92 92 0 0 0-14.3 25.8c9.1-4.3 18-8.9 27.5-12.6 5.2-2 9.7-4.6 15.4-5l1.8 2.7c-2.4 3-5.6 3.2-8.9 4.6a360 360 0 0 0-33.4 15.7c-2.3 1-4.8 2.8-7.5 1.6-1.2-1.3-1.6-2.4-1.3-4.2 1.2-8.3 5.5-16 9.8-23q-21 11.3-40.1 25.4c-2 1.4-3.6 2.9-6.3 1.6-2.2-2.2-1-5.6-.4-8.3a203 203 0 0 1 8-20 355 355 0 0 0-51.7 40.3c-1.8 1.4-2.9 3.4-5.4 2.5-2.5-3.7-2.5-9.3-3.5-13.5-9.2 9-16.4 19.5-24.7 29.4-3.3 3.8-5.8 8.2-8.8 12.2-1 1.4-2.5 1.3-4 .9-1.9-1.8-1.6-4.6-2-7a58 58 0 0 1-26-46.5c-.4-14.4 4.7-28 12.5-40 10-15 24.7-27 40.7-35.3 1.7-.8 4.3-2.2 5.8-.3 1.6 2 1.2 3.2-.2 5a157 157 0 0 0-21.2 37.8 63 63 0 0 0-4 34.2c8.7-15.2 22.1-28 36.9-37.3 2.3-2 3.7-5 5.7-7.3a116 116 0 0 1 34.4-26.7 199 199 0 0 1 44.4-17.6c18-5.4 36.5-8.2 55.2-10.2q-4.6-4.5-8.2-10a62 62 0 0 1-8.7-34.3c.6-14.1 5.3-28 13.8-39.3a56 56 0 0 1 34.6-22.5c3.2-.8 6.6 3.5 4.2 6.3a88 88 0 0 0-14.6 38.5q-.8 9.3.5 18.6a50 50 0 0 1 16-13.3c2.6-1.6 5.2-2.3 6.7-5.2 13.4-25 37.6-44.4 65.1-51.3a76 76 0 0 1 42.6 1.3" fill="black"/><path d="M497.6 238.7c1.3 1.1 2.2 1.8 2.1 3.6.3 11.8 1 24.8 5.4 35.8-2.6 1-4.5 2-6-1.2-3.4-9.2-4.2-19.7-4.8-29.5.2-3.5-1-7.4 3.3-8.7m-18.6 7.2c1 1 3 2.8 1.6 4.3-2.6 3.1-6.6 5-9.8 7.5-9.2 6.8-19 13.8-26.8 22.2-1 1-1.7 1.9-3.3 1.6-2.2-1-3.3-3.8-4.4-5.9-3.2-7-6-14.6-6.7-22.3.3-1.2 0-3.2 1.1-3.9 1.7-1.3 3.8-.2 4 2a81 81 0 0 0 7 23.1q12.4-11.8 26.3-21.7c3.6-2.6 6.8-5.2 11-7m49.6 20.2c3 .8 5 4.3 6.7 6.6 6.4 9.4 13.6 18.6 19.2 29q2.1 3.9 3 8.4-2 .8-4.1.9c-2.2-3-3.3-6.8-5.3-10-6.2-9.9-13.4-19.2-20.2-28.7-4 5.4-7.8 11.3-12.8 15.7-2.8 1-3.2-.9-4.4-2.9 3.7-4.8 7.8-9.2 11.2-14.3 1.6-2.2 3.5-5.4 6.7-4.7m-313 115.4c2.3-.3 3 1.3 4.4 2.6-2 6.7-2.8 13.5-3.3 20.4-.4 2.8-.5 6-1.6 8.5-2.1 2.2-5.2 3.5-7.5 5.4a64 64 0 0 0-15.2 18c-7.3 12.4-12 26.7-13.4 41.1-.5 3.8.3 8.6-1.4 12-1.6 2.2-3.8.9-5.4-.6a50 50 0 0 1-14.3-29.2 72 72 0 0 1 27-64.9c8.8-6.9 19.6-12 30.7-13.3m409.9 159.9c4.9 1 10 2.2 15.1 2.6 2.8 0 5.3-.8 8-.8 1.8 1.7 1.9 4.1 1 6.3-1.2 3.3-4 6-6.4 8.6 9.3-.2 18.3 1 26.7 5.1 7 3.3 12.8 8.8 16.3 15.8a54 54 0 0 1 4.5 28.5 146 146 0 0 1-10 38.8c-1.3-.5-3.4-.4-4-2-1.3-3.5-2-7.2-3.5-10.6a79 79 0 0 0-67.6-47.7c-3.2-.2-6.7.1-9.9-.5-2.1-2-1.8-3.7 0-5.8q10.7-12 20-25.2c2.3-3.4 3.8-7.3 6.1-10.8.8-1 2.3-2.5 3.7-2.3" fill="black"/><g fill="currentColor"><path d="M564.1 66a85 85 0 0 0-41 23 89 89 0 0 0-25.2 50.4c-2 12.7-.6 26 3.3 38.2-7.2-1.2-14.2-2.6-21.6-2.6-2.4-.1-4.5.3-6.5-1a66 66 0 0 1-13-10.1 72 72 0 0 1 1.3-26.7 94 94 0 0 1 25.3-44.7 95 95 0 0 1 49-26.7 71 71 0 0 1 28.4.2"/><path d="M448.9 74.2c-3 5.6-6.1 11.1-8.3 17.2a75 75 0 0 0-2.6 46.8 71 71 0 0 0 27.5 37.8l-4.2.9c-3.7-2.4-7-5-11.7-5a128 128 0 0 0-20.5 1 45 45 0 0 1-18.7-29.3c-3-15.7.2-32.2 8.6-45.8 7-11.1 17.1-20 29.9-23.6m90.7 30.7a75 75 0 0 1 54.8 28.6 65 65 0 0 1 13.5 43.9c0 2-.5 4.5.4 6.4 1.7 2 4.4 1 4.9-1.5 1.5-9.7.4-20-2.4-29.4a75 75 0 0 0-33-42l8.6 1.1a85 85 0 0 1 62.5 48.2c5.4 12 6.9 25.3 5 38.2a61 61 0 0 1-23.6 38 68 68 0 0 0-35.7-24.7c-6.5-2-12.8-1.5-19.5-1.4a45 45 0 0 0-20-16.6q-10.7-4.7-21.6-.5a60 60 0 0 0-25.6-14 80 80 0 0 1 8.4-72.8c7.9-1 15.3-2.3 23.3-1.5"/><path d="m459.6 123 .1-.2a85 85 0 0 0-6 34c-4-5.6-7.8-11.9-9.4-18.5a36 36 0 0 1 15.3-15.4m-19 54.8q6.8-.4 13.6.8c-7.6 3.1-17 5.2-23.7 9.9-1.8 1.4-.4 5 2 4.3 3.9-1.4 7.4-3.6 11.3-4.8 12.1-4.2 23.8-8 36.8-7.2 10.8.8 21.6 2.3 31.8 6q8.6 3.3 15.8 9.4c-2.9 1.9-6.5 3.7-8.5 6.5-1.4 2 .3 5 2.8 4a49 49 0 0 1 16.6-9.4c5-1.5 10.1.1 14.7 2a41 41 0 0 1 17.7 16.3c4.6 5 7 11 10 17 1 2 2.7 2 4.5 1.4.8-1.6 1-2.7.4-4.3-1.8-4.8-4.6-9.3-7-13.7 7.7-.1 15.3 1 22.4 4.3a73 73 0 0 1 29.5 27.6 166 166 0 0 1 20.5 51.4q6 25.8 7 52.2c.3 3.3 0 6.8.6 10.1 1 2 2.9 1.3 4.7 1.6 1.3-5.8.4-11.8 0-17.7a310 310 0 0 0-5.4-43 240 240 0 0 1 20.8 62.8c3.5 20.4 4.9 40.6.2 60.9a87 87 0 0 0-10-4.7 59 59 0 0 0-31.4-1.3c-1.1-1.6-2.3-3.5-3.8-4.7-2-.7-2.6-.2-4.1 1-.5 2.5 1.1 3.9 2.3 6q3.3 5 4.4 11c2.3 10.7 0 22.5-3.9 32.5a82 82 0 0 1-34 41.1 163 163 0 0 0 10.9-86.7 371 371 0 0 0 14.2-43.7c.4-2 1-4 0-5.8-1.6-.9-2.5-.6-4 .3-1.5 2.7-2 6-2.8 9l-26.1 9.3c-.3-8.3-.3-16.7-1.3-25-2-18.8-3.8-37.5-7.8-55.8-.2-1.6-.8-3.4-.6-5 1.2-3.2 2.9-6 4-9.2a99 99 0 0 0 3.3-43.6c-.8-3.3-5.6-3-5.5.6 1.4 15.7 1.4 31-5.2 45.8a35 35 0 0 1-19 18.8l-1.7-6q-1-4.5-3.1-8.5c-5.6-10.3-12.8-19.5-19.2-29-1.7-2.2-3.8-5.7-6.7-6.6-3.2-.6-5 2.6-6.7 4.8-3.4 5-7.5 9.5-11.2 14.3-2-2.3-4.2-4.2-5.6-7-4.5-11-5.1-23.9-5.4-35.7 0-1.8-.8-2.5-2.1-3.6-6.5.3-13 4.4-18.7 7.2-4 1.7-7.3 4.3-10.9 6.9a246 246 0 0 0-26.3 21.7q-5.2-11.1-7-23.1c-.2-2.2-2.3-3.3-4-2-1 .7-.8 2.8-1 3.9q-7.7 1.4-15 3.8c-5.8.3-10.3 2.9-15.5 4.9-9.4 3.7-18.4 8.3-27.5 12.6 3-9.6 8.4-17.7 14.3-25.8a308 308 0 0 1 30.6-36.4c1.3-1.4 3.7-4.2 1.8-5.8-1.6-1.7-3.4-.4-4.8.8a300 300 0 0 0-33.2 39.1c-6.2 2-12.3 5.5-18 8.7a390 390 0 0 0-27.8 17.6c2.5-7.7 6-15 9.2-22.4.9-2.5.1-4-2-5.3-3.6 0-7.2 2.5-10.2 4.2a362 362 0 0 0-49.6 38.6c-2-11.7-4.2-25.6-1-37.2a56 56 0 0 1 17.8-27.1 145 145 0 0 1 35-22.2 237 237 0 0 1 38.9-13.6 360 360 0 0 1 68-10M260 204.6q-7.1 9.8-12.6 20.6a86 86 0 0 0-10.2 36.2c0 6.6 0 13 3.3 18.9-3.8 10-3.8 20-4.4 30.5a52 52 0 0 1-20.2-40.4 67 67 0 0 1 12.2-36.5 103 103 0 0 1 31.8-29.3m16.7 40.6c-3.5 10.3-2.7 20.4-2 31a155 155 0 0 0-17.3 18.9c-5 6.4-10.5 12.5-15.4 19 .4-11.4 0-22.2 4.5-32.9a91 91 0 0 1 30.2-36m-63 142.3c-1.5 6.7-2 13.6-3 20.4 0 2-1.8 2.4-3.1 3.4a63 63 0 0 0-18.5 19.5 109 109 0 0 0-16.2 50.1 47 47 0 0 1-9.7-27.5c-1.3-29.9 20.8-60.1 50.5-66M626 547.2c5.8.9 11.5 2 17.4 2a60 60 0 0 1-30.9 18.8c3.6-4.8 7.2-9.3 10-14.7q1.6-3.1 3.5-6.1m15.6 16.4A52 52 0 0 1 672 571a32 32 0 0 1 12.6 22.4 96 96 0 0 1-5.3 40 85 85 0 0 0-76.7-53.3c1.5-1.6 3-4.6 5-5.5a63 63 0 0 0 26.5-9.7c2.4-1.6 4.8-1.2 7.5-1.3"/></g><use transform="translate(630.5 421.2)" href="#earrings-variant01-0b00a4bf"/></g></svg>
