<svg xmlns="http://www.w3.org/2000/svg" viewBox="0 0 762 762">
  <g mask="url(#hairClipMask)" stroke-linejoin="round">
    <!-- Sleek, center-parted hair in the collection's three-quarter view,
         blown from image-left toward image-right. -->
    <path fill-rule="evenodd" clip-rule="evenodd" d="M403 148c-77-7-151 24-198 83-43 54-59 129-48 200 10 68 44 132 96 174 44 36 99 53 156 48 52-5 92-28 141-35 65-9 117 24 177 39 71 18 151 10 207-37-48 10-92 3-132-12 58-4 112-29 151-71-71 29-136 17-195-8 64-5 120-35 157-81-75 33-141 16-203-14-46-22-87-51-113-94-17-29-23-60-42-87-31-45-82-78-138-92-21-6-44-10-66-13Zm1 70c59 1 108 29 135 75 31 52 32 126 8 183-25 58-75 96-138 100-65 4-117-27-146-83-29-56-31-133-4-187 27-54 80-89 145-88Z" fill="#000"/>
    <path fill-rule="evenodd" clip-rule="evenodd" d="M402 160c-71-6-140 23-184 78-39 50-54 119-44 186 9 62 40 121 88 160 40 32 90 48 142 43 52-5 93-28 143-34 68-9 121 25 181 39 48 12 99 12 144-5-28-2-56-9-83-20-7-3-7-13 1-16 47-3 91-18 128-46-52 12-102 5-149-13-7-3-7-14 1-16 49-4 95-21 132-52-61 14-117-4-171-30-49-23-91-55-120-101-18-29-25-62-44-89-29-41-76-71-128-84-19-5-38-8-57-10Zm2 47c64 1 118 32 147 81 34 56 34 135 8 194-27 62-80 102-149 106-70 4-127-29-158-89-32-60-33-143-4-200 29-58 86-94 156-92Z" fill="currentColor"/>

    <!-- One restrained set of strand lines keeps the source set's detail level. -->
    <path d="M403 154c-42 28-75 69-95 116m96-116c39 24 69 63 87 108M280 292c-20 59-25 123-14 183M520 300c37 47 55 103 56 162m-12 25c63 18 116 49 182 63" fill="none" stroke="#000" stroke-width="7" stroke-linecap="round"/>
  </g>
</svg>
