<svg xmlns="http://www.w3.org/2000/svg" viewBox="0 0 762 762"><g transform="translate(-65.6 -47.4)"><path fill-rule="evenodd" clip-rule="evenodd" d="M597.1 214a208 208 0 0 0-52-34.2 96 96 0 0 0-56-4.7 255 255 0 0 0-38.4 10.4l-1.9.7q-10.3 3.5-20 8.3l-.5.2q-1.7.9-3.7 1a88 88 0 0 1-16.5-2.6 877 877 0 0 0-31.8-4.8q-11.1-1.4-22.2-3.2-11.2-1.3-22.3 0-15.1 2.9-29 9.5a437 437 0 0 0-50.6 27.4 325 325 0 0 0-43 33 225 225 0 0 0-32.1 35.9 118 118 0 0 0-24.2 62.5 175 175 0 0 0 5.7 54 1148 1148 0 0 1 8.5 40.2l2.3 11.5c1.5 7 3 14 3.4 21.3l.2 4.4c.4 4.9.7 9.6-.3 14.6a193 193 0 0 1-20 58q-5.5 11.4-11.2 22.4c-6.6 13-13.2 25.9-18.8 39.7-7.4 19-12.2 38.5-12 58.9a116 116 0 0 0 8.2 41.7 69 69 0 0 0 14.4 21.6c9.8 9.6 20.8 17.3 32.3 24.7l3.1 2.2c13.6 9.4 27.5 19.1 36.7 33a57 57 0 0 1 11 32.8 33 33 0 0 1-6.4 18.4q-1.1 1.4-2.4 2.7c-1 1-2 2-2.7 3.2-1 2-.3 3.4.8 5q0 .3.2.4 3.3.2 6.5-1a124 124 0 0 0 64.6-50.3 83 83 0 0 0 13.8-42 73 73 0 0 0 43.8 25.6c16.8 3.6 33 3 50 2.2a152 152 0 0 0 47.8-12.4c10.2-4.4 19.4-10 28.8-15.8l6.4-4 8.8-5.5q7.8-5 16-9.7a343 343 0 0 1 33-16.8 263 263 0 0 1 71.2-20.3c8-1.3 16.2-1.6 24.3-1.9l4.7-.1c24.9-.3 50.2 3.8 72.9 14.4 13.9 6.4 27 14.9 39.5 23.5 2 2 7.1.4 6.8-2.6q-1.4-3.4-3.1-6.5-2.7-4.4-4.2-9.5a49 49 0 0 1-1.6-13q1.3-21.6 8.3-42.2 3.6-11.3 8.2-22.2 3.9-9.3 7.2-18.7c6.9-19.3 10-40.4 8-60.9-1.1-15-6-29.8-12.7-43.2q-6-11.6-13-22.9c-4.4-7.6-9-15.2-12.9-23.1a91 91 0 0 1-7.9-22.6 471 471 0 0 1-7-51q-1.4-16.2-3.6-32a152 152 0 0 0-10.5-41.4 352 352 0 0 0-21.4-40.8c-6.3-9.3-13.7-18-21-26.5l-2-2.4a418 418 0 0 0-45.7-43.4zm-122 164.8c-35.9-28-65.4-66.5-78.6-110.4q-4.5.4-8.7 1.4a365 365 0 0 0-80.5 28.3 244 244 0 0 0-78.5 61.5q-1.6 2-2.5 4.3a218.2 218.2 0 0 0 395.3 179.5c.9-1.7 2.2-2.4 3.8-3.2 11.9 4.1 24.8 4 36.6-.3a65 65 0 0 0 41.8-60.5 56 56 0 0 0-17-41.2 51 51 0 0 0-30.2-13.6 56 56 0 0 0-28.6 5c-.4 10.6-6 20.1-11.3 28.9a90 90 0 0 1-22.6 27.4c-2 1.7-5.5.3-4.8-2.5 4.4-17.9 1.2-38.3-2.7-56q-2.1-.9-4.8-1l-3-.5a236 236 0 0 1-103.6-47.1" fill="black"/><g fill="currentColor"><path fill-rule="evenodd" clip-rule="evenodd" d="M532.6 181.8a88 88 0 0 0-31-2.9 269 269 0 0 0-61.8 16.8q-7.3 2.7-14.2 6.5-5.5 2.9-11 5.3c-2.9 1-4.7-.8-3.5-3.6q2.2-1.6 4.5-2.8l1.5-.8q-19.6-3.6-39.7-6l-13.8-1.9c-11.1-2-23-3.4-34.2-1a123 123 0 0 0-22.3 7.6 423 423 0 0 0-50.7 27.2 314 314 0 0 0-41 31q-15.1 13-27.3 28.8a138 138 0 0 0-24.7 43.2 108 108 0 0 0-5 38.2c.5 15 3.7 29.3 7 43.8q2.2 9.7 4.1 19.7 2 8.6 3.6 17.3l3 15c2.9 13.3 3.9 26.8 1.5 40.2-3 21-12 41-21.3 59.8q-4.9 10.2-10.1 20.3-7.8 15-14.6 30a181 181 0 0 0-12.8 39.8 125 125 0 0 0 1.9 54.2 68 68 0 0 0 17.2 30.6 202 202 0 0 0 34.7 26.1c13.5 9.5 27 19 36.5 32.7a62 62 0 0 1 13 37.5c0 7.9-2.8 15.1-7 21.7a118 118 0 0 0 58.1-48 76 76 0 0 0 11.9-40.7v-5.3l1.2-.4c1-.4 2.2-1 3.4-.6q1.6 1.4 3 3.3l.4.5a65 65 0 0 0 15.8 15.3 97 97 0 0 0 45.7 13c21.1 1 41.8-.5 62-7q19.5-6.8 36.9-18l16.7-10.3c10-6.2 19.7-12.4 30.2-17.8q33.1-17.7 69.4-27c35.5-8.3 74-10.1 109.3 0a200 200 0 0 1 56.5 28.1 56 56 0 0 1-4.5-33.8q1.9-15.6 6.8-30.5 4.2-13.2 9.3-25.5c4.8-11.8 9.4-23.5 12.2-36.5a120 120 0 0 0-2.6-64 204 204 0 0 0-20-39.9q-6.7-11-12.6-22.4-6.4-12.4-9-26.2c-3.4-16.6-5.1-33.6-6.8-50.5a577 577 0 0 0-5.7-44.5q-4.1-21-14.2-40a436 436 0 0 0-16.7-30.1q-6.7-9-14.2-17.4l-3.4-4a320 320 0 0 0-37.6-37.4L608 231a498 498 0 0 0-32-26.3 133 133 0 0 0-43.5-23m-57.4 197c-36-28-65.5-66.5-78.7-110.4q-4.5.4-8.7 1.4a365 365 0 0 0-80.5 28.3 244 244 0 0 0-78.5 61.5q-1.6 2-2.5 4.3a218.2 218.2 0 0 0 395.3 179.5c.9-1.7 2.2-2.4 3.8-3.2 11.9 4.1 24.8 4 36.6-.3a65 65 0 0 0 41.8-60.5 56 56 0 0 0-17-41.2 51 51 0 0 0-30.2-13.6 56 56 0 0 0-28.6 5c-.4 10.6-6 20.1-11.3 28.9a90 90 0 0 1-22.6 27.4c-2 1.7-5.5.3-4.8-2.5 4.4-17.9 1.2-38.3-2.7-56q-2.1-.9-4.8-1l-3-.5a236 236 0 0 1-103.6-47.1m-77.4-132q-.4-3.3-1.2-6.5c-.5-1.9-2.2-1.7-3.7-1.6l-.8.1a16 16 0 0 0-.2 8l.2 1.6q1.2 7.4 3 14.7a305 305 0 0 0-45.5 11.4c-35.4 11.8-70.7 29-98.5 54.3a259 259 0 0 0-50 59.1 146 146 0 0 0-11.5 22.5c-1.1 3.3 1.6 5 4.4 3.3q1.4-2 2.3-4.3l.7-1.6c5.2-11.5 12-22.2 19.5-32.3a227 227 0 0 0 3.5 128.7 225 225 0 0 0 173.6 150.6c12.2 2.3 24.6 3 37 3.6q7.5 0 14.9-.6l7-.5A225 225 0 0 0 626.2 547q3 .3 5.9.9 5 .9 10.4 1a65 65 0 0 0 43-16.4 71 71 0 0 0 21.5-71.6 58 58 0 0 0-31.7-37.2 60 60 0 0 0-42.4-2.3q-5.7.2-11.4.7c-6.3.5-12.6 1-19 .5-24.3-.9-48.2-7.2-70.5-16.7a247 247 0 0 1-92.3-69.6 192 192 0 0 1-42-89.5m77.4 132c-36-28-65.5-66.5-78.7-110.4q-4.5.4-8.7 1.4a365 365 0 0 0-80.5 28.3 244 244 0 0 0-78.5 61.5q-1.6 2-2.5 4.3a218.2 218.2 0 0 0 395.3 179.5c.9-1.7 2.2-2.4 3.8-3.2 11.9 4.1 24.8 4 36.6-.3a65 65 0 0 0 41.8-60.5 56 56 0 0 0-17-41.2 51 51 0 0 0-30.2-13.6 56 56 0 0 0-28.6 5c-.4 10.6-6 20.1-11.3 28.9a90 90 0 0 1-22.6 27.4c-2 1.7-5.5.3-4.8-2.5 4.4-17.9 1.2-38.3-2.7-56q-2.1-.9-4.8-1l-3-.5a236 236 0 0 1-103.6-47.1"/><path d="M622.7 428q0 3.8-1 7.6c-2.6 9-7.9 17-13 25a126 126 0 0 1-12 15.7c1.4-16.6-1-32.4-4.5-48.6q15.3 1.3 30.5.3"/></g><use transform="translate(630.5 421.2)" href="#earrings-variant01-0b00a4bf"/></g></svg>
