<svg xmlns="http://www.w3.org/2000/svg" viewBox="0 0 762 762"><g transform="translate(-65.6 -47.4)" mask="url(#hairClipMask)"><path fill-rule="evenodd" clip-rule="evenodd" d="M403.2 165.5c-9.5-.8-19-1.7-28.6-.5-4-.2-7.6.6-11.3 1.3l-5.7 1q-9.1 2.1-18 5.3l-9 3a232 232 0 0 0-40.5 16.6q-3.8 2-7 4.8-3.6 3.6-6.3 7.7l-2 2.8-1.9 2q-1.6 1.6-2.6 3.7-.6 1-1.9 1.5l-.8.5a165 165 0 0 0-57.8 55.4 126 126 0 0 0-16.7 95.7c1 3 .2 5.8-.6 8.7l-.6 2.4a718 718 0 0 0-8.7 33.9q-1.2 4.8-2 9.9t-2.2 10.3q-.2 3.1-1 6.3-.7 3.5-1 7.1-1 4.2-1.3 8.5-.3 4.4-1.4 8.5-.6 9.3-1.5 18.8-1 10.6-1.6 20.7-.2 3.7-.2 7.6.1 4.7-.5 9.4v2.6q0 6.2-.3 12.4-.4 11.5 0 23.2l.3 13.8v1.5c.4 10 .7 19.5 1.6 29.5q.2 7.3 1.1 14.4.7 5.2 1 10.5l1.4 10q.7 7.4 2.4 14.6a345 345 0 0 0 11 43.3c4.4 13 8.6 26 15.9 37.9q1.7 2 4.2.8c1.5-1.8 1-4.3.6-6.6l-.3-1.8-.5-4.3q-1.4-9.2-1.5-18.8a323 323 0 0 1 .4-38.8q.1-4 1-8l2.2-16.3 2-14.8.4-.9q.3-.9.8-1.6-.2 6.8 1 13.4a131 131 0 0 0 2.1 15.5l1.4 8.5a251 251 0 0 0 20 63q3.8 9.3 8.4 18.5a5 5 0 0 0 4.5 2.7l19.2-2.5q13.3-2.1 26.7-3.3a148 148 0 0 1 21.6-2c4-1 8.1-1.1 12.3-1.3q3.6-.1 7.2-.5 3.4-.3 7-.3 5.1-.8 10.2-.8 3.9.1 7.8-.4h8.3a274 274 0 0 1 93.3 12c10.5 3 21 6 32.3 8.1 20.7 4 43.2 3.3 63.2-3.7 10.5-3 19.7-8.4 28.6-14.8a168 168 0 0 0 44-48c2.5-4.5 3.9-7.7 5.2-11l2.7-6.4a146 146 0 0 1 4.9 27.8c.4 16.6 0 32.7-3.3 49l-.8 2.4q-.8 2.2-1.3 4.5c-.1 2 1.5 4.1 3.6 3.7q2-1 3.1-3l.4-.5c18.7-26.6 31-58.6 39.3-89.7a437 437 0 0 0 11-55q.8-4.2 1.2-8.5 1-5.1 1.2-10.2.3-4 .9-7.9c2.5-24 2.9-47.8 2.6-71.9v-1.2q.2-2.4-.7-4.5a3 3 0 0 0-4.5 1.8 57 57 0 0 1-33.7 34.5 62 62 0 0 1-39.3 1l-.6-.6c0-1.7.7-3.5 1.2-5a556 556 0 0 0 21.5-83v-.1q.2-3 1-5.8.6-2.6.7-5 .3-3.4 1.3-6.6a87 87 0 0 1 1.2-10c15.7.2 30.9 6.8 40.4 19.5l1.1 1.8q1 1.6 2.3 2.9c1.9 1 4.3-.7 4.3-2.7l-.9-8.1q-.5-3.4-.7-7-.8-3.3-1-6.8-.2-4.1-1.4-8.2c-.2-3.9-1-7.6-1.6-11.4l-1.2-6.4a583 583 0 0 0-12.8-57.1 689 689 0 0 0-23-68c-8.2-22-24-40.6-42.9-54.3a143 143 0 0 0-33.5-18.3l-7.8-2.6-7.2-2.3-10.8-2.9-15.8-4c-25-7.3-50-11.8-76-15.2l-5.8-.9q-2.6-.2-5-.8l-6-.7a43 43 0 0 1-8.1-1.2l-11.5-1.4a221 221 0 0 0-24-2.3m-19 129.3-.2.1c-1.2 1.3-1.5 3.5-1.7 5.4q0 1.2-.3 2.1-.8 3.5-1.2 7.1a70 70 0 0 1-1.4 7.8l-.7 7a241 241 0 0 0-1.8 25.6q-.7 4.2-.6 8.6v2.9l-.1 6.1.2 16c0 1.6-1.2 3.4-2.8 4h-6q-7.2-.6-14.6-.8-5.7 0-11.3-.5-8.5-.6-17.1-.7-3-.6-6.3-.5h-1.7l-7.4-.2c-5-.2-10-.5-14.6.2-1.6.2-3.3.2-4.3-1.4-9-14-14-29.8-16.3-46.2q-1.7-9.4-2-19-.6-4.7-.5-9.4t-.4-9l-2.2 11-2 10.4-1 7.6c-.6 6-1.4 12.1-1.3 18.4v3.4c0 10.3-.2 20.4 1.8 30.6.7 3-2.3 4.5-4.8 4.8h-7.2q-6.4-.3-12.8 0l-5.3.3q-4.6-.2-8.8.7a45 45 0 0 0-9 7.1c-1 2-1.2 4.6-1.5 7q-.2 2.5-.7 4.6c-2.5 21.7-2.3 44 1.4 65.5q.6 2.3 1 4.7.2 2.8 1 5.2a218 218 0 0 0 154.8 163.2q9.8 3 20.2 4.6l5.9 1 2.8.4q5 .5 9.7 1.2a222 222 0 0 0 142-36.8l7.7-5.5 6.2-4.5q2.5-13.9 4.3-27.8l1.5-10.6 1-11.8q.8-10.8 2.1-21.4 0-6 .5-11.9 1-11.6 1.2-23.5.2-9.7.8-19.5 0-10.6.3-21.2c.2-14 .5-27.8 0-41.8v-1.3c-.1-1.2-.2-2.5-1-3q-8.9-3.6-18-6.6l-5.2-1.8-2.1-.7c-2.8-.8-5.7-1.8-7.8-3.7-1.3-1-1.7-2.8-2-4.3l-.1-.6q-3.8-12.7-9.5-24.7a19 19 0 0 0 0 5.1l.1 2.6a55 55 0 0 1-1.9 16.7c-1.4 3.2-4.6 3.2-7.6 2.6q-3.6-.8-7.2-1-3-.1-5.9-.7-5-.5-10-.7-3.5 0-6.8-.3c-2.3-.4-3.4-2.4-3.2-4.6.6-23.5-6.4-46.6-16.5-67.7a22 22 0 0 0 0 5.8l.2 2.9a241 241 0 0 1-2.4 46.7l-.8 5.8c-.5 1.5-1.4 3.4-3 4-2 1-4.7.7-7 .2a203 203 0 0 0-44.9 0l-13 1h-.2c-3.2.6-8.2 1.4-10.3-1.7q-1.3-1.6-1.4-3.7l-.3-1.8q-1-3.7-1.3-7.5l-1-6-1.4-13.7q-1.3-11.3-2.1-22.3 0-4.9-.6-9.6-.7-4.9-.6-9.9-.7-2.2-.7-4.6 0-1.5-.2-2.8l-.2-.9q-.8-3.9-.7-7.8" fill="black"/><g fill="currentColor"><path d="M380.1 170.3c29.7-.4 57.3 4.8 86.5 8.6 11.7 2 23.3 3.3 35 5.8 14.2 2.6 28.5 6.7 42.5 10.3 13.4 3.8 27.7 6.8 40.5 12.3q15.3 6.7 28.5 16.6c15.5 12 29.3 27.5 37.1 45.6 9.7 24.8 18.8 49 25.6 74.8a649 649 0 0 1 17.6 90.9l-.5-.2a55 55 0 0 0-39.5-16.6l-.5-.9c1.3-4.6 1.3-9.5 2.6-14 .5-1.9.1-5.4-2-6-2.5-.3-3.2 3-3.7 4.9-2.7 14.3-4.4 28.7-6.7 43a525 525 0 0 1-18 74.5c-12.2 38.2-25.5 76.8-44.8 112A313 313 0 0 1 559 667a439 439 0 0 0 19.7-87.6c2-11.4 2.5-22.5 3.7-34 1.5-16.8 2-32.3 3-49 .8-14.7.7-29.3 1-44 .3-12.2-.6-27-.1-38.4 4 .7 8.2 3.6 12.3 4.5 2 0 3.4-2 2.6-3.7q-1-1.5-2.7-2.2c-15.6-7-31.6-12-47.6-17.5-4.4-16.6-12-31-19.7-46.3-1.2-2-3.4-2.8-5.2-1-1.3 2.3.4 5 .8 7.5q1.4 6.5 2.2 13c.7 3.4.1 6.8.8 10q-.1 6-.9 11.6-1 .6-2.3.3c-9.2-1-18.3-2.2-27.7-2.2q-.7-.7-.6-1.7c.2-6.7-1-13.7-1.5-20.4-1-3.8-1.4-7.6-2.4-11.4q-3.5-13.3-8.9-26c-3-7-6.5-14.5-11.1-20.6-.3-4.5-1.3-9-1.8-13.5-1.7-6.7-1.7-14.2-4.5-20.5-2.2-1.9-5.2-.4-4.8 2.5 2.4 10.7 4.3 22.2 5.6 33 1.9 15.5 1.7 30.6 1.6 46-.5 7.5-1.3 18-2.9 25.2-5.5.2-12.4-1.5-18-1.4-9-.5-18.2.4-27 1.4-7.8 0-15.5 1.6-23.2 1.7l-.6-.8a564 564 0 0 1-6.6-58.1c-.5-12.6-2.4-25.5-3.9-38-.5-2.2-.4-5-2.7-6.2-2.4-1-4.6.8-4.9 3.2q-3.3 11.4-5 23c-1.4 5.7-1.7 11.3-2.6 17-.5 7-1.7 14-1.8 21-.4 12.9-1 25.6-.2 38.5q-5.7 0-11.6-.4c-15.7-1.3-32.5-1.1-48-2-5.2-.6-11.7 0-16.8-.2a88 88 0 0 1-11.7-26.4 185 185 0 0 1-5.5-37.5c-.1-8.8-.6-18.4 1.3-27 2.4-14.2 8.2-27 15.2-39.6 1.5-1.8 2.6-4.3.3-6-2.4-1-3.8.6-5 2.4a198 198 0 0 0-18 36.2c-6.8 19-11.2 38.8-12.2 59-1.1 10 .2 19.6.3 29.5.8 1.4.4 2.9.6 4.5.1 2 .8 4 .5 5.9-9 0-18-.2-26.9.6-1.4 0-4 1-5-.3-.9-4.1-2.3-8-2.6-12.2-2.2-17.2 0-35.6 6-51.9.9-2.2 2-4.4 0-6.6-2.6-.6-3.4 0-4.6 2.4a124 124 0 0 0-8 49.1c.8 4.4.4 8.7 1.9 13 .1 3 1.8 5.8 2 8.7-4.4 3.3-8.7 7.7-13.4 11a114 114 0 0 1-14.2-55.7 129 129 0 0 1 32.6-83.3 173 173 0 0 1 80.3-51.6c3.2-1.6 2.6-5.3-1-5.5-9 2.3-18 6.3-26.6 10 2.4-3.9 5.4-7.4 9.6-9.6 15.8-9.4 34.8-14.9 52-20.7a116 116 0 0 1 25-6.3c4.1-.8 8.3-.5 12.5-1.2"/><path d="M197.2 380q2.9 7.7 6.8 15c1.7 3 2.6 6.6 7 6.1 0 4.7-1.1 10.5-1.5 15.3a225 225 0 0 0 70 181.2c38.3 36 89.5 58 142.1 60.3 12 1.1 23.1-.1 35-1 39-4.1 76.8-18.7 108.5-42q1.2-.9 2.1-2.1c0 4.4-1.7 8.2-2.2 12.5a261 261 0 0 1-19.1 57.2c-.8 2-2.8 4.4-2 6.6 1 2 3.5 2 4.9.5 14.3-18 27.5-36.7 37.8-57.3 15-27.7 26-57 36.2-86.7 2.5-.3 5.3 1.2 7.8 1.6 7.1 1 13.8 2 21 .8a62 62 0 0 0 46.2-28.5h.6c0 9.7.3 19.3-.5 29-1.3 27-4.3 55.3-9.5 81.8-7.5 38-18.6 74.2-38.4 107.8-.8-3 .6-6.6.8-9.6 1.2-14.7 1.6-29.5-.1-44.2-1.7-8.6-3.2-17.5-6-25.9-.6-1.8-3-2.1-4.7-1.5-1.3 1-1.8 2.9-2.5 4.4q-3 9.7-7.6 18.5a162 162 0 0 1-26.8 34 117 117 0 0 1-42 28 120 120 0 0 1-65.5 3.6c-14.7-3-28.7-7.6-42.9-11.2-12-3.3-23.8-5-36-7-17-1.8-34-2-51-1.6-36.8 1.8-71.6 5-108 10.5-1.8 0-5.5 1.5-6.7 0l-9.7-22.2c-14.4-33.8-21-71-22.9-107.5.3-2.5-.9-5.3-3.9-4.6-2.4 1-2.2 3.8-3.2 6.1-1.5 6.3-3.4 13-4.1 19.5a404 404 0 0 0-5.7 43c-.2 9.7-.5 19.3 0 29-.3 5.3 1.3 10.5.7 15.7a415 415 0 0 1-19.9-71.8c-3-21.3-5.2-43.3-5.7-64.9-1-8.7-.3-17.3-.9-26 0-18.4.1-36.9 1.5-55 0-8.7 1.7-17.3 2-26 3.2-30.9 9.5-61.7 18-91.3"/></g><use transform="translate(630.5 421.2)" href="#earrings-variant01-0b00a4bf"/></g></svg>
