<svg xmlns="http://www.w3.org/2000/svg" viewBox="0 0 762 762"><g transform="translate(-65.6 -47.4)" mask="url(#hairClipMask)"><path d="M614.6 121.5c10.3.5 20.8.8 31 3A90 90 0 0 1 688 150a90 90 0 0 1 15.5 24.4c7 17.1 11.5 34.8 15 52.9q2.8 15 3.3 30c0 5.5.1 11.9-2.1 17a55 55 0 0 1-18.7 20.4 124 124 0 0 1-44.9 20.7c13.1 33.3 16.9 70 12 105.4-.6 2-.5 5.3-3.5 5a60 60 0 0 0-34.2 2.8 35 35 0 0 1-14.3 39.3 24.6 24.6 0 0 1-29.7-2.4c-11.6-10.7-11.6-30.5-2.3-42.7 1.3-1.8 4.7-1.7 5.2.7.1 3.6-1.3 6.8-.3 10.6s4.3 7.7 8.6 7.3c5.2-.4 7.5-7.2 6.3-11.6a179 179 0 0 0-38.7-78.1 80 80 0 0 0-24-18.9c-2.8-1.4-5.8-1.8-7.3-4.9-1-1.5.5-3.9 1-5.4 3.5-9 2.5-19.6-2.9-27.7a64 64 0 0 0-29.6-22.2c-21.2-8.7-45-11.7-67.8-11.8q-32.6-.1-64.2 7.4-2 .4-3.9.4c-2.6-1-2-4.7-1.2-6.8 4.5-11 12.3-20.7 19.3-30.2a249 249 0 0 0-31.8 28c-3.1 3.4-6.2 6.3-7.2 11-4.8 1.8-9.9 2-14.8 3.3a199 199 0 0 0-59.2 25.4 97 97 0 0 0-27.9 25.2c-1 1.8-3.3 2-4.6.3a26 26 0 0 1-5.6-15.5 50 50 0 0 1 5.5-23c-7.5-2.9-14.7-5.5-21.4-10a52 52 0 0 1-20.8-20.2c-3-5.8-2.2-13.1-1-19.3a228 228 0 0 1 18.4-54 85 85 0 0 1 21.8-31.2c6-4.9 13.2-6.7 20.6-8.5 9.3-2.2 19.5-2 29-2 7.7.4 15.4.7 23 1.8 9.6 1.4 21.1 2 29.8 6.7a33 33 0 0 1 15.6 22.7 85 85 0 0 1 2 30.4c18-4 37-6.3 54.2 2.2a219 219 0 0 1 106.9-5.6c1.7-12.5 2.3-26.2 6.5-38a43 43 0 0 1 14.9-19.2c5.2-4.2 11-7.2 17.1-9.8a161 161 0 0 1 59-10.9" fill="black"/><g fill="currentColor"><path d="M602.6 128c14-.5 27.5-.4 41.2 2.2a70 70 0 0 1 27 13 79 79 0 0 1 25.4 29.6c6.6 14.8 11 30.7 14.4 46.4q2.5 10.4 3.8 21.2c.9 9.2 2.4 17.9 1 27-.5 5.1-4.2 9.8-7.4 13.4-7 7.1-15.6 12.8-24.2 17.7-9.7 5-19.2 9.3-30 11.1a187 187 0 0 0-131.5-109.2c1.7-9.3 2.2-18.7 4.3-28a38 38 0 0 1 7.5-17.5q6.3-7.3 14.6-12.4a129 129 0 0 1 53.9-14.5m-297.5 20.6c9.2 1.5 19.4 1.8 28 5.2a26 26 0 0 1 13.9 15.4 88 88 0 0 1 3.4 35 216 216 0 0 0-74.8 39.1 145 145 0 0 0-33.7 37.5 84 84 0 0 1-35.2-20.5 20 20 0 0 1-5.7-17.9 213 213 0 0 1 20.3-60.4c5-9.8 10.2-18.9 19-25.9 5.2-4.2 12.8-6 19.3-7.4a171 171 0 0 1 45.5 0"/><path d="M486.6 201.5c39.5 2.1 78 16 108.8 41 23.5 18.9 42 43.6 53.6 71.4a198 198 0 0 1 13.3 104.9 75 75 0 0 0-38.5 6.3c-.3 3 .8 5.5 1.5 8.3a28 28 0 0 1-2 17.2l-.3.6a25 25 0 0 1-18.4 14.6A18 18 0 0 1 588 458a27 27 0 0 1-4.5-17.6l1.8.2c1.8 2.1 3.3 4 5.8 5.4 5.8 3.4 14 .9 17-5.2a20 20 0 0 0 1.3-15.2 193 193 0 0 0-28.3-63.7c-11-15.2-23.1-28.7-40.7-36.2 3.1-8.7 4-18 .5-26.7-5.2-14-18-23.6-31.1-29.7a174 174 0 0 0-66.1-14.3c-12.6-1-25.5.2-38 1.1q-16.6 1.8-33 5.3 1.7-5.4 5.2-10a193 193 0 0 1 26.6-32.4c2.3-2.5.8-4.6-2-5.7q-14.4 8-27.7 18.1-9 7.4-17.4 15.6c-6 6-12 11.4-16.3 18.8-18 2.9-35.4 8.9-52 16.8a142 142 0 0 0-47.6 34.6c-2.7-6-2.4-12.5-.6-18.7a81 81 0 0 1 16.8-29.2c8.2-9.9 17.8-18.2 28-26a210 210 0 0 1 63-32.3c9.3-2.8 19.2-5 29-5.6 6.8-.1 13.4-.4 20 1.3 4.3 1 8 2.9 12 4.6a221 221 0 0 1 77-9.9"/></g><use transform="translate(630.5 421.2)" href="#earrings-variant01-0b00a4bf"/></g></svg>
