<svg xmlns="http://www.w3.org/2000/svg" viewBox="0 0 762 762"><g transform="translate(-65.6 -47.4)"><path d="M437.6 194q28.4-1.2 56.5 2.8c15.2 2 30.2 4.2 45 8q17.6 4 34.1 11c11.4 5.2 22.6 10 33.5 16.5q10.1 6.2 19.3 13.7c16 13 29 30.6 40.3 47.8q14 22.6 25 47a963 963 0 0 1 39 104c10 32.8 17.2 67.2 19.3 101.6.5 13.7-.8 27.7-4.2 41q-6.9 24.4-19.3 46.5a96 96 0 0 1-11.4 15.5c-1.7 1.7-3 3.7-5.8 2.7-2-.8-1.2-4.3-1-5.9q2.2-11 2.5-22a90 90 0 0 1-7.8 18.2q-9 16.8-22.5 30.5a334 334 0 0 1-70.4 52.6c-14 8.4-28.8 15.2-43.3 22.7-1.7.8-3.7 1-5-.7-1-1.5-.3-2.6.2-4.1a174 174 0 0 0 13.8-48 157 157 0 0 1-33 55.9c-1.6 2-4.6 3-6 .2 0-3.2 1.8-6.5 2.7-9.5q14.8-45.7 18.6-93.6c1.1-9.6 1.4-19.3 2.3-29 1.7-31.2 3.6-62.7 3.3-94 0-10 .2-20-.6-30a615 615 0 0 0-9-87.2 591 591 0 0 1-176.4-63.5 357 357 0 0 1-55.6-37.5 183 183 0 0 1-21.3-20.9 296 296 0 0 0-52.5 49.5c-1.5 2-1.4 5.2-2 7.6q-3.4 20.1-6.5 40.2c-6.3 40.3-9.8 81-9.6 121.8.2 4.2-.4 8.6 1.4 12.4A219 219 0 0 0 360 640c2.3.6 3.6 1.7 5.2 3.4-3.3 4.6-8.8 7.7-13.1 11.4a410 410 0 0 0-58.2 57c-1.9 2-3 5.1-5.3 6.8-8.9.2-18-2-27-2.7-10.4-.6-20.8-2.1-31.2-3 2.4 8 6.3 15.5 9.5 23.2 1.7 2.6-2.5 6.3-5 5a75 75 0 0 1-23-18 156 156 0 0 1-29.3-47.7 195 195 0 0 1-11.6-47c-.7-7.3-1.7-14.6-1.8-22a501 501 0 0 1 10-110.8q5.7-31 14-61.4c.7-3 2.5-6.7 1.4-9.8a146 146 0 0 1-4.5-22 122 122 0 0 1 2.2-34.5 136 136 0 0 1 11-29.8 384 384 0 0 1 33.6-53.3c7.3-9.6 15-19.1 23.4-27.7q14-13.4 30.4-23.7c11.2-7.5 26-9.3 39-12 5.4-1 10.6-3 16-4.6 3.9-.8 7-3.7 10.8-5.6q17.4-9.9 37.1-13.6c14.5-2.7 29.3-3.5 44-3.7" fill="black"/><path d="M461.6 199.6q30.7 1.7 61 7.4 17 3.5 33.7 8.7a319 319 0 0 1 37.8 16.2 150 150 0 0 1 41.2 30.8c24.6 26.6 42 59.7 56.1 92.9a964 964 0 0 1 33.3 90.7 464 464 0 0 1 16.9 76.1c2.8 21.3 3.7 45-2.4 65.8a226 226 0 0 1-18.6 44.2q-2.6 4.6-6 8.7 1.8-16.9 1.5-33.7c-.8-8.7.7-17.3.8-26 1-8.7.9-17.3.7-26 .1-2.8-3.5-5-4.8-1.8-.9 4.7 0 10-.5 14.8-1 14-1.2 29-4.3 42.8a120 120 0 0 1-33.4 59.2 342 342 0 0 1-71 52c-11.2 6.5-22.8 12-34.3 17.8a213 213 0 0 0 14.8-72.8q-.2-2.4-1.1-4.6l-3.5.4q-1.2 1.5-1.4 3.2a196 196 0 0 1-16.5 47.1Q555 727 546 739c1.8-6.8 4-13.5 5.8-20.4 9.4-34 12.3-71 14.4-106.2.8-7.3.7-14.7 1.2-22 1-13.3 1.1-26.6 1.5-40 .1-25.4.5-51.2-1.3-76.5q-1.5-19.8-3.9-39.4l-3.8-25.4q14.8 2.6 29.8 3.8c3.4.3 7.4 1 10.8.4 2.6-1.7 2-4.8-1-5.4-32.8-1.8-66-8.8-97.6-18a616 616 0 0 1-98-37.9c-19.5-9.6-39-20.5-56.8-33-18.4-12.7-37.7-28.1-50-47-1.4-2.2-3-1.6-5.2-1.2-.8 4.8 2.6 7.2 5 10.9l-13.3 10.6a271 271 0 0 0-61.5 70.5c-.7 1.4-1.7 3-1.7 4.6-.4 2.3 3.4 3.5 4.4 1.5 4.6-8.5 10.1-16 15.8-23.9a772 772 0 0 0-16.1 171.4c.2 39.6 4.7 79.3 12 118.2.6 2.5 2.6 2 4.6 2.4q1.1-2.7.6-5.5c-3.9-21.8-7.3-44-9-66.1-1.5-11.8-1.6-23.8-2.3-35.6a226 226 0 0 0 125.4 114.8q-16 12.3-30.9 26a394 394 0 0 0-38.4 42.3q-5.7-.3-11.3-1.2c-11.8-1.7-23.7-2.2-35.5-3.6-4-.1-9.3-1.9-12.8.3-3 2-1.8 6-.9 8.8q3.3 8.2 7 16.2a98 98 0 0 1-27-27.2c-8.2-11.3-15-23.6-19.4-36.8a191 191 0 0 1-9.1-36.2q-3-21.7-2.7-43.8c-.3-9.7 1-19.3 1.3-29q2.3-29.7 7.8-59 6.6-34.8 15.4-69c.6-2.8 2.2-6 1.2-8.8a113 113 0 0 1-5-31.2c.3-10.2 1.3-20.2 4.3-30 5.2-17.1 14.4-33 23.9-48a365 365 0 0 1 36.9-49.1 168 168 0 0 1 33.1-26.9c12.9-8.5 30-9.4 44.6-13.6q-5.1 5-10.4 9.7c-1 1-2.8 2.4-2.6 4-.4 2.2 2.7 3 4.2 1.7q7.4-6.6 14.6-13.4c7-6.6 16.1-11.3 24.7-15.3 13-6 26.7-9 41-10.4 17.3-1.3 34.5-2.2 51.9-1.5" fill="currentColor"/></g></svg>
