<svg xmlns="http://www.w3.org/2000/svg" viewBox="0 0 762 762"><g transform="translate(-65.6 -47.4)" mask="url(#hairClipMask)"><path d="M331.6 144.6a58 58 0 0 1 39.6 10.1 41 41 0 0 1 14.8 18.4 28 28 0 0 1 0 20 338 338 0 0 1 98.6-14.5q11 .3 22 1.3a205 205 0 0 1 88.6 28.9 160 160 0 0 1 58.4 63.6 179 179 0 0 1 18.5 69.5c27.4-6.6 57.5 7 73.2 29.8a57 57 0 0 1 10.9 37.6c-.2 1.8-2 3-3.6 3.3-2.6-.6-5-2.5-7.5-3.6a138 138 0 0 0-43.3-12.5c27 18.4 47.5 46.4 57 77.7 5 15.9 6.6 32.7 4.8 49.2a86 86 0 0 1-20.6 47.4c-1.5 1.8-5.2 2.4-6-.3 0-10.2.6-22-4.7-31.2a89 89 0 0 1-77.2 61.3 106 106 0 0 1-45.4-5c-4.5 6.3-7.6 14-6.6 21.8.3 1.7-1.2 2.5-2.3 3.5l-7.2-4.6q-8.8-6-15.8-14.1c-1-1-1.2-2.4-1.5-3.7 18.3-16 34-35.3 46-56.4 1.4-2.7 4-1.5 6.3-1a56 56 0 0 0 48.5-9.2 66 66 0 0 0 26-42.5c1.4-10.4 1-20.8-2.9-30.7-4.8-13-14.5-24-27.2-29.7-11.6-5.4-25-6-37.1-2.3a135 135 0 0 1-18.5 32.5 142 142 0 0 1-25 24c-1.7 1.3-3.4 2.4-5.2.6-1.5-1.8.4-5.2.8-7.2 3-12.8 6-26 6-39.2q1-16.6-1.7-33c-.5-2.6-.6-5.6-1.8-8-3-.3-6-.2-9-.8a49 49 0 0 1-22.2-10.9 38 38 0 0 1-13.4-27.3 39 39 0 0 0-4.4 21c0 1.8.7 4.7-.8 6q-2.8 1.5-6.1 1.8a76 76 0 0 1-36-3.9 51 51 0 0 1-26-22 62 62 0 0 1-6.8-37.4c.4-3.4 1.2-6.6 1.4-10-4.3 7.9-7.6 16-9 25a70 70 0 0 0 1.4 34.6c.4 1.5 1.2 3.3.7 4.8-.4 1.6-2.2 2.1-3.7 1.4a52 52 0 0 1-20-17.6c-.4 4.6.1 8.4 1.6 12.8.4 2 2 4.6.4 6.4-1.3 1.9-3.8 2-5.8 2.5a365 365 0 0 1-48.2 6.1c-8.9 1-18 .6-27 .6-19.5-.9-39.7-3.3-57.7-11.4-11-5-21.1-12.5-26.5-23.6a47 47 0 0 1-4-16.3q-4 4.2-6.6 9.4a73 73 0 0 0-8.1 33.8c0 3 .8 6 .6 9.1-.6 2.3-3.7 2.2-5.6 1.8a93 93 0 0 1-18.8-6.2c-3.4-1.5-6.5-3.5-9.9-4.9a222 222 0 0 0-6.3 50.2c-1 52 17.7 104 51.3 143.6 2.3 2.7 4.9 4.8 5.4 8.6a12 12 0 0 1-7.8 3.4 64 64 0 0 1-49.9-16.8 95 95 0 0 1-31.1-52.8c-1.4-7-1.3-13.9-1.2-21a57 57 0 0 0-15.3 35.6c0 1.5-2 2.4-3.4 2s-2-1.7-2.7-3a147 147 0 0 1-13.4-71.6c1.3-22 7.5-44.8 19.5-63.5 9-14 21-25.5 36.6-31.6a71 71 0 0 1-14.4-44.9c.5-21.6 9.5-42 22.4-59a150 150 0 0 1 76-51.6 131 131 0 0 1 51-5c4.7.4 9.2 1.6 14 2.3a35 35 0 0 0-11.6-25.1 54 54 0 0 0-31.7-15.3c-2.2-.4-5 .3-6.1-2.2-.4-2.6 1.6-4.5 3-6.4a41 41 0 0 1 26.3-12.5" fill="black"/><path d="M336.6 150a52 52 0 0 1 35 12.4c4.9 4.4 9 10.4 10 17 1.3 5.2-.1 10.6-2.9 15.1-1 1.4-1.7 3.6-.1 4.9 2.3 1.5 5.6.4 8-.3a309 309 0 0 1 117-13.7 203 203 0 0 1 85 26.1c23.8 14 43.9 34.2 57.2 58.5a173 173 0 0 1 20.7 73.4c.1 1.8 0 3.5 1.9 4.3 1.4.7 2.6.3 4 0 22.8-6 48.3 4 63.5 21.4a56 56 0 0 1 14.8 36.9 136 136 0 0 0-59.1-16c-2.2-.2-3.4 0-4.3 2.3 0 2.4 1.7 3 3.3 4 26 15 46.6 39.3 58.2 67 6.6 16 10.3 33.7 9.7 51.1-.6 17-5.7 34.3-16 48-.3-4.4-.3-8.7-1-13a67 67 0 0 0-6.5-18.5c-.9-1.8-2.5-2.6-4.4-1.6-2 .7-2 2.5-2.7 4.2a83 83 0 0 1-61.5 59.3c-17.6 4.3-36.6 3-53.8-2.3q-4.2-1.4-7 1.9a41 41 0 0 0-8.2 19.8 72 72 0 0 1-14.2-12q8.9-8.2 17-17.2a231 231 0 0 0 26.1-36c5.5.6 10.7 2 16.3 2a66 66 0 0 0 52.7-27 72 72 0 0 0 14.4-39.6c.4-14-3.2-28.2-11.4-39.7a56 56 0 0 0-39.7-23.5q-10-1.5-20 .8c0-2.3 1-4.3-.8-6.2-1.9-.3-3.2-.3-3.8 1.7-2.4 9.6-7.2 18.7-12.2 27.1a129 129 0 0 1-27.2 31.6c2.6-13 5.5-25.4 5.2-38.8q.8-21.3-4.2-42c-.3-1.6-1.1-3-3-3-5.5-.1-10.7.2-16-2-8.2-3.4-16.7-9-21.1-16.9a48 48 0 0 1-4.6-25.2c-1.1-2.3-4-1.9-5.1.2-2.5 4.3-5.2 8.7-7 13.4a53 53 0 0 0-3.3 20.4 65 65 0 0 1-44.4-8.4 45 45 0 0 1-18.9-29 73 73 0 0 1 3.5-37.5c.6-1.8 1.7-4.1.8-6-1.2-2.1-4.2-1.3-5.8 0a78 78 0 0 0-19.5 48c-1 7.7 0 15 1.3 22.6a54 54 0 0 1-14-16.4c-1.5-2.9-5.4-2.5-6.1.6a40 40 0 0 0 1 22.6 326 326 0 0 1-88.8 6.1 122 122 0 0 1-49.5-14 38 38 0 0 1-18.6-22.4c-1.4-5.2-.6-10-.7-15.2-1.2-2-3.4-2.3-5.3-1a44 44 0 0 0-14.4 18.6 76 76 0 0 0-7 37.4 77 77 0 0 1-38.6-21.8 64 64 0 0 1-16-50.2c1-12.2 5.2-24.3 11-35a130 130 0 0 1 40.5-44.5c19.5-13.6 42-22.5 65.6-25.2a107 107 0 0 1 41 3c2 .6 3.2-.7 3.9-2.3 2.2-9-.5-17.7-5.5-25.1a60 60 0 0 0-40.5-25.2 39 39 0 0 1 26.1-10M206.7 369q4.5 4.5 9.4 8.4a221 221 0 0 0-7.2 56 223 223 0 0 0 54.7 147.7c-10.4 1.9-21-.6-30.5-5a83 83 0 0 1-34.4-32.7 81 81 0 0 1-11.6-45c0-2.7.8-5.4.7-8-.8-2.3-3-2.7-5-1.7-4.3 2-7.7 5.9-10.4 9.5q-7.4 10.2-10.6 22.2a140 140 0 0 1-9.7-57c1-23.4 7.3-47.5 20.6-67a69 69 0 0 1 34-27.3" fill="currentColor"/><use transform="translate(630.5 421.2)" href="#earrings-variant01-0b00a4bf"/></g></svg>
