<svg xmlns="http://www.w3.org/2000/svg" viewBox="0 0 762 762"><g transform="translate(-65.6 -47.4)" mask="url(#hairClipMask)"><path d="M400 175c6.2 3.2 9 9.8 11.8 15.8 10-2 20.6-3 30.8-4.3 25.4-1.7 50.8-2.7 75.3 5.5 12.2 4 23 10 34.3 15.8 17.6 9.3 36.4 18.3 53.6 28.4a159 159 0 0 1 41 36 450 450 0 0 1 43.4 78.7c16.7 39 28.4 80.3 33.4 122.5q3.4 27.4 2.2 55c-1.5 26-6 52.1-17.5 75.8a98 98 0 0 1-35.4 41.5c-4.2 2.5-8.6 5.2-13.3 6.4q-3.3-1.2-1.7-4.4c2.2-3.8 5-7.2 6.7-11.2 5.4-11.7 9-24.5 11.6-37.1 2.5-11.9 3.8-23.9 2.7-36a254 254 0 0 1-17 31.4 254 254 0 0 1-48.6 55.4 261 261 0 0 1-55.7 38.2 51 51 0 0 1-12 4.4q-2.6.2-2.7-2.5c2.1-3.5 6-5.8 8.6-9a89 89 0 0 0 19.6-38.1c3.5-17.2.5-35-6.3-51a167 167 0 0 0-30.9-46.2q-.1 7.7.6 15.4c1 11 1.4 21.6 6.6 31.4 1 1.6 1 4.5-1.5 4.2q-12.9-.6-25.8-2.2a150 150 0 0 1-53.2-21.4 264 264 0 0 1-55.7-45.3A261 261 0 0 1 349 422.9c-6-22.7-10.3-46-11.8-69.5-.9-7-.7-14-1-21a309 309 0 0 1 4.5-56 336 336 0 0 0-54.5 40.6 429 429 0 0 0-65.8 74.2 18 18 0 0 0-3.2 9.2 217 217 0 0 0 109 224.3c3.3 2 7 3.2 9.8 5.6.7 2.4-.7 3.8-1.8 5.7-8.6 12.5-15.6 27-18 42-1 3.2-4.8 2.1-7 1.5a153 153 0 0 1-39.6-19 107 107 0 0 1-21.4-21.2 277 277 0 0 1-48.4 44.4c-1.6 1.1-3.3 1.4-5.2 1.9-1-2.5-1.2-3.7-.2-6.2 3.5-9.2 3.9-18.3 4.7-28 1.1-26.4 0-52.6-2-79-3-37-7.4-74.3-14.7-110.8a531 531 0 0 1-8-37.7c-1.3-8-1.2-15.4.2-23.3 3.7-20.2 12-39 21-57.3q10.7-22.6 22-44.8c10.1-19 19.8-37 33.5-53.6a66 66 0 0 1 18.6-16.4c6-3.2 12.3-4.4 19-5.9 16-3.4 32-8.2 47.8-12.4l27.7-6.8c4.5-8.8 10-18.3 17.5-24.9 5-4.2 12.2-6.7 18.3-3.5" fill="black"/><g fill="currentColor"><path d="M393.6 179.3c3.5-.3 6.4 2 8.3 4.7 5.3 7.5 7.2 15.7 10.2 23.9 1.1 2.5 3 1.3 5 .9-.4-4.4-1.8-8.5-3.3-12.6 18-3.1 36.5-5.2 54.8-5a137 137 0 0 1 69.4 15.7q17.9 9.4 35.7 18.5c13.8 7.3 28.5 14.5 41.2 23.7 10.3 7.9 21 17 28 27.9a441 441 0 0 1 44.6 82.6c18 44.1 30.3 92 32.5 139.8 1 14.1.2 28-1 42a184 184 0 0 1-15.6 59.8 93 93 0 0 1-34.7 40.4c7.1-15 11.3-30.9 14.3-47.2 2.3-13 2-26 .4-39-.6-3.8.6-7-2.8-9.7-1 .9-2.4 1.6-2.9 2.8-1.4 4-2.2 8.2-4 12-3.7 9.2-8.6 17.9-13.6 26.4a253 253 0 0 1-56.8 64.2 270 270 0 0 1-44.5 30.6 88 88 0 0 0 19.5-51.3c.6-18-5-36.2-13.7-51.9a181 181 0 0 0-28.4-37.7q-1.7-1.8-3.7-3.3-3.4-.4-3.8 2.9a114 114 0 0 0 0 19.5c1 10.6 1.8 20.5 5.3 30.6a129 129 0 0 1-22.9-2c-19.2-4-38-13.6-54.2-24.3a250 250 0 0 1-50.7-43.4A230 230 0 0 1 375 474a302 302 0 0 1-29.2-94.6q-2.9-19-3.5-38c-.8-12 0-24 .6-36a275 275 0 0 1 25-96.5c4-8 8.5-16.2 14.4-22.8 3-3.4 6.6-6.4 11.3-6.8"/><path d="M361.2 209.6q-13 28.6-19 59.5a308 308 0 0 0-49.4 34.5 459 459 0 0 0-63.9 66.1 246 246 0 0 0-31.5 50.5c-2 4.9-4.2 10-5 15.2.4 2.8 4.1 3.4 5.2 1 1.2-2.6 1.8-5.5 2.8-8.2 2.7-7.3 6.3-14.3 10-21a223 223 0 0 0 118.8 225.7 128 128 0 0 0-18 41.3c-16.6-6-34.6-13.5-47.6-25.8-4.7-4.5-9.2-9-12.5-14.6-1.3-2-4-2.5-5.6-.4a291 291 0 0 1-43.5 42q2.9-15 2.9-30 .8-16 0-32-.5-24.6-2.6-49c-3.3-37-8-74.6-15.9-111-2.1-7.8-3.5-15.6-5.1-23.5-1.6-8.2-3-16.1-1.6-24.5 3.8-26.3 16.1-49 27.3-72.5q8.5-17.4 17.4-34.7c9.7-18 19-35.1 32.2-50.8a58 58 0 0 1 16.1-14c5.2-2.6 10.5-3.6 16-4.9 16.6-3.5 32.9-8.3 49-12.8l23.5-6"/></g></g></svg>
