<svg xmlns="http://www.w3.org/2000/svg" viewBox="0 0 762 762"><g transform="translate(-65.6 -47.4)"><path fill-rule="evenodd" clip-rule="evenodd" d="M517.2 197.5q-18-2.3-36-4a452 452 0 0 0-65.8-2.3q-13 1.2-25.8 4.1l-.3.1c-6.3 1.4-13.5 3-18.7 7-16.1-3.5-33.7-1-49.3 3.6a177 177 0 0 0-50 25c-29.3 20.7-54 48-72.4 78.7a207 207 0 0 0-31 94.7c-.9 21.5 3 44 16.3 61.4q2 2.9 2.4 6.5l.6 2.6q2.9 11 10 20c3.4 4.2 7.8 7.1 12.3 10.1l.4.2q-1.4 19.6 1.2 39.2a190 190 0 0 0 28.5 80 83 83 0 0 0 34.9 31.2c1.9.8 5.6 2 6.8-.5a116 116 0 0 1 4.8-15.3c14.7 4.8 31.5 4.7 46.7 2.8l3.4-.7c3.2-.5 6.5-1 9.3-2.5 1.8-.8 2.2-3.4.6-4.5a22 22 0 0 0-5-2.5l-2.4-1a202 202 0 0 1-72-56 219 219 0 0 1-44.5-85.1 82 82 0 0 0 22.4 1.7c3.5-.2 6.7.7 9.9 1.5q4.4 1.4 9.1 1.5 9.4.4 18.5-2.2c2.2-.8 2.6-3.3.9-4.9a75 75 0 0 1-15.4-28.5 124 124 0 0 1-4-45c3-32.2 14-63.6 28.7-92.3q12-23.5 26.9-45.1a227 227 0 0 0-1.2 96.9 232 232 0 0 0 43.3 96.8A160 160 0 0 0 398 505q1.4 1.1 3.3 1c2.2-.2 2.8-3.2 1.5-4.6l-.7-.7c-1.5-1.8-3-3.4-4.1-5.6q-4.4-9.3-7.5-19.2v-.3A675 675 0 0 1 376 425c8 20.7 18.5 39.8 34.2 55.7q6 5.7 12.6 10.6l1 .8a66 66 0 0 0 15.7 8.3c1.6.8 3.6 0 5.3-.7l1.5-.6q3.4-1.5 7-2.6l5.4-1.9c1.4-2 .5-3.8-1-5.3a101 101 0 0 1-15.7-20.4 278 278 0 0 1-26.9-70.3 718 718 0 0 1-15.1-77.7l2.9 7.9 2.2 6q6.3 16.7 14.5 32.5c14.5 27.6 30.3 54 49.4 78.6a241 241 0 0 0 44.2 44.5c1.2.8 2.8 1.8 4.2.9s3.5-2.9 3.5-4.9a416 416 0 0 0-.1-61 523 523 0 0 0-20.3-111l-.9-2.7-2-7.2a612 612 0 0 1 22 59.8 457 457 0 0 1 19.3 90.1c1 8.7 1 17.8 1 26.6v.4q-.1 2.1 1.8 2.8a35 35 0 0 0 8.3 1.5l.1.9c.1 1.3.3 3.2 1.7 3.5 7.6 2 16 1.9 23.7.6a247 247 0 0 0 22.8-3.8l-2.7 19.4a683 683 0 0 1-15 83.2q-.7 3.2-1.8 6.2a59 59 0 0 1-10.8 10.1l-3 2.1a28 28 0 0 0-5.1 3.9c-1.7 2.6-2.6 6-3.4 9.2l-.8 3.4-.1.3c-1.6 5.4-3.2 11-5.7 16.1l-.2.6c-.6 1.6-1.3 3.1.3 4.5q4 1.8 8.5 1.2l8.7-.7 10.5-.9q11.5-1.6 22.6-5.3c12.2-4 24-8.4 35.3-14.7a91 91 0 0 1-9.9 25c-.5 3.5 3 4.5 5.4 2.5a191 191 0 0 0 61.7-73.4 298 298 0 0 0 30.2-121l.6-10.2c.2-24.2-1.8-48.7-6.5-72.5a271 271 0 0 0-52.2-117c-20.7-25.4-48-46.2-80.4-53.8-8.6-2.5-17.1-2.9-26-3.2q-20.8-1.7-41.4-4.4m186.6 282.9a56 56 0 0 0-31.4-51.8q-1.6-.6-1.3.9a431 431 0 0 1-13.5 104q-1.2 4-2 8c27.6-6 48.3-33 48.2-61.1" fill="black"/><g fill="currentColor"><path d="M447.6 197.2q20.6.7 41 3.1c25.2 2.2 49.5 6.8 75 7.3 6.6 0 12.5 2 19 3.2 29.8 6.8 55 25.1 74.6 48 26.3 30.9 43.3 70.3 52.3 109.6a311 311 0 0 1 7.2 50c1 7 .5 14 1 21 .1 50.1-10.2 101.3-34.4 145.6a184 184 0 0 1-46.6 56.5c1.9-6.6 5-14.2 5-21.2.2-2-2.2-3.8-4-3-2.3 1-4.3 2.6-6.5 3.7a193 193 0 0 1-45.8 17.3c-9.7 2.4-19.6 2.7-29.3 3.4q4-11 6.6-22.3c.5-1.6.8-3.6 2.3-4.6q5.3-3.6 10.3-7.4-3 9.9-7.8 19c-1.3 2.2.2 4.8 2.6 5.3 4 .7 8.4.5 12.5.5 1.4-.1 2.7 0 3.9-1 8.8-7.4 16.1-16.6 22.5-26.2 4.8-1.4 9.4-3.9 13.6-6.5 7.3-5 12.7-12.5 17.2-20q7.5-13.1 12.4-27.6c.7-1.4.6-2.9 2.5-3a69.4 69.4 0 0 0 49.7-94.3 60 60 0 0 0-33.1-32c-.5-17.5-1-34.9-3.4-52.2-2.6-20.7-7-41.9-15-61.2-1-2.1-1.3-4.8-4.3-4.7-2.7.1-3 2.8-2.1 4.9a220 220 0 0 1 15 57.8q5 37.4 3.4 75.2a416 416 0 0 1-12.6 88.8 190 190 0 0 1-17.3 44.6 50 50 0 0 1-20.5 21.4A260 260 0 0 0 648 481.4c0-3.7-5.2-4.3-5.9-.6q-.7 18-4.3 35.6c-5.8 28.6-16 56.9-31.4 81.8a121 121 0 0 1-23.9 28.5h-8.3q7.8-17.9 12.6-36.8a566 566 0 0 0 13.4-74.5c1-9.9 2.6-19.7 3.7-29.6 3.3-1 7 0 8.3-3.8a211 211 0 0 0 .5-167.6A177 177 0 0 0 549 237c-2.7-1.7-5.4-3.7-8.4-4.8-2.6 0-4.2 2.6-2.5 4.7 2.7 2.3 6.1 3.9 9 6 33.1 22.3 56.4 57 68 95 14 46 11.2 96.8-8 141q-2.3.8-4.5 1.3c-11.6 2.3-23.1 4.8-35 5.9q-5.4 0-10.8-.6c10.7-28.4 13.2-58 11.8-88q-1.5-28-8.2-55.1a251 251 0 0 0-33.3-78.5c-.9-1-2-3.2-3.5-3-2.9-.4-4 3-2.4 5C545 301 557.7 344.6 562 386.6c.8 12.6 2 25 .8 37.6-.8 19.1-4 38.2-10.4 56.2q-3.3 0-6.4-1c.7-14.2-1.1-28.9-3-43-4.7-30.2-12.5-60-22.3-89a501 501 0 0 0-40-90c-2.8-4.6-5.2-9.2-9-13-8.9-14.9-19.7-31-34-41.1-2.7-1.8-4.3-.7-5.5 2 1.5 2.9 4 4.3 6.4 6.3a115 115 0 0 1 18.7 21.2 250 250 0 0 1 24.9 47c16 39.7 25.9 82.1 30.8 124.6q4.7 40 2.5 80.1-9-7-17-14.8a373 373 0 0 1-58-77.2 405 405 0 0 1-29-58A280 280 0 0 1 398 291c-.5-1.6-1.9-2.9-2-4.5q-1-9-1.2-18c-.2-12.5-.5-24.7 1.3-37.1-2-3.4-5.3-1-5.6 2-3.5 26.2-1 52.3 2.4 78.3q3.8 28.6 9.3 56.8c7.2 34.9 16.4 71 34 102.2 4.5 7.2 9.4 14.4 15 20.7-3.2 1-6.3 3-9.6 3.5a79 79 0 0 1-26-17.3c-12.4-12-22-27.3-29-43a355 355 0 0 1-15-39.1 304 304 0 0 1-13.7-98.8c.2-4.8 1-9.5 1-14.3-.6-2.7-3.6-2.9-4.8-.5-2.4 12.3-2.1 24.1-2 36.6.4 19 4 36.7 6.8 55.2q3.6 20 8.3 40a624 624 0 0 0 22.5 77.9 172 172 0 0 1-34.5-39.7 238 238 0 0 1-36.1-126.4c.4-20.8 3.3-42.3 10.7-61.8 2.3-4.3 3.2-9.1 5.6-13.4 10-20.3 25-37.6 46.2-46.7 21.4-6.2 43.8-8.1 66-6.3"/><path d="M362.7 207.1c-3 2.9-6.4 5.2-9.3 8a118 118 0 0 0-27.2 41q-1 2.4-2.4 4.4a384 384 0 0 0-48.6 84.7c-11.2 27.5-19.1 58.3-17.8 88.2a97 97 0 0 0 18.2 55.2 41 41 0 0 1-20.5-.8 61 61 0 0 1-22.3-19.6 93 93 0 0 1-15-51.8 150 150 0 0 1 1.5-24.5 235 235 0 0 1 43.6-101.1c15.5-21 33.6-39.9 54.8-55.3 1.5-1.3 3.2-2.9 1.6-5-1.2-2-3.9-1-5.3.3a268 268 0 0 0-78 92.1 216 216 0 0 0-23.6 76.5c-1 14.5-1 29 2.6 43.2a80 80 0 0 0 26.5 43.6 64 64 0 0 1-48-18.7 77 77 0 0 1-19.2-45c-1.6-15.9 0-31.7 3.6-47A243 243 0 0 1 233.3 273c22-24.4 48.6-45.5 79.3-57.6 15.8-6.2 33-10 50-8.3M193.2 475.6A71 71 0 0 0 215 488c1.7 2.2 1.8 5.7 2.7 8.3a231 231 0 0 0 56.1 95.8 202 202 0 0 0 60.6 43.8 82 82 0 0 1-19.8 1.9c-9.4.2-19-1-28-3.7-2-.6-4.2 0-5 2-2 4.5-3.2 9.3-4.7 13.9a77 77 0 0 1-32.6-29.3 182 182 0 0 1-26.5-71.4 196 196 0 0 1-2-44c0-1.8.5-4.5-1.7-5.3-10.6-3.8-17.6-14.2-21-24.6"/></g></g></svg>
