<svg xmlns="http://www.w3.org/2000/svg" viewBox="0 0 762 762"><g transform="translate(-65.6 -47.4)" mask="url(#hairClipMask)"><path d="M452.6 158.7q13.1 1.3 25.3 6.4c12 5 24 12.4 32.6 22.4 5.4 6.7 10.2 14.1 15 21.4 11.4-2 22.4-4.9 34-5.7a167 167 0 0 1 43.3 1.1 97 97 0 0 1 43.3 21.5 100 100 0 0 1 25.2 30 195 195 0 0 1 20.5 59.4c3.5 17.3 5.2 34.7 13.3 50.8 5.9 12 15.9 22.3 26 30.9 11 9.1 23.3 17.4 31.9 29a45 45 0 0 1 10 29.5 48 48 0 0 1-9.2 25.2c5.4 5.8 13.1 7.3 20.8 7 4.4-.4 9.3-1.5 12.6-4.6 1.6-1.2 2.8-3.2 5.1-2.4 2.4.7 1.7 4 1.7 5.8a117 117 0 0 1-17.5 48 97 97 0 0 1-43.4 38.5c-9.4 4-19.6 4.7-29.7 3a104 104 0 0 1-54.8 42.8 81 81 0 0 1-41.7 3.5 53 53 0 0 1-55.1 17.9 38 38 0 0 1-19.5-12.4c-1-1.4-1.6-3.4 0-4.6 2.4-2 5.4-3.3 8-5a228 228 0 0 0 38.2-31.8 210 210 0 0 0 33-43q1.8-3.5 5.6-2.3c5.8 2.1 11.4 1.5 17.4 1.7a134 134 0 0 1-30.2-66.9 105 105 0 0 1-35.2-35c-9.9-16.1-16-34.5-21.4-52.5-6-19.7-12.5-38.6-22.3-56.8-4.4-8.2-9.3-16.4-15.5-23.4s-13.7-13-22.3-16.7a69 69 0 0 0-20-3.8q-3.3-.5-2.5-3.7c1.5-4.7 4-9 5.8-13.6q-10.5 5.5-20.3 12c-1.2.7-2.6 1.8-4 1.6-2.1-.8-2.1-2.6-2.8-4.3-3-10.3-11-18.1-20.5-22.9a50 50 0 0 0-19-5.3 71 71 0 0 1 20.3 22q1 2.2 2.9 3.9c-.5 1.6.3 4.4-2 4.8-3.4 1.1-5-4.4-6.6-6.5a58 58 0 0 0-25-23.7 59 59 0 0 0-15.4 5.9c7.7 4.2 14.4 10.6 20.8 16.6.1 2 .6 3.5-1.6 4.5-3 .5-5.4-3.4-7.5-5.1a55 55 0 0 0-17.4-12.4q-9 6-16.8 13.8a165 165 0 0 0-31.4 51.2q-10.3 25.2-18.8 51.1c-9 25.3-19.1 50.8-31.4 74.7a221 221 0 0 1-29.2 44.8q-10.6 12.3-24.4 21.1a135 135 0 0 0 12.4 24.8A262 262 0 0 0 281 591c1.9 2.2 5.5 4 3.6 7.3a44 44 0 0 1-25.2 23 68 68 0 0 1-74.6-21A48 48 0 0 1 174 569c-5.7-.2-11.2-.5-16.6-2.1a79 79 0 0 1-39.4-28 112 112 0 0 1-22.7-57 99 99 0 0 1 2.7-36.3c.5-1.5 1-4.6 2.7-5 3.3 0 6.6 1 9.9 1.2a47 47 0 0 0 33.4-12c11-9.9 17.4-24 20.6-38.2-3.2-3.2-6-6.5-7.5-10.7a53 53 0 0 1 1.2-37.7 150 150 0 0 1 33.3-51.8 196 196 0 0 1 45.1-33.9c11.8-6.7 23.5-13.4 35.8-19.2 20-9.7 39.3-17.4 58.1-28.9 19.5-11.8 38-27.7 58.4-37.6a147 147 0 0 1 33.8-12.2c10-2 19.8-1.9 29.8-1" fill="black"/><g fill="currentColor"><path d="M431.6 164.4q8-.4 16 0a88 88 0 0 1 59 27.9Q515 203 522 214c1.5 2.5 4.1.7 6.1.2a206 206 0 0 1 39.7-5.5c14-.4 29.4-.5 42.8 3.8a103 103 0 0 1 58.6 52.3 189 189 0 0 1 15.7 47c4 19.1 5.7 38.3 14.3 56A100 100 0 0 0 723 398c7.4 6.7 15.6 12.3 23 19a59 59 0 0 1 20.3 29.4 38 38 0 0 1-7.4 30.2c-1 1.7-2.3 2.7-1.5 4.8 2.3 5 6.5 8 11.5 9.9a39 39 0 0 0 28.5-.5 114 114 0 0 1-34.8 62.6c-10.3 9-23 16.4-37 17.4-4.5.5-8.7-.5-13-1.4q-2.3-.5-3.4 1.6a98 98 0 0 1-59 43.9 71 71 0 0 1-33.6 1c-2-.6-3.2.7-4.3 2.2a44 44 0 0 1-20.2 14.8 42 42 0 0 1-43.2-6.7q14.9-9.1 28-20.6a233 233 0 0 0 49.3-58.1 84 84 0 0 0 24 1 60 60 0 0 0 22.3 14.2l2.8-1.1c-.2-1.6.7-3.7-1-4.5-3.4-1.7-7-3-10.1-5.2a100 100 0 0 1-30.9-36.8l-.3-.5c-6-11-9.9-23.2-12.5-35.5a98 98 0 0 0 25.1 7.8c9.8 1.3 20 .8 29.5-2 2-.7 3.8-2.3 2.9-4.5-.6-2.5-3-1.8-5-1.4a62 62 0 0 1-28.9 1.4A86 86 0 0 1 602 459a107 107 0 0 1-23-31c-9.3-18.5-13.8-37.3-20.3-56.6a245 245 0 0 0-25.4-55.6 75 75 0 0 0-32-29c-6.1-2.9-12.3-3.5-18.9-4.5 2.1-5.3 4.6-10.5 6.4-16q.8-3.4-2.5-4.7c-2 .2-3.8 1.2-5.5 2q-11.2 6-21.9 13c-2.4-5.3-4.7-10.4-8.9-14.7a55 55 0 0 0-32.4-16.4 52 52 0 0 0-30 6q-15.8 8.5-28.2 21.7a156 156 0 0 0-20.8 30.2c-16.6 31.9-25.3 65.8-38.5 98.5a396 396 0 0 1-37.2 74.9 119 119 0 0 1-39.3 38.5 86 86 0 0 1-26 9.2c-2.6.5-5.5.9-7.9 2-2 1-1.3 2.8-.8 4.5l.2.1c3.3 1.4 7.1-.2 10.5-.8q13.4-2.7 25.8-8.8 4.5 11.1 10.7 21.5a270 270 0 0 0 42.3 54.2 40 40 0 0 1-25.8 19.9 62 62 0 0 1-64.4-22.3 39 39 0 0 1-7.9-22.4c-.2-2.8.8-6.2-1.2-8.5-1-1.2-3-1-4.5-1a58 58 0 0 1-37.3-13.2 97 97 0 0 1-31.6-47.3c-5.5-17.9-6.6-37-1.9-55.1q7.4.6 14.8.2a53 53 0 0 0 35.2-18.9 82 82 0 0 0 16.8-36.2c.5-2-.2-3.8-.8-5.8-1.9-1-3.7-1.7-4.8-3.6-3.7-6-5.2-13.6-4.8-20.6.9-12 6.1-24 12-34.5a153 153 0 0 1 31.4-39.5 210 210 0 0 1 37.6-26.3 463 463 0 0 1 40.6-21.4c17.7-8.4 35-15.6 51.4-25.7 22.1-13.1 41.4-31 65.2-40.8 10.7-4.7 21.5-8.6 33.2-9.8"/><path d="M414.3 251.4a50 50 0 0 1 19 5.3 39 39 0 0 1 20.5 22.9c-5.6-.4-10.7-2.3-16.3-2.3-1.3-1-2-2.5-3-3.9a71 71 0 0 0-20.2-22m-10.4.5c10.9 5 19 13.6 25 23.7-6.6.3-13-1-19.6-1.2-6.4-6-13.1-12.4-20.8-16.6a60 60 0 0 1 15.4-6m-21.1 9.6a55 55 0 0 1 17.4 12.4c-6.6.1-13 0-19.6.5-4.9 0-9.7 1-14.6.9q7.7-7.8 16.8-13.8"/></g></g></svg>
