<svg xmlns="http://www.w3.org/2000/svg" viewBox="0 0 762 762"><g transform="translate(-65.6 -47.4)"><path d="M492.6 200.2a209 209 0 0 1 42 4.8 186 186 0 0 1 99.8 58.6A205 205 0 0 1 665 315a176 176 0 0 1 15.1 62.5q1.4 18.6-1.2 37c-.9 5.4-.5 10.3-3.4 15.1-4-.8-7.4-3.1-11.4-4a121 121 0 0 1-60 68.6 63 63 0 0 1-41.6 5.5c-1.8 0-2.6-2.7-1.7-4a96 96 0 0 0 14-42.2 129 129 0 0 0-22.1-79.2c-7.3-10-16-19.3-24.5-28.5q-5.6-6.4-10.7-13.3 4.6 19.5 14.1 37c.6 1.2 1.5 2.5 1.1 4-1 1.6-2.6 2.1-4.3 2.6-4.5 1-9.3 1.4-14 2.2-34.5 3.8-70 8.7-104.9 11-3.8-1.8-7.1-5.8-10-8.8a153 153 0 0 1-27.7-48.3q-2.6-6.6-4-13.6c-.6 8 1 15.2 2.7 22.9q5.6 22.7 16.9 43.1l2.4 5q-1.4 1.3-3.3 1.5c-7.1.9-14 .4-21 .6a74 74 0 0 1-21.1-28c-11.3-24.5-14.1-51.1-11.3-77.7a129 129 0 0 0-14 66.5c1 11.8 3.8 24.8 10.8 34.6 1.4 2.3 4.3 4.2 3.4 7.2-1.1 2.5-4.5 2.9-6.8 3.2q-11.6.7-23 2c-21.1 1.3-41.8 4.7-63 5.5-8.2 1-16.3.5-24.5 1q-2.8 18.1-1.5 36.5 1.5 29 9.1 57c.6 2.4 2.3 4.6 2.7 7-.3 2.8-3.6 3.4-5.3 1.4a107 107 0 0 1-17.4-24.5 133 133 0 0 1-11.8-46c-.8-14 .3-28.6 6-41.7.5-1.5.7-2 0-3.4a103 103 0 0 1-.6-73 151 151 0 0 1 51.3-66.9c36.8-28.2 83-43.4 129-47 17.8-2 36-1.2 54-1.7q12.5-1.1 25-1.8 18-2 36-1.6" fill="black"/><path d="M623.7 482.5q1-.8 3-.4l.6.6a13 13 0 0 1-3 10.4c-2 1.6-4.9-.3-4-2.7 1-2.6 1.8-5.5 3.4-7.9m0 58.2c1.8-.4 4 .6 5.8 1q8.9 2.1 18.1 1.2c2.3-.3 4.8 1 4.8 3.5-.9 3-2.3 5.8-2.8 9a47 47 0 0 0 4.7 29.3 67 67 0 0 0 31.4 30.6c2.6 1.3 6 2 8 4.1 1 2.3-1 4-3 4.2-15.3 2.3-30.6 5.3-46.1 4.9a69 69 0 0 1-35.8-9.5c-4.3 7.4-8.1 15.6-13 22.5q-2 2.9-5.2 2-3.9-1.5-7.4-3.7-13.2-7.4-25.1-16.9c-1.5-1.4-4.1-3.3-4.3-5.6-.2-2.7 3-3.7 4.7-5a228 228 0 0 0 62.9-69.1c.6-1 1-2.4 2.3-2.5m-354.6 38.2q12.3 13.8 26.7 25.3c3.5 2.9 7.5 5 10.9 8 1.7 1.3 1.8 4-.1 5.1a65 65 0 0 1-33 9.7c-9.5.3-19 .5-28.5-.5-3 0-4.2-3.7-1.6-5.3q6.1-3.8 10.4-9.5c5-7.1 8.7-15.8 10.3-24.3.3-2.5.2-5.2.7-7.7.9-1.5 3-2.5 4.2-.8" fill="black"/><path d="M521.6 208.8q13 1.8 25.5 5.8a191 191 0 0 1 54.4 27c13 9.5 25.3 21 34.6 34.3a200 200 0 0 1 19.9 33.3 191 191 0 0 1 18 63.2c.7 11 1.5 22.2-.3 33q-.7 8.3-2 16.4l-5.5-2.4c.6-3.1 2-6.8 1.4-10-1-2.7-4.7-2.2-5.4.4q-4 19.6-14.6 36.6a114 114 0 0 1-43.2 40.8 61 61 0 0 1-36.4 7.4c5-9.7 9.2-19.5 11.5-30.2 1.6-9.6 2.5-19.2 1.4-29a156 156 0 0 0-6.4-30.9c-4-12-10-23.5-17-34-7.3-10.2-16-19.4-24.5-28.6a144 144 0 0 1-18-25c-2.9-5-2.8-11.7-3.1-17.5.5-8.3 1-16.7 2.4-25 .3-1.3-.5-2.6-.9-3.8-1.6 0-3.6-.7-4.5 1-1.1 2.4-1 5.4-1.4 8a114 114 0 0 0 .2 37.6c1.4 8.7 4.1 17.3 6.7 25.7a166 166 0 0 0 11.5 27.5c-7.3 1.4-14.5 2-21.8 3-21.7 2.3-43.7 5.3-65.5 7.3-7.6 1.1-15.4 1.2-23 2.2l-5.5.2-2.4-2.8a145 145 0 0 1-37.3-78.7c-.4-1.8-.2-4-2.3-4.7-2.1-1-3.6 1.1-4.3 2.8a70 70 0 0 0-2 25.7c2.3 21.3 9.5 41.4 19.4 60.3q-5.9.8-11.6.4c-2.3-.2-3.7-2-5.2-3.5a88 88 0 0 1-19-33 141 141 0 0 1-5.3-68.2 79 79 0 0 1 16.5-38c1.6-1.9 4.3-3.6 4.8-6-.2-3-2.8-4.1-5-2.2a65 65 0 0 0-18.5 30.2c-.8 3.7-3.2 5.9-5.2 9a134 134 0 0 0-18.8 54c-.4 7.3-1.5 14.8-.7 22a78 78 0 0 0 11.7 40.2v.6c-8.6 1.2-17.2 1.5-25.8 2.4-5.2.9-10.4.7-15.5 1.4-7 1-14 1.4-20.9 2.4-10.2.5-20.5 2.2-30.7 2q-3.2-9-4.7-18.2c-2.8-21.9.4-44.2 8.7-64.6a110 110 0 0 1 38.4-50.5c2-1.2 1.8-4.7-.7-5.2-2.6-.5-4.1 1.2-6 2.5a111 111 0 0 0-33 41.1 144 144 0 0 0-14.7 60.9q.1 17.7 5.5 34.6-8.7.5-17.4.2c-8-15.4-12-32.5-11.2-49.8.8-8.5 2-16.9 4.7-25a136 136 0 0 1 39.3-58.7q17.1-15.4 37.4-26.5c30-16.4 63.3-25.8 97.3-28.7 9.4-1.8 18.6-1 28-1.3 9.7-.2 19.4 0 29-.7q17-1.1 34-2.5c18.3-2 37-1.4 55 1.8m-320 192.4q1 2 2.4 3.8c1.9 1.3 3.8 1 6 1-2.3 14.3-1.8 29-1 43.4q1.6 19.5 5.7 38.6-1.5 0-2.2-1.5a93 93 0 0 1-10.5-25.3 128 128 0 0 1-4.3-33.8q-.4-13.5 3.9-26.2M626.4 547a84 84 0 0 0 18.6 1.7c-4 13-2 27 4.2 39.1a71 71 0 0 0 21.4 25.5c3 2.4 6.3 3.9 9.1 6.3-10.6 1.8-21.3 3-32.1 2.8a60 60 0 0 1-37.1-9.7c-1.7-1-3.6-.7-4.7 1-5.2 7.5-8.8 16-14.1 23.6-5.5-2-10.4-5.7-15.3-8.7-5-3.4-10.6-6.7-14.7-11.1a223 223 0 0 0 30-25.9 220 220 0 0 0 34.7-44.7m-356.1 41.6a278 278 0 0 0 21.4 20c2.4 2.2 5.1 3.4 7 6-13 7.6-31.4 7.4-46 7.2 2-2.5 4.3-4.5 6.2-7q7-10.4 10.4-22.5l.2-.8z" fill="currentColor"/><use transform="translate(630.5 421.2)" href="#earrings-variant01-0b00a4bf"/></g></svg>
