<svg xmlns="http://www.w3.org/2000/svg" viewBox="0 0 762 762"><g transform="translate(-65.6 -47.4)" mask="url(#hairClipMask)"><path d="M557.6 63.4c3 1 6.2 1.6 7.2 5-.3 3.2-4 3.6-6.3 5-14.1 6.6-25.1 20.6-32.6 33.9 27-6.7 56.8-1.5 78.6 16.2 3.2 2.4 5.7 5.8 9 8 4 1 8 1.5 12 3a59 59 0 0 1 36.8 38.1 61 61 0 0 1-1.5 40.8 63 63 0 0 1-32 34.1q6.3 9.2 11.5 19.2 1.7 3.6 4.5 6.5 7.4 7.9 13.2 16.8a236 236 0 0 1 24 48 232 232 0 0 1 13.6 53.4c.8 9.7 1.3 20-.5 29.5-1 5.1-3 11.3-7 14.9-2.4 1.4-4.2-.7-6.1-1.8a50 50 0 0 0-32-9.5c.3 21.5-3.7 44.9-14.6 63.7a62 62 0 0 1-37.8 30.6c-2.6.3-3.8.7-3.9-2.4.9-5.5 3.1-10.8 4.4-16.2 5-17.8 6-37.5 6.8-55.8.1-14.9.4-30-1.1-44.8q-.8-14.3-3-28.3c-2.3 14.5-6 28.6-12.5 41.8-1.3 2.2-2.4 4.8-5.5 4-2-.5-1.8-2.2-2.2-3.9a114 114 0 0 0-8.8-44.3c-1.9 4.1-3 8.6-5 12.6-1 1.7-1.9 3.6-4.1 3.7-6-1.2-11.5-3.8-17.4-5.4-2-.7-5-1.1-5.7-3.5-.6-3.5 0-7.3 0-10.9q.2-6.7-1.3-13.2a88 88 0 0 1-7.7 17.2c-1.3 2.2-3 4.6-5.2 5.8-3.1.2-6.3-1-9.3-1.5-10.7-2.1-21.3-4-31.8-7q-11.3-3.1-22.7-6c-1.6-.6-4.2-1-3.9-3.2 1-6.7 2-13.3 1.8-20.1-.2-10 .4-20.1-.6-30-.4-6.1-1.6-12.2-1.9-18.3l-1 17.3a97 97 0 0 1-10.7 40.7c-1 1.8-2.4 4.5-4.7 5-2.2.8-4.6-.2-6.8-.9-25.3-9.2-51-17.9-77-25.2-2.7-.8-5.2-1.5-6.7-4.1a79 79 0 0 1-9.7-45.7 86 86 0 0 0-8.3 41.2c0 2.6 1 6.2-2.7 6.6-18-.5-36 2.5-53 8.1-11 3.6-21.7 8.2-31.2 14.8-4.1-2.7-4.8-8.1-6.7-12.5-3.7 7.8-6.7 15.8-10.2 23.7-2.8 6-3.8 12.3-6 18.8-1.2 3.8-1.6 7.7-2.8 11.4-.3 2.2-3.4 2.3-4.8 1-3.2-3.3-4-8.4-4.3-12.9-1.3-17.3.4-34.5 7.6-50.4-1.9 2-3.8 6.7-7.2 4.4a41 41 0 0 1-16.5-32c-1-17.4 6.8-34.5 17-48.4a154 154 0 0 1 77.6-54 195 195 0 0 0-35.3 3.6 135 135 0 0 0-32.2 9.5c-3 1.4-6.4 4.5-9.8 4.5-1.6-1-2.7-2-1.9-4a79 79 0 0 1 9.8-17.3 107 107 0 0 1 102.6-41.2c15.2 2.6 29.5 9 41.2 19.1 14.3-5.3 30.4-8.6 45.6-7a56 56 0 0 1 .3-56.2c8-15 21.8-26.6 37.9-32 1.9-.5 4.2-1.5 5.9 0 1.7 1.2.8 4-.4 5.4a65 65 0 0 0-13.2 48.7q6-4 13-6.3a116 116 0 0 1 61-55.6 72 72 0 0 1 44.2-3.8m66.9 477.4c2.4.2 4.8 1 7 1.5 4.8 1.1 10 1.2 14.8 1.7.8 3.4.7 4.9-1.2 7.8-4 6-7.3 12.2-11 18.3 11 .1 21.5 1.4 31.4 6.4a29 29 0 0 1 15 16c2.4 7.5 1 15.4-2.5 22.3a69 69 0 0 1-19.1 21.9c-2.7 2-5.4 4.3-8.5 5.6-1.5.7-3.4-.5-4.3-1.7-.2-2.7 2.2-5 3.5-7.2a24 24 0 0 0 2.6-18.8 39 39 0 0 0-15.7-21q-9.9-7-21.9-9.3c-5.7-1.3-12 2-18 1.2-1.7-1-2.9-1.9-2.5-4.1 1.8-2.9 4.6-5 6.8-7.7q5.3-6.3 10-13c3.4-5.3 7.3-10.1 10.3-15.7.9-1.4 1.8-3.4 3.3-4.2" fill="black"/><g fill="currentColor"><path d="M554.6 68.5A80 80 0 0 0 531.2 89a108 108 0 0 0-22.9 54.4c-1 10 .1 19.3 4.2 28.5q-3.1-.9-6.2-2.2a100 100 0 0 0-43.8-7c-4-2-7.9-4.1-11.2-7.3a73 73 0 0 1 1.6-16.8 83 83 0 0 1 14.5-29.4 113 113 0 0 1 42-34 71 71 0 0 1 45.2-6.7"/><path d="M443.5 82.6c-2.2 4.5-4.6 8.7-6.2 13.5a68 68 0 0 0 1.5 51.1 44 44 0 0 0 13.7 16.7q-11.7 2-22.9 5.6c-4-2.7-8.5-3.4-12.7-5.3a41 41 0 0 1-8.8-19.8c-.8-7.7-.8-15.8 1.5-23.2a62 62 0 0 1 33.9-38.6m137.3 33.6a72 72 0 0 1 31.9 24.2 58 58 0 0 1 1.3 67.4c-1.3 1.6-2 5 .8 5.4 1.7.6 2.8-.7 3.7-2a64 64 0 0 0 0-72.8 54 54 0 0 1 40.8 49 56 56 0 0 1-9.7 35 61 61 0 0 1-24.2 20.5q-9.6-12.6-22-22.4a62 62 0 0 0-37.7-14.5 64 64 0 0 0-16.4-13.5c-2.7-7.7-7-14.5-14.5-18.3-4.8-2.6-9.8-3-15.1-3.7q-1.2 0-1.8-1.3a40 40 0 0 1-4.2-19.8c.2-12 3.8-24.2 8.7-35 19-6 39.8-5.6 58.4 1.8"/><path d="M449.6 129.5q-3.1 9.1-3.9 18.7-3.4-6.4-5.3-13.5 4.4-2.8 9.2-5.2m-143 26c18-.2 36.4 5.9 50.6 17.2a156 156 0 0 0-74.3 67c-2.7 5.3-5.6 11-6.7 16.8 1 3.1 4.4 3.1 5.6.1 5.5-15.2 14.2-29 25.1-40.9 18.3-20 42.3-35.8 68.5-43.4 15.3-4.3 32-5.7 47.1 0a137 137 0 0 0-77 79c-1.6 4-1.9 9.2-4.6 12.4-3.2 4-5.2 9.2-7.2 14a87 87 0 0 0-6.9 40.6c-5 0-10.1-.1-15.2.5a165 165 0 0 0-65.2 20.3q-5-12.5-7.6-25.7a96 96 0 0 1 1.6-49.3c1.2-4.1 4-6.8 2.7-11.3q-1.8 0-3.7.3c-2.7 3-3.9 7.4-5.1 11a114 114 0 0 0 2 63.4c-5.3 9.1-8.7 18.9-13.2 28.4-3.3 7.1-4.5 14.5-7 21.8-1.4-19 .6-38 9.7-55 1-2 2.5-4.2 2.4-6.3-.1-2.2-2.7-3.3-4.5-2a52 52 0 0 0-11.4 10 39 39 0 0 1-12-34.7c2.5-18.5 13.7-36 26.4-49.2a149 149 0 0 1 71.2-40.8c2.8-.8 6-1 8.6-2.5 1.3-.8 1.1-2.1.9-3.5-.8-1.2-2.7-1.7-4-2.1-11-2.2-21.7-1.3-32.8-.4a187 187 0 0 0-51.7 12.5 100 100 0 0 1 87.7-48.2"/><path d="M503.8 174.8c-3.3 2.6-6.8 5-9.2 8.6-1 1.6-2 3-.7 4.7.9 1.7 3.2 1.3 4.2-.1 4.5-5.2 9.5-10 16.5-11.2 8.3-1 17.2 0 23.2 6.4 4 3.9 5.5 8.7 7.4 13.7a65 65 0 0 1 26.9 29 203 203 0 0 1 17.3 48q8.3 32.2 8 65.5c-.1 21.8-3.2 44.5-11.3 64.9-2-15.3-4.1-29.6-12.5-43a137 137 0 0 0 .1-58.4c-.6-3.2-.9-7.1-2.6-10q-2-.4-4.2-.3-.5 3.7.4 7.3 3.3 16.6 4 33.5c0 15.8-3.2 31.5-9.3 46l-17.6-5.5c1-10.3.8-22.1-3.2-31.9 4.7-21.8 5.9-44.4 4.4-66.6a165 165 0 0 0-9.7-48.2c-1-2.7-5.6-2-5.3 1 1.4 5.9 3.9 11.3 5 17.2 5.1 23.8 6 48.8 3.6 73-2.1 17.6-5 35.8-14.8 51-11.4-2.2-23-4.2-34.3-6.8l-26.3-6.9c1.8-10.2 1.5-20.2 1.5-30.5q0-28.7-7-56.6c-.7-2.4-1.2-6.1-3.6-7.5q-3.9-.7-3.9 3.3.5 20.4-.4 41c-.5 14.5-4 28.8-11 41.6-15.6-5.5-31.5-11.3-47.3-16.2q-18-5.6-36.3-10.6a75 75 0 0 1-8.7-51.8 114 114 0 0 1 29-56.6 134 134 0 0 1 71-41 98 98 0 0 1 56.7 4"/><path d="M570.5 211.9q8.3 1.1 16 4.8c15.2 7.3 27.4 20 37.1 33.7a191 191 0 0 1 32 84.5c.6 4.7.8 9.2 1.5 13.8l2.5 1q1.4-.5 2.6-1.2c.3-7.7-1-15.5-2.2-23-1.9-12.3-5.6-24-9.2-35.7a217 217 0 0 1 23.7 44.6 225 225 0 0 1 16 64c.6 10.7.3 22-4.7 31.6a60 60 0 0 0-35.9-11.4q-1-21.2-6.6-41.7c-1.5-5.4-2.9-11.2-5.5-16.1q-1.8.3-3.6 1c-1.3 1.8-.4 3.2 0 5a189 189 0 0 1 9.6 46.1q1.4 13.3 0 26.5a110 110 0 0 1-14.1 47.2 58 58 0 0 1-29 25.3c2.6-8.7 5.2-17.2 6.5-26.3q2.4-15.5 2.9-31.2a371 371 0 0 0-5.5-91.1c-.7-3.2-2-6-2-9.1l.7-11.8c.3-10.6-.6-21.4-1.5-32-2-19.7-6.5-39-12.4-58-4.4-14.2-10.7-28-19-40.5m56 334.8q7 1.6 14.3 2.1c-5.3 7.7-9.5 16-15 23.7 2.5 2.2 4.5 3.3 8 3.3 9 0 17.7 1 26.1 4.4 4.6 1.9 9.2 4.8 12.3 8.7a19 19 0 0 1 3.2 16.5 52 52 0 0 1-17.7 25c1.4-5.7 1.8-11.5.2-17.3a44 44 0 0 0-19.7-25.3 46 46 0 0 0-34.4-8.5 170 170 0 0 0 12.3-16.5c3.5-5.3 7.3-10.4 10.4-16.1"/></g><use transform="translate(630.5 421.2)" href="#earrings-variant01-0b00a4bf"/></g></svg>
