<svg xmlns="http://www.w3.org/2000/svg" viewBox="0 0 762 762"><g transform="translate(-65.6 -47.4)" mask="url(#hairClipMask)"><path d="M418.6 177.3c19.8-.3 40.2.3 59.8 3.5a199 199 0 0 1 48.1 13.6c15.3 7 28.7 18 38.7 31.4a24 24 0 0 1 4.4 12.2 137 137 0 0 1 54.7 18.7 127 127 0 0 1 52.4 60.7 126 126 0 0 1 9 43c0 22-5.7 44.1-17 63.2a4 4 0 0 1-4 2c-3.7-.1-7.3-.8-11-1.2a71 71 0 0 1-20.2 36 115 115 0 0 1-46.7 28c-2.1.6-5.3 1.7-6.6-.7-2-3 .3-8 .7-11.3a173 173 0 0 0-41.4-145 125 125 0 0 0-68-40c-1.6-.5-3.8-.7-3.9-3q-.5-8.9-7.6-14.3c-7-5.2-15.9-7.6-24.4-5.6a103 103 0 0 0-45.9 25 170 170 0 0 0-37.7 52.3c-11.3 22.4-20.8 46-31.1 68.8a321 321 0 0 1-33.3 58.8c-11 15-23.8 29-38.5 40.5a171 171 0 0 1-43 24.2 110 110 0 0 1-30.5 7.3c-2.5.1-4.6-2.5-6.2-4.1 2.3-5 6.8-5.2 10.7-8.5a38 38 0 0 0 12-20.6 164 164 0 0 0 3.3-28.8c.3-13-2.6-24.6-4.7-37.2-2.6-14.5-5-29-6.3-43.8-1.8-16.1-.4-33 2.5-49 4.3-24 13.6-46 25.5-67.2a174 174 0 0 1 35.4-42.5c32-28.3 70.6-48.8 112-59 19.4-4.8 38.8-6.4 58.8-7.4m205.1 363.1c2.8-.5 6 1.7 8.8 2 3 .6 6.1.3 9 1.1 1.5 1 1.1 3.2 1.3 4.9-.1 5.8-.3 11.3 1 17 .5 2.9 1.7 6 1.5 8.8-.1 2.3-3 2.7-4.7 2.3-8-1.2-16-5.3-23.2-8.9-2.7-1.4-7-4.7-6-8.2 2.1-4 5.9-7 7.9-11.3 1.4-2.4 2.2-5.9 4.4-7.7" fill="black"/><path d="M450.5 183.7c10.4.9 20.8 1.7 31 3.7 15 3 30.9 6.7 44.6 13.5a99 99 0 0 1 33.8 27.2c2 2.8 4.1 5.7 3.8 9.3.1 2.1-.8 4.3 1.2 5.7 2 .8 4.4.8 6.5 1.1a132 132 0 0 1 55.8 21.5 120 120 0 0 1 46.7 61.4c10.1 30.6 6.3 65-10 92.9q-4.6-.7-9.3-1c-.6-1.3-1-4-3-3.9-2.1-.3-3.2 1.6-3.3 3.5a55 55 0 0 1-13 30.6 106 106 0 0 1-49.4 33.2c5.7-26.3 4.9-53.7-1.9-79.8a173 173 0 0 0-55-89.6 128 128 0 0 0-55.8-27.6q-2.9-12.5-14-18.7a39 39 0 0 0-31.1-2.6 114 114 0 0 0-42.6 25.2 149 149 0 0 0-28.7 35.3c-11.3 18.8-20.4 39.7-29.3 59.8-11.4 26.4-22 51.7-38 75.8-16.7 25-38.6 48.5-65.3 62.8a136 136 0 0 1-41.2 15.4 49 49 0 0 0 16.5-33c2-14 2.8-29.1.2-43.2q-3.4-18.3-6.4-36.8c-1.8-13.2-3.8-25.7-3.6-39q.1-16.7 3.4-33.2c4.2-22.5 13-43.3 24-63.2a173 173 0 0 1 40.4-46.7 253 253 0 0 1 143.1-58.8c16.4-1.7 33.4-1.4 49.9-.8m176 363.2c3.5.6 7 1.6 10.6 1.8-.6 7.3.4 14.3 1.6 21.5a98 98 0 0 1-21.4-9.7 72 72 0 0 0 9.2-13.6" fill="currentColor"/><use transform="translate(630.5 421.2)" href="#earrings-variant01-0b00a4bf"/></g></svg>
