<svg xmlns="http://www.w3.org/2000/svg" viewBox="0 0 762 762"><g transform="translate(-65.6 -47.4)"><path d="M659.5 150.5a95 95 0 0 1 29 52c5.3 43 5.3 86 11.8 128.9 4.5 31.8 10.7 66.1 25.5 94.9 10.3 20.5 21.8 40.5 31.8 61.1a145 145 0 0 1 14.8 57 214 214 0 0 1-.6 34.9 129 129 0 0 1-17.5 51.8c-7.5 12.3-19 21.4-30.6 29.5-1.3.8-2.5 2.9-4.1 2.6-2 0-3-2-2.5-3.8a95 95 0 0 0 6.5-69.1c-.3-1-.4-2.1-1.4-2.7-4.6 25.3-15 49.9-31.4 69.9-13.2 16-30 28.9-50.2 34.6a74 74 0 0 1-47-1.7c-1.6-1.7-4.5-3.3-3.3-6a68 68 0 0 0 16.8-32c-1.8.6-3.3 1.7-5 2.4a68 68 0 0 1-29.5 5.9c-9 0-19.3-2-26.3-8-1.8-1.6-4-3.2-3.3-5.9a69 69 0 0 0 12.8-32.3q1.3-1.2 2.8-2.1c26-18.2 47.3-42.2 63.4-69.5 1.1-2.3 3.5-2.8 5.7-2a55 55 0 0 0 41.3-4 65 65 0 0 0 34.4-65.5 55 55 0 0 0-19.8-36 50 50 0 0 0-55-6 123 123 0 0 1-4.6 32.1 123 123 0 0 1-35 58.3c-1.3 1-2.7 2.6-4.4 3.1-1.3.1-3.5-.9-3.5-2.5-.3-1.9 1.7-3.3 2.7-4.8a77 77 0 0 0 10-21.2c4.3-14 6-29.3 6.1-44-.3-26-5-52.4-16-76.1-.6-1.8-1.8-3.9-1-5.8q3-7.6 3.2-15.6-6.6 4-13.4 7.6c-2.2 1.2-5.4 2.1-7.3 0-1.1-3.4-1-7.5-.7-11q.6-9.1 0-18.2c-6.9 3.7-13.3 7.5-20.6 10.4-2.5 1-5.3 0-7.7-.9a84 84 0 0 1-29.2-23c-4.7-5.3-9-10.6-11.8-17.3q-3.7-9-3.7-18.6c-13.7 7.3-31 6.1-46.1 6.2-16 .3-32.2-.8-48 1.1-1.8.2-4.8-.8-4.9-2.9-.5-2.8 1.8-4.6 3.5-6.5-13.2 3.6-26.1 8.7-39 13-3.6.9-7 2.6-10.4.4-3.5-2.5-2.6-6.2-2.3-10-3 0-6 1.4-8.8 2.3a722 722 0 0 1-41 14.3c-9.5 2.9-19 5-29.1 4.8q-7.4-.2-14 3a62 62 0 0 1-44.1-15 41 41 0 0 1-13-24.2 46 46 0 0 1 2-20 70 70 0 0 1 34.4-37.7c1.6-.8 3.9-2.4 5.7-1.3 1.7 1 2 3.3 1 5a50 50 0 0 0-5.8 57.8c4.4 7.3 10.9 14.2 19.5 16a89 89 0 0 1 20.5-40.6 206 206 0 0 1 49.4-41.6 297 297 0 0 1 114.9-41.3 176 176 0 0 1 66.5 2.7c17-22.2 42.4-37.3 70-41.7 30.7-5.4 63.9 3.6 86.9 24.8" fill="black"/><g fill="currentColor"><path d="M585.6 130.3a95 95 0 0 1 75.2 29.9 89 89 0 0 1 21.6 42.3c.6 7 2 13.8 2.3 20.8 1.2 9.7 1.3 19.4 2.4 29.1q1.8 34 5.7 68c4 29 8 57.1 17.7 85 5.7 16.7 14 31.4 22.2 46.9 7.8 14.9 16.1 29.7 22.9 45.1 11.9 27.4 13.5 58.6 9.4 87.9a113 113 0 0 1-22.5 52c-4.5 5-9.7 9.9-15.2 13.7 4.4-12.3 6.3-25.6 5.7-38.6-.3-12.7-3.2-26-9.2-37.2-1.2-2.3-5.1-2-5.7.6a151 151 0 0 1-36.2 83 90 90 0 0 1-52.4 29.7 66 66 0 0 1-32.2-3c8.3-10.9 15.8-25.2 15.7-39.1.2-2.8-3.4-3.3-5.1-1.8a54 54 0 0 1-19.3 8.6 53 53 0 0 1-34.5-2.3c-1.2-.8-3.7-1.9-4.2-3.2a85 85 0 0 0 11.5-29.8c1.5-2 4.1-3 6-4.7a226 226 0 0 0 59-66.2c4.7.4 9.3 1.8 14.2 1.9a66 66 0 0 0 55-27.5 73 73 0 0 0 14.1-39 63 63 0 0 0-20.9-50 55 55 0 0 0 6.6-19 160 160 0 0 0-4.4-60 215 215 0 0 0-21-53.1 177 177 0 0 0-15.8-43.5 138 138 0 0 0-55.4-56.6q-1.8-1-3.8-1.1a59 59 0 0 0-44.4-24.4c-5-.8-9.9 0-14.9 0-3.3-2.4-7-3.1-11-3.4-6.1-.5-11 1.8-16.6-1.5a105 105 0 0 1 77.5-39.5"/><path d="M498.6 172.4c1 .4 2.3.3 2.9 1.4q-3.6 1-7 2.3a320 320 0 0 0-75.1 33.9q-12.4 7.5-23.5 16.7c-1.5 1.3-1.6 3.4-.5 5q2.2 1.3 4.1-.4a254 254 0 0 1 46.6-29.4 269 269 0 0 1 61.6-23c6.4-1 13.6-2.5 20-1.3 2.2.4 4.2 1.7 6.4 2.4 3 1.2 6.2.2 9.5.3q6.6-.1 13 1.1a53 53 0 0 1 32 19 92 92 0 0 1 17.3 44.1q1.7 11.5 1.6 22.9c0 2.2 0 5.7 3 5.5 2.2 0 3-1.6 3-3.5 0-21.1-3-41.8-12.4-61a127 127 0 0 1 36.4 33 156 156 0 0 1 27.8 66 255 255 0 0 1 1 78c-.5 3.3-1.3 6.8-1.1 10.1 1.3 3 5.2 2.3 5.5-1q2.5-13.3 3.2-27.1c1.6-16.3.9-32.1-.8-48.3.3 2 1.4 3.6 2.2 5.4a202 202 0 0 1 15.4 67.9c.3 11.7-.6 25.3-6.3 35.8a57 57 0 0 0-56-5.3c-.6-1.6-.5-4.2-2.8-4.4-1.7-.3-3.4 1-3.3 2.9.3 6.6.5 13.4-.2 20a131 131 0 0 1-22.6 58l-1 .5q.4-2.9 1.4-5.5c5-16.7 6.3-34.2 5.8-51.5-1.2-25-6.5-50.6-17.4-73.2 2.4-6 3-12 3.8-18.3.1-2 .5-4.1 0-6.1-1.2-2.4-4.1-1.8-5.7-.1q-5 4.3-10.9 7c-1.6.8-3.2 2.2-5 2.2 0-3.6.4-7.3.2-11 0-5.8.5-12.3-1-18-2.5-2.2-5-1-7.2.9q-9.3 5.3-19 9.6c-1.8.8-3.4.2-5-.4a78 78 0 0 1-24.8-19.2 65 65 0 0 1-13.4-19.4 40 40 0 0 1 2-33c1-1.6.5-4.1-1.7-4.4-2.7-.6-4 3-5 4.9-2 4.5-4 10.9-8.4 13.6-9.6 4-19.4 4.3-29.6 4.2h-48l-7.8.8c2-3 5.3-5 3.1-8.9-3.2-2-6.4-.7-9.8-.1-13.2 3.5-26 8.6-39 13-2 .6-4 1.4-6 1 .1-2.8 1.3-6.7-1-9-2-2.3-4.7-2-7.5-1.5-7 1.8-13.2 4.6-20 7-12.9 4.5-25.9 9.3-39.2 12.5-7.5 1.7-15.1 1.9-22.8 2-3.7 0-6.3 2.6-10 2.4a54 54 0 0 1-26-5 39 39 0 0 1-21.5-22.2 37 37 0 0 1 1.1-27 62 62 0 0 1 22-26.3c-1.6 4-3.3 7.8-4.3 12-4.5 19 .4 40.7 15.1 54.1 5.2 3.6 10 7 16.6 7.1q3.5-.1 4.2-3.5c3.4-20.6 18-39.2 32.8-53.2a266 266 0 0 1 93-53.9q19.6-6.6 40-10.7c24.7-4.5 51.4-6.2 76-.4"/></g><use transform="translate(630.5 421.2)" href="#earrings-variant01-0b00a4bf"/></g></svg>
