<svg xmlns="http://www.w3.org/2000/svg" viewBox="0 0 762 762"><g transform="translate(-65.6 -47.4)"><path fill-rule="evenodd" clip-rule="evenodd" d="M474.7 174.4c3.8.7 7.5 2.5 11.2 4.2l3.2 1.4a559 559 0 0 0 46.4 19.4 863 863 0 0 1 61.7 25.4c8.5 3.8 17.4 7.7 25 12.9q7 5.1 11.4 12.7A476 476 0 0 1 656 291c15 29.2 28.5 59.2 41.6 89.3a778 778 0 0 1 31.4 81.8 424 424 0 0 1 16.1 74.3q4.4 34.5 6 69.3.7 25.4 1 50.8c-.4 2.4-1.3 2.6-3.5 2.3q-2.5-2.6-4.3-6L743 651q-5.7-9.2-12.3-17.6l-6.7-8.8q-4.1-5.7-8.6-11.2c-13.3 14.5-30 22.5-48.1 29.5q-4.5 12.9-10.2 25.2c-3.1 6.8-6.5 14-11.2 19.8-1.3 1.8-3.7 2-4.6-.2q.2-3.6 1.7-7l.1-.6q5.8-15.7 8.3-32.4-9.4 2.5-18.7 4.3a297 297 0 0 1-31.9 72.8c-7.9 12-17.9 24.6-31.1 30.9q-.5 0-.8.3c-2 .9-4.5 2-6.3.5-1.7-1.6-.6-3.8.4-5.4a153 153 0 0 0 17-48.1 387 387 0 0 0 6.5-46.4c-25.3.1-50.2-2.4-74.5-9.7a31 31 0 0 1-6.8-3.1l.8-3.7a219 219 0 0 0 82.6-52.6l-.3-10.7q.1-6.6-.5-13.3-1.1-27.2-3.7-54.3a264 264 0 0 1-57.7-35.6q-15.1-11.8-29.3-24.7a637 637 0 0 1-93-108c-17-25.4-33-52.9-43.5-81.6a373 373 0 0 0-124.2 85.1q-3 2.7-4.6 6.3a220 220 0 0 0-16.5 93.8 218.5 218.5 0 0 0 148.4 196.7c3.2.6 5.9 4.6 4.2 7.6q-2.2 1.4-4.8 2.4c-13.8 5-27 11.3-40 18l-5.3 2.5a531 531 0 0 1-54.2 24c-11.7 4-23.6 4.2-35.6 4.5q-6.2.1-12.5.5H209q-5.8 0-11.4.3l-1.1.1-1 .1q-3.6.4-7 .4c-2.2-.2-4.5-1.6-4.6-4.1q-1.7-14-2.5-28-1.3-21.4-.8-43V616c-20.7 25-32.7 54.8-40.5 86.1-.3 1.5-1.1 2-2.5 2.7-2.2-.6-3-1.4-3.3-3.7a296 296 0 0 1 0-65.6q3.8-39 14.7-76.8a360 360 0 0 1 31.5-77.5q1.6-2.2 2.6-4.8a330 330 0 0 1 16.2-80.3l4.7-14.3a372 372 0 0 0-36.8 58.3A277 277 0 0 0 145 498c-.4 1.4-1 3-2.6 3-1.7.3-3.2-1-3.3-2.7l-.3-4q-.8-7.5-1.2-15a243 243 0 0 1 36.8-134 184 184 0 0 1 59-60c2-1.1 2.7-2.9 3.3-4.8l.8-2.2.3-.7a66 66 0 0 1 8.4-16.6c3.7-4.5 8.1-8.8 13-12q11-6.6 22.8-12l4.8-2.4 13.8-6.6 14.6-7 22.2-10.7q16.2-8 32.6-15.5c9.3-4.3 18.4-8.1 28.5-10 8-1.2 16.3-.8 24.3.2q3.9.4 7.4-1a265 265 0 0 1 32.6-8.5c3.8-1 7.4-2 11.8-1.2m2.7 129.2 4.8 3.6a1318 1318 0 0 1 48.7 37.7c6.3 5 12.5 10 18.4 15.8q5 5 9.4 10l4 4.6c1.7 1.5 2.1 3.5 2.5 5.6q10.3 50.6 16.2 101.8a495 495 0 0 1-55.6-59.5 584 584 0 0 1-47.6-69.4A441 441 0 0 1 443 280l3.3 2.1c10.5 7 21 13.8 31.1 21.4m227.1 175.8a58 58 0 0 0-14.7-39q1 6.9 1.2 13.8l.2 4.2q2.3 29.8.6 59.6a66 66 0 0 0 12.7-38.6" fill="black"/><g fill="currentColor"><path d="M469.6 180a18 18 0 0 1 9.9 1.6c10.6 4.9 21.4 10.3 32.2 14.8 11.2 4.7 22.6 8.7 33.9 13q23.1 9 45.9 19.2c9 4 17.7 7.6 26 12.9a43 43 0 0 1 13.4 14.6c9.5 15.9 17.1 32.1 25.5 48.5 15 30 28.4 60.5 41.8 91.3a759 759 0 0 1 26.9 73c5.7 20 10.6 40.4 13.3 61q2.5 18.8 4.3 37.5c1.3 16 2.8 31.8 2.8 47.8q1 15 .8 30.1c-6-9.6-13.1-17.6-19.9-26.7l-9.6-12.6c-3.2-.8-4.8 2.9-6.9 4.7a109 109 0 0 1-40 24.9 413 413 0 0 0 21.2-107.8q9.2-10 14.2-22.6a69 69 0 0 0 2-45.3 59 59 0 0 0-15.7-25.5c-1.2-1.3-2.5-2-2.6-4-1.1-9.1-1.5-18.5-3-27.5-.7-2.8-2.8-2-5-2.2q-.5 2.2-.4 4.5a940 940 0 0 1 5.8 71.2c.3 19 .4 38-1.4 57a408 408 0 0 1-29.4 124c2.2-13.7 4.4-27.2 5.6-41q2.9-30 .5-60c-1.6-15.1-2.6-30.5-5.6-45.5l-2.5-.6-2.3 1q-.4 2.5-.6 5.2a597 597 0 0 1-21.1 125.9c-2.1 6-3.5 12.2-5.7 18.2a261 261 0 0 1-30.4 64.8 83 83 0 0 1-21.9 22.6c10.6-21.7 15.4-46.9 18.6-70.6 1.7-13 2.5-26 3.5-39l1-38c-.7-17.6-.3-35.5-1.9-53-.4-12-1.6-24-2.4-36a69 69 0 0 0 26.3 4.3c2.8-.2 3.8-4.2 1.1-5.5q-15.8-9.8-29.9-22-6.5-57-18-113.3c-2.6-3.8-6.2-7-9.2-10.6-9.5-10.9-20.5-19.3-31.6-28.3-15.2-12.4-30.8-24-46.5-35.7a590 590 0 0 0-39.5-26.4c-2.3-1.5-4.2-2-7-2.2-.5 1.9-1 3.3-.2 5.3a403 403 0 0 0 25.9 59.2q25 47 58.1 88.8c17.9 22.5 37 43.6 58.5 62.6 8.8 7.4 17.6 14.9 27 21.6q-5.6-.8-11-2.6a161 161 0 0 1-28.1-12.9A405 405 0 0 1 490 434a628 628 0 0 1-83.6-100.4c-13-19.6-25-40.1-34.4-61.6a172 172 0 0 1-13.7-46 270 270 0 0 1 55.9-30 312 312 0 0 1 55.4-16"/><path d="M413.9 189.9a283 283 0 0 0-55.4 29.3c-2.4 2-5.6 3.8-5.7 7.2.6 9.2 3.4 18.6 6 27.3a363 363 0 0 0-98.3 60.5c-31.4 26.7-59 58-81.2 92.8a318 318 0 0 0-35.6 74.8c0-9.1-.3-18.3.4-27.4a239 239 0 0 1 37.7-109.8c17.8-26.9 42.4-51.3 72.7-63.4 2.4-1.3 2.4-5.4-.6-6.2-3.9 1.5-7.5 3.6-11.3 5.2 2.3-5.3 4.4-11.3 8-15.8a50 50 0 0 1 11.7-10.3c8-5 17-9.3 25.6-13.4 10.7-5.3 21.6-10.2 32.3-15.6 19.7-9.2 39.2-19.3 59.2-28a71 71 0 0 1 34.5-7.2"/><path d="M222.1 359.8a224.3 224.3 0 0 0 138 286.2 447 447 0 0 0-41.3 18.7C300 674 282 683 262.1 690c-14 4.9-27.1 3.7-41.5 4.9-10.4.4-20.7 0-31 1.4a342 342 0 0 1-3-42.9 1996 1996 0 0 1-.4-51.9c-.2-2 .2-5-1.4-6.5-2.3-.3-3.2.5-3.8 2.6-.3 3.6 0 7.2-.3 10.9-3.4 2.4-5.5 5.7-8 9Q162 630.7 154.2 646a195 195 0 0 0-15.3 39.2c-1.7-14-.5-27.6.3-41.8a439 439 0 0 1 22-105 322 322 0 0 1 20.7-48.2c0 5.4-.6 10.8-.6 16.2 0 7-1 14-.9 21.1.1 1.7.4 3.3 2.3 3.7s3-1 3.3-2.7c.7-5.3.5-10.8.8-16.1q.6-17 1.7-34a339 339 0 0 1 15.9-80.2c2.7-8.6 5-17.2 8.3-25.6 1.4-5 6-8.7 9.3-12.8M655 548c1.4 10.4 1.6 21 2.1 31.4.3 20.6-1.8 41.5-4.7 62q-8.7 2.5-17.7 4.3a586 586 0 0 0 18-89.3c.5-3.1 0-6 2.3-8.4m-66.2 47.4c.2 11-.3 22-.4 33q-.7 11-1.2 22.3c-23.7.4-47.6-2.2-70.4-8.5a228 228 0 0 0 69.8-44.7z"/></g></g></svg>
