<svg xmlns="http://www.w3.org/2000/svg" viewBox="0 0 762 762"><g transform="translate(-65.6 -47.4)"><path d="M463.6 193.4c42.7 5.5 86.5 17 124.8 37.2 25.9 13.7 50.8 32.2 67.1 56.9 4 5.7 5.8 12 8.5 18.4 4.8 12 7.7 24 11 36.5 8 31 18 61.6 29 91.6q19 52.5 43.5 102.5 2.1 4.3 4.6 8.5 1.3 1.9 0 3.8a64 64 0 0 1-16 13.2 226 226 0 0 1-39.7 19 423 423 0 0 1-112.8 25.7c-3.9.3-7 1.3-10.6-1 .4-2.5.4-4.6 2.5-6.4q8.4-7.5 16.2-15.7a403 403 0 0 1-64.6 27.3c-2.9.8-6.5 2.3-9.5 1.6-1.9-.9-2.1-2.8-1.4-4.6 8.7-19.2 12.3-41.7 15.1-62.5a579 579 0 0 0 4.3-70c.1-18.2 0-36.5-1.8-54.6-37.5-3.9-74.6-15-108.7-30.9a279 279 0 0 1-68-43.9 157 157 0 0 1-23.5-26c-1.2 9.4-1 18.9-.9 28.4q-.1 5.4 1.3 10.6c.3 1.7 1.2 3.3 0 4.8-1.1 1.7-3.7 1.1-5.4.6a57 57 0 0 1-30.4-25.6 74 74 0 0 1-10.1-40.4 182 182 0 0 0-32.3 32.1 269 269 0 0 0-32.7 48.4 37 37 0 0 0-3.4 8.5A218 218 0 0 0 312.1 616q1.9 1.1 3.5 2.6c.7 1.7 1 3-.4 4.5-2.4 1.4-5.3 2-8 3-22 6.9-44 13.4-65.7 21.3-21.9 8-43.2 17.6-65.1 25.5q-2-1.4-3.4-3.4c3.6-7.7 9.3-14 12.5-22.1 9.8-24.3 10-51.2 9.3-77 0-14.7-1.2-29.3-1.9-44q-2.2-32.5-3.3-65c-.6-27.3-2.1-55.7 0-83 1.3-22 5.3-44.2 13-65a61 61 0 0 1 13.3-21.7c5-5 9.9-10.2 15.2-14.7s11-8.4 16.4-12.7c15.9-12.5 31-25.7 47-38a226 226 0 0 1 51-31 60 60 0 0 1 21.1-4.6 496 496 0 0 1 97 2.7" fill="black"/><path d="M416.6 195.6c48 1.5 97.4 9.8 142.2 27.7a248 248 0 0 1 57.4 31.5 148 148 0 0 1 35.2 36.8q4.3 6.8 6.6 14.3c2.5 7.9 6 15.3 7.7 23.5 8.5 35 19.4 69.3 31.6 103.2 13.4 36.5 28.2 72.8 45.6 107.6q1.5 3.3 3.6 6.4a96 96 0 0 1-21.5 15.2 332 332 0 0 1-68.7 26.1 381 381 0 0 1-74.2 13.2q12-10.6 22.2-23 2-2.6 4.8-4.2 9.4-5.5 18.1-11.8 2-1.6 3.1-3.7c-1.2-1.3-1.8-2.5-3.7-2.5-3 1.3-5.5 3.6-8.2 5.3q-15.9 10.5-33 19a388 388 0 0 1-61.8 25.6c5.6-14.5 8.8-30.1 11.3-45.4 4-24.8 5.8-49.8 6.5-75a558 558 0 0 0-6-100c-.2-1.6-.8-3.6-2.8-3.4-3-.2-3.1 2.4-2.8 4.6q2.4 14.2 3.6 28.4c-34.2-4-67.7-13.4-99.3-27.3a300 300 0 0 1-60.5-35.3 171 171 0 0 1-31.3-30.6c-2.4-3.2-4.2-6.3-7.2-8.9-1.3-1.4-2.8-1-4.5-.7-2 2-2.3 4.5-2.6 7.2a157 157 0 0 0-.2 38.4c-7.2-2.8-13.7-8-18.8-13.8a67 67 0 0 1-6.4-75.6c1.1-1.9 1.5-4.3-.9-5.4-2.2-.3-2.9.7-4 2.4a69 69 0 0 0-9.3 26.7c-12.4 7.4-23 18.7-32.7 29.4a337 337 0 0 0-25.4 33.5 201 201 0 0 0-23.3 47.6 100 100 0 0 0-4.1 17.9c0 2.9 2.9 4.1 5 2.2q.9-2.4 1.5-5a224 224 0 0 0 98 202.2c-25.3 8-51.7 15.7-76.8 25.4-16.3 6.2-32.2 13.3-48.5 19.8a82 82 0 0 0 11.4-22.7c8.2-25.3 7.6-51.8 7.1-78-.8-11.4-.8-22.7-1.7-34-.8-10.3-1-20.7-2-31l-1.7-39q-.8-35-.5-70 .6-33.5 9.7-65.8c1.6-5.9 4.4-11.1 6.9-16.6 4-8.4 10.3-13.8 16.7-20.2 5.8-6 12.4-11 19.1-15.9 27.4-20.9 53.8-46.3 83.8-63.2a100 100 0 0 1 22.7-10c7.3-2.1 14.5-2.3 22-2.7 13.6-.8 27.4-.5 41-.4" fill="currentColor"/></g></svg>
