<svg xmlns="http://www.w3.org/2000/svg" viewBox="0 0 762 762"><g transform="translate(-65.6 -47.4)" mask="url(#hairClipMask)"><path d="M721.6 121.5c10.5 1.1 22 2.7 31.8 7.2 3 1.4 3.7 5.3.1 6.5-9.1 1.7-17.9 2.8-26.5 6.6a74 74 0 0 0-15.4 9.3c9.3-.3 18.4 1.1 27.5 2.6 15.4 3.3 31.5 8 45 16.2 2.5 1.3 3.8 4.5 5 7a181 181 0 0 1 16 54.5c1 17 .8 35.6-6 51.5a41 41 0 0 1-15.6 19.4c-1.4 1.2-3.2-.7-4-1.8a149 149 0 0 0-46-41 162 162 0 0 0-77.2-23.6 143 143 0 0 1 35.8 18 169 169 0 0 1 25.4 23.7c1.7 2 1.3 3.2.4 5.4-2 .1-3.2 0-4.8-1q-10.3-6.7-21.6-11.4c-18-7.7-38.6-12.6-58.2-8.3q12.2 24 19.8 50c8.3 27.8 14 57 14.7 86.1q0 10.6-1.3 21c-.5 2-1 6-3.9 5.5a54 54 0 0 0-33.5 4.8c.3 23-11 46.2-26 63.1-1.7 2-3.3 2.9-5.9 2-2.5-2.1.2-5.3.6-8 1-6.3 1.2-13 1.6-19.4-.1-8 .7-16 .2-24-.3-7 0-14-.5-21-.7-14.6-1.3-29.5-4-43.8-.2-1.3-1.5-1.7-2.4-2.3a91 91 0 0 1-17.1-12.9 157 157 0 0 1-28.7-36.1 181 181 0 0 1-10.6 52.8c-.7 1.6-1.2 4.2-2.8 5-4.2.7-9-1.8-13-2.8-4-1.4-8.9-2-12.7-4-.6-2.8-.3-6-.2-8.9 1-19.4.4-38.8-3-58-1.7-9-3.1-18.3-5.6-27.2q.8 24.7-2.2 49.2-2.3 15-6.6 29.8-1 4.1-2.9 8-1.2 2.2-3.7 1.6a505 505 0 0 0-160-9.2c-2.2.4-3.2-1.6-4-3.2a104 104 0 0 1-7.5-58.3 104 104 0 0 0-2.8 59.3q.4 2.2 0 4.5c-18 3.4-38.1 8.8-53 20.3-1.2.8-2.9.4-3.8-.7a74 74 0 0 1-20-38.8c-4.8 8.4-6.5 19-9.5 28.3-.9 2-4.3 2.7-5.6.6a25 25 0 0 1-2.2-8.4 69 69 0 0 1 16-50c2.3-18 7.8-34.2 16.9-49.7a193 193 0 0 0-46.6 10.8 208 208 0 0 0-60.6 31.4 139 139 0 0 0-26.6 25.4q-2.3 2.7-5.1.7c-.9-3.4-.8-7-.8-10.4a211 211 0 0 1 12.8-71.4 165 165 0 0 1 36-58q10.6-10.4 23.6-17.2a73 73 0 0 0-38.2-1.2c-1.7.4-3.1 1-4.4-.7-1.2-2.2.4-3.7 1.9-5a62 62 0 0 1 22.4-11.6c15-4.5 30.6-5 46-3.7A169 169 0 0 1 280 180a89 89 0 0 1 34.9 36.1A224 224 0 0 1 415.6 177c23.5-3.3 47.5-3.5 71-.2a235 235 0 0 1 91.1 31.7 124 124 0 0 1 39.5-51.4c13.8-11 29.5-21 46.3-26.7a145 145 0 0 1 58-8.8" fill="black"/><g fill="currentColor"><path d="M724.6 127.7c6.5.4 12.7 2 19 3.4a95 95 0 0 0-18.8 5.6 77 77 0 0 0-21.3 14.5c-4.4 1.3-9.3 1-13.8 2.3-2.6 1.5-2.3 4.7.9 5.3 11-1 21.3-3.2 32-1.5q14.6 1.2 28.8 5.2a127 127 0 0 1 25 9.1c2.4 1.4 4.8 2.3 6 5q3.8 7.2 6.6 14.8a200 200 0 0 0-67.4-19.2c-24.8-2.2-50.8-1.2-74.2 8-3.4 1.4-7.3 2.7-10 5.2-1.3 2.8 1.3 5.3 4 3.8 15.7-8 32.8-11 50.2-12.1 33.6-1.4 68.4 5.4 98.2 21.1 1.1.7 2.2 1 2.5 2.3 3.5 11.2 6.7 23.2 7.4 34.9.8 9 0 17.8-.9 26.8-1.8 12.6-5.5 25-15.3 33.9a157 157 0 0 0-42.7-38.9 177 177 0 0 0-67.7-25.6 112 112 0 0 0-32.5-.2c-2 .5-4.4 2.6-2.8 4.8 1 1.9 2.8 2 4.8 2.3q8.1 1.3 15.8 4.1a125 125 0 0 1 41.9 25.5 214 214 0 0 0-23.5-9 93 93 0 0 0-46.4-2.1c-2.4-4.6-6.1-7.9-9.1-12.1-2.3-3.5-5.5-5.8-8.3-8.8a191 191 0 0 0-30.1-24.5 95 95 0 0 1 20-33 170 170 0 0 1 41-33 139 139 0 0 1 80.7-18m-540 34.5c10.4-1.2 20.2-.1 30.5 1a154 154 0 0 1 75.2 31.6 68 68 0 0 1 20.2 26.2c-24.7 4.5-45 21-59 41.3a189 189 0 0 0-56.7 12.3 216 216 0 0 0-61 33.1 156 156 0 0 0-20 19.2q0-6.5.6-12.9c.9-7.8 1-15 3-22.8q3.7-3.7 7.9-7c22.5-17.7 50-28.9 78.3-32.2q12.5-1 25-.3c3.1-.1 2.8-2.4 2.7-4.7-3.5-1.3-7-1.5-10.7-1.6-17.4-.2-35 2.9-51.5 8.6a157 157 0 0 0-50.1 28c6-26.9 17.3-52.7 35.2-74 9-11 20.2-20 33.2-25.7 2.3-1 4.5-1.8 3.7-5-1.8-1.7-5-2-7.4-2.9a72 72 0 0 0-31-3.8 80 80 0 0 1 31.9-8.4"/><path d="M533.4 193.8c33 11.5 64.2 31 86.4 58.4 5 5.9 8.3 12.5 11.6 19.3 9 18.6 15.6 38.5 20.6 58.4q6.7 26 9.1 52.5c1 12 1.7 25-.6 36.8a62 62 0 0 0-31.6 4.3q-.7-4.3-2-8.2c-1.2-2.6-5.2-2-5 1.1.4 5 1.8 9.9 1.6 15a91 91 0 0 1-19.5 51.2c.9-5.3.9-10.7 1.1-16.1q.6-26.2-.6-52c-1.2-13.3-1.2-27.4-4.6-40.3-2.4-2.6-6.4-3.7-9.2-6a145 145 0 0 1-38.3-42.7c-2-3.3-4.1-6.7-5.4-10.4-.6-3.5-.6-7.2-1.1-10.7a189 189 0 0 0-20.2-63c-3.5-6.4-8.2-11.6-13-17-1.2-1.6-2.5-1.3-4.2-1.4l-1.3 2.5c1.4 3.9 4.4 6.1 7 9.4 5.2 6 8.4 12.8 11.7 20q9 20.2 13 42c5.3 27.9 1 55.8-7.8 82.5l-18.4-5.4a252 252 0 0 0-5.8-81.4c-2.2-11.2-5.8-22-9.8-32.7-1-2.4-2.7-1.8-4.8-2q-1 2.2-.8 4.5.8 7.5 1.4 15.2c1.6 17.2.2 33.8-1.2 51q-2.3 19.5-8.1 38.3-53-11-106.9-11.8a141 141 0 0 1-3-42.7 163 163 0 0 1 22.5-74.4 109 109 0 0 1 14.2-20.8c.7-1 2.1-2.4 1.9-3.7 0-2.5-3.5-3.2-5-1.4a111 111 0 0 0-16 23 163 163 0 0 0-23.4 79.3 144 144 0 0 0 3.5 40.7q-9.4 0-18.7.3c-9.2.9-18.4 1-27.6 2.5a100 100 0 0 1-7.8-53.5q2.1-19 8.2-37.2c.6-2 2.3-4.8 1.2-6.8-1.4-2.1-4.4-1.4-5.3.8q-5.1 10.2-9 21c-5.8 16.8-11.3 33.2-11.5 51.2q-.2 14 3 27.7a130 130 0 0 0-49 18.9 71 71 0 0 1-17-36.1 106 106 0 0 1 5-52 110 110 0 0 1 35.8-50.4 74 74 0 0 1 35.9-15.3c2.3-.3 5.6.2 7.4-1.6.9-2.7-.3-3.5-2.4-4.9a210 210 0 0 1 47.5-24.8 249 249 0 0 1 166.3-1.1M231 326.5c-.1 3.4.4 7 0 10.4-1.7 4.4-4.2 8.6-6 13-2 4.3-2.9 8.9-4.5 13.3a65 65 0 0 1 10.5-36.7"/></g><use transform="translate(630.5 421.2)" href="#earrings-variant01-0b00a4bf"/></g></svg>
