<svg xmlns="http://www.w3.org/2000/svg" viewBox="0 0 762 762"><g transform="translate(-65.6 -47.4)"><path d="M437.6 139.7a225 225 0 0 1 71 11.6 103 103 0 0 1 44 28q9.1 10.8 12.8 24.5c26 6.7 50.3 18.8 71.8 35A226 226 0 0 1 727 397.4c2.6 31-2.2 62.2-16.5 90-1.8 3.3-2.4 6.9-3.4 10.5a72 72 0 0 1-26.9 39 62 62 0 0 0 2.3 34.6 38 38 0 0 0 13.8 18.1c2 1.6 4.9 2.6 3.6 5.9-1.6 1.8-4.2 2.9-6.3 4a74 74 0 0 1-48.2 3 64 64 0 0 1-36.6-24.4c-1.7-2.6-3.7-5.6-4.3-8.7q1-2.5 2.8-4.3 7.8-9.6 13.3-20.5c-3.7-2.1-8.3-4-11.3-7-1.3-2.1.6-5.2 3.1-4.2 4.8 2.3 9 5.6 14.1 7.2a55 55 0 0 0 23.1 2.2 60 60 0 0 0 34-16.4 66 66 0 0 0 19.5-37c1.4-11 .8-21.9-3.4-32.1a52 52 0 0 0-62.7-31c4.9 18.1.4 38.4-7.5 55a81 81 0 0 1-24.3 30.7 31 31 0 0 1-20.6 6.4c-2.4-.5-5.4-.9-4.9-4 1.8-2.3 4.7-3.2 6.5-5.4 2.7-3.3 4.2-7.8 5.2-11.8a106 106 0 0 0 2-26.8q-1.3-21.7-6.4-42.8c-.2-1.7-1.7-1.8-3-2.6a87 87 0 0 1-31.2-24.7 193 193 0 0 1-27-45 428 428 0 0 1-27.5-94.9 171 171 0 0 0-42.7-12.8 92 92 0 0 0-22.8-1q-4 .5-7.3 2.6c1.4 2 2.6 4 4.6 5.6 2.2 1.8 5 3 7 5 1.8 1.8 0 5-2.5 4.5-3.4-.6-6.7-2-10-2.9q-22.9-6-46.5-7.1c-11.6-1.3-23-.2-34.5.6a185 185 0 0 0-47.2 11.1q-4.3 1.6-7.7 4.5a214 214 0 0 0-74 159.9A217 217 0 0 0 322 622.2c2.6 1.6 6 2.9 8.2 5.1a33 33 0 0 1-15.2 30.4 48 48 0 0 1-50 .7 66 66 0 0 1-14.2 37 59 59 0 0 1-30 21.2c-2 .4-4 1.3-5.8-.4-2.2-1.7-.9-5.4-1-7.8.7-9.3-3.9-17.4-10.4-23.6a50 50 0 0 1-24.2 19.3 72 72 0 0 1-66.6-8.8 47 47 0 0 1-19-28.1c-.6-2.6.3-5 1.8-7 4.3-.6 8.4.2 12.8-1.1a39 39 0 0 0 22.1-19.9 68 68 0 0 0 6.3-44.3c-21.2-4.5-41-14-57.1-28.4a110 110 0 0 1-31.9-115 129 129 0 0 1 45.5-64.4c-6.2-15.6-2.3-32.3 5.6-46.5a95 95 0 0 1 45.5-40.5c10.5-4.4 22-6.2 33.3-4.4a64 64 0 0 1 .3-26 94 94 0 0 1 19.4-37.6c12-14.8 27.4-27.2 43.3-37.7a327 327 0 0 1 81.4-37.6 367 367 0 0 1 115.6-17.1" fill="black"/><path d="M461.6 146.9a171 171 0 0 1 66 19.5 68 68 0 0 1 29.6 31.5c1.5 3.4 2 7 3.3 10.5 3.3 1.3 7 1.8 10.3 3A210 210 0 0 1 667 274a221 221 0 0 1 52 105.6c5.7 31.7 3.5 65.8-9.2 95.8-.8-6-1.5-11.9-3.6-17.6a58 58 0 0 0-29.4-33.5 59 59 0 0 0-44-2.9c-1.4.4-2.5 1.2-2 2.9 1.4 6.7 3 13.1 2.6 20a94 94 0 0 1-17.3 48.4 50 50 0 0 1-24.8 19.7c5.3-8.2 7-17.5 7.7-27a197 197 0 0 0-7-61.6c-.6-2.7-2.9-2.9-5-4a79 79 0 0 1-28.2-21.5 184 184 0 0 1-27.9-46.2 404 404 0 0 1-25.4-85.6c-.6-3.2-.8-6.8-2.2-9.8-1.5-1.8-3.6-3.1-5.4-4.6A305 305 0 0 0 396.4 198c-23-6.6-47-9.7-70.8-7-23 2.4-44.7 10.6-63.6 23.9a110 110 0 0 0-35.4 45.8c-.6 1.6-1 4.2 1.1 4.9 2 1.1 4-2 4.6-3.5q6.2-14.8 16.7-27.2a106 106 0 0 1 36.1-26.9c16.8-7.8 35-11.7 53.5-12.2 28.6-.8 56.3 6.1 82.5 17.1a304 304 0 0 1 61.5 35.2c-12.4-3.8-25-6.6-38-7.5-5.9-.3-12.5-.4-18 1.6-2.7.9-5 2.5-6.1 5.2-.8 2.8.3 5 1.2 7.6a222 222 0 0 0-119.6 2.9c-5.2 1.5-10 2.1-14.3 5.8a215 215 0 0 0-51 62A180 180 0 0 0 218 371a225 225 0 0 0 23 179 224 224 0 0 0 83.6 80.4q-.8 12.6-10.4 20.6a41 41 0 0 1-47 1.8c-2-1-3.6-2.8-6.1-1.9-2.2.6-2 3.8-2 5.5 0 11.8-4.3 23-11 32.6-7 10-16.5 18.2-28.3 21.8a35 35 0 0 0-5-21.4 31 31 0 0 0-11.1-11.3c-4-.2-5.1 3.8-7.2 6.3a51 51 0 0 1-37.9 18.4 65 65 0 0 1-47.2-16.2 40 40 0 0 1-12.1-20.8c4.9 0 9.7-.4 14.2-2.5 12-5 20.4-16 25.1-28 4.8-12.2 6.5-26 4.1-39-.4-2-.5-4.5-1.7-6.2-2-1-4.4-1.2-6.6-1.7a116 116 0 0 1-54.9-30 104 104 0 0 1-25.2-108.2 122 122 0 0 1 39.3-55.9c1.9-1.6 4.4-3 5.7-5 .6-3.3-1.8-6.8-2.5-10a51 51 0 0 1 6.3-34.4 89 89 0 0 1 38.7-37.3 54 54 0 0 1 38.9-5c1.9.7 3.8-.1 4.2-2.2q-.4-2.5-1.1-4.9c-2.3-8-2-17-.1-25 3-12.3 9.3-23.2 17-33 10.8-14 24.8-25.8 39.3-35.7a317 317 0 0 1 70.1-35 375 375 0 0 1 65.7-16.8c28.3-4.7 57.2-6.2 85.8-3.1M673.5 541c-.6 8.6-.9 17 1.4 25.4a49 49 0 0 0 17 27.5c-17.4 7.7-38 7-55.2-.6a52 52 0 0 1-26-23.3q8.8-10.9 15.2-23.3c4.6.7 9.1 2 13.7 2.4 11.8.4 23.5-2.5 33.9-8" fill="currentColor"/><use transform="translate(630.5 421.2)" href="#earrings-variant01-0b00a4bf"/></g></svg>
