<svg xmlns="http://www.w3.org/2000/svg" viewBox="0 0 762 762"><g transform="translate(-65.6 -47.4)" mask="url(#hairClipMask)"><path d="M454.5 154.7a143 143 0 0 1 71.6 43.5c6.7.4 13 .5 19.5 2q14.4 3.4 27.2 10.9a122 122 0 0 1 44.1 46.7c11.9 5 22 14.4 30.3 24 12.8 15 22.9 32.4 30.5 50.4a186 186 0 0 1 15.8 70.2 72 72 0 0 1-6.3 30.6c-1.2 2.5-3 2.3-5.1.9a50 50 0 0 0-34.3-9.7 89 89 0 0 1-8.2 46.1 109 109 0 0 1-44.3 49.8c-4 2.2-8.3 4.3-12.7 5.4q-2.7.5-3.4-2c0-2.1 1.7-4 2.7-5.7a79 79 0 0 0 8-16q6.8-17.9 9.6-36.9c2.6-18 3.9-37.3-.7-55.2-4.2 3-8.4 6.7-13.2 8.5-2.7 0-3.7-2.5-3-4.8 1-3.2 2.8-6 3.7-9.3 4.5-15.3 2.5-31-3-45.7a73 73 0 0 1-11.5 27.4c0 5.3.6 11-.6 16.3-1 2.7-3.1 2.2-5.2 1a489 489 0 0 0-74.6-35.4 560 560 0 0 1-77-38 293 293 0 0 1-27.1-18.2q6.8 12.9 16.5 23.8c6.5 7.3 13.2 14.1 21.2 19.7 2 1.4 4.3 2.6 6 4.3a5 5 0 0 1-4.2 5.7c-4.9 1.3-10.2 1.5-15.2 2-6.6.9-13.2.4-19.8-.4a139 139 0 0 1-38.4-9 145 145 0 0 1-67.2-51.7c-11.3 11-20.6 26.4-18.8 42.6 0 2.2-1 5.4-3.7 4.7a58 58 0 0 1-26.7-16c-4.6 7.5-7.8 15.7-10.6 24a252 252 0 0 0-11.4 55.2c-.7 6.3.3 12.4-.8 18.7-2.2 0-4.1.2-5.9-1.4a50 50 0 0 1-16.3-29.1 95 95 0 0 1 5.4-52.3 93 93 0 0 1 27.1-38.4 63 63 0 0 1 6.1-44.5 73 73 0 0 1 41.7-34.2 66 66 0 0 1 33.5-37.6 93 93 0 0 1 47.7-9.7 96 96 0 0 1 44.3-30.3c18-6.7 38.1-7 56.6-2.9m279 280.8A92 92 0 0 1 780 457c2.3 2 5.1 3.9 7 6.4q.3 4.5-4 3.5c-10-3-20.2-3-30.4-1.5a95 95 0 0 0-28.7 8.5c10.2 2.3 19.9 7 28.6 12.6 12 7.9 22 18.6 28.5 31.5 1 2.2 2 4.4 4 6 14.8 14.1 23 35 22.2 55.4-.4 17.1-7.2 34-19.8 45.8-1.4 1.2-2.8 2.2-4.7 1.3-1-.6-3.5-1.5-3-3 1-14.9-1-29.6-8.2-42.8a93 93 0 0 1-2.9 21.7 100 100 0 0 1-73.8 71.3 74 74 0 0 1-34.8-.9c-2.5-.4-4-4-1.8-5.6 3.8-1.7 7.7-2.9 11.4-4.8 2.1-1.2 5.2-2.4 6.2-4.7a65 65 0 0 0 4.9-14.1c1.7-9.3 3-17.9-.4-27-3.9-1.8-8-2.9-11.5-5.4a58 58 0 0 1-24.4-50.5 73 73 0 0 1-43 22.7c-1.8.2-4.1 0-4.5-2.2q-.5-2 1-3.5a257 257 0 0 0 24.4-35.7c.8-1.7 3.8-.9 5.3-.7a61 61 0 0 0 69.3-32.7 61 61 0 0 0-1.4-60.1 8 8 0 0 1-1.6-6l6-2.8a60 60 0 0 1 33.5-4.2m-532.8 15.8c4.5 0 9.4.6 13.4 2.8 2 1 1.6 3.4 2 5.3.9 12.4 3.7 24.4 7.2 36.2q9 29.2 24.9 55.3c5.2 8.3 10.7 16.4 17.4 23.6 2 2.3 3.7 4.6 2 7.7a83 83 0 0 1-24.5 26.6 57 57 0 0 1-24.3 11 48 48 0 0 0-2 22.7l-.9 2.4c-1.9.3-3.5.6-5.4-.2a103 103 0 0 1-32-20 59 59 0 0 1-17.7-31.4c-4.7-2-7.2-5.8-10.5-9.5a49 49 0 0 1-11.1-29.4 65 65 0 0 1 7.3-30.2c5.2-10.9 11.8-22 20.7-30.3q5-4.7 10.7-8.6a50 50 0 0 0-19.4 9c-1.3.7-3.4 2.9-4.9 1.6-2.7-1.1-1.7-4.5-1.2-6.7a56 56 0 0 1 48.3-38" fill="black"/><g fill="currentColor"><path d="M482 171.1a172 172 0 0 1 59.5 55.4c14.7 21 24.7 44 32.8 68.1 1 2.2 1.7 3.6 4.4 3 2.2-2.3 1-4.7.3-7.4a354 354 0 0 0-12.3-31c-9-19.9-21-38.5-35.1-55 6.1.6 12.1 1.3 18 3a98 98 0 0 1 43.1 27c17 18 28.4 41.1 33.2 65.2a124 124 0 0 1-7.3 73.9 89 89 0 0 1-27.6 35.1 74 74 0 0 0-6.5-59.6q.8-9.1-.2-18.4c-.2-1.7-.5-3.8-1.8-5-1.5-1.4-4.5-.1-4.3 2q.1 3 .6 6a85 85 0 0 1-7.7 44.2 189 189 0 0 0-19.2-62.5c-6-11.3-13.8-21.2-22-31-1.2-1.4-2.5-3-4.1-4q-1.8-.3-3.8-.3c0 2-.7 3.6 1 5.2a156 156 0 0 1 38.5 72.4q5.3 19.3 5.2 39.2a487 487 0 0 0-65.3-31 582 582 0 0 1-47.9-21.2c-25.7-13-50.6-26.5-72.4-45.5-7.4-6.7-15-15-18.8-24.3-1.3-3 0-5.6-.2-8.7a3.3 3.3 0 0 0-5.5 1.5c-1.1 4.3.5 9.4 2.6 13.2 5 9.6 12 17.1 20 24.3q.8 4.6 2.9 9a126 126 0 0 0 24.5 32.5q7.5 7.4 16 13.6c-13.8 2.3-28.2 2-42-.7-28-5.3-54.5-19-74.9-39-14-14-25-31-29.2-50.4a60 60 0 0 1-1-21.7 57 57 0 0 1 23.3-39.6c15-11 32.7-14.9 51-15.6-3.4 6.9-7.3 14-7.7 21.9 1.6 1.4 3.7 3.3 5 .3a59 59 0 0 1 22.6-35.7 103 103 0 0 1 47-20.8c22.7-3.3 45 2 65.4 12.4"/><path d="M270.6 241.9A83 83 0 0 0 283 301c-12.5 11.6-22.3 28-21.6 45.5q-7.6-2.9-14.1-8a49 49 0 0 1-17.8-29.2 54 54 0 0 1 2.7-29.5 66 66 0 0 1 38.4-38m350.6 24.5a119 119 0 0 1 33 34.3 209 209 0 0 1 31.2 76.8c2.8 16.7 4 34-1.9 50.2a58 58 0 0 0-36.8-9c-1-2.4-1.5-6.4-4-7.6-2.2-.3-3.6 1.2-3.2 3.4 1 4.7 2.6 9.1 2.9 14a86 86 0 0 1-9.8 43.1 101 101 0 0 1-43 45.1 166 166 0 0 0 16-53.8c1.3-8.4 1.6-17 2.1-25.4a122 122 0 0 0-4.1-32.2 110 110 0 0 0 30.4-78.8 139 139 0 0 0-12.8-60m-394.8 53.4q2.7 6.5 6.8 12.5a98 98 0 0 0-9.3 18.6 253 253 0 0 0-12.4 47.3q-2.6 14.1-2.6 28.4-6.9-7.8-9.9-17.7a81 81 0 0 1-.3-41.5 93 93 0 0 1 27.7-47.6M734 441.3a90 90 0 0 1 39.7 18q-6.5-1-13.1-.5a93 93 0 0 0-43.1 12.4c-2 1.4-4.2 3-3.4 5.7.4 2 4 1.8 5.5 2a82 82 0 0 1 52.8 35.6 54 54 0 0 0-24.8-7c-2.6.4-3.4 3.9-1 5 3.2 1.2 6.7 1.1 10 2a58 58 0 0 1 33.8 25.1 69 69 0 0 1 11.1 38.8c-.2 15-5.8 29.9-16.2 40.8-.3-6.8 0-14.2-1.6-20.8a63 63 0 0 0-10.1-25c-1.3-1.8-3-3-3.3-5a67 67 0 0 0-5-15.8c-.5-1.2-1.7-2.1-2.6-3q-1.5 1-2.8 2.1c-.7 1.4.4 3.2.8 4.5 4.7 11 6 23.2 4.3 35a95 95 0 0 1-46.4 67.1 80 80 0 0 1-50.4 10.7 83 83 0 0 0 37-31c5.1-7.7 7-16.6 7.6-25.7.3-3.4-4.3-4.5-5.3-1.1-1.1 6.1-1.4 12.2-4.1 18A73 73 0 0 1 683 654a77 77 0 0 0 4.9-25.6 33 33 0 0 0-4-17.1 35 35 0 0 1-15.6-7.7 54 54 0 0 1-18.4-39.2 34 34 0 0 1 4.8-16.8 68 68 0 0 0 40.4-25.6 72 72 0 0 0 14.7-38.6 65 65 0 0 0-9.5-38.2c10.6-5.6 22-5.4 33.6-4M192.8 458c6-1.6 11.5-1.4 17.3.5q.6 9 2.3 17.7a236 236 0 0 0 50 103.7 84 84 0 0 1-30.9 29.4 41 41 0 0 1-15 5c-2 .2-2.3 1.3-3 3a63 63 0 0 0-3.2 21c-15.2-6.6-30.2-16.4-38.5-31.1a50 50 0 0 1-4.5-37 97 97 0 0 1 20-37.2c1.5-1.8 2.1-5-.7-5.8-2-.5-3.2 1.4-4.4 2.7-12.9 16.2-22.7 34.8-22.4 56-6-6.1-11-13-13.3-21.3-2-7.5-2.5-15.3-.4-23 3.6-12.6 9.8-24.6 17.5-35.2a76 76 0 0 1 28.9-23.2c2.4-1.6 1-5-1.8-5-11 0-22 3.3-31.5 8.8a52 52 0 0 1 33.6-29m433.4 89c6.9 1.4 13.8 1.6 20.8 1.6a73 73 0 0 1-42 28.6c8-9.5 14.4-20 21.2-30.3"/></g><use transform="translate(630.5 421.2)" href="#earrings-variant01-0b00a4bf"/></g></svg>
