<svg xmlns="http://www.w3.org/2000/svg" viewBox="0 0 762 762"><g transform="translate(-65.6 -47.4)"><path d="M470.1 142.1c23.4 3.4 48.3 10.3 67.8 24a66 66 0 0 1 27.4 37.7q29.1 7.5 54.6 23.3a231 231 0 0 1 85.5 94c3.6-5.7 6.9-11.3 11.6-16.3a30 30 0 0 1 15.7-10.1 49 49 0 0 1 35 7.5c5.7 4 11.8 9.5 13.6 16.4a41 41 0 0 1-1.2 23c-2 5.3-6 8.7-10.5 11.8a174 174 0 0 1-31.1 15.4c9.8-1.5 20.2-2.5 30.1-1.4 5 .4 9.6 2.5 13.7 5.2A59 59 0 0 1 800 393c3.3 6.5 1.6 13-1.7 19a70 70 0 0 1-17.5 21.7c-4.6 3.4-10.8 3.2-16.2 2.6a61 61 0 0 1-28-14c6 7.5 13.6 16 14 26.1.2 8.8-2.8 18-5.9 26.2-2 5-4.8 11-10.5 12.3a48 48 0 0 1-23-.8 25 25 0 0 0-3.2 8 72 72 0 0 1-27.8 42.8 62 62 0 0 0 2.3 34.6 38 38 0 0 0 13.8 18.1c1.3 1 3.5 2 3.9 3.8.4 2.8-2.7 3.9-4.6 5a74 74 0 0 1-54.7 2.7c-15-5-29.4-15.2-36-30-.8-2 .3-3.3 1.5-4.9a113 113 0 0 0 14.3-21.7c-3.8-2-8.3-3.9-11.4-7-1.3-2.1.7-5 3.2-4 4 2 7.5 4.6 11.7 6.3 15.8 6 33.7 4 48-4.7a66 66 0 0 0 31-46.7c1.3-9.8.8-19.6-2.7-29a53 53 0 0 0-26-29.8c-2.3-1-4.6-2.8-7-1.3-9.3 4.8-18.9 8.7-28.5 12.8a96 96 0 0 1-20.1 57.5 51 51 0 0 1-26.8 19.3c-3.7.9-9 1.2-12.1-1.3-1.5-4 3.9-4.6 5.8-7 5.6-6.6 6.6-17 7.5-25.2.9-17.3-1.5-34.9-5-51.8-.5-2-.8-4.3-1.7-6.3-3.4-1.9-7.2-3.2-10.5-5.4a117 117 0 0 1-36.3-38.7 287 287 0 0 1-29.4-69.7c-5-17.2-8.7-34.6-12-52a172 172 0 0 0-45.3-13.3c-7.3-.8-15-1.5-22.3-.3-2 .3-3.5 1.4-5.3 2.4q1.4 2.2 3 4.1c3 3.2 7.2 4.4 9.9 8-1.5 1.8-1.9 3.5-4.6 2.7q-26.9-8.4-55-9.8-12.8-1.3-25.7 0c-19.6 1-39.2 4.9-57.5 12a29 29 0 0 0-9.6 6.5 217 217 0 0 0-39.9 48 183 183 0 0 0-20 44 215 215 0 0 0-9.5 98.6 218 218 0 0 0 105.9 159.1c2.4 1.6 5.4 2.7 7.5 4.8a33 33 0 0 1-15 30.4 48 48 0 0 1-50 .7 66 66 0 0 1-13.5 36 60 60 0 0 1-30.8 22.2c-2 .4-4.1 1.3-5.8-.5-2.1-1.7-1-4.4-1-6.7a30 30 0 0 0-10.5-24.7 54 54 0 0 1-38.8 23.2 72 72 0 0 1-50.7-11.7c-10-7-17.7-17-20.2-29-.6-2.6.3-5 1.8-7 4.4-.5 8.4.3 12.8-1.1a38 38 0 0 0 21-18 67 67 0 0 0 7.3-46.3 123 123 0 0 1-59.1-30.3 109 109 0 0 1-30-112.1 127 127 0 0 1 45.8-65.2 53 53 0 0 1 4.5-44.6 95 95 0 0 1 45-41.8c11-4.9 23-7 34.8-5a63 63 0 0 1 1.8-31.6 115 115 0 0 1 33.6-48.5c19-17.4 41.6-31 65-42q37.7-17.2 78.4-26c37-7.9 76-10.6 113.7-5.6" fill="black"/><path fill-rule="evenodd" clip-rule="evenodd" d="M676.8 303.2c-4.5-4.3-11-6.5-17.2-7-8-.2-16-.2-24 1.5l-1.6.4c-3.4.7-7.2 1.4-8.7 5-1.4 4-2 8.3-2.6 12.5l-.6 3.8a41 41 0 0 0 1.5 20q2 4.9 6.5 7.5 6.1 3.9 12.5 7.3l3.4 1.8 8 4.8q7 4.6 14.8 8.4c2.2.8 2.4 4.9-.2 5q-10.7 2.4-21.5 4.3l-4 .7a103 103 0 0 0-28.4 10.4c-5 3-6.8 8.3-8.5 13.6-1.6 6.2-3.2 12.7-3.7 19.2-.1 3.3-.2 6.4 2.2 8.9a30 30 0 0 0 16.9 9.3c4.6.6 9.2-1.7 13.5-3.9l5.3-2.5q17.7-6.7 34.3-15.7c1.5-.7 3.3-.9 4 1q.3 1.9-.2 4l-.2 1.4c12.6 7 22.3 18 27.3 31.5 2.9 7.3 3.8 15 4.3 22.7a36 36 0 0 0 21.7 2.4c3.7-.6 5.1-3.5 6.6-6.5q3.7-8.5 5.7-17.4a24 24 0 0 0-1.1-16.6 83 83 0 0 0-13-17.7q-7.5-8-14.2-16.9c-1-1.1-1.5-3.2-.3-4.4a3.3 3.3 0 0 1 5-.3q11.4 10.1 23.9 19.1a50 50 0 0 0 21.4 9.9c4.1.6 8.7.6 12.2-2 5.8-4.4 10.2-11 14-17.1 2-3.3 4.3-7.2 4-11.2.2-3.7-2.4-7.4-4.5-10.4l-.5-.7c-5.1-7.2-12.7-14.5-21.7-16.1a83 83 0 0 0-23 .1q-6.4 1-12.7 1.2-5 .2-9.8.8c-2.6.4-5.1-2.8-3.1-5q2-1.7 4.7-2.4l2.2-.8 4.7-2c11.3-4.5 22.2-9 32.6-15.5h.1c3.5-2.3 7.6-5 9.3-8.7a32 32 0 0 0 2.4-16.3c-.4-3.5-1.2-6.9-3.4-9.7a42 42 0 0 0-25.5-14.5 29 29 0 0 0-18.3 1.7c-6 3.4-11 9.5-14.8 15.2a185 185 0 0 0-15 26.8c-.8 1.7-2 4-3.9 4.4-2 .4-3.3-1.7-3.3-3.5-.7-10-1.4-19.3-5.9-28.4a49 49 0 0 0-9.6-13.4m24.3 73.7c-1.4-2.5-3.1-3.8-6-3-3.4 2-3.3 5.8-3.2 9.2v1.2c.3 3.3.6 7.2 3.3 9.5 2 1.9 4.7 1.6 6.2-.7 3.5-5 2.1-11-.3-16.2" fill="#E57E5E"/><path d="M411.6 146q31.4-2.2 62.5 2.6c20 3.4 40 9.1 57.1 20a64 64 0 0 1 26.5 30.7c1.2 3 1.5 6.3 2.8 9.2l9.2 2.5a207 207 0 0 1 85.5 50.8c19.2 18.8 35.1 41 46.7 65.4q-2.4 4-4.4 8.3c-1-7.4-2.3-14.6-5.7-21.3s-8-13.5-14.2-17.9c-6.1-4.5-14.5-6-22-6a92 92 0 0 0-27.7 3.3q-6 1.9-8.2 8c-1.9 5.2-2.3 11-3.4 16.6-1 8.2-1 17.4 2.6 25 1.7 3.8 4.7 6.6 8.1 8.8 7 4.4 14.8 7.8 21.9 12.2q5 3.1 10.2 6c-11 2.2-21.7 3.6-32.3 7.6a92 92 0 0 0-16.3 7.5c-5.8 3.8-8.2 10.5-10 16.9-2.3 9-4.7 17.7-3.5 27 .9 4.1 4.2 7 7.3 9.5a31 31 0 0 0 18.3 7.8c3.9.2 7.2-1 10.8-2.4a96 96 0 0 1-17.8 49.3 49 49 0 0 1-24.4 19c5.3-8 7-17.5 7.7-27a201 201 0 0 0-6.9-61.5c-.5-2.4-2.3-2.7-4.2-3.6a79 79 0 0 1-30-23c-11-13-19-27.6-26-43a401 401 0 0 1-26.4-88c-.6-3-.8-6.7-2.2-9.6q-2.2-2.2-4.8-4c-21.6-17-45-31.9-70-43.1a215 215 0 0 0-79.8-19.6 137 137 0 0 0-90.6 27.8 111 111 0 0 0-31.4 42.6q-1.1 2.5.2 4.8c1.7.7 2.7.6 4-.7 1.8-2.3 2.7-5.3 4-8a99 99 0 0 1 28.6-35.3 131 131 0 0 1 85.7-25.4c19.5.6 39.1 5 57.5 11.5a299 299 0 0 1 76.1 40.7 142 142 0 0 0-49.1-7.5c-4.1.5-10.2 1.5-12.5 5.4-1.9 3-.7 6 .7 9a226 226 0 0 0-105.7-1.1c-6.3 1.4-12.4 3.6-18.7 5.2-3 1-6 1.7-8.5 3.7a215 215 0 0 0-44.7 50.3c-3.5 5-6 10.6-9.3 15.8q-10.9 19.6-16.7 41.4a224 224 0 0 0 58.2 224.5q21.6 21 48.2 35.8c-.5 9.6-5.8 18-14 23a42 42 0 0 1-45.2-1.9c-2.4-1.8-6-1.4-6.2 2 0 8.5-1.3 16.7-5 24.4a59 59 0 0 1-34.4 32.8 36 36 0 0 0-14-31.6 4 4 0 0 0-6 .4c-1.6 2-2.8 4.4-4.5 6.4a43 43 0 0 1-14.9 11.3 65 65 0 0 1-64.1-6.6 42 42 0 0 1-17-25c5.2.1 10.3-.3 15-2.7a50 50 0 0 0 24.7-28.4c4.7-12.4 6-26.2 3.6-39.2-.5-2.1-.2-5.5-3-6a117 117 0 0 1-60.1-31.1 103 103 0 0 1-29.2-55.1 107 107 0 0 1 5.3-56.8c7.8-21 22-39.6 39.6-53.3 1.8-1.6 4.8-2.8 4.3-5.7-.6-3.4-2.6-6.5-3-10a57 57 0 0 1 9.9-38.1 89 89 0 0 1 41-34.1c10.4-4.1 22.3-6 33.2-2.6q3.4 1 4.3-2.2c-.7-4.7-2.6-9-2.6-14a67 67 0 0 1 11.3-39 140 140 0 0 1 27.7-31.3 236 236 0 0 1 39.8-27.3A369 369 0 0 1 411.6 146m261.9 395a73 73 0 0 0 1.2 25c2.5 11 8.2 20.9 17.1 27.9a69 69 0 0 1-60.4-3.3 48 48 0 0 1-20.4-20.5c5.3-7.6 11-14.8 15-23.3 5.3.7 10.2 2.5 15.6 2.4 11.1 0 22.2-2.8 32-8.2" fill="currentColor"/><use transform="translate(630.5 421.2)" href="#earrings-variant01-0b00a4bf"/></g></svg>
