<svg xmlns="http://www.w3.org/2000/svg" viewBox="0 0 762 762"><g transform="translate(-65.6 -47.4)" mask="url(#hairClipMask)"><path d="M614.6 100.5c13.2.2 26.3 5 36.5 13.4 1.2 1 1 3 0 4-1.6 1.1-3.6.5-5.5.4a44 44 0 0 0-17 2 65 65 0 0 0-31.4 23q9.9-3.1 20.4-3c16.9.5 32.8 6.1 47.2 14.8a112 112 0 0 1 43.4 46.8 59 59 0 0 1 5.2 38.3 38 38 0 0 1-16.2 22.8c-6.6 4.4-14 6.2-21.7 7.3 3.3 5.5 7 10.6 9.7 16.5 8 16.7 11.5 36.2 13.4 54.6q.8 11 1.1 22c-.5 10.2-.3 20-2 30-1 10-2.9 20.3-6.3 29.8-1.4 3.6-3.5 8.2-7 10.2-1.6 1-3.2-.3-4.7-1-8.3-5-18.1-8-27.9-7.9a72 72 0 0 1-6.2 25.9 56 56 0 0 1-35.5 31.4 44 44 0 0 1-25.4-.4c-2-.6-2.2-3.3-.6-4.5 2.7-2.4 5.6-4.2 7.8-7.1a75 75 0 0 0 14.5-37.4c.9-10 .8-21.4-4.6-30.1-1.7-2.9-4.4-4-6.6-6.4a63 63 0 0 0-5.6-20.6c-1-2.4-2.7-4.7-1.3-7.2q2.5-4.9 5.5-9.5c-3.5.4-6.6.5-9.3-2-5.2-5-8.5-12-10.3-18.9-1.2-4.4-3.3-8.8-3.8-13.3q.2-2.2 2.3-2.6c4.3-1.2 7.7-3.5 11.4-5.9s6.3-6 8.6-9.8a86 86 0 0 1-24.3-.6c-10.9-2.2-20-7.2-29.7-12.2-4.7-2.6-9.1-4.8-11.8-9.7q-16.2-3.8-32.3-8.3c-17.6-4.9-34.6-10.6-53-11.4a178 178 0 0 0-48.2 5q-7 1.6-12.7 6l-2.7-1.4c.5-7 4.6-14 7.7-20a101 101 0 0 0-20.6 20.4c-1.4 1.9-2.3 4.4-4 6-4.5 1.4-9.8.7-14.5.8-6.7.2-13.4-.6-20-1-6.3 1.9-12 5.3-18.1 7.6-13.4 5-27.1 8-41.4 5.2q-5.5 5.9-10 12.3a278 278 0 0 0-21 35.1c-6 11.6-9.8 23.7-13.9 36-1.4 4.8-2 9.9-3.3 14.7-1.1 4-1.3 8-2 12-2.3 2.4-6.5 3-9.4 4.7a86 86 0 0 0-36 51.9c-.7 3.8-.4 7.5-.7 11.3-1.3 2.2-4.1 2.4-5.3 0a66 66 0 0 1-5-27.1 98 98 0 0 1 59-85.2c-4-10-5.3-21-5.7-31.8-.5-10.6 1.6-20.7 3.7-31 3-12.8 7.5-25 15-35.8a30 30 0 0 1-17-8.2 41 41 0 0 1-10.8-28 74 74 0 0 1 13.5-42.4 60 60 0 0 1 29.6-23.4 54 54 0 0 1 21.4-26.5q4-1.9 5.8 2.2a45 45 0 0 0-2.6 13.2c6-4.3 13-6.5 20.2-7.9 10.5-2.3 22-1.7 32.3 1.4a33 33 0 0 1 20 17.1 34 34 0 0 1 .2 25.6 164 164 0 0 1 51.5-7.7q15.4-.1 30.4 4a79 79 0 0 1 19.6 9.4 21 21 0 0 1 7 7 146 146 0 0 1 89.6-2.6 60 60 0 0 1 .8-48c12-27 41-45.6 70.6-44.3m16.4 442c4.5.8 9.1.5 13.6.8 6.4.3 12-1.4 18.1-3 1.8-.5 3-.7 4.7.3a25 25 0 0 1 9.5 10.6c3.8 7.6 4 16 3 24.4a55 55 0 0 1-25.9 38.2c-2.2 1.2-4 1.8-6-.3-.4-2.5 2-5.1 2.8-7.6 1-4.3 1-9 .2-13.3a52 52 0 0 0-22.3-32.3c-4.6-3.2-9.5-2.8-12.6-8 2.5-3.6 4.6-7.6 7.1-11.3 2.4-1.2 5.4 1 7.9 1.5" fill="black"/><g fill="currentColor"><path d="M639 112.6c-16 1-31 9.9-41.6 21.6a81 81 0 0 0-19.1 73.2q-13.1-7-27.1-11.9-7-11.6-6.9-25.1a61 61 0 0 1 16-40.3 71 71 0 0 1 47.3-23.8c10.8-1 21.7 1.3 31.4 6.3m-371.5 26.8c-1.9 8.3-.8 16.4 0 24.8.7 8.4 3 16.8 5.6 24.7 2.8 9 8.5 17.4 13.7 25.2-1.3 1.6-2.5 4.2-4.4 5q-8.9 3.9-17 9c-4.3-2-7.7-5.3-10.4-9-5-8-7.7-17.3-7.8-26.7a78 78 0 0 1 10.2-41.2c2.6-4.6 6.3-8.2 10-11.8"/><path d="M308.6 143.2c8.4.2 16.5 1.9 23.4 7q7 4.8 9.3 13.2c2 7.4.5 14.8-3.2 21.3a175 175 0 0 0-37.1 16q-6 3.7-10.8 9c-4.7-7-9.5-14.6-11.9-22.8a107 107 0 0 1-5.7-32.4c2.8-2.5 5-5 8.5-6.5q13.2-5.5 27.5-4.8m360.5 21.7a100 100 0 0 1 36.1 45 53 53 0 0 1 3.2 25.5 32 32 0 0 1-14.2 22.6c-6.6 4.3-15 6.7-22.8 6.5-2.5-2.1-4.5-4.8-7.2-6.7-10.5-8.1-23-14-34.4-20.7-14.8-8.2-29-17.3-43.9-25.5-7.8-18.7-4.2-41.4 5.3-59a45 45 0 0 1 21.2-6.3c20-1.4 40.7 7.1 56.7 18.6m-423.9-.2c-5 16.9-6 36.8 2.3 52.8a37 37 0 0 0 12.3 14.3q-13.4 9.1-23.3 22c-4.4-.3-8.5-.6-12.3-3-7.6-4.4-11.4-12.3-13-20.6a63 63 0 0 1 7.7-39.5 61 61 0 0 1 26.3-26m163.4 16.7q9 .7 18 3.3c5.6 1.6 11 4.7 16.1 7.6q3.5 2 6.1 5a138 138 0 0 0-21.9 11.4c-13.7 9.2-25.1 21-34.6 34.4a15 15 0 0 0-4.8 2.2c-11.5 7.8-22.3 18-29.6 30q-14.2.9-28.2-1c-9.8-1-20.4-3.1-28.9-8.3a46 46 0 0 1-15.3-16.5c-1.4-2.2-1.7-5.8-3.9-7.2-2.4-.8-4 1.6-3.5 3.9a40 40 0 0 0 9 15.6 50 50 0 0 0 29.6 16.2 103 103 0 0 1-36 10 32 32 0 0 1-22.1-6.5c-3.8-2.7-5.9-6.4-9-9.7-2.5 1.3-3.5 2.4-2.5 5.4a37 37 0 0 0 14.2 13 185 185 0 0 0-15.7 21.2 265 265 0 0 0-21.9 42 105 105 0 0 1-3.7-39c2-14.4 4.9-28.2 11.3-41.4a108 108 0 0 1 20.4-27.5q12.3-11.4 27.2-19c.6 1.6.9 2.7 2.6 3.2 2.8-.2 3.6-2.4 5-4.5A52 52 0 0 1 302 207c8-5.5 17.2-9.3 26.3-12.7 25-9.2 53.4-16.2 80.2-12.8"/><path d="M487.6 193.9c10.7-1.6 21.3-1 32-.6 25.9 3.6 48.4 14.3 70.7 27.4q25.1 15.1 50.7 29.3c7 4 13.9 7.7 20.2 12.8 4.8 3.7 8.3 9.4 11.6 14.4 11.4 15.4 16 35.6 18.9 54.2 2.3 18.4 3.1 37 1 55.5a163 163 0 0 1-3.5 24.5c-1.4 6-2.8 11.6-6.3 16.8a58 58 0 0 0-31.3-9.2c-.7-17-8.5-34-22.6-44-1.5-1.4-4.4-1.5-5 .9-.7 2.6 1.5 3.4 3.2 5a49 49 0 0 1 17 26.7c6 23-3 50-23.2 63a44 44 0 0 1-28.3 6.8 76 76 0 0 0 19.4-44q1.6-10.6-.6-21a29 29 0 0 0-11.4-19.9c-1-6.6-2.5-13.1-5.4-19.2-.5-1.5-1.6-2.8-.6-4.4 2.3-4.1 5.5-8.4 7-13 .4-1.9-.3-4.3-2.5-4.7-3-.5-6 2.3-8.8 2-2.3-1-4-3.7-5.3-5.7-4.2-6.6-5-13.3-7.8-20.8 5.2-3.1 11.5-6 15.5-10.7 3-3.4 5-7.2 7-11.2 12-2.5 22.4-9 30.1-18.6 1.3-1.7.7-4.6-1.7-4.6-1.9-.3-3 1.5-4.2 2.6a47 47 0 0 1-14 11 67 67 0 0 1-36.8 5.2c-11.9-1.6-21.4-6.9-31.9-12.1q-2.8-1.4-5.4-3.2 10 1.8 20.3 2.6c11.1 1 22.5-.1 33.6-1 2.9-.4 2.7-2.2 3-4.6q-3.3-1-6.6-.8c-11.4.8-22.7 1.5-34 .3-23.1-2.3-46.8-9.6-69.2-15.8a157 157 0 0 0-53.8-7.6c-14 .8-28 3.3-41.7 6.3a14 14 0 0 1 1.7-5 138 138 0 0 1 38.3-43.8c18-12.7 39-19.5 60.7-21.8M220.6 364c-1.8 5.5-4.1 10.6-5 16.4-1 6.4-3.5 12.2-3.8 18.8q-9.9 3.6-17.7 10.8a97 97 0 0 0-27.4 44.6q-.8-8.1-.3-16.2a93 93 0 0 1 54.2-74.4m443.9 181.4c8.6 5.8 11.2 17.4 10 27a52 52 0 0 1-17.6 32.7 46 46 0 0 0-6.7-30.2 54 54 0 0 0-27-23.6l2.6-4.4c6.6 2.3 13 1.5 19.8 1.8 6.7.2 12.5-2 19-3.3"/></g><use transform="translate(630.5 421.2)" href="#earrings-variant01-0b00a4bf"/></g></svg>
