<svg xmlns="http://www.w3.org/2000/svg" viewBox="0 0 762 762"><g transform="translate(-65.6 -47.4)" mask="url(#hairClipMask)"><path d="M503.6 187.6a94 94 0 0 1 36.2 7.6 84 84 0 0 1 26.8 22.2c7.2 8.5 13.8 17.7 20.2 26.8 7.7 10.6 14.4 21 24.3 29.7a77 77 0 0 0 19.2 12.8c9.6 4 19.8 5.5 30.1 5.6 7.3.3 14 .2 20.7 3.5a31 31 0 0 1 16.3 20.6c1.7 5.8 1.7 12 3.6 17.7a37 37 0 0 0 12.6 16.3 81 81 0 0 0 34 14.7c10.7 2.1 20.8.2 31.5 2.9 7 2 11.8 7.6 15.2 13.7a40 40 0 0 1 3.4 19.7c-.2 6.4-2.7 12.5-2.7 18.8.9 4.7 5.4 10.3 10.6 9.8q6.2-.6 10.6-5c1.8-1.4 2.9-3.3 5.5-3 3 1 2.6 4.9 3 7.4a85 85 0 0 1-18.5 56.6 122 122 0 0 1-40.4 34.3c10.5 4.2 22 4.2 32.7 1 2.7-.8 5.4-2 8.1-2.7 2 0 3.2 1.8 2.7 3.6-5.8 24-20.5 45.8-39 62a100 100 0 0 1-55.7 26 25 25 0 0 0 7.9 11.3c4 3.5 9 5 13.3 7.9 1.4 3.2-2 4.6-4.1 6a74 74 0 0 1-37.1 7.5 68 68 0 0 1-37.5-11.3 54 54 0 0 1-15 17.3 146 146 0 0 1-49.6 24.4 126 126 0 0 1-41 5.2A43 43 0 0 1 536 675a3 3 0 0 1-1.4-4.5q2.1-1.6 4.5-2.7a30 30 0 0 0 15.7-28.1 77 77 0 0 1-37.4-3 89 89 0 0 1-46.2-34c-4.5-6.9-8.3-15-9.3-23.3-.1-1.6-.5-3.5 1.1-4.6 2-1.4 3.6 0 5.4.8a51 51 0 0 0 25.2 5.6 27 27 0 0 0 19-7 56 56 0 0 0 16.3-34.8c1.9-13.4-1.9-26-7-38.2s-12.1-23-17-35.2a43 43 0 0 1-3.6-17.6c.6-18.1 11.2-35.2 22.6-48.6 3-3.7 6.4-7.8 7.6-12.4a21 21 0 0 0-3.6-16.4c-2.2-3.4-5.8-5-9.5-6.1-8.3-2.5-17.8-2.4-26.3-4-4.7-1.1-9.1-3-12-7-3.2-4.2-3-9.5-2.7-14.5.4-4.7 2.7-9.4 2.5-14s-5.3-6.1-8.8-7.5c-11.1-4.2-21.6-2-33-.7-15.9 2.4-32 7.6-48 9.3q-6.2.6-12.5 1a99 99 0 0 1-37.5-7.7c-9.4-4.2-19.5-11-22.9-21.2-2.3-6.9-.9-13 .5-20a81 81 0 0 0-18.1 6.8 68 68 0 0 0-25.9 21c-4 6-5.8 13.2-4.3 20.2 2.1 10.3 7.4 18.8 7.6 29.8.2 7-3.4 12.6-8 17.5-5.3 5.6-11.4 10.5-17.1 15.8a81 81 0 0 0-19.5 25.5 51 51 0 0 0-5.5 29.2c2.3 9.7 9.8 15.6 15.7 23 7 9.1 14.4 16.8 17.8 28.2a74 74 0 0 1 1 34.8c-1.8 9.3-6 18.5-7.2 27.9 5 9 12 17 18.8 24.7a174 174 0 0 0 25 23c1.4 1 3 2 4 3.3a42 42 0 0 1-6 19.5 55 55 0 0 1-42.4 27 62 62 0 0 1-38.7-8.7 59 59 0 0 1-25.5-31.9 151 151 0 0 1-17.8 6.4 110 110 0 0 1-51.5 2c-19-4-36.8-13.4-50.7-27-1.3-1.6-2.7-2.8-1.6-5 .7-3 4.5-2.7 6.8-3.3 18.7-3 34.3-17 40.2-35-8 4-16.2 7-25.2 7a45 45 0 0 1-29.3-9.6A67 67 0 0 1 38 516.2a116 116 0 0 1-3.8-41.6c.2-1.8.5-3.5 2.5-4 2.6-.5 5.3-.3 8-.4 4.4 0 8.9-.7 13.4-1.2a59 59 0 0 1 1.1-42.8 55 55 0 0 1 26.6-27.7c6.3-3.1 13-4.5 19.8-6a52 52 0 0 0 25.2-12.9c7.4-6.9 11.5-18 14.7-27.3 4-11.1 5.2-22.4 7.2-33.9a58 58 0 0 1 18.1-32.8c10-9 22.4-15.4 35.3-19 14.7-4.1 31.1-5.1 46.3-7.7a47 47 0 0 0 18.1-6.6 45 45 0 0 0 13.7-15.3 71 71 0 0 1 45.4-33.8c12-2.4 24.4-.8 34 7.2 11.3-6.8 23.6-11 36.5-13.8 20.6-4.9 42.4-6.8 63.5-8.4 13.5-.6 26.7-1.4 40-.6" fill="black"/><path d="M474.6 193.6c20-.3 40.8-1.5 60 5.8 16.2 7 27.5 21.4 37.8 35.3 9.7 12.6 18.3 27.1 29.3 38.6q8.3 8.4 18.3 14.8a71 71 0 0 0 27.4 9.4c7.7 1 15.5.6 23.2 1.5 8 1 14.8 5.8 18.5 12.9 5 9.2 3.1 20 8.1 28.7a49 49 0 0 0 15.5 16.7 89 89 0 0 0 48.9 15.2q6.8-.2 13.5.7c7.2 1.1 12.7 8 15.1 14.5a48 48 0 0 1-.2 23.5c-.9 4.5-1.8 10.1.5 14.4 2.5 5 7 9.7 13 10 5.8.6 10.2-2 15.1-4.7 1 11.9-2.3 24.4-7.4 35a111 111 0 0 1-52.8 51.1c-2.2.9-3.1 3.2-1.5 5a25 25 0 0 0 8.5 4.6 58 58 0 0 0 36.1.2q-2.5 8.8-6.7 16.8a126 126 0 0 1-38.3 43.7 87 87 0 0 1-48.4 17.3c-.3 1.6-.9 3-.1 4.5 2 5 3.6 9.7 7.3 13.6 3.4 3.8 7.4 5.7 11.5 8.5-8 3.7-16.5 5.2-25.2 5.5-12.2.3-24.6-1-35.6-6.6-3.1-1.5-5.4-4-8-6.1-1.3-1-2.7-.7-4-.2-1.6 2.6-2.5 5.4-4 8-3 4.5-7 8.4-11.1 11.9a123 123 0 0 1-29 17 148 148 0 0 1-45.7 11.7q-9.5.9-18.8-.8c4.2-3.9 8.2-7.5 11-12.6 4.4-7.8 6-17.1 3-25.7-4.5-.6-8.4 1.2-12.8 1.3a81 81 0 0 1-55.2-19 67 67 0 0 1-22.8-32.8c10.3 3.7 22.2 5.7 33 3.7 9.5-2 16.7-8 22.2-15.8a69 69 0 0 0 11.2-46.3 116 116 0 0 0-11.3-34.1c-5.1-10.3-11.1-20.1-14.8-31.3a37 37 0 0 1-.6-18.4 76 76 0 0 1 13.4-28.1c4.1-6.1 9.7-11.4 13.3-17.6 2.4-4.6 4-10.4 2.8-15.5-1.6-7.1-4.7-14.2-11.4-17.8-8.4-4.4-19-4.8-28.3-5.9-3.5-.6-7.7-1.1-10.7-3.1s-4.3-5.6-4.4-9.2c0-6 3.3-12 3-18-.1-4.3-2.6-8-6.2-10.2-9-5.3-20-6.7-30.2-5.3a211 211 0 0 0-32 5.2 150 150 0 0 1-49.8 5.7q-13.3-1.7-25.7-6.8c-6.4-3-13.7-7.4-17.4-13.6-3.9-5.9-2.8-14.4-.7-20.7 3.3-9.5 9.8-18 16.9-25 7.2-7.4 17.2-12.4 24-20.1l-2.4-2.3c-2.1-.7-3.5.6-5.1 1.8q-4.5 3.7-9.1 7c-11.8 8-22.2 19-28.4 32q-5.8.4-11.3 2.3a95 95 0 0 0-28.6 15.4 44 44 0 0 0-16.6 24.6c-1.8 8.7.7 16.4 3.7 24.5 2 6.2 5 14 3.4 20.4-2.2 7-8.8 12.2-14 17-7.7 6.9-15.3 13.1-21.3 21.6-9 12-15.4 27.4-14.8 42.5.5 9 5.5 16.3 11.3 22.9q9.1 10 17 21c6.5 9.2 8.5 20 8.1 31.1.3 11.5-3.7 21-6.7 31.8a78 78 0 0 0-2.9 33.7 50 50 0 0 0 6 15.1c.9 1.7 3.5 1 5 1.2.1-1.9.7-3.5-.3-5.3q-2.9-5.3-4.5-11.2a43 43 0 0 1-1-14.2q6.8 9.1 14.3 17.8c8.9 9.5 18.5 19.2 29.2 26.7a47 47 0 0 1-36.5 36.8 55 55 0 0 1-60.4-26.9c-2.7-4.6-3.9-9.6-5.8-14.5l-3 .6c-19.4 9.8-42 13.8-63.6 10.6A96 96 0 0 1 76 594.4q10.6-2.2 19.9-7.7a58 58 0 0 0 26.1-37.3 7 7 0 0 0-.7-4.7c-2-.4-3.2-.6-4.9.5a60 60 0 0 1-14.3 6.8 40 40 0 0 1-31.3-1.9 55 55 0 0 1-25.3-30.5 106 106 0 0 1-5.5-43.3q8.4.2 16.7-1c3.2-.5 6.3-.6 9-2.8-1.5-5-3.4-9.6-4.3-14.6a49.6 49.6 0 0 1 31.8-56c8.4-3 17.5-3.4 25.7-7.2 8.4-4 16.4-9.4 21.7-17.3a98 98 0 0 0 11.6-26.2c3.5-10.9 4.6-21.6 6.7-32.8a52 52 0 0 1 7.9-18.8 68 68 0 0 1 29-22.8c19-8.4 38.6-8.6 58.8-12.1a46 46 0 0 0 27.7-14.6c6-6.1 8.8-14 14.6-20.3a62 62 0 0 1 36.7-21.1c8.1-.8 17.7-.1 24.6 4.6-3.5 3.1-7.6 5.6-11.3 8.5-1.1 1.1-3 2.3-1.9 4.1.7 2.4 3.4 2.4 5 1 5.7-4.1 11-8.5 17.2-11.9a125 125 0 0 1 25.4-10.3c26.7-7.3 54.4-9.4 82-11" fill="currentColor"/></g></svg>
