<svg xmlns="http://www.w3.org/2000/svg" viewBox="0 0 762 762"><g transform="translate(-65.6 -47.4)"><path d="M632.6 149.3c7.8-.3 15.9 1.3 22.5 5.6 5.4 3.5 9.8 8.9 12 15 .4 1.8.7 4-1.5 4.7-4.3.5-8.7-1-13-.6-12.5 1-24.6 6-33.1 15.3a65 65 0 0 0-16.5 34 33 33 0 0 0 4.3 23.3q17 11.4 33.8 23.2a125 125 0 0 1 38.7 42.4c7.6 14 12.4 29.7 15.6 45.2 4.2 20 5.8 40.5 6 61-.5 6.5-.4 13.1-1.4 19.5-1.4 2.4-5.9 3.7-8.4 4-2.7-.9-4.7-3.8-7-5.5a53 53 0 0 0-60.5-4.5c-4 2.4-5.7 6.4-9.4 9.1-4.9-3-7.4-7.7-11.6-12.1-6.5-7.6-14.2-14-21.5-20.7a71 71 0 0 1-14.7 14.5c-3.6 2.7-7.9 5-12.3 5.9q-3.2-.9-2-4a86 86 0 0 0 8-46.7 78 78 0 0 0-10.7-32.3c-.5 5.1-1.3 10-3.3 14.8-4.2 10.6-11 21-20.2 27.9-2.4 1.7-5.7 3.8-8.8 3.3-2.7-1.8-3-5.3-4.1-8.2-5.7-17-14.5-32.4-21.2-49.1a140 140 0 0 0 2.3 47.2c.2 1.4-.4 2.7-2 2.5-11 .8-22 1-32.8-.3q-3-.4-5.6-2c-10.6-4.7-18.6-15.6-24.8-25.1a165 165 0 0 1-17-39 155 155 0 0 0 7.8 55 54 54 0 0 0 7.4 14.8c.7 1.2 2 2.5 2.2 4-.5 2-2.4 3.3-4.4 3.4a631 631 0 0 1-28.8 1.8c-13.2.2-25.6.6-38.6-2.6-2.3-.7-4.4-1.1-6-3a72 72 0 0 1-13.4-22.6c-8-20.6-11-43-8.4-64.9-8.3 21-14.2 44.3-11.2 67 .3 3.8 2 7.1 2.7 10.8-1.3 2.7-4 3-6 1a114 114 0 0 1-31.5-52.1q-5.7 9.7-9.7 20.1a76 76 0 0 0-5.9 25.2c0 2.9-2.6 3.4-5 3.4a94 94 0 0 1-40-8.1q-1.2 6-2.8 11.7c-2.4 8.8-3.4 18-5 26.9-.6 3.9-.2 8-1.3 11.9-.6 2.8-4.8 2.3-6.2.3a63 63 0 0 1-15-45.2q.3-14.9 4.2-29.2a74 74 0 0 1-9.5-36.8 84 84 0 0 1 12.6-45 155 155 0 0 1 46-45.9c-16.4 7.3-31.5 16-44.3 28.6-2 2-3.5 4.5-5.3 6.7-2 1.3-4.1 0-4.3-2.4q-1-10.5.4-21a69 69 0 0 1 22-40.4 84 84 0 0 1 36-20.1c16.7-4.6 34.2-6.8 51.5-7.4 32.7-1.3 64.1 3.2 96 9.9 5 .7 11 3.2 16 1q15.5-5.6 32-7.4a171 171 0 0 1 130.7 44 41 41 0 0 1 2.2-22.6 62 62 0 0 1 53-39m-8 391.5c4-.2 8.2 1.6 12 2.5 2.6.3 3.2 3.8 1.5 5.4a58 58 0 0 1-15.6 10.4c-2.8 1.4-5.4.9-8.4.7-1.1-4.5 3.2-7.2 5-11 1.8-2.4 3-6.6 5.5-8" fill="black"/><path d="M645.4 156.7q9.7 3.1 14.9 12c-9.9-1.3-20.3.9-29.3 5-14.9 7.1-26 22-30.8 37.5a50 50 0 0 0-2.2 26.4c1.3 5.4 3.5 11.9 8.6 14.9q11.3 7.7 22.4 15.6a151 151 0 0 1 38.1 34.8c16 21.6 22.6 50.3 26.1 76.5q2.9 22.4 2.2 45.2c-.1 4-.3 8-1.6 12-4.2-3.4-8-7-12.7-9.7a60 60 0 0 0-55-3 48 48 0 0 0-11.6 9.6q-7.2-8.8-15.3-16.7c-4.7-4.5-9.9-8.3-14.4-13 2.7-4.7 5-10 6-15.4.3-2.2.6-5.3-1-7.1q-1.8-1.4-3.7-.5c-1.2 2.3-.5 5.3-1.2 7.8a56 56 0 0 1-24.3 32c3.6-10.6 6.4-21 6.4-32.2a84 84 0 0 0-18.6-54c-1.7-1-4.1-.3-4.2 2a55 55 0 0 1-23.8 49.5c-6.3-20.2-17-38.2-24.3-58-.9-1.9-1.9-5.2-4.5-5-2.7-.2-3.4 2.3-4 4.4-2.2 10.3-2 20.3-1.7 30.9.6 6.8 1 13.8 2.7 20.5-9.1.7-18 1-27-.1-5.5-1.9-11-5-15-9.2a99 99 0 0 1-18.5-27.5 108 108 0 0 1-11.5-33.7c-1-4.6-.5-9.5-1.8-14-.7-2.6-4.5-2.5-5.3 0-1.7 7.9-2.2 16.1-3 24.2-.3 14.7 1.2 29.8 4.9 44a95 95 0 0 0 10.8 26.9c-8.2.8-16.4.8-24.6 1.7-13.2.4-28 1-40.7-2.8q-3.4-4.4-6.4-8.7a121 121 0 0 1-11.8-89c.6-3 2.5-5.7 0-8.2-2.4-.7-3 .1-4.4 1.9q-8.4 12.6-13.1 27a127 127 0 0 0-7.3 61.2c-10.3-11.3-18-25-22.8-39.5a94 94 0 0 1-4.2-47.5c0-1.7.8-3.2-1-4.3-1.8-1.5-4 0-4.4 2a96 96 0 0 0 .6 39.2c-5 7.9-9 16.6-12.5 25.2-3 8.2-5.7 17-6.2 25.8-12.2-.3-24.5-2-35.7-7a62 62 0 0 1-23.4-19.5 69 69 0 0 1-10.1-46.4 86 86 0 0 1 18.3-42c14.8-19.3 33.7-32.2 54-45.1 1.9-1.2 4.5-2.2 5.8-4 .7-2.6-.7-3.1-2.4-4.4-26.7 8.1-52 20-71.8 40-.3-12 2-23.7 8.3-33.9a76 76 0 0 1 41.7-33.1c17.1-5.6 35.5-7.8 53.5-8.6 31.6-1.4 62 2.8 93 8.8 6 1 12 2.6 18 2.7q4-1 8-2.5c23.6-7.6 48.7-8.2 73-3.4a171 171 0 0 1 81.1 41.4c2.5 2.3 4.9 4.8 7.8 6.6q1.9-.8 3.5-2c1-2.7-1.7-5.8-2.3-8.5-2.6-8.4-1-17.7 2.6-25.5a58 58 0 0 1 29.8-28 42 42 0 0 1 29.3-2.2M201.5 352.8a76 76 0 0 0 17.1 15c-1 7.8-3.8 15-5.2 22.6q-2.3 11.8-3.8 23.7a56 56 0 0 1-9-20.5 98 98 0 0 1 .2-37.4zm425.4 193.7 4.4.8a48 48 0 0 1-8.3 5.6q1.7-3.4 3.9-6.4" fill="currentColor"/><use transform="translate(630.5 421.2)" href="#earrings-variant01-0b00a4bf"/></g></svg>
