<svg xmlns="http://www.w3.org/2000/svg" viewBox="0 0 762 762"><g transform="translate(-65.6 -47.4)" mask="url(#hairClipMask)"><path d="M373.1 179.5c7 1.1 13.9 1 20.8 2.5 12 2.4 24 5.8 36 8.9a1109 1109 0 0 0 98.7 22.4c21.5 3.8 44 6.9 64.6 14.5q17.1 6 32.6 15.3c4.8 3.7 8.7 9 12.1 14a255 255 0 0 1 31.3 68.7 497 497 0 0 1 16 64.6c2.2 7.6.6 16.3-.6 24-3.4 19-10 37-18.7 54.3a307 307 0 0 1-38.5 56.5 188 188 0 0 1-31.7 30.3 130 130 0 0 1-31.3 17.7c-1.7.4-3 1.4-4.3-.3-1.3-1-.3-3.6 0-5q5-17.1 7.3-34.7c1.3-8.9 1.2-17.9 1.6-26.8q0-15-1.9-30a196 196 0 0 0-36.4-91.2c-2.1 30.3.4 61.3 8.5 90.6q1.5 4.9 3.7 9.6c.4 3.3-2.2 4.6-5 3.5a277 277 0 0 1-139.1-109.7 162 162 0 0 0-16 26.4 190 190 0 0 0-16.5 96c-1 1.1-2 3.5-3.8 3.6-2 .3-3-1.4-4-2.7q-8.5-11.2-15.8-23.2a332 332 0 0 1-28.5-65.4c-7.1-23.2-13-47.3-15.1-71.6a287 287 0 0 0-51.6 88.8 169 169 0 0 0-10.6 49.3c0 3.3-3.7 3.1-5.4 1a135 135 0 0 1-25-36 168 168 0 0 1-15-87l-11.6 8.3a134 134 0 0 0-27.4 28.6c-1.4 1.8-2.2 3.7-4.8 3.3-2.7-1-1.1-4.1-1-6.2 3.1-12.7 8.4-25 14.4-36.5a287 287 0 0 1 59.7-75.3c29-26.3 63.2-48.6 100.5-61.2 4.6-9 9.8-18.2 16-26.2a38 38 0 0 1 16.6-12.6 39 39 0 0 1 19.2-1" fill="black"/><g fill="currentColor"><path d="M376 185.3c16.6 1.3 33.4 6.3 49.5 10.5 28 7.5 56 14.5 84.6 20 26.7 5.5 54 8 79.4 16.8a152 152 0 0 1 29.8 13c7 4.4 11.2 10.8 15.7 17.4q14.2 22.6 23.2 47.9a566 566 0 0 1 21.5 79.3c1.5 7.8.6 15.2-.8 23q-3.3 18-10.3 35.2c-9 23-22.6 44-37.7 63.3a270 270 0 0 1-25.6 28.4 156 156 0 0 1-38.7 26.5 228 228 0 0 0 5.6-95.2 195 195 0 0 0-41.9-95.8c-1.5-1.9-3.8-1.3-4.9.7-2.9 35.8-1 71.2 10.1 105.6A270 270 0 0 1 405 378c-18.7-29-31-61.9-33.9-96.4-.2-2.6-2.4-3.7-4.7-2.6-1.3 1.7-1 3.5-1 5.5a220 220 0 0 0 30 89.2c-5 7.2-10 14.4-14.1 22.3a185 185 0 0 0-20.4 68.4c-1.3 10.4-.9 20.6-.5 31a221 221 0 0 1-24.4-41.5c-14-30-23.5-62-29-94.6a307 307 0 0 1-3.8-41.9 229 229 0 0 1 6.4-51 218 218 0 0 1 23.5-56.5c5-8.1 11-17.9 19.5-22.5 7-4.2 15.8-3 23.5-2"/><path d="M317.6 227a217 217 0 0 0-20.2 90.4c0 5.7.6 11.4.7 17.1a296 296 0 0 0-47 72.4c-7.5 16.5-13.8 34-17.3 51.7-1 4.7-1.5 9.5-2.4 14.2a152 152 0 0 1-34.6-107.4c0-4.8 1.4-8.7-.2-13-1.4-1.4-3.5-.9-5.1 0-4 2-7.7 5-11.4 7.5-9 6-16.2 13.2-23.7 20.8a174 174 0 0 1 13-27.7c19.6-34.5 48-64.4 79.6-88.2a276 276 0 0 1 68.6-37.8"/></g><use transform="translate(630.5 421.2)" href="#earrings-variant01-0b00a4bf"/></g></svg>
