<svg xmlns="http://www.w3.org/2000/svg" viewBox="0 0 762 762"><g transform="translate(-65.6 -47.4)" mask="url(#hairClipMask)"><path d="M344.8 153.6c1.8-.1 3.6-1 4.7 1 1.6 2 1.1 3.4-.6 5a62 62 0 0 0-18.3 29.3c30-13.1 63.4-19.6 96-21q14-1 28 0a281 281 0 0 1 80.5 14.8c18.4 6.5 37 15.6 52 28.3a78 78 0 0 1 26.5 39.1c3.8-.2 7.3-.4 10.7 1.6 7.3 3.8 12.4 12 16 19.1a182 182 0 0 1 14.5 46.6c3.4 17.2 4.8 34.6 5.8 52 .1 13 .6 26.1-.8 39-.4 4.3-.3 8.7-1.3 12.9-1 3-4.4 2.7-6.9 3-8.3.3-17.8 1.7-25 6.2-1.3 2.5-1.5 5.6-2.7 8.2-2 2.3-4.8 4-7.2 5.8L598.2 458c-1.8 1.1-4.2 2.7-6 .6-1.3-1.2-1.3-2.5-1-4.2 3.2-19.5 2.8-40.2 2.2-60 .1-7.8-.9-15.4-1.3-23.2a54 54 0 0 1-19.3-5 78 78 0 0 1-34.2-32.8 63 63 0 0 1-8.2-36 1014 1014 0 0 1-159.8 13.3c-10.8-.3-21.5 0-32.2-1q-21.5-.8-42.8-4c-11.2-1.7-22.6-4-33.3-8-4.9 5-8 10.7-11.9 16.5-2.3 3.5-4 7.4-6.3 10.7a2.7 2.7 0 0 1-4.4.3c-1.2-2.3-1.6-5.2-2.1-7.8a62 62 0 0 1 4-37q-3.8-6.6-5.8-14a62 62 0 0 1 6.5-44.3 121 121 0 0 1 41.6-43.4 182 182 0 0 1 61-25" fill="black"/><path d="M245 285.7a37 37 0 0 0 11.9 9.6q-7.4 10-14 20.5c-1.2-9-1.5-17.8 1.2-26.6zM622.8 445c2 1.1 1.6 3.3 0 4.6q-12 10.1-25 19c-1.5 1-3.2 2-4.6.2-1.8-1.7 0-3.3 1.3-4.5q5.7-4.4 11.6-8.4 6-4.5 11.8-9.2c1.6-1 3-2.3 5-1.7" fill="black"/><path d="M340.5 160.5a63 63 0 0 0-15.3 27c-.3 2-1.3 4.7-.2 6.5q2.2 1 4.6 1.7c41.8-19 88.5-24.5 134-21.5a260 260 0 0 1 85.1 20.1c15.2 6.8 30.4 16 42 28a64 64 0 0 1 18 33l1.8 1.3c4.1-.7 7.6-1.8 11.5.4 6.4 3.7 10.8 11.5 14 18a199 199 0 0 1 14.4 50.4q3.1 19 4 38c.1 8 .9 16 .6 24-.4 10.5-.6 21-1.8 31.4-7.8.3-15.2 1-22.6 3.7-2.8 1-6.4 2.2-8.4 4.5-1.5 2.7-2 6-3 9l-21.7 15.6c1.5-9.3 1.4-18.7 2.1-28.2.5-9.4-.6-18.6-.7-28-.2-5.4-.2-10.7-.8-16-.5-4.7-.5-9-2-13.5-5.7-.8-11.2-1-16.6-3.2a71 71 0 0 1-37-34.2 52 52 0 0 1-5.5-34.7c-2.6-3.4-7.3-2.2-10.9-1.7a965 965 0 0 1-174.5 12.3q-15-.1-30-1.4c-17-1.5-34.6-3.6-51-8.6a57 57 0 0 1-17-8 48 48 0 0 1-12.7-43c3-16 12.6-30.5 23.9-41.8a165 165 0 0 1 75.7-41" fill="currentColor"/><use transform="translate(630.5 421.2)" href="#earrings-variant01-0b00a4bf"/></g></svg>
