<svg xmlns="http://www.w3.org/2000/svg" viewBox="0 0 762 762"><g transform="translate(-65.6 -47.4)" mask="url(#hairClipMask)"><path d="M462.6 212.4A224 224 0 0 1 567 255.1c4 3.3 8.3 6.2 12.2 9.7q16.3 14.4 29.7 31.3c24 30.7 40 67.6 45.4 106.3 1 6.7 2 13.3 1.5 20.2-4.1 2.9-8.2 1.5-13 2.5-5.8.7-10.8 3.1-16.2 5-2.8.1-2.7-2-3.6-4 7.5-5.3 18.3-7 27.3-7.7A218 218 0 0 0 577.2 271c-6-6.2-13-10.4-19.7-15.5-32.7-23-72-36.5-111.9-38.9-12.8-.2-26.1-.6-38.8 1.2a218 218 0 0 0-143 78.6l-4-1.5c.6-2 .6-3.7 2-5.3a224 224 0 0 1 146.8-77.9l12.5-1c14-1 27.7 0 41.5 1.7" fill="black"/><path opacity=".1" d="M445.6 216.6a219 219 0 0 1 112 39c6.6 5 13.7 9.2 19.5 15.3a218 218 0 0 1 73.2 147.5c-9 .8-19.8 2.4-27.3 7.8-3 2.2-6.2 4.5-9.8 5.8-1.5.7-3.3-1.2-3.2-2.7.3-3.5 1.5-6.9 2-10.4 2.2-13.8.6-28.4-4.6-41.4a41 41 0 0 1-16-1A57 57 0 0 1 567 360c-8.5-9-15.5-19.8-21.2-30.8a241 241 0 0 1-20.8-59.6 180 180 0 0 1-35 12.4 663 663 0 0 1-115.4 18.8c-15 1-30 2-45 2-13.7 0-27.4-.1-41-1.7-8.5-.6-16.5-2.9-24.8-4.7a218 218 0 0 1 143-78.6c12.7-1.8 26-1.4 38.8-1.2" fill="black"/><use transform="translate(630.5 421.2)" href="#earrings-variant01-0b00a4bf"/></g></svg>
