<svg xmlns="http://www.w3.org/2000/svg" viewBox="0 0 762 762"><g transform="translate(-65.6 -47.4)" mask="url(#hairClipMask)"><path d="M474.7 135.5c2.7-1 4.9.6 5.8 3a38 38 0 0 1-1.7 24 54 54 0 0 1 20.8-7c16.4-2 32.5 2.3 46.9 10a133 133 0 0 1 30.8 24.2 93 93 0 0 0 34.4 23.6 38 38 0 0 0 23.4.6c2-.4 5.2-1.7 6.9.1 1.7 1.5.7 4.3.4 6.2a53 53 0 0 1-18.7 29.4 61 61 0 0 1 30.7 28 90 90 0 0 1 9.9 43.8c.1 10.6-2 21-5.2 31a53 53 0 0 1 13.5 31 74 74 0 0 1-7.7 40.5c-.9 1.8-2.6 1.2-4.3 1.2q-6.4-.8-13-.6c-5.8.2-11.5 2-16.8 4.1-2.1.8-4 1.7-6.2 1.2-7.4-1.4-13.6-5.5-20.8-7.9a122 122 0 0 1 8.9 13.6c.7 1.4 1.7 3.2 1.7 4.9-.2 2.4-3.5 3.2-4.7 1-4-7.3-8.2-14.2-13.6-20.5-2.6-2.6.4-6.2 3.5-5.7 4.2.7 8.3 2.7 12.4 4-3.6-5-7.2-10.3-11.5-14.7-2-2.2-4.8-3.9-6.7-6.2-.3-1.4.2-2.8.5-4.1a81 81 0 0 0 .9-44.6 79 79 0 0 0-16.3-32.9q-7.9-3.2-15-7.5C552.4 302.4 543 293 532 286a52 52 0 0 0-49.5-2.6c-1.5.6-3.1.4-3.6-1.4-1.4-2.7.5-4.4 1.8-6.6q7.2-10 15-19.7-10.9 6.2-19.7 15a37 37 0 0 0-6.5 8.8l-5 .5c-2.4-2.9-3-6.1-6.4-8.2-6.3-4.1-15.4-3.7-22.5-2.4-18.9 3.8-37.4 10.1-57 10.7a53 53 0 0 1-31.7-8.6c-7.4 5-15.2 8.9-24.1 10.5a99 99 0 0 1-43.3-2.7c-7.6 6.1-12.8 13.6-18.9 21-6.1 8-12.2 16.3-16.8 25.2-1 1.5-1.8 3.6-3.3 4.7a30 30 0 0 1-13.9 4.3 37 37 0 0 1-24.5-5.7 28 28 0 0 1-11-18.5 57 57 0 0 1 3-29.5c.7-2.3 3.6-3.2 4.9-1 2.2 4.5 3.2 8.8 8.4 10.8 4.6 1.4 10.4-1.1 14.7-2.8a41 41 0 0 1-12.3-35 96 96 0 0 1 27.3-54 84 84 0 0 1 42-24.2c6.3-1.5 13-3.2 19.5-2.8 2.4 0 3.1 3.4 1.3 4.8a33 33 0 0 0-9 32.1c3.4-5.7 6.5-11.3 10.8-16.3a96 96 0 0 1 62.9-32.2c9.3-1.4 18.6-1.2 28-2 23.3-.5 46.7-3.6 67.9-14 5-2.4 9.2-6.4 14.2-8.8" fill="black"/><path d="M604.4 436.6c2.2 3.5 3.8 7.5 5.6 11.3.9 2.2 2.3 4.4.8 6.8q-1.7.8-3.4 0c-1.9-2.6-2.8-6-4.3-8.9-1.4-3.5-3.7-6-3.2-10 1.5 0 3.5-.8 4.5.8" fill="black"/><path d="M475.4 141.6c1.5 7-.1 14.8-3.2 21.3-.9 2.2-3.4 4.8-2.2 7.2.6 1 2.4 2.2 3.6 1.4 4-2 7.6-4.6 11.7-6.4a53 53 0 0 1 28.3-4.1 89 89 0 0 1 46.6 20.8c8.2 6.5 14.8 14.4 22.9 21.1 8.5 7 18 13.3 28.6 16.5a43 43 0 0 0 24.9.2 54 54 0 0 1-12.5 22.2c-2.7 2.6-6 4.1-9 6.1q-2.4 2-.8 4.7c3.4 1 6.8 1.5 10 3 8.1 4 15.3 10 20.6 17.5a81 81 0 0 1 13.3 37.3c1 12.2.3 24.4-3.4 36.2-.6 2.3-1.8 4.4-2.2 6.7 2.4 3.3 5.8 5.8 7.7 9.5 9.7 16.7 8.5 36.3 1.6 53.8-.5.9-.8 3.2-2.3 2.6q-14.3-1.8-27.8 3.4c-2 .6-4 1.8-6.2 2q-2.3-.5-4.5-1.3a107 107 0 0 0-21.4-26.7 91 91 0 0 0-12.4-77.9 53 53 0 0 0 31.9-5.7c3.3-1.6 6.9-3 9.8-5.2 2-2.2.1-4.9-2.5-5-10.5-.2-19.6-7.6-26.1-15.2-5-6.3-10.1-13.2-9.3-21.7l-2.5-.8-2.6 1c-1.6 5.4.4 10.1 2.9 14.9a58 58 0 0 0 28.7 26.3 51 51 0 0 1-25 6.3 55 55 0 0 1-23.4-8c-11.7-6.6-20.9-15.5-31.9-23a53 53 0 0 0-21.7-8.9c-9.2-1.2-18.9-1-27.8 2q7.4-10.5 15.8-20.3 2.2-2.5 4-5.1c1-1.4.4-3.7.4-5.3-2.1 0-4-.2-6 .9a96 96 0 0 0-35.1 27.5A22 22 0 0 0 456 265a53 53 0 0 0-28.4.5c-18.2 3.9-37.2 10.2-56 8.7a43 43 0 0 1-31.1-16.6 44 44 0 0 1-3.4-44.6 58 58 0 0 1 26.3-26.1 28 28 0 0 0 1 13.8 25 25 0 0 0 16.2 15c9.2 2.9 19.3 3.4 28.5 6.5 1.7.5 3.7 1.4 5.5 1.2 1.4-.1 2-2 2.7-3-1.6-1.4-3-2.7-5.2-3.4-8-2.8-17-3.8-25.5-5.6q-5.4-1.2-10-4c-5.8-4-9.1-11.7-7.5-18.7 1.2-4.4 5.2-5.3 8-9l-1.2-3c-4.7-.5-9.3 2.6-13.6 4.4a62 62 0 0 0-32.8 35.4 49 49 0 0 0 13 51.8 75 75 0 0 1-11.4 5.8c-9.6 3.9-20.3 4-30.5 3.3a81 81 0 0 1-48.7-19.2c-2-1.9-3.2-4.4-5.2-6.4q-3.2-.4-3.4 2.7c0 3.7 3.4 7 6 9.2a90 90 0 0 0 24 14q-5.2 5-9.9 10.6c-8.5 10.4-17.5 21.3-23.9 33.1-1.6 3-3 5.6-6.4 6.7-7.2 2.1-16 1.8-23-1.1a21 21 0 0 1-11.6-11.6 45 45 0 0 1-1.3-25.2c2.9 2.6 5.4 5.6 9.4 6.3 6.6 1.2 12.6-1 18.5-3.6 2-1 3.8-2.2 4.3-4.5 0-2-2.1-3-3.4-4.3-5.7-4.7-9-11.4-10.3-18.6-1.4-9.4.3-18.6 3.4-27.5a100 100 0 0 1 27.6-40.3 82 82 0 0 1 43.7-19.3c-4.1 7.9-7 16-6 25.1.5 4 1 8.6 3.2 12 1.6 1.5 3.8 3.9 6.1 2.2 3-10 9-18.5 16.2-26a94 94 0 0 1 51.8-25c11.3-1.7 22.5-2.2 34-2.5 23.3-1 45.8-4.1 67-14.5 4.6-2.2 8.5-5.3 12.7-8" fill="currentColor"/><use transform="translate(630.5 421.2)" href="#earrings-variant01-0b00a4bf"/></g></svg>
