<svg xmlns="http://www.w3.org/2000/svg" viewBox="0 0 762 762"><g transform="translate(-65.6 -47.4)" mask="url(#hairClipMask)"><path d="M331.6 161c19.4-1 39.6 1 58 7.4 1.8.8 3.3.1 5-.2 13-3.2 25.8-3.4 39-2.8a147 147 0 0 1 55.7 16.3c1.5.6 2.7 1.5 4.3.8q9-3 18.2-5.6c14-3.7 28.4-3.8 42.8-3.1a156 156 0 0 1 47.7 13c15.7 7.1 30 17.4 42 29.9a84 84 0 0 1 22.5 43.7 72 72 0 0 1-3 36.2 42 42 0 0 1-9.5 16.6c-1.8 1.6-5.5 1-5.6-1.8-.5-4.7 0-9.3-1.2-14a49 49 0 0 0-19.4-28.8q2 5.5 4.3 10.9c5.2 9.6 9 20.3 12.5 30.7a440 440 0 0 1 18.9 79.2c.9 10 2.5 21 .4 30.9-.4 2-1.2 4.1-3.6 4.3-4-.3-7.9-1.3-12-.7a90 90 0 0 0-42.2 17.3l-2.8 1.4c-2-.6-2.8-1.8-3.3-3.7-1.7-5.8-2.7-11.7-4.8-17.4-1.8-5-4.3-9.4-6.6-14.3-2.4-5-4.4-10.4-7-15.4a90 90 0 0 1-24.7 15.2c-5.4 2-10.2 4.2-16.1 4-.6-2.3-1-3.4.7-5.4 4.7-5.7 7-13 8.3-20.2a47 47 0 0 0-8.3-33.2 85 85 0 0 0-23.6-20.4c-5.2-3.3-11-5.7-16.2-9-1 25.8-11.1 51.4-28.6 70.4q-6.1 6.6-14 11c-1.1.5-2.5 1.5-3.7 1.2-2-.4-3.2-2-2.6-4 1-4.3 2.8-8.4 3.5-12.8 2-12.5-.8-25-5.7-36.5a90 90 0 0 0-12.6-19.6 163 163 0 0 1-25.8 54.8c-3.1 3.7-6.4 7.8-10.5 10.4-2 1.1-5.2.5-5-2.2.2-5.6 1-10.8-.5-16.2a85 85 0 0 1-6 17c-1 1.5-2 3.1-3.9 3.5-1.4.3-2.8-.8-4-1.4-22-14-41.5-31.5-57.4-52.1q-6 17.6-5.8 36.1c0 3.5 1.4 7.3.8 10.7-2.1 2-5 .7-7.4 0a114 114 0 0 1-43.2-29.7 89 89 0 0 1-23-43.8c-6 9.5-11.6 19.5-15.7 30-1.1 2.6-1.2 7.1-4.4 7.8-1.5.8-3-1.2-3.6-2.4q-4.7-10.6-6.1-22.2a35 35 0 0 0-5.8 9c-.7 1.4-1.6 3.5-3.4 3-2 .3-3-2.7-3.4-4.2a131 131 0 0 1-6.8-40.2 75 75 0 0 1 19-50.2 70 70 0 0 1 32.3-22q0-10.6 4.5-20.2a78 78 0 0 1 30.9-33.2 106 106 0 0 1 47.5-13.8" fill="black"/><path d="M621.4 436.6a2.6 2.6 0 0 1-.2 4.3c-4.6 3.5-9.6 6.5-14 10l-7.3 5.8c-1.1 1-3 2.2-4.2.8-1.6-1.8-.5-3.7 1-5q9.5-8.2 20-15c1-.8 3.7-2.4 4.7-1" fill="black"/><g fill="currentColor"><path d="M333.6 166.6c18.3-.6 36.7 1 54.2 6.7 7 1.8 12-1 18.8-1.5 15.5-2.2 31.7-.9 47 2.6 28 6.7 53.4 22 74 42 3.4 3.2 6.3 6.7 10 9.6 1-.8 2.8-1.3 2.8-2.7.4-2-1-3.1-2.2-4.5a180 180 0 0 0-39.5-31.9 145 145 0 0 1 25.9-6.7c13.3-1.4 26.5-1.7 39.8.7 17.4 3.4 34.8 9.4 49.9 18.8a130 130 0 0 1 27.9 23.2 75 75 0 0 1 20 49.5c.3 11-2.8 21.6-7.8 31.3-1-8-3-15.8-7.3-22.8a51 51 0 0 0-23.7-21.1c-2.4-.8-4.8 1-4.3 3.6 1.2 3.5 3.2 6.6 4.6 10a61 61 0 0 1 5.7 33c-2 16-10.1 29.7-21.3 41 6-26.2-1.6-54.8-20.3-74.1-1.4-1.6-3.9-1.7-4.9.3-.8 2.5.9 3.6 2.3 5.3a76 76 0 0 1 7.3 91.4 80 80 0 0 1-42.2 33.2 52 52 0 0 0-7.6-59.2c-9-9.8-20.2-17-32.2-22.8-2.9-1.4-6.8-3.4-8.5-6.2q-1.4-10.4-5.4-19.8c-.6-1.3-1.4-2.8-3-3-1.9-.2-3.6.9-3.1 2.9 2 5.6 4.4 11 5.2 17 1.5 7.8.3 15.2-.7 23-2.9 16.8-9.4 33-19.7 46.6a62 62 0 0 1-14.6 14.7c3.3-11.5 3-23.8-.5-35.3a83 83 0 0 0-20.4-34.9q7.2-28.7 4.3-58.1a131 131 0 0 0-12.2-42.5c-1.2-2.3-3-1.5-5.1-1.2q-.3 3.3 1 6.3a132 132 0 0 1 11 65.2 187 187 0 0 1-14.6 59c-5.3 12.6-12 24.5-21.4 34.4.2-8.8-1.4-17.9-4.2-26.2-.4-2-1.5-2.6-3-3.7-3.4 2.4-2.5 6-3.2 9.7q-1.2 12.6-6.4 24.1a210 210 0 0 1-41.2-33.3 183 183 0 0 1-36.5-53.3 112 112 0 0 1-10.6-46.5 67 67 0 0 1 9-35.9 61 61 0 0 1 26.8-24 90 90 0 0 1 32.1-8c3.2-.4 2.4-2.3 2.8-4.7q-2.9-.9-5.8-.7a83 83 0 0 0-45 16.4 67 67 0 0 0-24.7 42.9c-2.5 14.6-.7 28.9 2.9 43.2q-8.8-6-16.5-12.9a88 88 0 0 1-20.7-29.3 48 48 0 0 1-3.1-28.5 66 66 0 0 1 27.3-36.3 99 99 0 0 1 50.8-16"/><path d="M249 233.6c1.7 13.4 8 24.8 15.8 35.7 8.7 11.6 20 20 32 28 2.4 1.4 2.7 3.8 3.8 6.2 5 13.1 12.4 25.6 20.4 37.2a111 111 0 0 0-6.6 46.7 107 107 0 0 1-39.8-27 85 85 0 0 1-22.3-42c-1.2-8.3-1-17.8 3-25.4.7-1.9 2-3.7 1.8-5.8-1.3-2-3.4-2.3-5-.4a45 45 0 0 0-6.4 21.6c-.2 3.4-2.6 6-4.3 8.8a182 182 0 0 0-15.7 29.9q-3.2-8.6-3.8-17.7-.2-3.3-1.6-6.3c-1.2.4-2.4.6-3.4 1.6-3.2 2.7-6 6.2-8.6 9.6a126 126 0 0 1-5.3-33.9 71 71 0 0 1 15.6-44c8-10 18-18.7 30.4-22.8m386.6 67.9.1.4a427 427 0 0 1 20 73.7c2.3 13.7 5 29 3 42.8a62 62 0 0 0-15.1.4 97 97 0 0 0-38.4 16q-1.7-6.7-3.7-13.2c-2.4-7.6-6.9-14.6-10.1-22q-2.4-6-5.7-11.4 13.5-14 20-32.4c7-4.3 12.6-11.3 17.3-18a68 68 0 0 0 12.6-36.3"/></g><use transform="translate(630.5 421.2)" href="#earrings-variant01-0b00a4bf"/></g></svg>
