<svg xmlns="http://www.w3.org/2000/svg" viewBox="0 0 762 762"><g transform="translate(-65.6 -47.4)" mask="url(#hairClipMask)"><path d="M357.8 186c2.2-.3 5-1 7 .3q1.9 2.2.2 4.6c-1.7 2.1-4.2 3.8-6.4 5.5a76 76 0 0 0-9.3 9 388 388 0 0 1 129.3-7.7 287 287 0 0 1 86 21.7c14.5 6.6 29 15.3 39.9 27.1a52 52 0 0 1 14.7 31.9c4 .7 8 1.5 11.5 3.9a51 51 0 0 1 16.8 22.2 159 159 0 0 1 11.4 44.7c1.4 14.2 2.3 28.4 1.4 42.7-.8 9.5-1.3 19-3 28.5-.2 1.3-.3 2.5-1.8 3-6.7.7-14.4.7-20.7 3.2a148 148 0 0 0-25.7 12.3c-1.3.7-3 2-4.5 1.7a3 3 0 0 1-2.3-4.5c2.5-5.4 5.7-10.5 8.7-15.8-6 2.7-12.1 5.1-17.7 8.6-1.7-1.2-3.4-2.1-3.6-4.5-.8-10.4-.6-21-1.6-31.4q-2.1-1.9-4.6-3.5a167 167 0 0 1-18.1-13.9q-2.4-2-4-5a239 239 0 0 1-20-74.8q-11.7 0-23.3-1.6c2 1.8 4.8 3.5 5.6 6.2-.6 2.4-2.5 3-4.5 3.9a139 139 0 0 1-51.6 8.3c-28.2-.4-56.4-6.5-82.4-17.3 3.6 4 7 7.9 11.2 11.3 1.5 1.4 3.6 2.9 4.4 4.8q-.8 4.3-5.2 3.9c-17.5-1.6-34.7-5-52-8.3 0 5.9 1.3 11.6 1.6 17.5-.5 2-3 2.4-4.6 1.4q-2.2-1.6-4-3.4c-9-8.6-17.7-17-25.4-26.6-1.4-1.5-2.7-3.7-4.8-3.9-7.5-1-15.2-2.3-22.8-2.5-4-.3-8.1 2.5-11.7 4.1-4 2.3-8.7 3.9-12.2 6.8q-5.5 7.2-10.3 14.9a3 3 0 0 1-1.7 1.4 41 41 0 0 1-22.4-11 74 74 0 0 1-17.7-31.3c-.5-2-1.3-4.9.9-6.2 1.8-1.1 4.5.3 6.3 1 6.4 3.1 12.3 6.6 19.3 8.3a32 32 0 0 1-2-18.9 66 66 0 0 1 24.5-40.3c3-2.3 6.3-5 10-6.2 2.8-1 5.1 1.6 4.5 4.3-1.3 5.3-3.6 10.3-5 15.6a185 185 0 0 1 40-29.2 182 182 0 0 1 51.7-16.8" fill="black"/><path d="M617 436.7c2-1.2 4.5 1.3 3.6 3.5-1.6 1.8-4 3-6.1 4.1q-9.1 5-17.9 10.4l-2.7-1.1c.2-1.3 0-2.9 1.1-3.8 3-2.6 7-4.4 10.4-6.6 3.9-2.1 7.6-4.6 11.5-6.5" fill="black"/><path d="M354.7 192.4c-5.2 4.8-10 9.5-13.8 15.4q-1.2 1.8-.7 3.8c1.9 1.8 3.7 1 6 .6 40.5-10.5 83.7-13 125.4-9.5 29.5 2.8 59.9 8.8 87.2 20.5a128 128 0 0 1 38.1 23.9 51 51 0 0 1 15.7 26.3c.7 2.9.1 6.7 1.7 9.3 1.4 2.4 4 1.6 6.4 2 5 .2 9.7 4 12.9 7.7A77 77 0 0 1 647 320c3.9 13.1 6 26.9 7 40.5 1 19.3.7 38.7-2.1 57.9-6.6.8-12.9.9-19.2 3.2-7.3 1.8-14.3 5.9-21.2 9.1 2-3.7 4.4-7.4 6-11.4a6 6 0 0 0 0-4.7c-2-1.6-4-1-6.1-.2q-8.2 3.3-16 7.3c-1-10.2-.9-21-1.8-31.1-2.4-3-6.2-4.7-9.2-7-5.8-4.1-12.3-8.3-17.1-13.5a292 292 0 0 1-15-42.6 172 172 0 0 1-5.7-35c-1-1.4-3.4-2-5-2-9-.3-18.3-.4-27-2.3-2.4-.5-4.5-.8-6.1-2.7-3.5-3-6.3-7.3-10.2-9.8-3-.7-4.4 2.2-2.6 4.5q9.4 10.3 19.9 19.3c-15 5.7-32 7.6-48.1 7.6-30-.7-60.1-7.6-87.5-20.3-2.2-1-3.7-1-5.8.4-1.4 2.5.1 4 1.6 6q7.1 8.2 14.8 15.8c-15-1.5-30.1-4.5-45-7.2-2.9-.5-5.9-.2-7 2.9-1 4.1 0 9 .6 13.2-7.5-7.5-15.2-15-21.9-23.2q-8-9.7-15.4-19.6c-1-1.1-2.6-2.9-4.2-2.3-2 .6-2.2 3-1.2 4.6 2 3 4.5 5.9 6.6 8.9-6-1.3-12-1.3-18-2.2-2.4-.2-4.4-.7-6.6.4q-11.1 5.2-21.8 11.1c-4.2 4.3-7.2 10.1-10.7 15-6-1.2-11.7-4.1-16.2-8.4a67 67 0 0 1-16.2-27.2c6.7 3.1 14.4 7.6 21.9 7.8 2.2 0 5 .2 6.3-2 1.2-1.8-.4-3-1.3-4.3-3.4-4.3-3.4-10.2-3-15.4a62 62 0 0 1 26.9-41.6c-2 6.4-4.6 13.3-5 20-.2 3.1 3.3 4.2 5.2 2.2a185 185 0 0 1 42.3-32.7c15-8.1 31-13 47.7-16.5" fill="currentColor"/><use transform="translate(630.5 421.2)" href="#earrings-variant01-0b00a4bf"/></g></svg>
