<svg xmlns="http://www.w3.org/2000/svg" viewBox="0 0 762 762"><g transform="translate(-65.6 -47.4)"><path d="M564 .8c1.9-.6 3.6-1.2 5.6-.6l2.4 3c-3.4 5-6 10.4-8.7 16a181 181 0 0 0-19.5 82.3 383 383 0 0 1 105 5.6c2 .4 3.5 1 3.7 3.3.1 3-2.8 3.5-5 5a178 178 0 0 0-30.9 25 201 201 0 0 0-36.5 51.2c30 5.2 59 20 83.1 38.2 2 1.5 4.5 3.2 5.7 5.5-.5 4.1-4.6 4.3-7.7 5.7a254 254 0 0 0-54 27.4q19.3 12 36.2 27.2c1.6 1.7 3.6 3 3 5.7-.1 1.8-2.9 2.9-4.3 3.6q-11.7 5-23.8 9.1c-2.3.8-3.3 0-4.5-1.9a194 194 0 0 0-39.8-44 215 215 0 0 0-39.3-26.8c-2.7-1.3-5-2.6-8-2.5q-8.6 0-17.1.5c-32 2.5-63.6 10.3-93 23.1-15.6 7-31.3 15.6-44.4 26.6-2 1.6-4 4.1-6.6 5-5.8-1-11.5-3.4-17-5.4-18.8-7-35.1-20-49-34.2Q283.3 237.8 271 218c-6.2-9.5-12-19.1-16.4-29.6-1.4-3.2-3.2-6.6-3.7-10.1 0-1.3 1.2-3.6 2.8-3.2 3 1 6 2.9 9 4.2a92 92 0 0 0 18.5 6.3c12 3.4 24.6 5.8 36.9 8.3-1.2-7.7-1.2-15.4-.9-23.2a202 202 0 0 1 15.4-63.4 230 230 0 0 1 24.3-44.9A213 213 0 0 1 393.5 21c2.6-1.9 5.4-4.4 8.7-2.2 2.2 1 1.1 3.7 1 5.5-3.7 17-.4 34.6 4.3 51.2 2.6 9.3 6.7 17.9 11 26.5q5.3-7 11.5-13.3a420 420 0 0 1 69.8-55.3A344 344 0 0 1 564 .8" fill="black"/><path d="M563.3 7.3a193 193 0 0 0-25.1 81.1l-.1 16.3c1 .8 2 2.5 3.5 2.5 6.3-.5 12.6-1.5 19-1.5 11.3 0 22.5-.3 33.8.7 16.3.4 32.3 2.8 48.4 5.6a202 202 0 0 0-38.6 33 234 234 0 0 0-29.6 44.4c-.8 1.8-2.1 4-1 5.9 1 1.3 2.5 1.1 4 1.4q9 1.3 17.8 4.1a213 213 0 0 1 65.5 34.6 250 250 0 0 0-55.9 27.4c-2.3 1.8-7.8 4-5.6 7.7 3.1 2 6.6 3.3 9.6 5.5 10.6 7.1 21 15 30.3 23.8q-10.5 4.4-21.2 8.1a201 201 0 0 0-36.2-40.8 218 218 0 0 0-48.8-33q-3-1.3-6.5-1.1c-37.5 0-75 8.4-109.5 22.9-19 8.2-37 18.2-52.6 32q-9.2-2.7-18-6.5a119 119 0 0 1-31-20 204 204 0 0 1-32.3-35.6c-9.3-13.5-18.3-26.5-24.8-41.7 18.1 8 38.8 11.3 58.2 15 2.6 0 6.3 1.9 7.4-1.5-.1-2.8-.8-5.5-1.1-8.2-1.4-9.7 0-20.3 1-30A226 226 0 0 1 362.3 65c10.2-14.6 21.6-28 35.1-39.6q-2 13.4-.6 27a144 144 0 0 0 13.9 47c1.7 3.1 3 6.9 5.3 9.7 1 1.3 3.5 1.7 4.4 0 5.2-8.9 12.8-15.6 20.2-22.8a456 456 0 0 1 62.1-47.8c19.3-12 39.5-23.2 60.7-31.2" fill="currentColor"/><use transform="translate(630.5 421.2)" href="#earrings-variant01-0b00a4bf"/></g></svg>
