<svg xmlns="http://www.w3.org/2000/svg" viewBox="0 0 762 762"><g transform="translate(-65.6 -47.4)"><path d="M363.8 24.4q2-.6 4-.6c2 3.8 3.1 7.7 4.8 11.7q5.9 14.1 14 27c9.1 14.9 19.1 29 30.8 42 5.7 6.5 11.8 12.4 17.4 18.8a117 117 0 0 1 50.6-41.2c11.6-4.9 24-8.9 36.3-11.5 2.3-.3 5.3-1.4 6.8 1 1.3 1.9-1 5-2 6.7-6.2 9.3-9 20-10.2 31.1a60 60 0 0 0 2 18.8 419 419 0 0 1 47.3 4.9c9.5 1.3 18.3 4.2 28 3.9a391 391 0 0 0 64-3c4.3-.4 8.7-1.1 13-1 2.6 0 4.4 1.7 4.5 4.3q0 7.9-.7 15.6-1.3 14.2-9.1 26.1 13 5.3 26.3 10.4c19 7.1 37.2 14.2 57 19 2.3.5 3.7 3 2 4.8q-15.3 13.4-31 26.3c-8.9 7.5-18 16-28.5 21.3a273 273 0 0 1 7.8 91.8 230 230 0 0 1-16 69q-1.3 4-3.7 7.5c-.7 1-2.3 1.2-3.4.8-3-1-6-2.7-9-3.7a51 51 0 0 0-38.2 3.2c-4.6 2.3-6.8 6.1-10.4 9.6q-8 8-16.9 15.1c-2.8 2.2-6 4.8-9.7 4.6-1.5-.9-2.4-1.4-2-3.3 1-4.9 2.7-9.5 3.4-14.5a257 257 0 0 0-1.4-79.5c-1.8-10.5-4.1-23-12.4-30.6-9.6-9-18.2-18.9-27.3-28.4-2.5 20.7-10.2 41-20 59.3-8.7 16-19.8 31.4-33.4 43.6-1.8 1.5-3.7 3.3-6 4-2 .4-5.9.1-5.2-2.9.5-3.7 1.8-7.2 2.4-11a184 184 0 0 0-2.3-70.6 111 111 0 0 0-18.2 41.1 70 70 0 0 0 .7 38c-1.4 1.1-1.9 2.8-4 2a117 117 0 0 1-55.5-42.1 94 94 0 0 1-25.1-10.1 92 92 0 0 1-30-30.8 135 135 0 0 0-5 21.5 135 135 0 0 0 4.2 61q.8 2.1.6 4.2a7 7 0 0 1-8 1.3c-17-6.3-31.4-17.2-43.2-30.8a149 149 0 0 1-22.8-34.2q-6 5-11.4 10.6a309 309 0 0 0-43.8 58.2 178 178 0 0 0-15.8 34c-.9 2-1 4-3.5 4.8-3-.6-3.4-3.3-4.4-5.7q-6-17.7-7.7-36.4c-2.4-20.8-1.5-42 2-62.5a144 144 0 0 0-35.6 10.9c-3.3 1.5-6.2 3.8-9.4 5.4-3.3-.3-3.5-3-3.2-5.8a209 209 0 0 1 44.1-97.6 76 76 0 0 1-29-46c-.4-2.7-1.6-6.5 1.4-8.3 4-.8 8.7.4 12.8.6a129 129 0 0 0 47.4-5.3c7.3-2.3 14.6-4.6 21.4-8.3a215 215 0 0 1-35-75c-1.2-5.2-3-10.7-3.2-16.1 0-2.5.6-4.8 3.4-5.2 3.1.1 6.1 3 9 4.2 20 10.5 41.3 19 63.2 24.7a366 366 0 0 0 46.5 7.5q-2.4-19.3 2.3-38.2 5-20.1 14-39c4.1-9 9-17.6 13.4-26.6 1.1-2.1 2.2-4.6 3.8-6.4" fill="black"/><path d="M365.4 33.2a230 230 0 0 0 27.2 49.2Q402 95.9 413 108c5.9 6.6 12.4 12.3 18 19 1.8 1.8 2.9 4.4 5.8 3.7 2.3-2.4 3.8-5.6 6-8.3 7.4-9.7 16.5-18.4 26.7-25.2a166 166 0 0 1 51.1-20.5 68 68 0 0 0-6 56.8c1.6.6 3.5.3 5.1.3 8.3-.2 17 1.2 25 2q18 2.3 36 6c4 1 8 .3 12 .4 16 1 32 .5 48-.6 9.7-.8 19.2-2.3 28.9-3l-.9 13.8a53 53 0 0 1-8.8 24.6q-14.9-5.9-30.4-10.3c-1.9-.4-3.5-1-5.1.4q-.3 1.6-.4 3.4c5.7 2 11.5 3.4 17.2 5.5 17.6 6.4 35 13.8 52.5 20.4 16 6 32.4 12.2 49 16.6a915 915 0 0 1-26.4 22c-8.6 6.9-17 15-26.7 20.1q-3.8-12.1-9.1-23.5c-.8-1.4-1.2-2.7-2.9-3.2-2-1-4 2.1-3 4 1.6 4.3 3.8 8.4 5.4 12.8a249 249 0 0 1 13.9 97.4 227 227 0 0 1-18 80.9c-13.5-6.2-29-7-43-2.3q10.9-14.9 18.8-31.6a48 48 0 0 1 2.4 11.8c.3 2.1-.3 4 1.5 5.6q3.3.7 3.8-2.6a41 41 0 0 0-3.4-18.2c-.9-1.9-2-4.8-4.3-5.1s-3.2 1.4-4 3.2a197 197 0 0 1-29.6 46.6c-6.4 7.4-13.8 13.7-21.2 20.1q3-12.4 3.8-25c.4-8 1.2-15.7.6-23.6a250 250 0 0 0-8.2-59.1q12.3 9.8 25.6 18.2c2 1.1 4.3 3.8 6.9 3 2.1-1.1 3-4.1 3.6-6.3 4.4-18.7 5-38 2.1-57-2-13.1-4.7-27-10.3-39-1.2-2.3-2.4-5.2-4.4-6.9-1.9-1.4-4.2-.3-4.2 2.1 1 3.7 3.4 6.9 4.7 10.5 5.3 13 7.8 27.6 9.5 41.5q2.8 24.4-2.7 48.4a247 247 0 0 1-31.7-22.9c-13.2-11.5-24.8-24.8-37.2-37.8-7.1-8.2-14.6-16.5-20.1-25.9-4.5-7.3-9.2-14.4-12.7-22.3q-4-9-8.6-17.4c-1.9-3.3-2.9-7-4.7-10.4-2-.4-4-.1-4 2.3.4 4.4 3.1 8.8 5 12.8 4.7 8.5 8 17.7 12.8 26l8.7 14.5c4.5 7.2 9.9 13.3 15.3 19.8a160 160 0 0 1-20 62.8c-8.4 15.1-18.9 30-32 41.4 3.9-19.4 3.8-39 1.8-58.5-1.4-8.5-2.2-18-5.6-26-2.8-2.8-4.3.4-6 2.4-17 22.2-26.7 52-22.5 79.9a105 105 0 0 1-31.4-20.4 146 146 0 0 1-39.6-67.7 180 180 0 0 1-6.5-48c.5-14.2 1.8-28.2 6.1-41.8 1.3-4.4 2.2-8.7 4-13q5.4-11.6 13.2-21.7a140 140 0 0 1 33.3-31.6q10.5-7.3 22.8-10.6a85 85 0 0 0-4 40.7c.3 1.7.3 3.5 1.7 4.7 1.7 1.7 4.9-.3 4.4-2.6a85 85 0 0 1 1.8-36.3c.8-3.1 2.6-5.9 3.6-8.9.3-2.7-3-3.7-5-3.7A72 72 0 0 0 436 151c-13 9-24.4 20.4-33.9 33.1a99 99 0 0 0-17.5 36.4c-11.9 45.6-4.6 96 20.6 136a79 79 0 0 1-45.7-37q-1.3-2.7-3-5.1c-2.5-.4-4.6 0-5.4 2.6-5.5 14.7-7.8 31-8.4 46.5 0 14 1.3 28.4 5.6 41.8a98 98 0 0 1-35-23.6 154 154 0 0 1-38.6-69.2q-4.8-19.2-5.5-39c-.8-10.4-1-20.5 1-30.8.2-2.3 1.2-4.2-1-6-1.9-1.5-3.6 0-4.9 1.6a213 213 0 0 0-17 27 107 107 0 0 0-13 38c0 2-.6 5.7 1.4 7 1.2 1.1 3.9 0 3.5-1.8a90 90 0 0 1 7.7-29.8c4.6-10 10.6-19.7 16.4-29.2a231 231 0 0 0 2 44q3.1 24.5 13.1 47A275 275 0 0 0 228 400a242 242 0 0 0-21.8 41.7q-5.9-19.6-6.8-40.2-1.6-23.5 2-46.8c1.9-11 4.6-22.7 9.7-32.7.6-1.3 1.6-3 1.3-4.5 0-1.6-1.6-2.3-3-2.3-1.9 1-2.7 2.7-3.7 4.4-3.7 7.5-6 15.3-8 23.4-14.9 2.5-30 6.8-43.2 14.1a202 202 0 0 1 36.3-84.2c6.6-8.6 14.2-17 23.2-23 2.8-2 6-3.2 9-5 1.3-1.2 1.2-3.7-.6-4.4-1.2-.8-3.2 0-4.4.5a78 78 0 0 0-21.8 16.5 70 70 0 0 1-27.6-44.2c17.9 1.4 35.8 1.5 53-3.6 9.6-3 19.6-6 28.2-11q8.9 9.7 20 16.5c2.2 1.2 4.3 2.3 6.9 1.7 1.8-.9 1.3-2.7 1.4-4.4a62 62 0 0 1-18.5-12.1c-9.7-8.8-16.4-20-22.7-31.3a229 229 0 0 1-23-63.4c24.6 13.2 51 23.7 78.4 29.4 16.3 3.2 32.8 4.7 49.2 7 13.8 2.3 27.7 4.4 41.2 7.9q9.4 2.4 19 4.5c2.9 0 2.4-4.6 0-5.2-3.9-1.3-8-2-12-3.1-17.4-5-35.5-8-53.4-10.7a90 90 0 0 1 1.8-37.2q5.5-21.8 15.3-41.9L364 35.8z" fill="currentColor"/><use transform="translate(630.5 421.2)" href="#earrings-variant01-0b00a4bf"/></g></svg>
