<svg xmlns="http://www.w3.org/2000/svg" viewBox="0 0 762 762"><g transform="translate(-65.6 -47.4)" mask="url(#hairClipMask)"><path d="M368.6 163.7c14.7-1 29.3 2.9 42.6 9.1a66 66 0 0 1 33.3 32.7c1 2.6 1.2 5-.7 7.1-1.5.7-3.4.6-5 1a11 11 0 0 0-6.5 6.3c-2.8 6.3-3.9 13.4-6.1 20-2.2 7-5.2 13.5-10.2 19a99 99 0 0 1-49.4 28.6 84 84 0 0 1-45-1 33 33 0 0 1-18.4-14.1c-.7-1.3-.1-3.5 1.6-3.6 4.5-.4 8.8-.5 13-2.4 5.8-2.3 9-7.8 10-13.8 1.1-8.4-.5-15.9-1.4-24.2a95 95 0 0 1-.3-32.2c1.5-7.5 5-14.4 10.6-19.7a50 50 0 0 1 31.9-12.8" fill="black"/><path d="M366.6 169.6c13.3-1.4 27.3 2 39.5 7.3 14.3 6.6 27 16 33.6 30.7a17 17 0 0 0-12.5 10.3c-4.3 9.9-5.4 21.1-11.1 31a63 63 0 0 1-16.3 16.7 92 92 0 0 1-60.7 18.5c-9.8-1.2-20-2.6-27.2-10a39 39 0 0 0 10.8-3.6c5.9-3.5 9.7-9.6 10.8-16.3 1.4-11.9-1.1-22.2-2.2-33.8-.8-5.2-.6-10.7-.5-16a35 35 0 0 1 9.5-23.3 43 43 0 0 1 26.3-11.5" fill="currentColor"/><use transform="translate(630.5 421.2)" href="#earrings-variant01-0b00a4bf"/></g></svg>
