<svg xmlns="http://www.w3.org/2000/svg" viewBox="0 0 762 762"><g transform="translate(-65.6 -47.4)" mask="url(#hairClipMask)"><path d="M438.6 95.7c5.7.5 11.4 3.3 14.7 8a60 60 0 0 1 8.2 20.8q4 18.9 6.9 38c9.6-16.4 15.6-33 29.1-47.2 5.2-5.4 12.9-7.3 20.1-8 8 .2 16.7 3.4 24.5 5.5 5.6 1.7 11.6 3.3 16.7 6.4 4 2.4 6.5 6.5 7 11.1 1.2 15.4-3.9 28-8.7 42.1a178 178 0 0 1 45-18.7c6.4-1.3 13.1-.1 18.4 3.9a64 64 0 0 1 15.2 15.7c2.2 3.4 3.8 7 3.4 11-.5 8.2-4.6 16.3-7.9 23.7q-4 9-9.7 17.1c6.8-1 13.4-2.8 20-4 6.3-1.2 13.4-2.9 19.7-1.2 5.8 1.6 10 7 12.8 12.1 3.6 7.6 6 15.9 8 24 .8 3.6 1.2 7-.5 10.4-2.6 5.7-7.9 8.8-13.2 11.8a144 144 0 0 0-12.9 8c4.6.7 10.4 1.4 14.1 4.2 4 3.4 4 9.2 4 14 0 5.5-1.2 10.7-5.6 14.4a42 42 0 0 1-20.6 7c4.2 8.7 7 18.1 9.2 27.5q5.2 23.8 5.2 48.1c-.6 7.2-.4 14.9-2.5 21.8-2.6 1.6-6.6.1-9.6.7-7 1-14.5 2.6-21 5.5-3.5 1.5-5.4 4.3-8 7-4 4.9-8.6 9.5-12.7 14.3q-3 3.6-6.3 6.8c-2 2-6.2-.4-6-3-.2-10 .3-19.9-.7-29.8-1.9-19.6-6.2-40-14.8-57.8a62 62 0 0 0-20.5-25.5c-4-2.6-8.3-3.5-13-4.1a3 3 0 0 1-2.5-4c1.3-3.5 3.5-6.7 5.6-9.8q9.6-14.3 21.8-26.5c-23-7.3-46.4-10.8-70.4-12.8a625 625 0 0 0-208.2 19.5 282 282 0 0 0-45 16.9q-3 1.6-5.7 3.7-.9.8-2.4 0c-1.5-1.2-1-3.8-.6-5.4q2.5-10.2 6.4-20c-10.7-4.1-21.2-8.7-32-12.5a42 42 0 0 1-17.2-9.9 24 24 0 0 1-5.6-13.1c-1-7-1.5-15 .8-21.8a18 18 0 0 1 12-11.2c8-2.4 16-2.6 24.2-2.1-4.4-5.6-11-11.7-12.2-18.9-.8-6 3.3-12.5 6.8-17.2a73 73 0 0 1 15-16c4.6-3 10-2.4 15-.6 15.7 5.7 31 13.6 44.4 23.8q-8.7-16.2-14.9-33.5c-1.7-4.8-2.8-10.6 0-15.2a74 74 0 0 1 27.3-25.7c4.6-2.6 9-4.8 14.5-3.9 4.3.9 8.3 3.8 12 6.3 12.9 9.6 24 21.8 34.3 34.2.9-12.4-.3-24 2.2-36.3 1.4-6.6 4.7-13 10-17.3 4.4-3.8 10.2-5.5 15.6-7.2s11-2.4 16.8-3.3c8-1.2 15.8-2.4 24-1.8" fill="black"/><path d="M620.9 443.1c.7 2 .5 3-.8 4.8-4 5.2-8.6 10-12.8 15.2-2 2.5-4 5.4-6.4 7.7-1.1 1.1-3.7 1-4.3-.6-1-2.1.5-3.5 1.7-5q7-8.6 14.2-16.8 2.3-2.9 4.8-5.3c1.2-1.1 2.3-.5 3.6 0" fill="black"/><path d="M436.6 101.5A15 15 0 0 1 449 108c3.8 5.9 5.6 13.6 7.2 20.4q4.3 20.4 7 41c0 2.5 1.7 3.3 3.4 4.6 4-2.3 5-6.3 7.4-10.1 9-15.3 15.1-30.4 27.3-43.8 3.8-4.2 8.8-5.7 14.3-6.5 6.4-.7 13.4 1.7 19.5 3.4 6.8 2.1 14.4 3.7 20.6 7.3 3.6 2 4.4 6.3 4.5 10q-.7 13.7-5.4 26.4c-1.6 4.8-3.8 9.7-4.6 14.8-.1 1.9 1 4.9 3.4 4.7 1.9-.1 3.7-1.6 5.4-2.4 11-6.6 23.2-11.6 35.4-15.7 5.3-1.6 10.5-3.6 16.2-2.5 3.8.7 6.6 3 9.5 5.3a57 57 0 0 1 11.2 12.8c1.2 2 2.3 4.3 2 6.7-1 8-5.3 15.9-8.6 23.2q-3.8 7.9-8.8 15.2c-1.2 2-3 4.2-2.6 6.7q1.3 2.6 4.2 2c11.7-2 23.4-4.7 35.1-6.4 3.9-.6 8.4.3 11.2 3.1 5.2 4.8 7.5 12.7 9.7 19.2 1.3 4.9 3.7 10.8 2.8 15.8-1.6 4.7-7 7.5-11 9.8-5.5 2.8-10.3 6.4-15.5 9.6q-2.2 1.6-3.7 3.7c1.1 1.5 1.6 3.4 3.6 4 5.7 1.9 11.6 1.7 17 4.8q1.9 7.5.2 14.9c-.8 2.9-3.1 4.7-5.8 6a45 45 0 0 1-21.6 4l-1 2.6c2.7 4.8 5.4 9.4 7.2 14.7 5.8 16.3 8.4 33.8 9.7 51 .3 10 .5 20-1.1 29.8a92 92 0 0 0-28.5 5.8c-2 .8-3.7 3-5.2 4.5q-9.6 10.2-18.9 20.6c0-7.2.2-14.4-.7-21.6a189 189 0 0 0-10-50.3 103 103 0 0 0-15.7-29.4 41 41 0 0 0-24.3-16 159 159 0 0 1 28.3-33.6c1.8-2 .6-4.7-2-5.3-22-7.8-45.5-11.6-68.7-14a636 636 0 0 0-106-.2 569 569 0 0 0-120.8 22.2 260 260 0 0 0-35.9 14q2-6.4 4.6-12.6c.6-1.9 1.7-3.6 1.1-5.6-1.5-1.9-4.3-2.9-6.5-3.8-9.2-3.7-18.3-7.9-27.7-11.3-5.1-2-11-4-15.2-7.7-3.7-3-5-7.8-5.7-12.3a44 44 0 0 1 .7-17.6q2-5.5 7.3-7.5c8-2.7 15.8-2.6 24-2 2.6 0 5 .7 7.3-.9q1.2-2.1-.1-4.1c-4-6-10.1-11.3-13.5-17.8-2.1-5.2.8-9.8 3.7-14 4.3-5.6 9-12 14.7-16.2 2.9-2.1 6.2-1.3 9.3-.3a170 170 0 0 1 36.7 18.3c4.4 2.9 8.4 6.5 13 9 2.4 1.1 5.3 1 6-2-.8-4-3-7.7-4.7-11.3q-7.7-14.8-13.1-30.7c-1.1-4-2.9-7.3-.4-11.1a70 70 0 0 1 25.6-23.5c4.2-2.3 8.1-4.3 12.7-1.6 11.8 6.7 22 17.2 31 27.1q6 6.6 11.4 13.7c1.3 2.6 6.8 2.6 7.4-.6.7-13.8-.3-28.3 2.6-41.8a23 23 0 0 1 12-16.6 78 78 0 0 1 23.3-6.3c7.7-1.2 15.3-2.4 23.2-2.2" fill="currentColor"/><use transform="translate(630.5 421.2)" href="#earrings-variant01-0b00a4bf"/></g></svg>
