<svg xmlns="http://www.w3.org/2000/svg" viewBox="0 0 762 762"><g transform="translate(-65.6 -47.4)" mask="url(#hairClipMask)"><path d="M509.6 118.3c5 1.8 10.2 4.3 14.2 8 1.7 1.2 1.7 4.2-.4 4.9-4.5.7-9 .3-13.5 1.7q-11.5 3.1-19 12.4a84 84 0 0 1 48.6 3.2c16.9 6 33.3 16.3 44.8 30.3 7.2 8.9 12.6 20 11.4 31.6a29 29 0 0 1-5.6 14A186 186 0 0 1 665 301c9.7 19.6 15 41.4 15.1 63.3 0 19.4-4.2 38.9-11.7 56.7-.9 1.8-1.4 4-3.8 4-4.8-.2-9-1.7-13.9-1a96 96 0 0 0-23.2 5c-4.1 1.7-9 2.9-12.6 5.5-4.1 4.5-6.9 10.1-11.3 14.5q-1.6-1.3-3-2.7c-.2-2 1.3-4 2.4-5.6l12-16.3c-5.3 2.7-10.2 6.1-15.5 8.6a3.7 3.7 0 0 1-5.5-2.8c-.8-6.2-.2-12.6-.7-18.9-1.5-17.6-.5-34.8 1-52.3q-2.3 4.5-5 8.9c-1 2-4 3-5.9 1.7a106 106 0 0 1-27-22c-9.1-10.2-19.1-20.6-24.8-33.2a77 77 0 0 1-7-33.1l1-17.8q-5.3 4.5-10.4 9.3c-1.4 1.2-3 2.7-4.6 3.5-1.7.6-3.5-.3-4.1-2-1.2-3.2-1.6-6.8-2.3-10.1l-13 9.5q-4 3-8.7 4.3c-11 2.4-21.7 2.5-32.8 2.7-10 .6-20 0-30 .5-14.6.4-28.3 1-42.2-4.3.6 2.8 1.5 5.6 1.8 8.5-.2 2.2-2 3-3.8 3.7a126 126 0 0 1-37.8 6.3 81 81 0 0 1-35.5-8.5c-4.7-2.5-8.8-5.8-13-8.9-.3 4.2.9 8.2.7 12.3q-2.1 2.4-5 .8c-2.3-1.7-4.2-4.1-6.2-6.2.3 3 .8 6.4.3 9.5-1 1.6-2.7 2.2-4.4 2.8q-6.9 1.9-14 2.5a156 156 0 0 0-20.6 31.8c-1.3 2.5-2.2 5.5-4.1 7.5q-1.9.3-3.2-.4c-1.7-3-1.7-7-3-10.3-2.6-7.5-4.2-15.2-5.6-23a69 69 0 0 1 3.3-30.3q3.6-10.2 10.3-18.7c8.7-11 19.3-19.6 31-27.1 21.5-14 46-23.7 70.8-30.4 32.5-8.5 66.2-12 99.7-10.6a33.4 33.4 0 0 1-5.1-42.5 61 61 0 0 1 29.4-24.8c14.6-6 31-7.6 46.2-2.7" fill="black"/><path d="M620.7 435c2.6 2.4.4 4.3-1.2 6.3-6 6.5-11.2 13.5-16.5 20.6-1.4 2-3 1-5.1 1.1.1-1.8 0-3.5 1.2-5q7.6-10.5 16.1-20c1.7-1.6 2.8-3.6 5.5-3" fill="black"/><g fill="currentColor"><path d="M513.2 126c-7 1.8-13.7 3.8-19.5 8.5a41 41 0 0 0-15.2 26.9 52 52 0 0 0 5.4 30.4 367 367 0 0 0-31.3-2.7c-3.2.2-5.6-1.9-8-3.7-6-5-10-12-10-20a34 34 0 0 1 8.8-23.1 62 62 0 0 1 36-20 54 54 0 0 1 33.8 3.8"/><path d="M524.4 150.4A101 101 0 0 1 575 177c7.2 7.4 13.7 17 15 27.4 1 6.3-1.3 12.1-5 17q-25-13.5-52.4-21c-13.6-3.3-27.7-5.4-41.5-7.6a45 45 0 0 1-4.7-39.6c4.4-1.6 8.6-3.2 13.2-3.8 8.4-1.6 16.5-.6 24.8 1m-85.8 43.8q16.5.4 33 2a696 696 0 0 1 51.8 7.9c11.4 2.3 22.4 6.2 33.2 10.4a209 209 0 0 1 82.8 58.1 147 147 0 0 1 33.8 75.8l1 12c.4 6.3-.5 12.5-.9 19Q671 400 663 419.2c-9.8-1.8-18.8.3-28.3 2.2-4.5.7-8.8 2.8-13.2 4.2 1.9-2.8 4.2-5.4 5.7-8.5.8-2.2.1-4.2-2.5-4.5q-3.5 1.2-6.4 3.4-9.4 5.8-18.9 11.2c-.7-20.2-1.5-40.7 0-60.8.4-6 1.4-12 1.5-18 0-3-3.1-4.3-5.1-2-4.2 5.4-6.8 12-10.3 17.8q-7.2-4.3-14-9.7c-6.1-5-11-10.7-16.3-16.6-6.5-7.6-12.8-14.7-17.3-23.7a68 68 0 0 1-7.6-32.8c.1-7.5-.2-14.6 1.6-22 .2-1.7 1-4.3-1.4-4.8-2-.7-3.8 1.2-5.3 2.3L511 269.2c-.7-2.9-1-6-2.3-8.7-1-2.2-3.8-2.8-5.8-1.7-6.4 4-12.2 9.1-18.7 13-7.7 2.2-16.6 2.5-24.5 3.1-14.7.6-29.3.2-44 .6-10.2 0-21.3 1.1-31-1.8-3.6-.9-6.7-2.6-10-3.7-1.2-.2-3.3 1-3.1 2.4 0 3.8 1.2 7.7 1.9 11.4-6.4 1.6-12.4 3.5-18.8 4.6a87 87 0 0 1-40-2.2 61 61 0 0 1-22.8-13c-1.8-1.5-3.4-3.3-5.7-1.3-2 2.7-2.1 7.2-2.4 10.4-1.4-1.9-2.8-4-4.6-5.4-1.3-1-3.2-.2-4.8 0a34 34 0 0 0-.9 14.6c-7.4 2.3-15 3-22.8 3.2-1.7 0-2.3 1.4-3.4 2.4l1.3 2.7 4.4 1a166 166 0 0 0-17.7 27.6 91 91 0 0 1-5.6-36c1.1-10 3.8-20 9.7-28.4 6.6-9.7 15.6-18 25-24.8 17.5-12.7 37.8-22 58.1-29a314 314 0 0 1 116.2-16"/></g><use transform="translate(630.5 421.2)" href="#earrings-variant01-0b00a4bf"/></g></svg>
