<svg xmlns="http://www.w3.org/2000/svg" viewBox="0 0 762 762"><g transform="translate(-65.6 -47.4)"><path d="M466.6 207.7c21.2 2.4 42.8 6 63.3 12.4 6.7 2.3 13.8 4.5 20 8 2.3 1.4 1 3.5-.4 5-4.8-1.5-9.3-3.9-14.1-5.5a278 278 0 0 0-42.3-10.3q-24-4.4-48.2-5.4a291 291 0 0 0-95 10c-5.7 1.4-11 3.3-16.8 4.1-.5-2.5-1.8-4.5 1.3-5.7 18.4-5.6 37.1-10 56.2-12.3a331 331 0 0 1 76-.3" fill="black"/><path d="M416.7 224.1c2.5.2 4 1.7 3 4.3-1.2 2.3-4.6 2.5-6.9 3.2q-44 9-86 25c-5 1.7-9.7 3.8-14.7 5.4a690 690 0 0 1 95.3-15.2c8.4-.5 16.8-1.6 25.2-1.8 7.3 0 14.6-.8 22-.7 13.3 0 26.7-.4 40 .5 7 .4 14.4.1 21.2 1.6 1.8.2 2.4 1.4 3.4 2.8l-1.6 2.6c-4.7 0-9.3-.6-14-1q-17.2-1-34.6-.8-34.8-.3-69.4 3.2c-35 3.5-69.4 10.1-103.5 18.6-2.7.5-6.6 2-9 0-.5-1.3-.8-3.5.5-4.4 3.3-2.5 7.5-4 11.3-5.7a592 592 0 0 1 95.7-31.9q-8 .9-16 1.2a451 451 0 0 0-81.6 13c-.9-1.5-2-2.5-1.4-4.5 2.5-2 5.8-2.7 8.8-3.4l12.7-2.5c16.4-3.6 33-5.5 49.7-7.3 16.5-1.3 32.9-2.8 49.9-2.2m144 11.2c2.3-.3 3.8-.2 5.7 1.2 7.3 5 14.8 11.1 19.4 18.8q5.4 9 5 19.6c11.8 2.6 21 9.7 28.6 18.7a137 137 0 0 1 22.9 42.3 292 292 0 0 1 15 83.5c.1 2.2-.7 4-2.9 4.5-3.9.2-7.7-.2-11.6.8-2.7.5-6 2-8.7 1.3l-1-4q8.7-3.5 18.4-3.4a270 270 0 0 0-19.4-92.7q-6-14.3-15.4-26.6a57 57 0 0 0-17.6-15.3c-4-2.2-8.3-3-12.8-4.4l-.8-2a30 30 0 0 0-5.3-20.8c-5.4-8-12.8-12.2-20.1-18q.1-1.8.6-3.5" fill="black"/><path d="M382.8 262.9c6-.4 12 0 18 0 20 .2 39.9 0 59.8.3 11.7-.3 23.3.6 35 1 4.8.2 9.7.5 14.2 2 2.2.9 3.3 3.3 2 5.3-1.5 2.2-5 2.7-7.4 3.4q-14.4 3.1-29 5c16.7-.3 33.9-1.8 50.5-.3 1.4.3 3.2.3 4.4 1.2q.4 1.7-.1 3.2c-1.4 1.1-3 .7-4.6.8-24.9-1.2-49.2 1.1-74 2.4-4 .3-8 .7-12 .2-2.6-.2-3.4-4-1.5-5.5 2.3-1.6 5.6-2 8.3-2.7 17.5-3.5 35.2-5.5 52.7-9-10.8-1-21.7-1.1-32.5-1.2-27.7-.5-55.4-.2-83-.5-1.4-.2-3.7-.3-3.7-2-1-1.6 1.3-3.6 2.9-3.6m158.6 33.3 3.3-.2c1.6 3.8 2.5 7.7 3.8 11.6 6 18 16.3 34.7 29.3 48.6a96 96 0 0 0 22.2 17.9c1.8 1.2 3.9 1.8 3.9 4.3-.6 3-3.2 2-5.5 2.3q-1.1 23.9-6.6 47.2c-1.1 3.8-1.5 8.9-4.6 11.6l-3.2-1.9c-.2-2.3.4-4.5 1-6.7 3.3-11.1 5-22.9 6.8-34.3.7-6.6 1.5-13.4 1.1-20q-9.3-6.3-17.2-14.3a140 140 0 0 1-34.2-57.8c-.7-3-2-5.4-.1-8.3m86.9 123.5c1.7 1.7-.2 2.9-1.2 4.2a78 78 0 0 0-27.8 19.3c-2.5 2.3-4.1 5.1-8 4.9L590 446q.4-2 1.7-3.4a98 98 0 0 1 32.6-23.5c1.5-.4 2.8-.9 3.9.6m-14 18.3c2.5-1 4.4.7 3.5 3.4-2.7 2.4-6 4-8.8 6.3q-7.6 6.4-14 14a31 31 0 0 1-5.4 4.5l-2.3-2.7c0-2.3 2.3-4.2 3.6-5.9 6.8-7 14.5-15.2 23.4-19.6" fill="black"/><path d="M445 212q24.1.9 48 5.3a278 278 0 0 1 42.4 10.3c4.8 1.6 9.3 4 14.1 5.5q5.8 2.1 10.6 5.7c7.3 5.8 14.7 10 20.1 18q6.5 9.4 5.3 20.8l.8 2c4.5 1.4 8.8 2.2 12.8 4.4 7 3.6 12.7 9.2 17.6 15.3q9.3 12.3 15.4 26.6c12.4 29 18 61.4 19.4 92.7q-9.6-.1-18.4 3.4l-6 1.9c1-1.3 2.9-2.5 1.1-4.2-1-1.5-2.3-1-3.8-.6a98 98 0 0 0-32.6 23.5c-1 1-1.3 2.1-1.7 3.4q-1.6-3.2-3-6.5c3.1-2.7 3.6-7.8 4.7-11.6 3.6-15.4 6-31.4 6.6-47.2 2.3-.3 4.9.7 5.5-2.2 0-2.6-2-3.2-3.9-4.4a96 96 0 0 1-22.2-17.9 134 134 0 0 1-29.3-48.6c-1.3-4-2.2-7.8-3.8-11.6-1.6-4.4-2-9.4-3.2-14a68 68 0 0 0-15.6-2.4c-16.6-1.5-33.8 0-50.5.4q14.6-2 29-5.1c2.4-.7 5.9-1.2 7.4-3.4 1.3-2 .2-4.4-2-5.3a54 54 0 0 0-14.2-2c-11.7-.4-23.3-1.3-35-1-20-.3-39.9-.1-59.8-.3 13.2-2 26.1-5.6 39.3-7.7 9.6-1.6 19.2-3.7 28.9-5.2a494 494 0 0 1 34.6.8q7 .8 14 1l1.6-2.7c-1-1.2-1.6-2.5-3.4-2.7-6.8-1.5-14.2-1.2-21.2-1.6-13.3-.9-26.7-.6-40-.5-7.4-.1-14.7.7-22 .7-8.4.2-16.8 1.3-25.2 1.8a690 690 0 0 0-95.3 15.3q7.4-2.7 14.7-5.6 42-15.9 86-25c2.3-.6 5.7-.8 7-3.2.8-2.6-.6-4-3.1-4.2-17-.6-33.4.9-50 2.2a462 462 0 0 0-49.6 7.3l-12.7 2.5q14.2-5.7 28.7-10c5.8-.9 11.1-2.8 16.7-4.2q12.1-3.3 24.6-5.6c23.2-4.5 47-5.6 70.5-4.4" fill="currentColor"/><use transform="translate(630.5 421.2)" href="#earrings-variant01-0b00a4bf"/></g></svg>
