<svg xmlns="http://www.w3.org/2000/svg" viewBox="0 0 762 762"><g transform="translate(-65.6 -47.4)"><path d="M481.6 150.4q19 .7 36.7 7.3c19.3 7.6 37 19.8 51.1 34.9 10 10.3 18.5 22.2 28.2 32.8a98 98 0 0 0 18 15c9.3 6 20.4 8.5 30.9 12a122 122 0 0 1 32.5 14.7c16 10.5 28 27.6 34 45.8a81 81 0 0 1 3.3 42.2c-.5 2-4 2.4-4.9.4-1.5-3.1-2.5-6.5-4.3-9.6a99 99 0 0 0-19.1-23.6 47 47 0 0 1 6.3 40.6c-2.1 7-6.9 12.3-11.8 17.5 1 5 2.4 9.9 2.8 15a39 39 0 0 1-4 21.6c-1.9 3.6-3.9 8.3-7.2 10.9-2.4 1-5.6-1.5-8-2a31 31 0 0 0-13.5-1.7q-1.4 1.9-2.3 3.9c-6.3 12.5-14 24.5-22 36a136 136 0 0 1-30 31c-3.4 2.2-8.1 5-12.1 2.7-3.6-2.5-3.4-8-3-12 2.1-16.2 1.1-33.1 1.3-49.7a82 82 0 0 1-39.2-10.5 90 90 0 0 1-47.1-75.3 84 84 0 0 1-35.8 15.7c-3 .5-7.2 1.4-10-.4-1.4-2.2-.6-3.6 1-5.3a89 89 0 0 0 26.1-42 43 43 0 0 0-7-37.8 45 45 0 0 0-25.7-14.7 75 75 0 0 0-33.2.8c-1.7.3-3.3 1-5 0-2-2.1-1.3-4.4-1.2-7a109 109 0 0 0-29.8 14.8c-1.7 1.1-3 2-5 1.2-3-1.3-5.3-4.2-8.1-6a85 85 0 0 0-32.9-12c3.1 2.7 6.6 5.4 9.2 8.6 1.3 1.7 1.7 3.9 0 5.5-1.7 1-4.2.7-6.2.8a107 107 0 0 0-36.5 4.5c-2.9 2.1-4.7 6.3-6.6 9.3a141 141 0 0 0-18.8 74.1c-.1 1.5 0 3-.9 4.2-2.4 1.4-4.1 0-6.2-1.2-6.5-4-12.8-8.8-17.7-14.7a46 46 0 0 1-24.5 22.6c-3 8.2-4 17.4-5.9 26.1-1 4.7-1.2 9.6-2.3 14.3-.6 2.4-3.4 2.9-4.9.8-8.8-11.7-10.6-25.5-12.6-39.6a34 34 0 0 1-12.4-5.2c-2.3-1.7-5.2-4.2-5.3-7.3-.2-1.6 1.9-2.7 3-3.7q5.4-4.1 10.4-8.9c-9-3-16.3-9.6-19.8-18.5a49 49 0 0 1 1.7-36.2 87 87 0 0 1 37.3-41.7 71 71 0 0 1 30-9.3q3.6-18.4 12.7-35a93 93 0 0 1 95.3-46.5 115 115 0 0 1 53.2 23.2q9.5-8.9 20.3-15.9a108 108 0 0 1 57.5-17.5" fill="black"/><g fill="currentColor"><path d="M478.6 156.2a107 107 0 0 1 40.2 8 135 135 0 0 1 45.5 31.5c11.2 11 20.2 24.6 31.2 35.8 8.1 8 17.1 15.2 27.9 19.3 14.8 5.8 30.2 8.7 44.4 16.4A77 77 0 0 1 694 289a89 89 0 0 1 18.1 53.5c-9-14.4-21.7-28.9-37.4-36.1-2.3-1.2-5 .4-4.4 3 1.2 2.4 3.4 4.3 5.1 6.3a60 60 0 0 1 11.5 15.5c4.6 9.6 5.1 21 1.7 31-2 5.2-5.4 9-9.1 13-1.4 1.6-3.2 2.8-2.4 5.1 2 8.8 4 16.8 2.2 26q-2.4 8.5-7.4 15.8-7.9-3-16.4-3.7c.3-1.5 1-3.5.4-5-1-1.1-2.5-1.8-3.9-.7q-1.5 1.7-2.3 3.8Q638 441 622 462.9q-7.8 10.5-17.4 19.5a56 56 0 0 1-15.3 10.9c-1-4.7 0-9 .2-13.7q1-13.1.6-26.2-.4-8.8-.3-17.6a61 61 0 0 0 39.2-18.2c1.7-2 1.1-4.4-1.5-5a38 38 0 0 1-14-6.6c8.5.3 16.9-.5 24.8-3.8a45 45 0 0 0 24.3-21.8 40 40 0 0 0 3-24c-.4-2.8-4.1-4.2-5.2-1 .6 7.7 1.1 15-2.6 22.2-8 16.7-28.6 24.7-46.2 22.3-2.2-.3-5.2-2-7.2-.8q-.8 1-1 2.3c3.6 8 10.6 12 18.3 15.3a58 58 0 0 1-47 13 86 86 0 0 1-65.7-53.8c-3.8-9.8-5.2-20-5.3-30.5 0-2.8-3.2-4.2-5.3-2.1a76 76 0 0 1-36.7 17 101 101 0 0 0 20.3-30.7 62 62 0 0 0 4.4-31.2c-1.3-9.3-5.5-18-12.2-24.6a54 54 0 0 0-33.6-14.7 84 84 0 0 0-26.9 1.6c.5-2.3 1.9-4.4.2-6.5-1.4-1.8-4.2-.8-6.1-.5a111 111 0 0 0-33.6 16.5c-12.6-12.3-32.6-17.5-49.6-19.5-17.2-2-35.1-.6-51.8 4a81 81 0 0 0-14.3 5.5c-2.2 1.1-2.1 4.4.2 5.2 1.2.7 2.9-.4 4-.8 15.7-7.1 34-9.3 51-9 3.1.2 7 0 9.7 2.1q5.6 4.4 10.9 9.4a105 105 0 0 0-37.1 4c-3.7 1.7-6 5.5-8.1 8.8-5 8.2-9.8 17-13.1 26-6.3 16.5-9 34.4-9.2 52-7-4.6-14-10.2-18-17.7-1.6-2.7-2.5-5.6-3.6-8.5-1-2.1-4.4-2-4.9.7-.4 3.7 2.2 8 4 11.1-3 8-8.7 14.4-15.7 19-7 4.4-14.8 5.6-23 5.3q-10.8.1-19.3-6.6c4.5-4.1 9.6-7.9 13.7-12.3a3 3 0 0 0-.2-4.9q-3.1-1.4-6.4-2.4a26 26 0 0 1-14.1-13.7 38 38 0 0 1-1.7-22.7 74 74 0 0 1 22-36.9 70 70 0 0 1 43-20.1c1.7-.2 3.2-.3 4.5-1.3 1.4-2.2 1.6-5.4 2.2-8 3-13.1 8.3-25.7 16-36.7a87 87 0 0 1 84.7-35.8 109 109 0 0 1 49.4 21.3c-1.4 1.7-5.6 3.9-4.4 6.5.3 1.5 2.4 2 3.5 1.1 5.6-3.8 10.3-9 15.6-13.3a110 110 0 0 1 64.5-25.8"/><path d="M203.2 373.6c4.7 0 9.4 0 14-1-2.6 9.9-4.2 20-6.3 30a86 86 0 0 1-7.7-29"/></g><use transform="translate(630.5 421.2)" href="#earrings-variant01-0b00a4bf"/></g></svg>
