<svg xmlns="http://www.w3.org/2000/svg" viewBox="0 0 762 762"><g transform="translate(-65.6 -47.4)" mask="url(#hairClipMask)"><path d="M450.6 201.2a220 220 0 0 1 141.8 52.4 190 190 0 0 1 60.4 97.8c5.5 21.9 6.6 44.4 4.3 66.8-.4 1.8-.5 5.6-3 5.6-4.3.2-8.5 0-12.7 1.2a65 65 0 0 0-31.2 17c-1 1-2 2.2-3.6 1.8-1.6 0-2.3-2-2.1-3.4.3-3 1.5-6 2.1-9 1.6-6.7 1.9-13.2 2.5-20s-.3-13.3-1-20q-.5-5.6-2-11a54 54 0 0 1-26.4-7c-15.8-9-27.3-25-35.5-40.8-9.8-19-16-40-20.2-60.8a442 442 0 0 1-91.2 25.9 562 562 0 0 1-101.2 9 386 386 0 0 1-71.3-6c-1.8-.4-3.4-1.1-3.5-3.3 1-3.8 4-7.3 6.5-10.3q13.5-16.5 29.9-30.1a242 242 0 0 1 157.4-55.8" fill="black"/><path d="M623.2 439c0 1 .3 2.7-.5 3.5-2.2 2.4-5.1 4.2-7.6 6.4-2.6 2.2-4.8 4.9-7.5 6.9-2.7.5-4-2-2.7-4.1 2.7-3.8 6.7-6.8 10.2-9.8 2.7-2 4.5-4.7 8-3" fill="black"/><path d="M424.8 208.2c41.3-4.2 83.5 2.9 120.8 21.2a194 194 0 0 1 79.2 70.7 181 181 0 0 1 26.4 118 68 68 0 0 0-38.6 14 133 133 0 0 0 0-49.9c-.7-2.3-1.2-5.2-2.8-7-1.6-1.2-4.3-.7-6.2-1a43 43 0 0 1-22.9-7 88 88 0 0 1-27.6-30.3 211 211 0 0 1-22.2-60.5c-.8-3.3-1.1-6.8-2.3-10q-1.5-2.1-4-1.2-5.4 2.1-10.7 4.4a444 444 0 0 1-82.3 22.4 588 588 0 0 1-81 8.7c-14.7.2-29.4.4-44-.4q-21.4-1.3-42.5-4.9a233 233 0 0 1 160.7-87.2" fill="currentColor"/><use transform="translate(630.5 421.2)" href="#earrings-variant01-0b00a4bf"/></g></svg>
