<svg xmlns="http://www.w3.org/2000/svg" viewBox="0 0 762 762"><g transform="translate(-65.6 -47.4)" mask="url(#hairClipMask)"><path d="M280.2 157.9c2.2.8 2.4 2.8 3.1 4.8a48 48 0 0 0 9.3 16.7A47 47 0 0 0 309 193c8 3.5 17.1 5.3 25.6 7.1a372 372 0 0 0 43 5.6c15.3 1.6 30.6 1.5 46 2.4 20.3 0 40.7.6 61-.7q12 .1 24-1a180 180 0 0 1 60.5 5.7c7.7 2.8 15.5 5.3 22.8 9a194 194 0 0 1 65.2 46.8c21.4 23.4 37 52.4 43 83.7a137 137 0 0 1-3.4 65.8c-2 7.4-4.7 14.4-9 20.7-4.3-3.3-8-6.7-13.1-8.7a53 53 0 0 0-39-3c-2.9.5-3.5 2.9-5 5a168 168 0 0 1-35.8 41.2q-13.6 10.8-28.4 19.7l-3-.8q-.3-4.6.7-9c1.4-7.4 1.5-14.7 1.6-22.1a267 267 0 0 0-1.6-31q-2-17-5-33.8c-7-.7-14-.5-21-1.6a217 217 0 0 1-100-40.9 40 40 0 0 0 8.8 21c2.1 2.4 1.8 6-1 7.6-12.2 6.9-27.1 10-41 11.1a170 170 0 0 1-67.8-9c-17.9-6.3-35-15.5-47.2-30.4a54 54 0 0 0 4.5 24.3c1.2 2.3.3 5.2-2 6.4a50 50 0 0 1-31.6 4 73 73 0 0 1-36-20c-2.4 7.4-3.8 15-5.9 22.4-1.7 6.8-2.4 13.9-3.6 20.8-1.7 2.2-4.4-.5-5.6-2a61 61 0 0 1-10.1-33.9 71 71 0 0 1 8-33 71 71 0 0 1-4.8-41.6 60 60 0 0 0-23.4 18.3c-1.4 1.9-2.1 5-4.8 5.1-1.7-.5-3.1-1.1-4-2.8a58 58 0 0 1-6.8-35.2 82 82 0 0 1 16.1-39.4 100 100 0 0 1 49.7-35.5 77 77 0 0 1 37.8-2.9 44 44 0 0 1 6.1-47c1.7-1.7 4-4.7 6.7-3.6M623.1 541c2-1 5 .5 7 .8 5 1.4 11.3.4 15.8 3-.7 4-1.4 7.7 0 11.6q2.4 7.3 8 12.7c2.3 2.2 5.2 3.4 7.6 5.5.7 1.8.2 3.6-1.9 4-4.1.6-8.7-.7-12.8-1.4-9.9-2.2-20.9-4-29.8-9-2.2-1.4-5.7-3.2-6.2-6-.5-1.6.6-2.8 1.5-4.1 4.2-5.2 7-11.7 10.8-17.2" fill="black"/><g fill="currentColor"><path d="M278.3 165a65 65 0 0 0 20.3 28.4 61 61 0 0 0 25 10.3c32.1 7.5 66.1 9.2 99 10 26 .2 52 .4 78-1a178 178 0 0 1 72.5 7.4c35 11.4 66.5 33.7 89 62.8a161 161 0 0 1 33.6 78.5c3 23 0 46.6-9.7 67.7a78 78 0 0 0-18.4-8.6 60 60 0 0 0-30.7 0c.2-1.8 1-4 0-5.5-.9-1.4-3.6-1.3-4 .6a56 56 0 0 1-4.7 9.4 172 172 0 0 1-35.4 41.6c-7.3 6.3-15.2 11.4-23 16.8 2.3-14.1 2.3-28.7 1-43-1-17.4-4.3-34.9-7.4-52-1.1-4.6-1.6-9.8-3.7-14-1.2-2.3-5-2-4.7 1 1 4.8 2.4 9.4 3 14.2-40.5-.6-80-15.5-113-38.7l-8.3-6c-2 .9-4.3.8-4.4 3.5a46 46 0 0 0 10 28.7c-19.3 9.8-40.4 11.1-61.7 9.9a155 155 0 0 1-63.9-18.8 72 72 0 0 1-23.5-20.4c-1.3-1.7-2.3-3.4-4.6-3.9q-2.4-.3-3.2 2a59 59 0 0 0 3.7 33.5c-12.8 6-27 4.7-39.6-1a75 75 0 0 1-37.7-41.2 63 63 0 0 1-2.8-36.8c.4-2.1 1-4-.8-5.6-2.3-2.1-5.1-.4-7.5.7-7.1 3.8-14.5 8-20.2 13.8q-3.1 3.4-6 7a54 54 0 0 1-4.8-30.9c2-13.2 7.5-25.6 15.7-36.2a95 95 0 0 1 39-29.9c13-5.3 27.2-7.5 41.2-5.5 2.3.3 4.8 1.2 7.1 1 2-1.4 4-3.2 2.1-5.7a33 33 0 0 1-5.6-22.7c.6-7.6 3.5-16 9-21.4"/><path d="M210.8 349.3q4.4 7.3 9.5 13.8c-1.4 6.9-3.7 13.4-5.2 20.3-1.1 5.7-2.8 11.4-4 17.1a64 64 0 0 1-.2-51.2m415 197.1q6.8 1.3 13.7 2.2c-1 9.4 3.6 17 9.6 23.6-10.5-2.6-23.3-4.5-32.2-10.9q4.8-7.2 8.9-14.9"/></g><use transform="translate(630.5 421.2)" href="#earrings-variant01-0b00a4bf"/></g></svg>
