<svg xmlns="http://www.w3.org/2000/svg" viewBox="0 0 762 762"><g transform="translate(-65.6 -47.4)" mask="url(#hairClipMask)"><path d="M388.6 167.7c31.3-2 63.4.1 93.9 8a200 200 0 0 1 60.9 26.1c23.4-3.9 47.9.9 69.4 10.4A172 172 0 0 1 673 258a165 165 0 0 1 38.7 87.4c1 12.2.9 25-1.8 37a92 92 0 0 1-26.1 48.2c-1.9 1.5-3 2.2-5.4 1a61 61 0 0 0-49.6-3c1 10.6.3 21-4.5 30.6a33 33 0 0 1-15.7 15.6c-2.7.9-4.6-1.4-3.5-4 3.3-8.1 3-16.7 2.8-25.4a149 149 0 0 0-2.9-23.5q-11.5 1.5-22.5-2.4a87 87 0 0 1-37-29 205 205 0 0 1-27.8-49.2c-9.5-23.3-16-48-20.2-72.9-.7-3.8-1-7.6-2.1-11.3q-30.5-1.5-60.8-.4a632 632 0 0 0-65 7 453 453 0 0 0-96.2 25.6c-2.5 1.1-5 1.9-6.9 4a146 146 0 0 0-16.2 21.8 259 259 0 0 0-27 59.1c-1.1 3.2-1.6 6.8-3.2 9.7-1.4 1.6-3.4 1-4.8-.2a103 103 0 0 1-29.8-41.3 83 83 0 0 1-4.4-39.8c2.6-19 11.3-36.6 23.2-51.6 19-24 45.9-42.4 73.5-55.3a317 317 0 0 1 110.8-28" fill="black"/><path d="M421.6 173c7.7.6 15.3.6 23 1.7a219 219 0 0 1 95.6 32q1.2.8 2.4 1.2a105 105 0 0 1 49.8 3 160 160 0 0 1 77.4 52.4 162 162 0 0 1 34.3 71 116 116 0 0 1-.7 50.1 86 86 0 0 1-23.1 41.5 68 68 0 0 0-52.2-3.1c-2 .8-5.6 1.7-5.4 4.5 2.1 13 0 28-9.7 37.6a148 148 0 0 0-2.5-45.5c-.7-3-1.8-3.8-4.9-3.4q-13.5 2-25.8-4a84 84 0 0 1-28.4-23.4c-12.3-15-21.6-33-28.9-51a354 354 0 0 1-20.6-78.2c-.5-2.2.3-6.7-2.4-7.6-7.3-.7-14.6-.8-21.9-1.4-13.6 0-27.4-.6-41 .6q-19 .6-38 2.9-40.5 4.3-79.9 14.5c-20 5.2-40 11.8-58.6 20.5a153 153 0 0 0-32.5 19.6 53 53 0 0 0-15.5 19.4c-.6 1.8-1.6 3.7-.8 5.7 1.8 2 4.6 1.4 5.3-1.2q3.1-8.3 9.5-14.5c8.1-8.3 18.7-14.7 28.8-20q-5.9 7.6-10.9 16a266 266 0 0 0-27.7 63 96 96 0 0 1-25.4-36.8 81 81 0 0 1 2-58.5 133 133 0 0 1 38.2-49.7 225 225 0 0 1 52-32.2c32.2-14.5 67.3-23 102.5-25.8 12-.7 23.9-1.8 36-1" fill="currentColor"/><use transform="translate(630.5 421.2)" href="#earrings-variant01-0b00a4bf"/></g></svg>
