<svg xmlns="http://www.w3.org/2000/svg" viewBox="0 0 762 762"><g transform="translate(-65.6 -47.4)"><path d="M468.5 164.5c8.1 2.3 15.2 7 21 13q9.6 10.5 16.7 23 10.6-8.4 23.4-13c5.4-2 12.4-3.4 17.9-1 4.6 2 6.7 7.1 6.2 12-.7 7-4.6 13.6-8.3 19.4 8.9-1.8 18.1-4 27.2-4.6q8.5-.5 17-.6c12.9.2 27.1 1.2 39 6.7 4.2 2 9.4 5 11.6 9.4 1.8 4.5-.2 8.6-3.2 12a88 88 0 0 1-19.6 15.2 124 124 0 0 1 41.1 21.5c4.5 4 9 9.5 8.7 16-.5 6.2-4.4 10.7-9.4 14a88 88 0 0 1 24.8 28.9c4 7.8 6.7 17 3.4 25.6-2.6 7-8 11.5-14.5 15a59 59 0 0 1 11 36.4c-.3 6-2 11.8-6 16.4-3.1-.2-6.2-2-9.2-3a58 58 0 0 0-46.2 6l-13.8 8.3c3.3-.3 7.1-.9 10.4-.1 2.6 3.1.3 5.4-1.2 8.3-2.2 3.5-3.9 7.4-6.4 10.6-1.7 2.4-5.9.4-5-2.5 1.4-3.7 3.9-7 5.8-10.5-6.6 0-12.5 2.8-19 2q.1-2.3.6-4.4c2-2.3 5-4 7.5-5.7q10-6.6 20.4-12.5c-7-.5-13.8-.2-20.6-.6q-3.4-.1-4-3.4c-.8-4.5.4-9.6.2-14-.7-2.6-2.5-5-3.9-7.4a185 185 0 0 1-19.6-50.4c-5.1.2-9.9.5-14.9-1a40 40 0 0 1-14.3-7.8 58 58 0 0 1-14.5-23.2 30 30 0 0 1-17.2 9c-4.8.1-8-3.4-9.4-7.7-2-6.7-.4-14.8 1.2-21.4a262 262 0 0 1-80.8 20c-11.2.7-22.5.1-33.7-.2 1.7 3.3 3.4 6.3 3.2 10.2 0 3.5-2.4 6.7-5.7 7.7-5.8 1.8-11.4 1-17.3 0a104 104 0 0 1-28.4-10c-.3 3.6-.3 7-2 10.3a26 26 0 0 1-8 9.2c-6.8 4.8-17 4.6-23.2-1a71 71 0 0 1-14.6-19.9 79 79 0 0 1-8.7 12.2 78 78 0 0 1-24.5 20.7 32 32 0 0 1-17.1 3.6c-4.4-.8-7.7-4.4-9.4-8.3a32 32 0 0 1-.2-23.3 120 120 0 0 1-31.4 4.5 24 24 0 0 1-13.5-3.2c-5-3.4-7.5-10.4-5.1-16.1a27 27 0 0 1 12.5-12.5c8.4-4.4 18.9-5 28.2-5a79 79 0 0 1-14.4-12.7c-3.4-4-6-9-6.5-14.2-.4-5 2.8-9.4 6.5-12.3a45 45 0 0 1 20-8c10.6-1.4 21.3-2.4 31.9-1.2a22 22 0 0 1-7.5-11.5c-.8-4-1-8.7 1.6-12.2a28 28 0 0 1 12-8.2c10-4 21.5-5.2 32.3-5.5 13.4-.7 26.6.1 40 .9-3.5-7-8.4-14-8.2-22 .1-6 4.2-10.7 9.7-12.6a66 66 0 0 1 26.5-2.2c13.8 2.1 27.6 5.5 41 9.4l24.6 8c.2-8.7 2.5-17.7 9.7-23.3a29 29 0 0 1 25.6-5.2m156.1 375.8c5.4 1 10.4 2.7 16 2.8 2.4.4 6-.4 7 2.4a23 23 0 0 1-1.8 11c-3.3 8.2-11.8 14-20.7 12.4-6.2-1.2-10-5.7-12.8-11q4.9-7 9.4-14.4c.8-1 1.6-2.6 2.9-3.2" fill="black"/><path d="M470.4 171.5c10.5 4.1 18.7 14.1 25 23.2 2.9 3.9 5 8.3 7.7 12.3 2.8.8 4.7-.7 6.8-2.3a75 75 0 0 1 17-9.9c5.4-2.3 10.6-4.4 16.7-3.4 3.2.9 4.5 3.9 4 7-1 7.4-5.9 13.4-9.5 19.5-1.4 2 0 5.4 2.5 5.6 5.1.5 10.7-1.2 15.8-2 7-1.6 14-2 21.2-2.7 13.8-.6 28.6-.2 42 3.6 5.3 1.7 11.8 4.4 15.2 9.1.3 2.4-2 5-3.5 6.6a95 95 0 0 1-21.2 15c-1.9 1.1-3.7 1.7-3.8 4.3.5 2.3 2.2 2.6 4 3.2 11 2.6 21.6 7.2 31.5 12.6 6.5 4 14.6 8.8 18.3 15.7 2.3 4.2.2 9-3.3 11.8-1.9 1.3-4 1.8-6 3-2 1.5-.7 4.3.7 5.8 5 4.4 10.3 8 14.6 13.4a67 67 0 0 1 14.4 24.5 19 19 0 0 1-2.4 16.5c-3.2 5-7.9 6.6-12.8 9.2-2.8 2.1-.7 4.8.7 7a52 52 0 0 1 10 37c-.3 2-1.4 4-2.2 5.7a59 59 0 0 0-37.8-2.1c-3.9 1.4-7.3-.1-11.4-.3l-23-.1c-.3-5.5 2.1-12.9-1.3-17.5-10-16.7-18.1-35-22.5-53.9a43 43 0 0 0 22.2-19c.8-1.5.4-3.7.3-5.3q-2.1 0-4.2.3l-5 7a34 34 0 0 1-20.5 12.5 25 25 0 0 1-16.8-3 40 40 0 0 1-17.8-21.2c-1.7-3.7-1.8-7.6-2.9-11.3-1.9-1-3.8-1.2-5.2.7-3.4 4.6-7 8.6-12.4 10.8-2 1-5.3 2.2-6.7-.3-2.8-4.5-2-9.8-1.1-14.7.7-5 3-9.2 2.5-14.5-2.5-.2-4.8-.2-7.1 1a255 255 0 0 1-38.5 13.3 226 226 0 0 1-84 6.3c-2.7-.6-4.5 3.3-2.3 4.8 4 3.3 8.2 6.2 8.1 12-.2 2.5-3.8 2.8-5.8 3-14 .1-27.2-5.6-39.4-11.7-2.3-1-4.6-2.8-6.1.3-1 4 .4 9-1 13a18 18 0 0 1-11.7 10c-4.5 1.2-9-.9-12.2-4a77 77 0 0 1-12.3-17.7q-1.5-3.2-3.4-5.9c-1.3-.6-3.3-.4-3.9 1.1-2 4-3.7 8-6.5 11.5a85 85 0 0 1-26.3 23.8 26 26 0 0 1-14.5 3.4c-4.7-2-6-8-6.5-12.7-.2-5.8 1.8-12 5.2-16.7 1-1.5 1-2.3.3-4-2.3-1.2-4.4 0-6.6.7a90 90 0 0 1-33.1 5.7c-4 0-8.7 0-11.8-2.9-3.1-2.3-3.3-7.5-1-10.4 4.3-5.6 11-9 17.7-10.3 8.9-1.6 18.5-1.2 27.4-2-.2-1.7.6-4.2-1-5.2-5-3.5-10-6.5-14.4-10.8-5-4.8-10.2-9.6-10.6-17 .2-3.3 3.3-6.1 5.9-7.9a57 57 0 0 1 26.8-6.7q15-1.5 29.8 2c1.8.2 4 1.4 5.3-.5 1.6-1.7.7-3.7-1-5-4-2.8-9.2-5.3-12.8-9.2a17 17 0 0 1-4-9.8c.3-4.1 4.2-6.6 7.4-8.3a82 82 0 0 1 31.3-6.5q15.1-.4 30.2.1c6.6.3 13.3 1.5 19.8.7-.1-4-2.3-6.6-3.9-10.1-2.4-5.1-5.8-10.3-6.3-16-.4-3 .6-6 3.4-7.7 3.7-2.2 8.6-2.7 12.8-3 5.8-.2 12-.4 17.8.7q18 3.4 35.7 8.6c9.9 3 19.6 6.7 29.6 9.5 2.6.3 3.1-2.9 2.6-5-1.7-8.4 1.9-18.4 9.6-22.8 6.6-4 14.5-4 21.5-1M626.3 547q7.9 1.3 15.8 2.2c-1.2 7.1-5.9 13.6-13.5 14.1-4.3.4-6.4-2.4-9.3-5z" fill="currentColor"/><use transform="translate(630.5 421.2)" href="#earrings-variant01-0b00a4bf"/></g></svg>
