<svg xmlns="http://www.w3.org/2000/svg" viewBox="0 0 762 762"><g transform="translate(-65.6 -47.4)" mask="url(#hairClipMask)"><path d="M434.7 87.2a70 70 0 0 1 42.1 26.5q13.2-8.1 27.8-12.2c12-3.5 24.7-4.2 37-2.8 15.4 2 30.6 9 40.1 21.6a47 47 0 0 1 9.3 31.1c6.5.8 12.9 1.4 19.1 3.3a63 63 0 0 1 34.4 22.9 42 42 0 0 1 7.6 30.8 71 71 0 0 1 61 9.5 54 54 0 0 1 19 23.3c4 10 4 21.4-.2 31.2a46 46 0 0 1-13 17.1 58 58 0 0 1 42.9 24.7c1.1 1.8 1.6 4-.1 5.6-1.7.4-3.5-.9-5-1.4-3.5-1.7-7-1.4-10.7-1.4a54 54 0 0 1 3.5 70.3 45 45 0 0 1-29.7 16.7 47 47 0 0 1-14 52.7c-1.7 1.3-4 2.7-5.5.2a57 57 0 0 0-26.4-27.3 30 30 0 0 1-6.4 11.7 37 37 0 0 1-55.1-3.7c-5-7-6-15.7-3-23.8a59 59 0 0 0-16.1 13.3c-2 2.4-3.6 2.2-6 .6a59 59 0 0 1-24.2-46.3 78 78 0 0 1 14.4-48.5c-15.4 2-30.2-8-35.3-22.4a48 48 0 0 1-24.6 7.3 52 52 0 0 1-30.2-9.2 85 85 0 0 1-28.4-33.1q-3.6 4.8-8 9.4a75 75 0 0 1-55.4 22.4c-13.3-.4-26-4.7-37-12.2a60 60 0 0 0 13.4 23c1.2 1.1 2 2.3 1.4 4a16 16 0 0 1-6.6 4.7 76 76 0 0 1-49.2 5.9 81 81 0 0 1-39.3-20.6c-8.3 12.7-23 18-37.7 17.4a279 279 0 0 0-18.4 49c-1.1 3.8-1.6 7.8-3.1 11.4-.8 1.8-2.7 2.3-4.5 1.6a35 35 0 0 1-19.7-20.4 52 52 0 0 1-2-33.4 37 37 0 0 1-29.1-11.5 61 61 0 0 1-15.4-40.8 78 78 0 0 1 13.9-46.3c1.5-1.8 2.6-4 5.4-3.3 1.9 1.2 1.4 3.6 2 5.6.6 4.4 3 8.3 5.2 12 5.4-15.5 18.6-29.3 35.8-30.3-.6-3.2-1.3-6.4-1.2-9.7a55 55 0 0 1 19.3-38.8 41 41 0 0 1 26-10.4c1.2-14.3 9-27.7 19-37.7a65 65 0 0 1 38.8-18.9c10-1 20.3 1.7 28.5 7.7 23.8-24 60.4-35.5 93.6-28.1M623 541c1.5-1 2.7-.4 4.1 0a81 81 0 0 0 16.5 2.2l7.1-.2c2 .9 2 2.5 2 4.4a33 33 0 0 1-5.3 17.7 27 27 0 0 1-16.8 11.4A26 26 0 0 1 609 571c-1.7-1.5-3.2-3.8-1.5-5.9q5.7-7.4 10.7-15.3c1.8-2.9 2.9-6.3 5-9" fill="black"/><path d="M423.4 91.1a70 70 0 0 1 44.1 20.4c2.5 2.5 4.3 5.7 6.7 8.2 1.8 1.3 3.4.4 5-.6a91 91 0 0 1 67.6-13.6 53 53 0 0 1 28.5 16.2 41 41 0 0 1 10 29.7c0 1.5-.4 3.5.3 4.9 1.1 1.2 2.4 1 4 1.2a69 69 0 0 1 38.7 12.2c9 6.4 16.2 15.6 18 26.7.4 5.5.8 11-1.6 16.2-.9 2.5 1.2 4.3 3.6 3.3a65 65 0 0 1 58.8 5c8.5 5.3 15.8 13 19.5 22.4 3.4 8 3.7 17.5.5 25.6a39 39 0 0 1-13 16.9c-2.5 1.9-5.4 3.4-7.7 5.6-1.4 1.6 0 4.5 2.2 4.3 5.4 0 10.6-.7 16 .4 10.8 2 20.2 7.9 27.8 15.7-3.7 0-8.7-.6-11.9 1.6-1.8 1.2-2.4 3.3-1 5.1 2.4 3.2 5.5 5.9 7.6 9.4 7.1 10.8 9 23.9 6.8 36.5a44 44 0 0 1-17.8 27.5c-6.4 4.2-13.7 7-21.5 6.1-2.2-.4-2.8 2.6-1.9 4.2a42 42 0 0 1-9.2 49.1 71 71 0 0 0-18.2-21.6c-3.3-2.6-7.2-4-10.7-6.3-1.5-3.8-.4-8.5-4.8-10.4l-2.8 1.3c.1 4 1.8 7.3 1.5 11.1-.3 6.4-4.2 12-9.4 15.5a32 32 0 0 1-39.4-3.6 20 20 0 0 1-5.7-18.7c.7-3.3 2.6-5.7 4.3-8.5 1-1.2 0-3-.4-4.4q-3 0-5.9 1c-8.4 3.3-16 9.1-22 15.8a52 52 0 0 1-19.7-30.3 72 72 0 0 1 16-61.2c1.3-1.8 2.6-3.3 1.3-5.5-1.5-2-4-.7-5.9 0-9.9 4.6-22.3-.1-29-8.1-3.5-4-5-8.6-6.8-13.5-2.2-.2-3.8-.4-5.8 1a42 42 0 0 1-23.5 7 48 48 0 0 1-29.2-10.3 84 84 0 0 1-25.7-34.2l-2.3-1.5q-2.2 1.5-3.6 3.7a68 68 0 0 1-58.2 31.7A59 59 0 0 1 359 288c-1.2-.9-2.6-2.1-4.3-1.4-2.2 1-2.5 3.8-2 6 1.9 10.2 7.2 20 13.7 28a72 72 0 0 1-66.7-.3 71 71 0 0 1-34-37 60 60 0 0 1-2.7-35.8c.4-1.9 1-3.6 0-5.4-1.9-1.1-3.8-1-4.8 1.1-7 22.7.5 47.3 15.9 64.7a33 33 0 0 1-23.5 15.2c-7.5.8-15.1.5-22.2-2.4-4.5-1.6-8.2-4.3-12.2-6.7-3-1.3-5.5 2.7-2.8 4.7 6 5.1 14 8.3 21.8 10q-13.5 27.2-20.7 56.6c-8-3.8-12.5-11.2-15.4-19.3a42 42 0 0 1-.3-27.3c.7-2.8 2.6-5-.3-7.2-4-.5-7.8 1.3-12 .3a34 34 0 0 1-23.9-16.3 62 62 0 0 1-7.9-40c1-10.5 4.8-21 10.3-30 1.8 5.3 4.6 11 8.9 14.8q2.2 1.9 4.9.4c1.1-2.4 1-5.4 2-8a39 39 0 0 1 23.3-22.5c4-1.4 7.5-.4 11.5-.6 1.2-.4 1.7-1.9 2.4-2.8-4.9-11.3-2.4-23.2 3.3-33.6a45 45 0 0 1 25.8-22c3.8-1.2 7.5-.5 11.4-1 2-.7 1.6-2.9 2-4.7 1.2-13.2 7.6-25 16.9-34.2a59 59 0 0 1 36.2-17.9 35 35 0 0 1 23.3 6.2 77 77 0 0 0-17.9 38c-.2 2.2 1.6 3.5 3.7 3.2 2.3-1.2 2-3.6 2.7-5.8a69 69 0 0 1 14.8-30 98 98 0 0 1 83.2-33.8m202.7 455.2q10.1 2 20.6 2.4a23 23 0 0 1-13.9 21 21 21 0 0 1-19.8-2.5c4.7-6.9 9.4-13.5 13.1-21" fill="currentColor"/><use transform="translate(630.5 421.2)" href="#earrings-variant01-0b00a4bf"/></g></svg>
