<?xml version="1.0" encoding="UTF-8" standalone="no"?>
<!-- Created with Inkscape (http://www.inkscape.org/) -->

<svg
   width="47.848721mm"
   height="47.848717mm"
   viewBox="0 0 47.848721 47.848717"
   version="1.1"
   id="svg1"
   inkscape:version="1.4.4 (dcaf3e7, 2026-05-05)"
   sodipodi:docname="tab_icons.svg"
   xmlns:inkscape="http://www.inkscape.org/namespaces/inkscape"
   xmlns:sodipodi="http://sodipodi.sourceforge.net/DTD/sodipodi-0.dtd"
   xmlns="http://www.w3.org/2000/svg"
   xmlns:svg="http://www.w3.org/2000/svg">
  <sodipodi:namedview
     id="namedview1"
     pagecolor="#ffffff"
     bordercolor="#000000"
     borderopacity="0.25"
     inkscape:showpageshadow="2"
     inkscape:pageopacity="0.0"
     inkscape:pagecheckerboard="0"
     inkscape:deskcolor="#d1d1d1"
     inkscape:document-units="mm"
     inkscape:zoom="1.072104"
     inkscape:cx="121.72327"
     inkscape:cy="36.377069"
     inkscape:window-width="1512"
     inkscape:window-height="921"
     inkscape:window-x="0"
     inkscape:window-y="33"
     inkscape:window-maximized="1"
     inkscape:current-layer="layer1"
     showgrid="false" />
  <defs
     id="defs1" />
  <g
     inkscape:label="Layer 1"
     inkscape:groupmode="layer"
     id="layer1"
     transform="translate(-78.845833,-124.61875)">
    <g
       id="g117"
       inkscape:label="find"
       transform="matrix(0.43194869,0,0,0.41887637,-176.93992,-19.011883)"
       style="display:none">
      <path
         style="fill:#163d40;fill-opacity:1"
         d="m 692.34278,455.61517 c -1.37684,-0.55892 -24.68046,-23.57726 -25.95142,-25.63371 -0.32511,-0.52603 -0.45011,-1.32383 -0.2778,-1.77288 0.17232,-0.44906 -0.95901,-2.05885 -2.51407,-3.57732 l -2.82738,-2.76086 -3.5835,2.21701 c -5.73914,3.55067 -11.60061,5.27904 -19.29791,5.69038 -8.82805,0.47177 -14.22771,-0.54487 -21.56163,-4.0596 -22.53608,-10.80026 -31.02249,-39.29494 -18.07509,-60.6904 8.59458,-14.20246 24.41146,-22.37089 40.72905,-21.03401 18.14493,1.48659 33.52243,14.65079 38.06857,32.58932 0.86558,3.4155 1.10532,6.81331 0.8767,12.42535 -0.35599,8.73828 -1.86012,13.82172 -6.14266,20.75998 l -2.6324,4.26483 2.34386,2.41826 c 1.28912,1.33004 3.21775,2.59722 4.28584,2.81596 1.25788,0.25761 6.38334,4.87178 14.55004,13.09863 12.06565,12.15449 12.60808,12.82553 12.60808,15.59728 0,5.74604 -5.50397,9.71982 -10.59828,7.65178 z"
         id="path112" />
      <path
         style="fill:#ffffff;fill-opacity:1"
         d="m 641.69197,418.20965 c 15.81046,-3.32945 26.23419,-17.12585 25.28803,-33.47017 -0.6441,-11.12654 -7.38995,-20.95958 -17.96447,-26.18579 -4.68965,-2.31775 -6.25921,-2.71366 -11.81024,-2.97906 -17.1229,-0.81866 -30.73102,10.06345 -33.66066,26.91765 -2.16204,12.43823 5.31915,26.87169 16.99213,32.78296 7.00604,3.5479 13.78003,4.48751 21.15521,2.93441 z"
         id="path111" />
    </g>
    <g
       id="g115"
       inkscape:label="explorer"
       transform="matrix(0.32299325,0,0,0.32299325,-11.427138,19.682994)"
       style="display:none">
      <path
         style="fill:#163d40;fill-opacity:1"
         d="m 286.57324,461.33026 c -1.70463,-0.82722 -3.95418,-2.7921 -5.11632,-4.46887 l -2.07407,-2.99253 -0.19626,-55.55504 -0.19626,-55.55504 1.77557,-2.68306 c 3.38507,-5.11519 3.83874,-5.18419 32.53619,-4.94854 30.01068,0.24643 26.5241,-0.84828 35.72116,11.21569 3.32853,4.36609 6.45313,8.1933 6.94358,8.50492 0.49045,0.31162 12.8968,0.57345 27.56968,0.58185 15.21444,0.009 27.79112,0.32452 29.26853,0.73495 1.42482,0.39583 3.71684,1.88169 5.09339,3.30192 2.25522,2.3268 2.53029,3.0686 2.78068,7.4989 l 0.27788,4.91666 -62.38168,-0.21617 c -43.8091,-0.15182 -63.20813,0.0232 -65.15753,0.58798 -1.84136,0.53345 -3.25527,1.59045 -4.19996,3.13979 -1.36042,2.23115 -1.42425,3.94132 -1.42685,38.23401 -0.003,35.2128 0.0262,35.93517 1.51212,37.82421 1.11009,1.41125 2.18421,1.92583 4.01996,1.92583 h 2.50511 v -31.13563 c 0,-34.46183 0.0444,-34.81849 4.69237,-37.65278 2.15372,-1.31333 4.82468,-1.3729 61.67337,-1.37552 51.68849,-0.002 59.70119,0.14157 61.56619,1.106 2.22358,1.14985 4.35628,4.42671 4.36855,6.71218 0.02,3.71861 -12.78668,65.14974 -14.00961,67.20153 -2.89046,4.84951 -0.0566,4.64981 -65.41087,4.60952 -57.75637,-0.0356 -59.16147,-0.0698 -62.13492,-1.51276 z"
         id="path108" />
    </g>
    <g
       id="g116"
       transform="matrix(0.32274189,0,0,0.32274189,-8.2627031,-79.027206)"
       style="display:none">
      <path
         style="fill:#163d40;fill-opacity:1"
         d="m 293.27163,778.21708 c -3.14038,-1.64926 -4.71637,-3.23209 -6.29208,-6.31941 -1.32689,-2.59982 -1.38403,-5.35137 -1.38403,-66.64729 0,-43.39621 0.24975,-64.59652 0.77741,-65.99309 0.95235,-2.52061 4.02802,-5.85469 6.67805,-7.23913 1.64172,-0.85768 10.22129,-1.0311 51.00959,-1.0311 47.40637,0 49.13005,0.048 51.86885,1.44526 1.55812,0.79489 3.60068,2.52164 4.53902,3.83723 l 1.70609,2.39199 0.19422,65.64654 c 0.21798,73.67509 0.55569,68.94029 -5.18821,72.74201 l -2.93827,1.94476 -49.38978,0.18646 c -43.76146,0.16522 -49.63947,0.0553 -51.58086,-0.96423 z"
         id="path52" />
      <path
         style="display:inline;fill:#ffffff;fill-opacity:1"
         d="m 392.56105,769.22089 c 1.10645,-0.91872 1.2081,-6.31158 1.2081,-64.09526 v -63.09214 l -1.62444,-1.1378 c -1.42902,-1.00092 -7.23218,-1.1378 -48.23959,-1.1378 -45.64061,0 -46.64571,0.0306 -48.07696,1.4618 -1.43888,1.43889 -1.4618,2.43635 -1.4618,63.62176 v 62.15995 l 1.8473,1.8473 1.8473,1.8473 46.646,-0.23599 c 38.20138,-0.19327 46.8647,-0.41759 47.85409,-1.23912 z"
         id="path51" />
      <path
         style="fill:#163d40;fill-opacity:1"
         d="m 331.23319,670.12614 c -1.41849,-2.16489 -0.86051,-4.39991 1.48155,-5.93448 1.43528,-0.94044 4.93339,-1.07627 23.02775,-0.89416 20.14159,0.20271 21.39338,0.29411 22.37199,1.6335 1.42293,1.94752 1.29921,4.32968 -0.30002,5.77697 -1.18154,1.06927 -3.89356,1.20964 -23.37204,1.20964 h -22.03541 z"
         id="path50" />
      <path
         style="fill:#163d40;fill-opacity:1"
         d="m 311.35985,671.55553 c -2.06581,-1.48557 -2.23556,-5.45461 -0.3079,-7.19912 1.80637,-1.63474 6.15708,-1.56285 7.68637,0.127 1.4356,1.58631 1.57169,4.46696 0.29361,6.21483 -1.33297,1.82296 -5.65729,2.30616 -7.67208,0.85729 z"
         id="path49" />
      <path
         style="fill:#163d40;fill-opacity:1"
         d="m 332.02574,695.7754 c -0.84588,-0.61852 -1.35787,-1.89769 -1.35787,-3.39252 0,-4.30892 0.42105,-4.38541 24.13767,-4.38541 20.4474,0 21.48844,0.0665 22.88374,1.4618 0.804,0.80399 1.46181,2.11962 1.46181,2.92361 0,0.80399 -0.65781,2.11962 -1.46181,2.92361 -1.3953,1.39531 -2.43634,1.46181 -22.88374,1.46181 -16.89603,0 -21.70882,-0.20978 -22.7798,-0.9929 z"
         id="path48" />
      <path
         style="fill:#163d40;fill-opacity:1"
         d="m 310.86388,695.61974 c -1.31733,-1.31733 -1.49589,-4.14578 -0.39194,-6.20852 0.96821,-1.80912 6.60405,-1.9886 8.32746,-0.26519 1.55082,1.55082 1.45176,4.92861 -0.18807,6.41263 -1.69287,1.53203 -6.24065,1.56788 -7.74745,0.0611 z"
         id="path47" />
      <path
         style="fill:#163d40;fill-opacity:1"
         d="m 331.27438,719.15949 c -1.31149,-2.0016 -0.53946,-5.0758 1.46817,-5.8462 0.66667,-0.25582 10.86931,-0.46513 22.67253,-0.46513 21.34801,0 21.46637,0.008 22.59821,1.62443 1.44863,2.06822 1.44507,3.8111 -0.0108,5.26693 -0.99378,0.99379 -4.14342,1.14857 -23.37204,1.14857 h -22.22344 z"
         id="path46" />
      <path
         style="fill:#163d40;fill-opacity:1"
         d="m 310.86388,720.47043 c -2.8622,-2.8622 -0.25398,-8.35318 3.96776,-8.35318 4.32883,0 6.84432,5.51865 3.77969,8.2921 -1.69287,1.53203 -6.24065,1.56788 -7.74745,0.0611 z"
         id="path45" />
      <path
         style="fill:#163d40;fill-opacity:1"
         d="m 331.84536,744.82515 c -1.48661,-1.92126 -1.67273,-3.71621 -0.56124,-5.41256 l 1.13668,-1.7348 22.4238,0.19325 22.42379,0.19326 1.08967,1.94193 c 0.87638,1.56181 0.92064,2.31294 0.22612,3.83724 l -0.86356,1.89531 h -22.58416 c -17.20303,0 -22.7526,-0.21769 -23.2911,-0.91363 z"
         id="path44" />
      <path
         style="fill:#163d40;fill-opacity:1"
         d="m 310.86388,745.32112 c -1.74694,-1.74694 -1.47647,-5.8479 0.47587,-7.21538 3.55319,-2.48874 8.60821,-0.36703 8.60821,3.61307 0,3.97606 -6.23703,6.44936 -9.08408,3.60231 z"
         id="path43" />
    </g>
    <g
       id="g2"
       inkscape:label="tree"
       style="display:none">
      <rect
         style="display:none;fill:#000000;fill-opacity:1;stroke-width:7.18701;stroke-linecap:round;stroke-linejoin:round;paint-order:stroke fill markers"
         id="rect118"
         width="47.848717"
         height="47.848717"
         x="78.845833"
         y="124.61875"
         ry="0" />
      <rect
         style="fill:#163d40;fill-opacity:1;stroke-width:9.00118;stroke-linecap:round;stroke-linejoin:round;paint-order:stroke fill markers"
         id="rect1"
         width="19.519632"
         height="17.8265"
         x="93.010376"
         y="124.61875"
         ry="4.1195078" />
      <rect
         style="fill:#163d40;fill-opacity:1;stroke-width:9.00118;stroke-linecap:round;stroke-linejoin:round;paint-order:stroke fill markers"
         id="rect1-5-9"
         width="19.519632"
         height="17.8265"
         x="78.845833"
         y="154.64096"
         ry="4.1195078" />
      <path
         style="fill:#163d40;fill-opacity:1;stroke:#163d40;stroke-width:4.987;stroke-linecap:square;stroke-linejoin:miter;stroke-dasharray:none;stroke-opacity:1;paint-order:stroke fill markers"
         d="m 88.605648,157.90797 v -6.53402"
         id="path1" />
      <rect
         style="fill:#163d40;fill-opacity:1;stroke-width:9.00118;stroke-linecap:round;stroke-linejoin:round;paint-order:stroke fill markers"
         id="rect1-5-9-3"
         width="19.519632"
         height="17.8265"
         x="107.17492"
         y="154.64096"
         ry="4.1195078" />
      <path
         style="fill:#163d40;fill-opacity:1;stroke:#163d40;stroke-width:4.987;stroke-linecap:square;stroke-linejoin:miter;stroke-dasharray:none;stroke-opacity:1;paint-order:stroke fill markers"
         d="m 116.93474,157.90798 v -6.53402"
         id="path1-6" />
      <path
         style="fill:#163d40;fill-opacity:1;stroke:#163d40;stroke-width:4.987;stroke-linecap:square;stroke-linejoin:miter;stroke-dasharray:none;stroke-opacity:1;paint-order:stroke fill markers"
         d="m 102.77019,145.71226 v -6.53402"
         id="path1-6-0" />
      <path
         style="fill:#163d40;fill-opacity:1;stroke:#163d40;stroke-width:4.987;stroke-linecap:square;stroke-linejoin:miter;stroke-dasharray:none;stroke-opacity:1;paint-order:stroke fill markers"
         d="m 88.605647,148.5431 28.329093,1e-5"
         id="path2" />
    </g>
    <path
       d="m 107.1412,133.22513 -12.15642,32.41711 h -5.165364 l 12.156414,-32.41711 z m 13.40327,-1.82569 -0.80152,6.32312 5.78877,-2.1374 1.20228,5.16537 -5.78877,0.66793 4.27478,4.89819 -4.40837,3.0725 -3.02797,-5.74424 -3.02797,5.74424 -4.36384,-3.0725 4.23025,-4.89819 -5.78877,-0.6234 1.24681,-5.16537 5.74424,2.09287 -0.75699,-6.32312 z"
       id="text1"
       style="font-size:44.529px;font-family:'Noto Sans';-inkscape-font-specification:'Noto Sans, @wght=700';font-variation-settings:'wght' 700;fill:#163d40;stroke-width:1.10713;stroke-linecap:square;paint-order:stroke fill markers"
       aria-label="/*" />
    <path
       d="M 96.568375,133.22513 84.411958,165.64224 H 79.246594 L 91.403011,133.22513 Z"
       id="text2"
       style="font-size:44.529px;font-family:'Noto Sans';-inkscape-font-specification:'Noto Sans, @wght=700';font-variation-settings:'wght' 700;fill:#163d40;stroke-width:1.10713;stroke-linecap:square;paint-order:stroke fill markers"
       aria-label="/" />
  </g>
</svg>
