<?xml version="1.0" encoding="utf-8"?>
<!-- Generator: Adobe Illustrator 26.0.3, SVG Export Plug-In . SVG Version: 6.00 Build 0)  -->
<svg version="1.1" id="Layer_1"
	xmlns="http://www.w3.org/2000/svg"
	xmlns:xlink="http://www.w3.org/1999/xlink" x="0px" y="0px" viewBox="0 0 16 16" style="enable-background:new 0 0 16 16;" xml:space="preserve" width="16px" height="16px">
	<path d="M14.5,0.3H1.6c-0.7,0-1.3,0.7-1.3,1.6v12.1c0,0.9,0.6,1.6,1.3,1.6h12.8c0.7,0,1.3-0.7,1.3-1.6V1.9
	C15.7,1.1,15.2,0.3,14.5,0.3z M6.9,9.2C6.6,9.9,6.1,10.5,5.5,11c-0.6,0.5-1.3,0.8-2.1,0.9v-1.3c0.5-0.1,0.9-0.3,1.2-0.6
	C4.8,9.7,5,9.4,5.2,9c0.2-0.4,0.2-0.9,0.2-1.4C4.8,7.6,4.3,7.4,4,7.1C3.7,6.7,3.5,6.3,3.5,5.9C3.5,5.4,3.7,5,4,4.6
	c0.3-0.3,0.8-0.5,1.2-0.5c0.6,0,1.1,0.3,1.5,0.8C7.2,5.4,7.4,6.1,7.4,7C7.4,7.8,7.3,8.5,6.9,9.2z M12.1,9.2
	c-0.3,0.7-0.8,1.3-1.4,1.8c-0.6,0.5-1.3,0.8-2.1,0.9v-1.3c0.5-0.1,0.9-0.3,1.2-0.6C10,9.7,10.2,9.4,10.4,9c0.2-0.4,0.2-0.9,0.2-1.4
	c-0.7,0-1.1-0.2-1.5-0.6C8.9,6.7,8.7,6.3,8.7,5.9c0-0.5,0.2-0.9,0.5-1.2c0.3-0.3,0.7-0.5,1.2-0.5c0.6,0,1.1,0.3,1.6,0.8
	c0.4,0.5,0.6,1.2,0.6,2.1C12.6,7.8,12.4,8.5,12.1,9.2z"/>
</svg>
