<?xml version="1.0" encoding="utf-8"?>
<!-- Generator: Adobe Illustrator 26.0.3, SVG Export Plug-In . SVG Version: 6.00 Build 0)  -->
<svg version="1.1" id="Layer_1" xmlns="http://www.w3.org/2000/svg" xmlns:xlink="http://www.w3.org/1999/xlink" x="0px" y="0px"
	 viewBox="0 0 16 16" style="enable-background:new 0 0 16 16;" xml:space="preserve">
<path d="M14.7,1.8H1.3C0.6,1.8,0,2.4,0,3.1v9.8c0,0.7,0.6,1.3,1.3,1.3h13.3c0.7,0,1.3-0.6,1.3-1.3V3.1C16,2.4,15.4,1.8,14.7,1.8z
	 M14.2,9.6c0,0.1-0.1,0.2-0.2,0.2h-4c-0.1,0-0.2-0.1-0.2-0.2V9.1C9.8,9,9.9,8.9,10,8.9h4c0.1,0,0.2,0.1,0.2,0.2V9.6z M14.2,7.8
	C14.2,7.9,14.1,8,14,8h-4C9.9,8,9.8,7.9,9.8,7.8V7.3c0-0.1,0.1-0.2,0.2-0.2h4c0.1,0,0.2,0.1,0.2,0.2V7.8z M14.2,6
	c0,0.1-0.1,0.2-0.2,0.2h-4C9.9,6.2,9.8,6.1,9.8,6V5.6c0-0.1,0.1-0.2,0.2-0.2h4c0.1,0,0.2,0.1,0.2,0.2V6z M8,11.8H1.8V4.2H8V11.8z"/>
</svg>
