<svg xmlns="http://www.w3.org/2000/svg" viewBox="0 0 762 762"><g transform="translate(154.6 268.5)"><path d="M266.7 19.2c14 7 27.7 17.3 36.5 30.5A3 3 0 0 1 299 54a104.4 104.4 0 0 0-132.7 19.6c-1.7 2-4 3.6-6.3 1.2-1.7-2.6-2.2-6-3.3-9q-2.7 7.3-6.2 14.1c-1.5 3.2-6 1.1-7-1.4q-4.6-10.3-9-20.8v17c-.2 2 .3 4.3-2.1 5.2-2 .2-4.4-1-5.3-3-3.3-5.8-6.2-11.9-9.5-17.8 1 5.5 2.6 11 3.1 16.6.1 2-2.3 3.4-4 2.3a133 133 0 0 0-58.3-10 65 65 0 0 0-36 12.6c-3.1 2.4-5.2 5.5-8 8.2-1.7.7-3.3-.3-4.9-.7q-.1-2.8.7-5.6a87 87 0 0 1 40-50c13.6-7.4 30.2-9 44.6-3.4a57 57 0 0 1 27.7 24c2.3-2.9 4.3-6 6.8-8.8 1.6-1.5 4.6-1.5 5.6.8q3.6 7.8 7 15.7l4.4-22.2q.3-2.4 1.6-4.5c1.6-1.2 2.9-.2 4.6.1l.8 2.6q3-7.2 8.5-12.8a62 62 0 0 1 34.5-16.5C220 3.8 245 8.6 266.7 19.2" fill="black"/></g></svg>
