<svg xmlns="http://www.w3.org/2000/svg" viewBox="0 0 762 762"><g transform="translate(154.6 268.5)"><path d="M291.4 46c1.5-.3 3.2.7 4.7 1q-.1 2-.5 3.7-2.6 2.1-5.4 3.8A804 804 0 0 1 220 95a290 290 0 0 1-35.5 15.4 50 50 0 0 1-21 3.5c-3.4-.3-6.2-3-6.3-6.5 0-4.2 3-8.6 5.1-12.1 1.3-2.7 4.5-3 7-4.1L281 49.7c3.4-1.2 6.9-2.8 10.5-3.7M23.3 81.1l90 18c2.3.4 4.7.1 7 .5 2.4 2.3 3.6 6.2 4.5 9.4 1.1 4-.2 8.8-4 11-4 2.6-9.9 2.2-14.5 1.9-8.7-1-17.4-3.8-25.6-6.8a418 418 0 0 1-57-27c-1.7-.9-3.7-1.9-4.8-3.5-.4-2.9 1.9-4.1 4.4-3.5" fill="black"/></g></svg>
