<svg xmlns="http://www.w3.org/2000/svg" viewBox="0 0 762 762"><g transform="translate(154.6 268.5)"><path d="M297.9 50c1.6 1 1 2.9 1.2 4.5v34c.2 2.8-2.5 4.3-4.7 5l-120 41.2c-2.6.2-2.9-1.8-3.6-3.7l-5-18c1 5.8 1 11.7 1.4 17.5 0 1.4.4 4-1 4.9-2 1.4-4 0-4.6-2Q156.3 114 150.9 95c-.3-1.8-.6-3.9 1.4-4.9q3.1-.6 4 2.5l3.7 13.7q-1-7.9-1.2-15.8c0-1.3-.1-3.7 1.7-3.8l4.4-.7 123.6-35.2c3.3-.9 6-2.1 9.4-.8M8.4 82.4c13.6 1.4 27.3 1.4 41 2.5 21 1.1 42 2.7 63.1 3.5 7.8.8 15.6 1 23.4 1.6 2.8 2.2 1.1 8.1 2 11.4.5-3 .1-7 1.9-9.5 2.1-1.8 5-.2 4.7 2.6l-7 42.2c-.8 2.9-4.5 2.5-5.3-.2l-.3-14.8c-1 4.3-1.4 8.7-2.4 13-.5 1.6-1.2 2.8-3.1 2.4L7.5 115.8q-2.8-.5-3-3.3c-1.5-8-2.6-16-4.2-24-.2-1.7-.8-3.1.5-4.6 2.2-2.2 4.8-1.6 7.6-1.5" fill="black"/></g></svg>
