<svg xmlns="http://www.w3.org/2000/svg" viewBox="0 0 762 762"><g transform="translate(154.6 268.5)"><path d="M81.4 21.6c6.8.2 14.2 2.9 18 9 1 1.4.6 3.6.7 5.3-6.3.2-12.5.4-18.7 1.9a112 112 0 0 0-41.6 20.1 90 90 0 0 0-22 23c-1.4 2.3-2.4 5.1-4.2 7l-3.9.3q-.2-2.7.2-5.2A89 89 0 0 1 48 32.2a65 65 0 0 1 33.4-10.6m181.5 38.6a71 71 0 0 1 30 10l-.2 4.7c-4 1.6-7.3-.1-11.3-.8-6.8-1.2-14-1.2-20.9-1a198 198 0 0 0-84 23.7l-4.3 1.5c-2.6-5.4-3.7-11-.2-16.2a48 48 0 0 1 23.7-15.4c21.3-7.4 44.8-9 67.2-6.5" fill="black"/></g></svg>
