<svg xmlns="http://www.w3.org/2000/svg" viewBox="0 0 762 762"><g transform="translate(154.6 268.5)"><path d="M140.4 28.9c2.2-.1 2.8 1.7 2.6 3.6-.5 4.7-.7 9.8-2.3 14.2l-4 .9c-1.1-4.8 0-10.3.7-15.1.3-1.7.8-3.9 3-3.6m20.8 6.3q-.1 4.8-.7 9.5c41.7.5 83.3.4 125 .8q3.1.2 5.9 1.6c-.6 1.5-.2 3.8-2.3 4-8 1.4-16.5.6-24.7 1l-52 1.5c-17 .2-34 1.2-51.1 1.4-3.3.4-6-2.7-7.2-5.5 0-4.5 1-9.1 2-13.5 1.3-2.4 2.9-1.6 5-.9m-36.9 5.6c-.1 4.8 0 10.8-2.3 15.2-3.2 1.5-7.1 1.8-10.6 2.5l-77 14c-4.2.8-8.6 2.2-13 2.1-2.6-.5-3.3-3.7-.8-5 3.2-1.4 7-1.7 10.3-2.6l87.3-20.3 1.3-5.7z" fill="black"/></g></svg>
