<svg xmlns="http://www.w3.org/2000/svg" viewBox="0 0 762 762"><g transform="translate(154.6 268.5)"><path d="M298.4 55.5a134 134 0 0 0-92-35 175 175 0 0 0-26.5 3q-2.1 5-3.5 10l-1.1 3.7-.1-1.4-1.3-11.4-3.3-1.5-.8 1.1q-1 1.2-1.2 2.4 0 5.7.7 11.3a113 113 0 0 1 .8 10.5c.2 2.4.3 5 1.7 6.8 2.8.8 6-.3 9-1.3l3-1c19-5.5 39.2-6.8 58.8-4.4 20 2.3 40 8.3 57.4 18.6q3 1.5 6.1 2.5L308 66q-4.1-5.8-9.5-10.5M106.6 48q.4-6.2 0-12.6c-.2-2.5-1.8-2.5-3.7-2.6h-1c-.9 3.6-1 7.5-1.2 11.3l-.2 5Q98 43.4 96 37.7l-.4-.8c-.4-1.1-1-2.3-2.2-2.3q-3.7 0-7.6.9l-3.4.6a128 128 0 0 0-52 20.3A53 53 0 0 0 13.5 75c-1.4 3.2-2.8 6.5-1.5 10h.4c1 .4 2.6.9 3.4.1l2.7-2.1q3-2.7 6.5-4.6A153 153 0 0 1 93.4 63q2.7.1 5.4.5 3 .5 5.7.5c1.8-1.2 1.8-3.6 1.9-5.7v-1.8z" fill="black"/></g></svg>
