<svg xmlns="http://www.w3.org/2000/svg" viewBox="0 0 762 762"><g transform="translate(154.6 268.5)"><path d="M98.5 38.3C93 31.1 84 29 75.3 30A68 68 0 0 0 41 47a87 87 0 0 0-24.7 35.3c-.7 2-1.3 4.7 1 5.8 2 .2 2.8 0 4.1-1.6A117 117 0 0 1 64.8 51a61 61 0 0 1 26.6-5.7q1.5 0 3.1.4 2.6.6 5 .3c2.9-2.2.7-5.3-.9-7.5zm178.8 18.4a147 147 0 0 0-59-19c-10-.8-21.4-.2-30.7 4-6.7 3.2-12.3 8.6-13.5 16.3l-.2 1c-.3 2.8-.9 6.7 1.3 8.7 2 .8 3.7-.3 5.3-1.4q1-.8 2.3-1.4a111 111 0 0 1 45.6-9.7c15.4 0 31.3 2.1 46 7.2l.5.1c1.4.4 2.7.8 3.9-.6 1.8-1.9.4-4.2-1.5-5.2" fill="black"/></g></svg>
