<svg xmlns="http://www.w3.org/2000/svg" viewBox="0 0 762 762"><g transform="translate(154.6 268.5)"><path d="M215.4 2.4c17 2 34 7.4 48.6 16.5a57 57 0 0 1 18.2 16.9c1 1.2 1.3 3.5-.2 4.3-1.2 1.2-2.8.5-4.1 0a143 143 0 0 0-54-15c-13.5-.9-28.2-1-41.1 3.8-3 1-5.5 3-8.5 3.8-1.4.3-2.4-1-2.9-2.2a18 18 0 0 1 .2-14.8A23 23 0 0 1 185 5a73 73 0 0 1 30.4-2.6m-117 54.2C106.6 59 113 67.4 111.9 76q-2.7 1-5.5.7a108 108 0 0 0-42.9 5.9c-14 4.7-28.5 11.6-39.4 21.8-1.3 1.3-4.2 3-5.5.7-1.7-2.3 0-4 1.4-6a128 128 0 0 1 48.9-39c8.9-3.6 20-6.5 29.5-3.5" fill="black"/></g></svg>
