<svg xmlns="http://www.w3.org/2000/svg" viewBox="0 0 762 762"><g transform="translate(154.6 268.5)"><path d="M207.6 32.9c6.2-.5 13-.6 18.5 3a10 10 0 0 1 4.4 10.6C229 52.8 224 57.6 219 61a68 68 0 0 1-30.6 11.6c-5.6.5-12.5.4-17.4-2.6a10 10 0 0 1-5.2-10.3c1-5.8 5.5-10.5 10-14 9.1-7 20.5-11.3 31.9-12.8M76.6 49.7a47 47 0 0 1 26.3 5.3c3.8 2.2 7.3 5.9 7.9 10.5.3 4.2-2 7.8-5.2 10.2-4.5 3.6-9.9 5-15.4 6-10 1-20.6.3-29.5-4.6-3.9-2.2-7.9-5.8-8.5-10.5-.7-4.3 2-8.5 5.4-10.9a36 36 0 0 1 19-6" fill="black"/></g></svg>
