<svg xmlns="http://www.w3.org/2000/svg" viewBox="0 0 762 762"><g transform="translate(154.6 268.5)"><path d="M229.4 27c24.7 1 48 9 69.4 21 2.3 1.3 5 2.5 6.8 4.3 1.3 2.4-.4 5.2-3.2 4.2a234 234 0 0 0-51-12c-20.3-2.4-40-3.7-60.2-.1-3.2.4-6.9 2.1-10.1 1.6-2.7-1.7-1.2-6.1 1.3-7.4a79 79 0 0 1 47-11.6M92.3 45.4q5.2 1 9.7 3.8l-.3 3.6q-4.2 1-8.3 1.4a152 152 0 0 0-38.8 9.6 141 141 0 0 0-35.2 18.8c-2.8 2-4.1 4.8-8 4.4l-1.6-2.6q1.3-2.4 2.8-4.7a90 90 0 0 1 38.6-29.3 71 71 0 0 1 41.1-5" fill="black"/></g></svg>
