<svg xmlns="http://www.w3.org/2000/svg" viewBox="0 0 762 762"><g transform="translate(154.6 268.5)"><path d="M252.8 54.5c-.6-3-2.5-5-4.6-6.9a50 50 0 0 0-45.6-11.5 38 38 0 0 0-23.7 17c-2.8 5-4.7 10.6-4 16.4l.2 1.2c.2 1.7.4 3 2.5 3.6q3.3 0 6.5-.7h.3l6.2-1.3 15.7-3.1Q229 64.4 251.2 58c1.8-.3 1.7-1.6 1.6-3zM114.5 79.6c-.8-9.8-9-17.5-18-20.4-13.2-4-28.3-.4-38.3 9.2a28 28 0 0 0-9 16.1c-.2 2.7 2.3 2.8 4.4 2.8h.7l9.1-.1a336 336 0 0 0 35.2-1.9q6.4-.4 12.8-1.1c2.4 0 3.2-2.6 3-4.6" fill="black"/></g></svg>
