<svg xmlns="http://www.w3.org/2000/svg" viewBox="0 0 762 762"><g transform="translate(154.6 268.5)"><path d="M201.4 28.2c.9-1 2.2-2.3 1.8-3.6-.3-2.5-3.6-3.1-5.2-1.5q-4.3 3.6-8.4 7.4l-9.5 8.5a44 44 0 0 0-7.3 7.5l.8 1c.8 1 1.4 1.8 2.8 1.8 1.5 0 2.7-1.1 3.8-2l.4-.4 13-11.8zm22.6-1q.8-2.6-1.5-4c-2-.4-3.9.7-5.6 1.7l-1.3.8-13.4 7.7q-7.3 4.1-14.4 8.4c-1.7.9-1.7 2-1.7 3.4l-.1 1.5q.7 0 1.3.3c1.2.4 2.3.8 3.6 0l15-8.6 13.6-7.7 1-.6a10 10 0 0 0 3.6-3m26.7-.2c2-.7 4.2.2 4.4 2.6 0 2.3-1.8 2.9-3.5 3.5l-.8.3-37.6 11.6c-1.3.4-2.6.8-4 0-1.8-1.2-1.8-4.2.4-5.1q2.7-1.2 5.6-2l2.7-.8 11.4-3.5zm22.9 12q1.4-2.4-.4-4.5c-2.3-.7-5 0-7.4.5l-2.5.5-8.6 1.7-12.4 2.5c-1.9.5-3.7 1.7-3 4q1 2.8 4 2l12-2.3 11.5-2.3 1.3-.3q3.1-.3 5.5-1.8M90.2 43.2l8 5v.1q2.7 1.5 5 3.4c1.7 1.3 1.2 4.3-.8 5-1.8.3-3-.4-4.4-1.3l-1-.6-17.8-11.4c-1.1-.7-2.4-1.6-2.4-2.9-.4-2.4 2.2-4 4.3-2.9q4.6 2.6 9 5.6m-21.8.8q-3-1-6-1.7c-2.5-.5-4 2-3.3 4.3a9 9 0 0 0 4.1 2.2l.7.3 12 3.8 12.5 4c2.5.8 4.9.6 5.4-2.4-.2-2.1-2-2.8-3.7-3.5h-.2l-.7-.3-18.2-5.8zm203.2-.2 10.4-.3q3.8 0 7.5-.2h1.3c1.6 0 3.6 0 4.3 1.6 1.3 1.7-.2 3.7-2 4.1q-4.5.9-9.1.6h-3.5l-3 .1h-5c-1.3 0-3.2-.3-3.6-1.7a3 3 0 0 1 2.7-4.2M44.6 51.4q-3-.3-6 .3c-1.5 1.2-1.5 3.4-.2 4.8q2.7.9 5.5 1h.4L69 59q2.8.5 5.4 0c2-.6 2.6-3.1 1.1-4.6-.8-1-1.8-1-3-1.1l-1.1-.1-12.5-.8zm-11.3 8.7 4.5-.3c4.2-.3 8.4-.7 12.6-.4 2.9.2 3 4.7.2 5.4q-4.4 1-9 1a76 76 0 0 0-8.8.5q-3.8.5-7.4.1C23 66 22.7 62 25 61.1a19 19 0 0 1 5.8-.8q1.4 0 2.6-.2m-3.5 13.8c2.9-1 2.7-5.3-.5-5.7q-4.3.2-8.6 1l-6.5 1.2c-2.3.2-4.8.6-6 2.1-1.2 2.4.5 4.6 3 4.4q9.4-1 18.6-3" fill="black"/></g></svg>
