<svg xmlns="http://www.w3.org/2000/svg" viewBox="0 0 762 762"><g transform="translate(154.6 268.5)"><path d="M136.4 44.4c.7 4.6-1.5 9.3-4.2 13a44 44 0 0 1-12.9 11c-7.6 4.4-16 7.8-24.2 10.9a424 424 0 0 1-73.5 19.5c-3.3.5-7 1.5-10.3 1-2-.8-2-2.7-1.1-4.4 2.3-1.8 5.4-2.8 8.1-4l107.8-44.1c3.4-1.3 6.6-3.4 10.3-3m26.9.2 148 22.8c2.6.4 5.4.5 7.8 1.4 2.5 1.1 1.8 5-1 5.2q-14.2 1.6-28.7 2c-15.4 0-30.7.3-46-1.2-21-1.7-42.3-4.6-62.3-11-7-2.5-14.8-5.5-20.2-10.7-1.8-2-4.1-4.3-3.2-7.1 1.2-2.2 3.6-1.6 5.6-1.4" fill="black"/></g></svg>
