<svg xmlns="http://www.w3.org/2000/svg" viewBox="0 0 762 762"><g transform="translate(154.6 268.5)"><path d="M215.3.8A86 86 0 0 1 276 16a83 83 0 0 1 29 33c1 3-.3 3.8-2.5 5.3-4-2.2-6.9-5.6-10.5-8.3-13-9.7-28-16.3-43.8-20.2a124 124 0 0 0-45.8-2.8c-4.7.4-9.2 2-14 2.7-2.4.2-5-1.2-4.2-4 2-4.2 4.3-8.6 7.7-11.7a45 45 0 0 1 23.5-9m-148 76.3c13.3-.8 26.3-.6 39 4.3 5.8 2.3 11.5 5.9 14 12a14 14 0 0 1-1.8 12.6c-5-.7-9.4-2.6-14.2-3.8a203 203 0 0 0-71-6c-5 .4-9.9 2-14.8 1.8-1.7-.5-1.1-2.2-1-3.5 1-2.5 3.7-3.9 5.8-5.1a119 119 0 0 1 44-12.3" fill="black"/></g></svg>
