<svg xmlns="http://www.w3.org/2000/svg" viewBox="0 0 762 762"><g transform="translate(171.3 439.7)"><path d="M279.1 46.7c4.5-2.8 10.3 1.4 8.7 6.6-1.2 4.5-7.3 5.3-10 1.9a6 6 0 0 1 1.3-8.5M4.8 48.3c2.3-1.3 5.7-.6 7.5 1.4 2.8 3 1 9.6-3.7 9.3A18 18 0 0 1 4 52c-.6-1.6-.8-2.6.8-3.7m313.4.6c1.3-.7 3-.5 4.4-.3 3.4.7 5.3 5.1 3.5 8.1-1.6 3-5.2 4-8 2.3-3.9-2.2-3.7-8 0-10.1M39.9 51.4c4-2.2 9.5 1.2 8.6 5.9-.3 4.7-6 6.3-9.4 3.6-3-2.5-2.5-7.4.8-9.5M300.2 69c4.2-1.6 8.9 1.7 8 6.3-.7 5-7.1 6.3-10.1 2.6-2.6-3-1.3-7.3 2.1-9M25.7 71c3.7.5 6.4 4.6 4.8 8-1.2 2.6-3.3 3.2-5.8 3.9-1.6-2.2-3.7-4.3-4.8-6.8-.9-3.2 3-5.6 5.8-5" fill="#7A624E"/></g></svg>
