<?xml version="1.0" encoding="UTF-8" standalone="no"?>
<!-- Created with Inkscape (http://www.inkscape.org/) -->

<svg
   version="1.1"
   id="svg1"
   width="1672"
   height="1672"
   viewBox="0 0 1672 1672"
   sodipodi:docname="icon.svg"
   inkscape:version="1.4.4 (dcaf3e7, 2026-05-05)"
   xmlns:inkscape="http://www.inkscape.org/namespaces/inkscape"
   xmlns:sodipodi="http://sodipodi.sourceforge.net/DTD/sodipodi-0.dtd"
   xmlns="http://www.w3.org/2000/svg"
   xmlns:svg="http://www.w3.org/2000/svg">
  <defs
     id="defs1">
    <clipPath
       clipPathUnits="userSpaceOnUse"
       id="clipPath2">
      <path
         d="M 0,0 H 1 V 1 H 0 Z"
         id="path2" />
    </clipPath>
  </defs>
  <sodipodi:namedview
     id="namedview1"
     pagecolor="#ffffff"
     bordercolor="#000000"
     borderopacity="0.25"
     inkscape:showpageshadow="2"
     inkscape:pageopacity="0.0"
     inkscape:pagecheckerboard="0"
     inkscape:deskcolor="#d1d1d1"
     showguides="true"
     inkscape:zoom="0.17066595"
     inkscape:cx="1166.0205"
     inkscape:cy="-468.75197"
     inkscape:window-width="1512"
     inkscape:window-height="921"
     inkscape:window-x="0"
     inkscape:window-y="33"
     inkscape:window-maximized="1"
     inkscape:current-layer="g1">
    <inkscape:page
       x="0"
       y="0"
       inkscape:label="1"
       id="page1"
       width="1672"
       height="1672"
       margin="0"
       bleed="0" />
    <sodipodi:guide
       position="1070.0252,1497.5758"
       orientation="0,-1"
       id="guide2"
       inkscape:locked="false" />
    <sodipodi:guide
       position="1056.6079,179.33165"
       orientation="0,-1"
       id="guide3"
       inkscape:locked="false" />
    <sodipodi:guide
       position="191.19572,320.21271"
       orientation="1,0"
       id="guide4"
       inkscape:locked="false" />
    <sodipodi:guide
       position="1479.2511,360.46444"
       orientation="1,0"
       id="guide5"
       inkscape:locked="false" />
  </sodipodi:namedview>
  <g
     id="g1"
     inkscape:groupmode="layer"
     inkscape:label="1">
    <rect
       style="font-variation-settings:'wght' 700;mix-blend-mode:normal;fill:#86142a;stroke-width:27.1635;stroke-linecap:round;stroke-linejoin:round;paint-order:stroke fill markers;opacity:1;fill-opacity:1"
       id="rect5"
       width="1288.0554"
       height="1318.2441"
       x="191.19572"
       y="174.42427"
       ry="344.79898" />
    <path
       style="display:inline;fill:#ffffff;fill-opacity:1;stroke-width:1.01806"
       d="m 602.24736,1259.0865 c -45.65447,-5.2643 -82.76067,-31.4107 -93.57479,-65.9362 -12.30094,-39.2721 6.42189,-75.4685 42.44261,-82.053 10.13453,-1.8526 23.18145,0.071 32.9712,4.8604 29.38468,14.3765 37.86363,54.4609 16.62406,78.5902 -6.76761,7.6885 -14.27842,12.219 -24.79852,14.9584 -4.40581,1.1473 -8.3262,2.4014 -8.71204,2.7873 -1.1662,1.1662 2.86162,7.7295 7.77919,12.6762 13.16193,13.2394 39.67113,18.4823 63.12343,12.4842 15.02267,-3.8423 23.0356,-8.6089 35.65235,-21.209 9.63059,-9.6178 12.11212,-13.1475 18.71101,-26.6142 12.06293,-24.6175 18.12036,-53.599 21.07696,-100.8419 0.83349,-13.3182 1.36108,-131.50948 1.36402,-305.57684 0.005,-312.22665 0.36623,-298.29058 -8.18967,-316.21784 -7.73918,-16.21598 -26.88661,-29.72035 -50.81357,-35.83796 -9.92951,-2.53877 -23.49791,-4.19614 -51.2808,-6.26393 l -10.51985,-0.78294 v -5.9925 -5.99249 h 160.92642 160.92641 l -0.41373,6.44765 -0.41372,6.44765 -17.64622,0.8509 c -35.66542,1.71979 -61.58672,10.84523 -75.35731,26.52909 -5.27313,6.00573 -11.40299,18.32481 -13.39321,26.91607 -3.78168,16.32454 -4.16259,42.53547 -4.19644,288.75492 -0.0316,229.60554 -0.2691,257.81152 -2.40066,285.05432 -1.3011,16.6289 -2.31283,34.2062 -2.24832,39.0606 0.21138,15.9011 7.79154,28.1482 24.22482,39.1393 37.6372,25.1733 102.82338,28.8064 150.33692,8.3788 18.6883,-8.0348 31.69769,-16.8486 45.95179,-31.1326 23.6052,-23.6547 36.7544,-49.2932 44.2827,-86.3441 3.7335,-18.3751 3.3294,-58.65118 -0.7824,-77.96668 -6.2095,-29.16969 -16.636,-50.10595 -34.0713,-68.41476 -16.6728,-17.50805 -33.03009,-27.60093 -58.36819,-36.0147 -24.9048,-8.26984 -60.96834,-12.2744 -110.96758,-12.322 l -20.70037,-0.0198 v -7.54583 c 0,-4.15019 0.45812,-7.27112 1.01804,-6.9354 2.56522,1.53807 74.93231,-1.68514 85.7553,-3.81952 72.51501,-14.30045 111.1323,-60.78355 108.2795,-130.33468 -2.0564,-50.14398 -24.2753,-81.61948 -70.53629,-99.92328 -18.8139,-7.44393 -43.33781,-10.57595 -85.49126,-10.91837 l -32.23828,-0.26182 v -9.4426 -9.44255 l 59.3863,0.77176 c 41.05094,0.53346 63.99624,1.39667 74.31774,2.79587 80.87039,10.96293 129.98779,44.65706 144.71429,99.273 4.3345,16.07529 4.4142,46.03342 0.1612,60.79183 -14.7022,51.02154 -58.6476,83.7823 -133.33759,99.40145 -15.7854,3.30105 -15.53,3.56041 5.8747,5.96634 59.68579,6.70875 111.38019,32.18658 137.91259,67.97078 21.3329,28.77183 31.4913,61.18078 31.4913,100.46908 0,30.22918 -5.8429,56.07118 -18.4412,81.55878 -8.7069,17.6156 -16.0549,27.693 -31.2455,42.8523 -51.821,51.714 -144.25929,77.1215 -235.5414,64.7405 -18.76391,-2.5451 -41.79615,-8.2725 -56.07234,-13.9437 -12.36506,-4.912 -31.20471,-14.2185 -36.81963,-18.1885 -2.52079,-1.7823 -4.16806,-2.2582 -4.48859,-1.2965 -2.16875,6.5061 -12.96513,26.4653 -20.22618,37.392 -20.71068,31.1658 -50.79732,55.8334 -83.8639,68.759 -23.68887,9.2601 -54.79421,13.6011 -78.154,10.9075 z"
       id="path5" />
  </g>
</svg>
