<svg xmlns="http://www.w3.org/2000/svg" viewBox="0 0 500 500">
  <style>
      .cls-1 { fill: #fff; }
      .cls-2 { fill: #bfd5d5; }
      .cls-3 { fill: #1c4045; }
      
      @media ( prefers-color-scheme: dark ) {
        .cls-2 { fill: #1c4045; }
        .cls-3 { fill: #bfd5d5; }
		  }
  </style>
  <g>
    <path class="cls-1" d="M183.55,66.12L33.18,212.94c-5.71,4.92-6.19,13.6-1.06,19.12l229.85,247.21c4.86,5.22,12.93,5.66,18.38,1.05,20.52-17.37,63.36-64.32,46.82-143.52,1.14-1.86-96.04-208.57-122.92-266.24-3.72-7.99-14.04-10.18-20.71-4.43Z"/>
    <path class="cls-3" d="M271.7,494.59c-6.54,0-13.05-2.62-17.83-7.78L24.01,239.61c-4.55-4.9-6.85-11.27-6.48-17.94,.37-6.67,3.36-12.75,8.43-17.11L176.32,57.73c5.84-5.03,13.51-6.98,21.04-5.37,7.52,1.62,13.69,6.54,16.94,13.51,14.74,31.63,49.7,104.65,75.2,159.95,14.5,31.45,25.88,56.34,33.84,73.98,9.24,20.49,13.38,29.68,14.66,34.74h.03c17.85,85.51-29.38,136.35-50.51,154.24-4.6,3.89-10.23,5.81-15.82,5.81ZM190.77,74.52L40.41,221.33c-.59,.51-.74,1.13-.76,1.56-.03,.43,.06,1.06,.59,1.63l229.85,247.21c.82,.89,2.16,.95,3.12,.14,18.1-15.32,72.8-50.16,54.26-143.29l-6.06-14.01c-3.92-10.81-60.51-96.31-127.18-239.34-.38-.81-1.04-1.11-1.52-1.21-.49-.11-1.23-.1-1.93,.5Z"/>
  </g>
  <g>
    <path class="cls-3" d="M298.33,94.07l-104.39,104.73c-2.59,2.6-6.8,2.61-9.4,.02-2.6-2.59-2.61-6.8-.02-9.4l104.39-104.73c2.59-2.6,6.8-2.61,9.4-.02,2.6,2.59,2.61,6.8,.02,9.4Z"/>
    <path class="cls-3" d="M246.8,189.99l-30.47,30.57c-2.59,2.6-6.8,2.61-9.4,.02-2.6-2.59-2.61-6.8-.02-9.4l30.47-30.57c2.59-2.6,6.8-2.61,9.4-.02,2.6,2.59,2.61,6.8,.02,9.4Z"/>
  </g>
  <path class="cls-3" d="M380.93,405.24c-2.93,0-5.86-1.22-7.96-3.67-3.63-4.23-2.93-10.7,1.01-14.64l72.6-72.6c6.97-6.97,6.97-18.27,0-25.24l-72.63-72.63c-3.87-3.87-4.61-10.18-1.14-14.42,3.99-4.87,11.18-5.13,15.51-.8l91.59,91.59c4.9,4.9,4.9,12.85,0,17.75l-91.59,91.59c-2.04,2.04-4.72,3.06-7.4,3.06Z"/>
  <path class="cls-2" d="M317.26,193.2c1.15-5.17-6.08-54.5-29.6-91-23.88-37.05-56.2-49.95-96.04-38.38-6.38,1.85-14.7,21.73-13.27,28.2l58.14,284.55c1.17,5.75,8.66,7.29,11.98,2.45,9.55-13.94,38.42-36.49,51.08-27.72,0,0,25.64,6.79,12.1,63.17-.07,.47-11.43,43.2-42.83,58.47-.26,.05-.45,.17-.58,.45l-.23,.51,.77,.88,.48-.23c.11,0,.25,.02,.43,.03,15.35,1.04,26.48-7.33,33.03-14.54,22.45-24.67,43.19-90.99,14.54-266.83Z"/>
  <g>
    <path class="cls-3" d="M323.89,265.66l-96.12,94.26c-2.38,2.34-6.4,2.11-8.97-.51-2.57-2.62-2.72-6.64-.33-8.98l96.12-94.26c2.38-2.34,6.4-2.11,8.97,.51,2.57,2.62,2.72,6.64,.33,8.98Z"/>
    <g>
      <path class="cls-3" d="M216.94,307.89l95.6-93.75c2.37-2.33,6.38-2.09,8.95,.53,2.57,2.62,2.73,6.63,.36,8.96l-95.6,93.75c-2.37,2.33-6.38,2.09-8.95-.53-2.57-2.62-2.73-6.63-.36-8.96Z"/>
      <path class="cls-3" d="M196.49,327.19l1.47-1.44c2.62-2.57,6.83-2.53,9.4,.09,2.57,2.62,2.53,6.83-.09,9.4l-1.47,1.44c-2.62,2.57-6.83,2.53-9.4-.09-2.57-2.62-2.53-6.83,.09-9.4Z"/>
    </g>
    <g>
      <path class="cls-3" d="M175.42,301.07l59.25-59.25c3.16-3.16,7.82-3.61,10.41-1.02,2.59,2.59,2.14,7.26-1.02,10.41l-59.25,59.25c-3.16,3.16-7.82,3.61-10.41,1.02-2.59-2.59-2.14-7.26,1.02-10.41Z"/>
      <path class="cls-3" d="M261.55,214.94l30.52-30.52c2.59-2.59,6.8-2.59,9.4,0,2.59,2.59,2.59,6.8,0,9.4l-30.52,30.52c-2.59,2.59-6.8,2.59-9.4,0-2.59-2.59-2.59-6.8,0-9.4Z"/>
    </g>
    <path class="cls-3" d="M281.49,358.69l-28.97,28.41c-2.46,2.42-6.54,2.25-9.11-.37-2.57-2.62-2.66-6.7-.19-9.12l28.97-28.41c2.46-2.42,6.54-2.25,9.11,.37,2.57,2.62,2.66,6.7,.19,9.12Z"/>
  </g>
  <path class="cls-3" d="M299.64,50.29C272.72,8.51,236.26-6.04,191.34,7.01c-7.19,2.09-11.56,9.45-9.94,16.75l65.56,320.86c1.32,6.48,9.77,8.22,13.51,2.76,10.77-15.72,38.31-26.1,52.58-16.21,0,0,28.92,7.65,13.65,71.23-.08,.53-12.88,48.71-48.29,65.93-.3,.06-.5,.2-.66,.5l-.26,.58,.87,.99,.54-.26c.12,0,.28,.02,.48,.03,17.31,1.18,29.95-8.18,37.25-16.39,76.14-85.64,9.54-362.34-16.99-403.5Z"/>
  <path class="cls-3" d="M154.37,289.97c-1.82-.07-3.51-.85-4.75-2.19l-43.95-47.57c-2.94-3.19-2.74-8.18,.44-11.13l47.58-43.94c1.35-1.24,3.09-1.88,4.91-1.81,2,.08,3.85,1.03,5.1,2.6,2.19,2.78,1.77,6.94-.97,9.46l-37.21,34.37c-1.57,1.45-2.48,3.43-2.57,5.56-.08,2.14,.66,4.18,2.12,5.75l34.38,37.23c2.47,2.67,2.6,6.78,.31,9.37-1.37,1.55-3.34,2.39-5.39,2.31Z"/>
</svg>